<svg width="20" height="20" viewBox="0 0 20 20" fill="none" xmlns="http://www.w3.org/2000/svg">
<path fill-rule="evenodd" clip-rule="evenodd" d="M10 1C5.02944 1 1 5.02944 1 10C1 14.9706 5.02944 19 10 19C14.9706 19 19 14.9706 19 10C19 5.02944 14.9706 1 10 1ZM7.29959 8.23966C7.01774 7.93613 6.54319 7.91855 6.23966 8.20041C5.93613 8.48226 5.91855 8.95681 6.20041 9.26034L9.45041 12.7603C9.59231 12.9132 9.79145 13 10 13C10.2086 13 10.4077 12.9132 10.5496 12.7603L13.7996 9.26034C14.0814 8.95681 14.0639 8.48226 13.7603 8.20041C13.4568 7.91855 12.9823 7.93613 12.7004 8.23966L10 11.1478L7.29959 8.23966Z" fill="black"/>
</svg>
