<svg width="24" height="33" viewBox="0 0 24 33" fill="none" xmlns="http://www.w3.org/2000/svg">
<path d="M14.8952 16.0118C15.9594 17.0051 16.655 18.2124 17.3907 19.393C18.0402 20.4338 17.9287 21.1996 16.927 21.9118C13.3941 24.4216 9.84779 26.9122 6.30003 29.4027C5.46028 29.9915 4.6131 30.5728 3.74214 31.117C3.09115 31.523 2.42232 31.914 1.7193 32.2159C0.754705 32.6307 -0.11774 32.0047 0.0130529 30.9609C0.0843946 30.3944 0.345981 29.825 0.626889 29.3164C2.04034 26.762 3.84172 24.4841 5.73821 22.282C6.47838 21.4226 7.26611 20.6048 8.03155 19.7677C8.09397 19.6993 8.15343 19.6294 8.23666 19.5343C8.12221 19.4748 8.03304 19.4242 7.94089 19.3796C6.79942 18.8235 5.64458 18.2972 4.52095 17.7069C2.7493 16.7761 2.63485 15.3056 4.22369 14.0789C5.36813 13.1957 6.65228 12.5697 8.01223 12.0954C10.3323 11.288 12.6554 10.4851 14.9755 9.67923C15.1345 9.62421 15.2891 9.54987 15.5447 9.44281C15.3069 9.33724 15.1657 9.27331 15.0245 9.21086C13.1117 8.35739 11.5377 7.10544 10.472 5.27806C9.85225 4.21643 9.58769 3.07451 9.87751 1.85081C10.0247 1.22929 10.3293 0.694016 10.8466 0.30148C11.2389 0.00410394 11.6774 -0.0999774 12.1396 0.111159C12.6078 0.32527 12.8412 0.738622 12.801 1.22632C12.6494 3.05815 13.62 4.2655 14.9903 5.25279C16.5331 6.36348 18.2483 7.04596 20.1448 7.24818C20.772 7.31509 21.3739 7.24669 21.9699 6.99987C22.2419 6.88687 22.5808 6.84523 22.8721 6.88835C23.373 6.96121 23.7995 7.21398 23.9511 7.74628C24.1027 8.27859 23.8887 8.71573 23.4874 9.04135C22.7636 9.62718 22.0026 10.1684 21.2758 10.7498C19.9798 11.7861 18.6912 12.8314 17.41 13.8856C16.5777 14.5666 15.7632 15.2744 14.8952 16.0118ZM15.4986 20.5632C14.7525 19.7394 14.0703 18.9797 13.3792 18.2273C12.9868 17.8006 12.5454 17.4155 12.1842 16.9649C11.5258 16.1427 11.6759 15.374 12.5023 14.7302C13.8117 13.7102 15.0973 12.6574 16.3904 11.6181C16.4915 11.5378 16.5792 11.4397 16.6728 11.3505C13.189 12.6381 9.77496 14.0551 6.46055 15.7977C7.48906 16.3836 8.51459 16.8861 9.55202 17.3649C10.0172 17.579 10.5181 17.7173 10.9759 17.9448C11.8349 18.3715 12.0683 19.3038 11.5392 20.1022C11.4128 20.2926 11.2627 20.4725 11.0948 20.6256C8.88765 22.6463 7.09965 25.0164 5.38894 27.4519C5.328 27.5381 5.28044 27.6348 5.18383 27.7998C8.63349 25.3792 12.0014 23.0165 15.4986 20.5632Z" fill="#31B0FF"/>
</svg>
