<svg width="257" height="128" viewBox="0 0 257 128" fill="none" xmlns="http://www.w3.org/2000/svg">
<rect x="0.5" width="256" height="128" rx="16" fill="#141519"/>
<path d="M17.186 32V22.2H20.588C21.1853 22.2 21.708 22.312 22.156 22.536C22.604 22.76 22.954 23.11 23.206 23.586C23.4673 24.0527 23.598 24.664 23.598 25.42C23.598 26.1667 23.458 26.792 23.178 27.296C22.9073 27.7907 22.5433 28.164 22.086 28.416C21.638 28.6587 21.1387 28.78 20.588 28.78H19.146V32H17.186ZM19.146 27.086H20.322C20.574 27.086 20.798 27.0207 20.994 26.89C21.19 26.7593 21.3393 26.5773 21.442 26.344C21.5447 26.1107 21.596 25.8353 21.596 25.518C21.596 25.2007 21.5447 24.93 21.442 24.706C21.3393 24.4727 21.19 24.2953 20.994 24.174C20.798 24.0527 20.574 23.992 20.322 23.992H19.146V27.086ZM24.0271 27.1C24.0271 25.9147 24.2184 24.9487 24.6011 24.202C24.9837 23.4553 25.4831 22.9093 26.0991 22.564C26.7244 22.2093 27.4011 22.032 28.1291 22.032C28.8571 22.032 29.5291 22.2093 30.1451 22.564C30.7704 22.9093 31.2744 23.4553 31.6571 24.202C32.0397 24.9487 32.2311 25.9147 32.2311 27.1C32.2311 28.2853 32.0397 29.2513 31.6571 29.998C31.2744 30.7447 30.7704 31.2953 30.1451 31.65C29.5291 31.9953 28.8571 32.168 28.1291 32.168C27.4011 32.168 26.7244 31.9953 26.0991 31.65C25.4831 31.2953 24.9837 30.7447 24.6011 29.998C24.2184 29.2513 24.0271 28.2853 24.0271 27.1ZM26.0711 27.1C26.0711 27.8093 26.1597 28.402 26.3371 28.878C26.5237 29.354 26.7711 29.7133 27.0791 29.956C27.3964 30.1893 27.7464 30.306 28.1291 30.306C28.5117 30.306 28.8617 30.1893 29.1791 29.956C29.5057 29.7133 29.7624 29.354 29.9491 28.878C30.1357 28.402 30.2291 27.8093 30.2291 27.1C30.2291 26.3813 30.1311 25.784 29.9351 25.308C29.7484 24.832 29.4964 24.4773 29.1791 24.244C28.8617 24.0107 28.5164 23.894 28.1431 23.894C27.7511 23.894 27.3964 24.0153 27.0791 24.258C26.7711 24.5007 26.5237 24.86 26.3371 25.336C26.1597 25.8027 26.0711 26.3907 26.0711 27.1ZM38.8505 29.41C38.8505 29.9887 38.7245 30.4833 38.4725 30.894C38.2298 31.3047 37.8891 31.622 37.4505 31.846C37.0118 32.0607 36.5078 32.168 35.9385 32.168C35.4905 32.168 35.0751 32.112 34.6925 32C34.3098 31.8973 33.9785 31.7713 33.6985 31.622C33.4278 31.4727 33.2271 31.3467 33.0965 31.244V29.326H33.3485C33.6471 29.5967 34.0111 29.8393 34.4405 30.054C34.8791 30.2593 35.2991 30.362 35.7005 30.362C35.9151 30.362 36.1065 30.3293 36.2745 30.264C36.4518 30.1893 36.5918 30.0867 36.6945 29.956C36.7971 29.8253 36.8485 29.6667 36.8485 29.48C36.8485 29.2 36.7645 28.976 36.5965 28.808C36.4378 28.6307 36.1905 28.444 35.8545 28.248L34.6925 27.562C34.4031 27.394 34.1185 27.198 33.8385 26.974C33.5678 26.7407 33.3391 26.4513 33.1525 26.106C32.9751 25.7513 32.8865 25.322 32.8865 24.818C32.8865 24.2207 33.0125 23.7167 33.2645 23.306C33.5258 22.886 33.8665 22.5733 34.2865 22.368C34.7158 22.1533 35.1965 22.046 35.7285 22.046C36.1391 22.046 36.5125 22.088 36.8485 22.172C37.1938 22.256 37.4971 22.368 37.7585 22.508C38.0291 22.6387 38.2531 22.7927 38.4305 22.97V24.888H38.1645C37.8845 24.58 37.5391 24.3327 37.1285 24.146C36.7271 23.95 36.3165 23.852 35.8965 23.852C35.6165 23.852 35.3785 23.922 35.1825 24.062C34.9865 24.202 34.8885 24.4073 34.8885 24.678C34.8885 24.9487 35.0005 25.182 35.2245 25.378C35.4485 25.574 35.7425 25.784 36.1065 26.008L37.2685 26.722C37.5858 26.918 37.8611 27.142 38.0945 27.394C38.3278 27.6367 38.5098 27.9213 38.6405 28.248C38.7805 28.5747 38.8505 28.962 38.8505 29.41ZM45.076 22.2V24.006H43.2V32H41.24V24.006H39.336V22.2H45.076ZM50.9366 22.2V23.992H47.8706V26.386C48.1599 26.274 48.4633 26.1853 48.7806 26.12C49.1073 26.0547 49.4293 26.0127 49.7466 25.994C50.0639 25.9753 50.3579 25.9847 50.6286 26.022V27.744L50.5026 27.828C50.2879 27.7627 50.0359 27.7253 49.7466 27.716C49.4666 27.7067 49.1633 27.7253 48.8366 27.772C48.5099 27.8187 48.1879 27.898 47.8706 28.01V30.208H50.9366V32H45.9106V22.2H50.9366ZM54.6966 22.2C55.4713 22.2 56.1666 22.3773 56.7826 22.732C57.3986 23.0773 57.8886 23.6093 58.2526 24.328C58.6166 25.0467 58.7986 25.9707 58.7986 27.1C58.7986 28.22 58.6166 29.144 58.2526 29.872C57.8886 30.5907 57.3986 31.1273 56.7826 31.482C56.1666 31.8273 55.4713 32 54.6966 32H51.9946V22.2H54.6966ZM54.6686 30.138C55.3033 30.138 55.8166 29.872 56.2086 29.34C56.6006 28.808 56.7966 28.0613 56.7966 27.1C56.7966 26.12 56.5959 25.3687 56.1946 24.846C55.8026 24.3233 55.2939 24.062 54.6686 24.062H53.9546V30.138H54.6686Z" fill="#6D6F79"/>
<path d="M67.714 31.14C66.9767 31.14 66.3607 31.0233 65.866 30.79C65.3713 30.5473 64.984 30.174 64.704 29.67C64.424 29.166 64.242 28.5127 64.158 27.71H65.544V27.948C65.544 28.6387 65.726 29.1613 66.09 29.516C66.4633 29.8613 67.0047 30.034 67.714 30.034C68.3767 30.034 68.8947 29.8987 69.268 29.628C69.6507 29.348 69.842 28.956 69.842 28.452V28.088C69.842 27.584 69.716 27.206 69.464 26.954C69.212 26.6927 68.8387 26.562 68.344 26.562H66.44V25.582H68.344C68.82 25.582 69.1793 25.4607 69.422 25.218C69.674 24.966 69.8 24.602 69.8 24.126V23.818C69.8 23.342 69.6133 22.9733 69.24 22.712C68.876 22.4413 68.3673 22.306 67.714 22.306C67.0047 22.306 66.468 22.4787 66.104 22.824C65.7493 23.1693 65.572 23.692 65.572 24.392V24.63H64.2C64.2747 23.8273 64.4473 23.174 64.718 22.67C64.998 22.166 65.3807 21.7973 65.866 21.564C66.3607 21.3213 66.9767 21.2 67.714 21.2C68.442 21.2 69.0627 21.3073 69.576 21.522C70.0987 21.7273 70.4953 22.0307 70.766 22.432C71.046 22.8333 71.186 23.3233 71.186 23.902C71.186 24.49 71.046 24.952 70.766 25.288C70.486 25.624 70.0893 25.8247 69.576 25.89V26.254C70.108 26.31 70.514 26.5153 70.794 26.87C71.0833 27.2247 71.228 27.7147 71.228 28.34C71.228 28.9373 71.088 29.446 70.808 29.866C70.528 30.2767 70.1267 30.594 69.604 30.818C69.0813 31.0327 68.4513 31.14 67.714 31.14ZM75.6563 31.14C75.0683 31.14 74.5503 30.9907 74.1023 30.692C73.6636 30.384 73.3276 29.9407 73.0943 29.362C72.8609 28.7833 72.7443 28.0833 72.7443 27.262C72.7443 26.4313 72.8609 25.7313 73.0943 25.162C73.3276 24.5833 73.6636 24.1447 74.1023 23.846C74.5409 23.538 75.0589 23.384 75.6563 23.384C76.1976 23.384 76.6409 23.5007 76.9863 23.734C77.3316 23.9673 77.6069 24.3313 77.8123 24.826H78.1623C78.1156 24.3873 78.0783 24.0373 78.0503 23.776C78.0316 23.5147 78.0223 23.2767 78.0223 23.062V22.348H76.9163V21.34H79.3383V29.992H80.3183V31H79.1143C78.5263 31 78.2323 30.7013 78.2323 30.104V29.614H77.8683C77.6629 30.118 77.3783 30.5007 77.0143 30.762C76.6503 31.014 76.1976 31.14 75.6563 31.14ZM76.0903 30.062C76.7529 30.062 77.2383 29.8707 77.5463 29.488C77.8636 29.096 78.0223 28.4893 78.0223 27.668V26.856C78.0223 26.0253 77.8636 25.4187 77.5463 25.036C77.2383 24.6533 76.7529 24.462 76.0903 24.462C75.4183 24.462 74.9236 24.6533 74.6063 25.036C74.2983 25.4187 74.1443 26.0253 74.1443 26.856V27.668C74.1443 28.4893 74.2983 29.096 74.6063 29.488C74.9236 29.8707 75.4183 30.062 76.0903 30.062ZM86.8531 31.14C86.1158 31.14 85.5371 30.958 85.1171 30.594C84.6971 30.2207 84.4871 29.7073 84.4871 29.054C84.4871 28.382 84.7064 27.8593 85.1451 27.486C85.5931 27.1127 86.2464 26.884 87.1051 26.8L89.1911 26.59V27.486L87.4831 27.654C86.9138 27.71 86.4984 27.836 86.2371 28.032C85.9758 28.2187 85.8451 28.494 85.8451 28.858V28.942C85.8451 29.3153 85.9758 29.6 86.2371 29.796C86.5078 29.9827 86.8904 30.076 87.3851 30.076C87.9918 30.076 88.4444 29.9453 88.7431 29.684C89.0418 29.4133 89.1911 29.0073 89.1911 28.466V27.304V27.108V26.226C89.1911 25.61 89.0651 25.162 88.8131 24.882C88.5704 24.602 88.1738 24.462 87.6231 24.462C87.2311 24.462 86.9138 24.5273 86.6711 24.658C86.4378 24.7793 86.2651 24.938 86.1531 25.134C86.0504 25.33 85.9991 25.5447 85.9991 25.778V25.834H84.6551C84.7858 25.0127 85.0984 24.4013 85.5931 24C86.0971 23.5893 86.7831 23.384 87.6511 23.384C88.5938 23.384 89.3078 23.622 89.7931 24.098C90.2784 24.5647 90.5211 25.2553 90.5211 26.17V29.992H91.4871V31H90.2831C89.6951 31 89.4011 30.706 89.4011 30.118V29.74H89.0511C88.8644 30.216 88.5938 30.5707 88.2391 30.804C87.8938 31.028 87.4318 31.14 86.8531 31.14ZM92.3514 32.848V31.84H96.6354C96.934 31.84 97.144 31.7933 97.2654 31.7C97.396 31.6067 97.4614 31.4527 97.4614 31.238C97.4614 31.014 97.396 30.8553 97.2654 30.762C97.144 30.6687 96.934 30.622 96.6354 30.622H93.8914C93.3874 30.622 93.0047 30.5333 92.7434 30.356C92.4914 30.1693 92.3654 29.9033 92.3654 29.558C92.3654 29.25 92.4634 29.0073 92.6594 28.83C92.8647 28.6527 93.1587 28.5453 93.5414 28.508V28.186C93.1307 28.018 92.8227 27.752 92.6174 27.388C92.412 27.0147 92.3094 26.562 92.3094 26.03C92.3094 25.1807 92.5754 24.5273 93.1074 24.07C93.6394 23.6127 94.3814 23.384 95.3334 23.384C96.2854 23.384 97.0227 23.6127 97.5454 24.07C98.0774 24.5273 98.3434 25.1807 98.3434 26.03C98.3434 26.8513 98.082 27.486 97.5594 27.934C97.0367 28.3727 96.304 28.592 95.3614 28.592H94.2834C94.0314 28.592 93.8494 28.6293 93.7374 28.704C93.6347 28.7787 93.5834 28.9 93.5834 29.068C93.5834 29.236 93.6347 29.3573 93.7374 29.432C93.8494 29.5067 94.0314 29.544 94.2834 29.544H96.9154C97.522 29.544 97.984 29.6793 98.3014 29.95C98.628 30.2207 98.7914 30.6173 98.7914 31.14C98.7914 31.7 98.6094 32.1247 98.2454 32.414C97.8907 32.7033 97.3774 32.848 96.7054 32.848H92.3514ZM95.3334 27.612C95.9027 27.612 96.3274 27.4953 96.6074 27.262C96.8967 27.0193 97.0414 26.6413 97.0414 26.128V25.904C97.0414 25.3907 96.8967 25.0173 96.6074 24.784C96.3274 24.5413 95.9027 24.42 95.3334 24.42C94.764 24.42 94.3347 24.5413 94.0454 24.784C93.756 25.0173 93.6114 25.3907 93.6114 25.904V26.128C93.6114 26.6413 93.756 27.0193 94.0454 27.262C94.3347 27.4953 94.764 27.612 95.3334 27.612ZM96.5234 23.874C96.5234 23.4167 96.6214 23.076 96.8174 22.852C97.0134 22.628 97.3167 22.516 97.7274 22.516H98.7494V23.524H97.3214C96.9667 23.524 96.7894 23.7293 96.7894 24.14L96.5234 23.874ZM103.244 31.14C102.526 31.14 101.91 30.9907 101.396 30.692C100.883 30.3933 100.491 29.9547 100.22 29.376C99.9496 28.7973 99.8143 28.0927 99.8143 27.262C99.8143 26.422 99.9496 25.7173 100.22 25.148C100.491 24.5693 100.883 24.1307 101.396 23.832C101.91 23.5333 102.526 23.384 103.244 23.384C103.972 23.384 104.588 23.5333 105.092 23.832C105.596 24.1307 105.984 24.5693 106.254 25.148C106.525 25.7173 106.66 26.422 106.66 27.262C106.66 28.0927 106.525 28.7973 106.254 29.376C105.984 29.9547 105.596 30.3933 105.092 30.692C104.588 30.9907 103.972 31.14 103.244 31.14ZM103.244 30.062C103.935 30.062 104.444 29.866 104.77 29.474C105.097 29.082 105.26 28.4753 105.26 27.654V26.87C105.26 26.0487 105.097 25.442 104.77 25.05C104.444 24.658 103.935 24.462 103.244 24.462C102.544 24.462 102.031 24.658 101.704 25.05C101.378 25.442 101.214 26.0487 101.214 26.87V27.654C101.214 28.4753 101.378 29.082 101.704 29.474C102.031 29.866 102.544 30.062 103.244 30.062Z" fill="#9698A2"/>
<g clip-path="url(#clip0_107_56251)">
<path d="M230.5 17.6667C232.764 17.6667 233.047 17.6751 233.935 17.7167C234.823 17.7584 235.427 17.8976 235.958 18.1042C236.508 18.3159 236.972 18.6026 237.435 19.0651C237.859 19.4817 238.187 19.9856 238.396 20.5417C238.602 21.0726 238.742 21.6776 238.783 22.5651C238.823 23.4534 238.833 23.7359 238.833 26.0001C238.833 28.2642 238.825 28.5467 238.783 29.4351C238.742 30.3226 238.602 30.9267 238.396 31.4584C238.187 32.0149 237.859 32.5189 237.435 32.9351C237.018 33.3587 236.514 33.6865 235.958 33.8959C235.428 34.1017 234.823 34.2417 233.935 34.2834C233.047 34.3226 232.764 34.3334 230.5 34.3334C228.236 34.3334 227.953 34.3251 227.065 34.2834C226.178 34.2417 225.573 34.1017 225.042 33.8959C224.485 33.6871 223.981 33.3592 223.565 32.9351C223.141 32.5186 222.813 32.0146 222.604 31.4584C222.398 30.9276 222.258 30.3226 222.217 29.4351C222.178 28.5467 222.167 28.2642 222.167 26.0001C222.167 23.7359 222.175 23.4534 222.217 22.5651C222.258 21.6767 222.398 21.0734 222.604 20.5417C222.813 19.9852 223.141 19.4812 223.565 19.0651C223.981 18.6411 224.485 18.3132 225.042 18.1042C225.573 17.8976 226.177 17.7584 227.065 17.7167C227.953 17.6776 228.236 17.6667 230.5 17.6667ZM230.5 21.8334C229.395 21.8334 228.335 22.2724 227.554 23.0538C226.772 23.8352 226.333 24.895 226.333 26.0001C226.333 27.1052 226.772 28.165 227.554 28.9464C228.335 29.7278 229.395 30.1667 230.5 30.1667C231.605 30.1667 232.665 29.7278 233.446 28.9464C234.228 28.165 234.667 27.1052 234.667 26.0001C234.667 24.895 234.228 23.8352 233.446 23.0538C232.665 22.2724 231.605 21.8334 230.5 21.8334ZM235.917 21.6251C235.917 21.3488 235.807 21.0839 235.612 20.8885C235.416 20.6932 235.151 20.5834 234.875 20.5834C234.599 20.5834 234.334 20.6932 234.138 20.8885C233.943 21.0839 233.833 21.3488 233.833 21.6251C233.833 21.9013 233.943 22.1663 234.138 22.3617C234.334 22.557 234.599 22.6667 234.875 22.6667C235.151 22.6667 235.416 22.557 235.612 22.3617C235.807 22.1663 235.917 21.9013 235.917 21.6251ZM230.5 23.5001C231.163 23.5001 231.799 23.7635 232.268 24.2323C232.737 24.7012 233 25.337 233 26.0001C233 26.6631 232.737 27.299 232.268 27.7678C231.799 28.2367 231.163 28.5001 230.5 28.5001C229.837 28.5001 229.201 28.2367 228.732 27.7678C228.263 27.299 228 26.6631 228 26.0001C228 25.337 228.263 24.7012 228.732 24.2323C229.201 23.7635 229.837 23.5001 230.5 23.5001Z" fill="#9698A2"/>
</g>
<path d="M23.01 52.14V50.39H19.202V53.582H22.772V54.562H19.202V57.95H23.066V56.144H24.214V59H17.844V50.39H16.724V49.34H24.158V52.14H23.01ZM25.4102 59V57.992H26.3902L27.9862 54.632L27.9722 55.402L26.4882 52.532H25.5082V51.524H27.4822L28.9102 54.548H29.2742L30.6882 51.524H32.6202V52.532H31.6402L30.1562 55.402V54.632L31.7382 57.992H32.7042V59H30.7302L29.2182 55.724H28.8542L27.3422 59H25.4102ZM34.4127 60.848V52.532H33.4327V51.524H35.5187V52.91H35.8827C36.0973 52.3967 36.382 52.014 36.7367 51.762C37.1007 51.51 37.5533 51.384 38.0947 51.384C38.7013 51.384 39.2193 51.538 39.6487 51.846C40.0873 52.1447 40.4233 52.5833 40.6567 53.162C40.89 53.7313 41.0067 54.4313 41.0067 55.262C41.0067 56.0833 40.89 56.7833 40.6567 57.362C40.4233 57.9407 40.0873 58.384 39.6487 58.692C39.2193 58.9907 38.7013 59.14 38.0947 59.14C37.5627 59.14 37.1193 59.0233 36.7647 58.79C36.4193 58.5567 36.1487 58.1927 35.9527 57.698H35.5887C35.6353 58.1367 35.668 58.4867 35.6867 58.748C35.7147 59.0093 35.7287 59.2427 35.7287 59.448V60.848H34.4127ZM37.6607 58.062C38.3327 58.062 38.8273 57.8707 39.1447 57.488C39.462 57.096 39.6207 56.4893 39.6207 55.668V54.856C39.6207 54.0253 39.462 53.4187 39.1447 53.036C38.8273 52.6533 38.3327 52.462 37.6607 52.462C36.998 52.462 36.508 52.6533 36.1907 53.036C35.8827 53.4187 35.7287 54.0253 35.7287 54.856V55.668C35.7287 56.4893 35.8827 57.096 36.1907 57.488C36.508 57.8707 36.998 58.062 37.6607 58.062ZM42.9016 59V50.348H41.7956V49.34H44.2176V59H42.9016ZM49.504 59.14C48.7853 59.14 48.1693 58.9907 47.656 58.692C47.1427 58.3933 46.7507 57.9547 46.48 57.376C46.2093 56.7973 46.074 56.0927 46.074 55.262C46.074 54.422 46.2093 53.7173 46.48 53.148C46.7507 52.5693 47.1427 52.1307 47.656 51.832C48.1693 51.5333 48.7853 51.384 49.504 51.384C50.232 51.384 50.848 51.5333 51.352 51.832C51.856 52.1307 52.2433 52.5693 52.514 53.148C52.7847 53.7173 52.92 54.422 52.92 55.262C52.92 56.0927 52.7847 56.7973 52.514 57.376C52.2433 57.9547 51.856 58.3933 51.352 58.692C50.848 58.9907 50.232 59.14 49.504 59.14ZM49.504 58.062C50.1947 58.062 50.7033 57.866 51.03 57.474C51.3567 57.082 51.52 56.4753 51.52 55.654V54.87C51.52 54.0487 51.3567 53.442 51.03 53.05C50.7033 52.658 50.1947 52.462 49.504 52.462C48.804 52.462 48.2907 52.658 47.964 53.05C47.6373 53.442 47.474 54.0487 47.474 54.87V55.654C47.474 56.4753 47.6373 57.082 47.964 57.474C48.2907 57.866 48.804 58.062 49.504 58.062ZM54.8521 59V52.532H53.8721V51.524H55.9581V52.868H56.3221C56.5088 52.3827 56.7608 52.0233 57.0781 51.79C57.4048 51.5567 57.8248 51.44 58.3381 51.44H59.4161V52.532H57.8201C57.2508 52.532 56.8308 52.686 56.5601 52.994C56.2895 53.302 56.1541 53.7967 56.1541 54.478V59H54.8521ZM61.1982 59V52.532H60.0922V51.524H62.5282V59H61.1982ZM61.0722 50.614V49.34H62.6122V50.614H61.0722ZM64.9146 59V52.532H63.9346V51.524H66.0206V52.812H66.3846C66.5713 52.3267 66.8326 51.9673 67.1686 51.734C67.514 51.5007 67.9526 51.384 68.4846 51.384C69.2593 51.384 69.8473 51.6173 70.2486 52.084C70.6593 52.5507 70.8646 53.2367 70.8646 54.142V57.992H71.8306V59H69.5486V54.422C69.5486 53.7407 69.4133 53.246 69.1426 52.938C68.8813 52.6207 68.4613 52.462 67.8826 52.462C67.3133 52.462 66.8933 52.6207 66.6226 52.938C66.352 53.246 66.2166 53.7407 66.2166 54.422V59H64.9146ZM72.8182 60.848V59.84H77.1022C77.4008 59.84 77.6108 59.7933 77.7322 59.7C77.8628 59.6067 77.9282 59.4527 77.9282 59.238C77.9282 59.014 77.8628 58.8553 77.7322 58.762C77.6108 58.6687 77.4008 58.622 77.1022 58.622H74.3582C73.8542 58.622 73.4715 58.5333 73.2102 58.356C72.9582 58.1693 72.8322 57.9033 72.8322 57.558C72.8322 57.25 72.9302 57.0073 73.1262 56.83C73.3315 56.6527 73.6255 56.5453 74.0082 56.508V56.186C73.5975 56.018 73.2895 55.752 73.0842 55.388C72.8788 55.0147 72.7762 54.562 72.7762 54.03C72.7762 53.1807 73.0422 52.5273 73.5742 52.07C74.1062 51.6127 74.8482 51.384 75.8002 51.384C76.7522 51.384 77.4895 51.6127 78.0122 52.07C78.5442 52.5273 78.8102 53.1807 78.8102 54.03C78.8102 54.8513 78.5488 55.486 78.0262 55.934C77.5035 56.3727 76.7708 56.592 75.8282 56.592H74.7502C74.4982 56.592 74.3162 56.6293 74.2042 56.704C74.1015 56.7787 74.0502 56.9 74.0502 57.068C74.0502 57.236 74.1015 57.3573 74.2042 57.432C74.3162 57.5067 74.4982 57.544 74.7502 57.544H77.3822C77.9888 57.544 78.4508 57.6793 78.7682 57.95C79.0948 58.2207 79.2582 58.6173 79.2582 59.14C79.2582 59.7 79.0762 60.1247 78.7122 60.414C78.3575 60.7033 77.8442 60.848 77.1722 60.848H72.8182ZM75.8002 55.612C76.3695 55.612 76.7942 55.4953 77.0742 55.262C77.3635 55.0193 77.5082 54.6413 77.5082 54.128V53.904C77.5082 53.3907 77.3635 53.0173 77.0742 52.784C76.7942 52.5413 76.3695 52.42 75.8002 52.42C75.2308 52.42 74.8015 52.5413 74.5122 52.784C74.2228 53.0173 74.0782 53.3907 74.0782 53.904V54.128C74.0782 54.6413 74.2228 55.0193 74.5122 55.262C74.8015 55.4953 75.2308 55.612 75.8002 55.612ZM76.9902 51.874C76.9902 51.4167 77.0882 51.076 77.2842 50.852C77.4802 50.628 77.7835 50.516 78.1942 50.516H79.2162V51.524H77.7882C77.4335 51.524 77.2562 51.7293 77.2562 52.14L76.9902 51.874ZM85.491 59C84.903 59 84.609 58.7013 84.609 58.104V51.524L85.085 50.026H85.925V57.992H87.675V59H85.491ZM83.251 52.532V51.524H87.675V52.532H83.251ZM89.2323 59V50.348H88.2663V49.34H90.5623V50.95C90.5623 51.1647 90.5483 51.4027 90.5203 51.664C90.5016 51.9253 90.469 52.2753 90.4223 52.714H90.7863C90.9543 52.2567 91.2016 51.9207 91.5283 51.706C91.8643 51.4913 92.2936 51.384 92.8163 51.384C93.6003 51.384 94.1883 51.6173 94.5803 52.084C94.9816 52.5507 95.1823 53.2367 95.1823 54.142V57.992H96.1623V59H93.8803V54.422C93.8803 53.7407 93.745 53.246 93.4743 52.938C93.2036 52.6207 92.7836 52.462 92.2143 52.462C91.645 52.462 91.225 52.6207 90.9543 52.938C90.693 53.246 90.5623 53.7407 90.5623 54.422V59H89.2323ZM100.458 59.14C99.7398 59.14 99.1238 58.9907 98.6104 58.692C98.1064 58.3933 97.7191 57.9547 97.4484 57.376C97.1871 56.7973 97.0564 56.0927 97.0564 55.262C97.0564 54.422 97.1871 53.7173 97.4484 53.148C97.7191 52.5693 98.1064 52.1307 98.6104 51.832C99.1238 51.5333 99.7398 51.384 100.458 51.384C101.149 51.384 101.737 51.524 102.222 51.804C102.708 52.0747 103.076 52.476 103.328 53.008C103.59 53.54 103.72 54.198 103.72 54.982V55.472H97.9524V54.576H103.202L102.432 55.178V54.856C102.432 54.016 102.274 53.4047 101.956 53.022C101.639 52.63 101.14 52.434 100.458 52.434C99.7678 52.434 99.2591 52.63 98.9324 53.022C98.6151 53.4047 98.4564 54.016 98.4564 54.856V55.654C98.4564 56.4753 98.6151 57.082 98.9324 57.474C99.2591 57.866 99.7678 58.062 100.458 58.062C100.906 58.062 101.256 57.992 101.508 57.852C101.77 57.7027 101.956 57.5253 102.068 57.32C102.18 57.1147 102.236 56.9233 102.236 56.746V56.69H103.608C103.44 57.4927 103.086 58.104 102.544 58.524C102.012 58.9347 101.317 59.14 100.458 59.14ZM108.896 59V50.348H107.79V49.34H110.212V59H108.896ZM112.782 59V52.532H111.676V51.524H114.112V59H112.782ZM112.656 50.614V49.34H114.196V50.614H112.656ZM120.811 54.31C120.811 53.6847 120.689 53.2227 120.447 52.924C120.204 52.616 119.826 52.462 119.313 52.462C118.809 52.462 118.431 52.616 118.179 52.924C117.927 53.2227 117.801 53.6847 117.801 54.31V59H116.499V52.532H115.519V51.524H117.605V52.812H117.969C118.137 52.3267 118.379 51.9673 118.697 51.734C119.014 51.5007 119.42 51.384 119.915 51.384C120.419 51.384 120.829 51.5007 121.147 51.734C121.473 51.9673 121.721 52.3267 121.889 52.812H122.239C122.416 52.3267 122.663 51.9673 122.981 51.734C123.298 51.5007 123.718 51.384 124.241 51.384C124.969 51.384 125.519 51.6173 125.893 52.084C126.275 52.5507 126.467 53.2367 126.467 54.142V57.992H127.433V59H125.137V54.31C125.137 53.6847 125.015 53.2227 124.773 52.924C124.53 52.616 124.152 52.462 123.639 52.462C123.125 52.462 122.747 52.616 122.505 52.924C122.262 53.2227 122.141 53.6847 122.141 54.31V59H120.811V54.31ZM129.038 59V52.532H127.932V51.524H130.368V59H129.038ZM128.912 50.614V49.34H130.452V50.614H128.912ZM133.93 59C133.342 59 133.048 58.7013 133.048 58.104V51.524L133.524 50.026H134.364V57.992H136.114V59H133.93ZM131.69 52.532V51.524H136.114V52.532H131.69ZM140.332 59.14C139.389 59.14 138.666 58.944 138.162 58.552C137.658 58.16 137.336 57.5393 137.196 56.69H138.526V56.746C138.526 56.97 138.582 57.1847 138.694 57.39C138.806 57.5953 138.992 57.7633 139.254 57.894C139.515 58.0247 139.874 58.09 140.332 58.09C140.882 58.09 141.312 57.9967 141.62 57.81C141.928 57.614 142.082 57.3387 142.082 56.984C142.082 56.7133 141.988 56.508 141.802 56.368C141.615 56.2187 141.293 56.0927 140.836 55.99L139.296 55.654C138.586 55.486 138.068 55.2433 137.742 54.926C137.424 54.6087 137.266 54.184 137.266 53.652C137.266 52.924 137.527 52.364 138.05 51.972C138.582 51.58 139.328 51.384 140.29 51.384C141.214 51.384 141.928 51.58 142.432 51.972C142.936 52.364 143.258 52.9847 143.398 53.834H142.068V53.778C142.068 53.554 142.016 53.3393 141.914 53.134C141.811 52.9287 141.629 52.7607 141.368 52.63C141.106 52.4993 140.747 52.434 140.29 52.434C139.748 52.434 139.328 52.5273 139.03 52.714C138.731 52.9007 138.582 53.176 138.582 53.54C138.582 53.8013 138.675 54.0067 138.862 54.156C139.048 54.3053 139.361 54.4313 139.8 54.534L141.34 54.87C142.058 55.038 142.581 55.276 142.908 55.584C143.234 55.892 143.398 56.3167 143.398 56.858C143.398 57.586 143.132 58.1507 142.6 58.552C142.068 58.944 141.312 59.14 140.332 59.14ZM151.442 59.14C150.723 59.14 150.107 58.9907 149.594 58.692C149.08 58.3933 148.688 57.9547 148.418 57.376C148.147 56.7973 148.012 56.0927 148.012 55.262C148.012 54.422 148.147 53.7173 148.418 53.148C148.688 52.5693 149.08 52.1307 149.594 51.832C150.107 51.5333 150.723 51.384 151.442 51.384C152.17 51.384 152.786 51.5333 153.29 51.832C153.794 52.1307 154.181 52.5693 154.452 53.148C154.722 53.7173 154.858 54.422 154.858 55.262C154.858 56.0927 154.722 56.7973 154.452 57.376C154.181 57.9547 153.794 58.3933 153.29 58.692C152.786 58.9907 152.17 59.14 151.442 59.14ZM151.442 58.062C152.132 58.062 152.641 57.866 152.968 57.474C153.294 57.082 153.458 56.4753 153.458 55.654V54.87C153.458 54.0487 153.294 53.442 152.968 53.05C152.641 52.658 152.132 52.462 151.442 52.462C150.742 52.462 150.228 52.658 149.902 53.05C149.575 53.442 149.412 54.0487 149.412 54.87V55.654C149.412 56.4753 149.575 57.082 149.902 57.474C150.228 57.866 150.742 58.062 151.442 58.062ZM157.197 50.236C157.197 49.6387 157.491 49.34 158.079 49.34H160.375V50.348H158.513V59H157.197V50.236ZM155.993 59V57.992H160.165V59H155.993ZM155.895 52.532V51.524H160.375V52.532H155.895ZM164.344 59L167.144 49.34H169.594L172.408 59H170.966L168.53 50.502H168.152L165.702 59H164.344ZM165.87 56.564L165.996 55.57H170.672L170.798 56.564H165.87ZM165.73 50.39V49.34H167.914V50.39H165.73ZM173.358 59V57.95H174.576V50.39H173.358V49.34H177.138V50.39H175.934V57.95H177.138V59H173.358ZM182.44 59V52.532H181.334V51.524H183.77V59H182.44ZM182.314 50.614V49.34H183.854V50.614H182.314ZM186.157 59V52.532H185.177V51.524H187.263V52.812H187.627C187.813 52.3267 188.075 51.9673 188.411 51.734C188.756 51.5007 189.195 51.384 189.727 51.384C190.501 51.384 191.089 51.6173 191.491 52.084C191.901 52.5507 192.107 53.2367 192.107 54.142V57.992H193.073V59H190.791V54.422C190.791 53.7407 190.655 53.246 190.385 52.938C190.123 52.6207 189.703 52.462 189.125 52.462C188.555 52.462 188.135 52.6207 187.865 52.938C187.594 53.246 187.459 53.7407 187.459 54.422V59H186.157ZM20.084 79.14C19.496 79.14 18.978 78.9907 18.53 78.692C18.0913 78.384 17.7553 77.9407 17.522 77.362C17.2887 76.7833 17.172 76.0833 17.172 75.262C17.172 74.4313 17.2887 73.7313 17.522 73.162C17.7553 72.5833 18.0913 72.1447 18.53 71.846C18.9687 71.538 19.4867 71.384 20.084 71.384C20.6253 71.384 21.0687 71.5007 21.414 71.734C21.7593 71.9673 22.0347 72.3313 22.24 72.826H22.59C22.5433 72.3873 22.506 72.0373 22.478 71.776C22.4593 71.5147 22.45 71.2767 22.45 71.062V70.348H21.344V69.34H23.766V77.992H24.746V79H23.542C22.954 79 22.66 78.7013 22.66 78.104V77.614H22.296C22.0907 78.118 21.806 78.5007 21.442 78.762C21.078 79.014 20.6253 79.14 20.084 79.14ZM20.518 78.062C21.1807 78.062 21.666 77.8707 21.974 77.488C22.2913 77.096 22.45 76.4893 22.45 75.668V74.856C22.45 74.0253 22.2913 73.4187 21.974 73.036C21.666 72.6533 21.1807 72.462 20.518 72.462C19.846 72.462 19.3513 72.6533 19.034 73.036C18.726 73.4187 18.572 74.0253 18.572 74.856V75.668C18.572 76.4893 18.726 77.096 19.034 77.488C19.3513 77.8707 19.846 78.062 20.518 78.062ZM29.0502 79.14C28.3316 79.14 27.7156 78.9907 27.2022 78.692C26.6982 78.3933 26.3109 77.9547 26.0402 77.376C25.7789 76.7973 25.6482 76.0927 25.6482 75.262C25.6482 74.422 25.7789 73.7173 26.0402 73.148C26.3109 72.5693 26.6982 72.1307 27.2022 71.832C27.7156 71.5333 28.3316 71.384 29.0502 71.384C29.7409 71.384 30.3289 71.524 30.8142 71.804C31.2996 72.0747 31.6682 72.476 31.9202 73.008C32.1816 73.54 32.3122 74.198 32.3122 74.982V75.472H26.5442V74.576H31.7942L31.0242 75.178V74.856C31.0242 74.016 30.8656 73.4047 30.5482 73.022C30.2309 72.63 29.7316 72.434 29.0502 72.434C28.3596 72.434 27.8509 72.63 27.5242 73.022C27.2069 73.4047 27.0482 74.016 27.0482 74.856V75.654C27.0482 76.4753 27.2069 77.082 27.5242 77.474C27.8509 77.866 28.3596 78.062 29.0502 78.062C29.4982 78.062 29.8482 77.992 30.1002 77.852C30.3616 77.7027 30.5482 77.5253 30.6602 77.32C30.7722 77.1147 30.8282 76.9233 30.8282 76.746V76.69H32.2002C32.0322 77.4927 31.6776 78.104 31.1362 78.524C30.6042 78.9347 29.9089 79.14 29.0502 79.14ZM36.6989 79.14C35.7563 79.14 35.0329 78.944 34.5289 78.552C34.0249 78.16 33.7029 77.5393 33.5629 76.69H34.8929V76.746C34.8929 76.97 34.9489 77.1847 35.0609 77.39C35.1729 77.5953 35.3596 77.7633 35.6209 77.894C35.8823 78.0247 36.2416 78.09 36.6989 78.09C37.2496 78.09 37.6789 77.9967 37.9869 77.81C38.2949 77.614 38.4489 77.3387 38.4489 76.984C38.4489 76.7133 38.3556 76.508 38.1689 76.368C37.9823 76.2187 37.6603 76.0927 37.2029 75.99L35.6629 75.654C34.9536 75.486 34.4356 75.2433 34.1089 74.926C33.7916 74.6087 33.6329 74.184 33.6329 73.652C33.6329 72.924 33.8943 72.364 34.4169 71.972C34.9489 71.58 35.6956 71.384 36.6569 71.384C37.5809 71.384 38.2949 71.58 38.7989 71.972C39.3029 72.364 39.6249 72.9847 39.7649 73.834H38.4349V73.778C38.4349 73.554 38.3836 73.3393 38.2809 73.134C38.1783 72.9287 37.9963 72.7607 37.7349 72.63C37.4736 72.4993 37.1143 72.434 36.6569 72.434C36.1156 72.434 35.6956 72.5273 35.3969 72.714C35.0983 72.9007 34.9489 73.176 34.9489 73.54C34.9489 73.8013 35.0423 74.0067 35.2289 74.156C35.4156 74.3053 35.7283 74.4313 36.1669 74.534L37.7069 74.87C38.4256 75.038 38.9483 75.276 39.2749 75.584C39.6016 75.892 39.7649 76.3167 39.7649 76.858C39.7649 77.586 39.4989 78.1507 38.9669 78.552C38.4349 78.944 37.6789 79.14 36.6989 79.14ZM41.7841 79V72.532H40.6781V71.524H43.1141V79H41.7841ZM41.6581 70.614V69.34H43.1981V70.614H41.6581ZM44.9686 80.848V79.84H49.2526C49.5512 79.84 49.7612 79.7933 49.8826 79.7C50.0132 79.6067 50.0786 79.4527 50.0786 79.238C50.0786 79.014 50.0132 78.8553 49.8826 78.762C49.7612 78.6687 49.5512 78.622 49.2526 78.622H46.5086C46.0046 78.622 45.6219 78.5333 45.3606 78.356C45.1086 78.1693 44.9826 77.9033 44.9826 77.558C44.9826 77.25 45.0806 77.0073 45.2766 76.83C45.4819 76.6527 45.7759 76.5453 46.1586 76.508V76.186C45.7479 76.018 45.4399 75.752 45.2346 75.388C45.0292 75.0147 44.9266 74.562 44.9266 74.03C44.9266 73.1807 45.1926 72.5273 45.7246 72.07C46.2566 71.6127 46.9986 71.384 47.9506 71.384C48.9026 71.384 49.6399 71.6127 50.1626 72.07C50.6946 72.5273 50.9606 73.1807 50.9606 74.03C50.9606 74.8513 50.6992 75.486 50.1766 75.934C49.6539 76.3727 48.9212 76.592 47.9786 76.592H46.9006C46.6486 76.592 46.4666 76.6293 46.3546 76.704C46.2519 76.7787 46.2006 76.9 46.2006 77.068C46.2006 77.236 46.2519 77.3573 46.3546 77.432C46.4666 77.5067 46.6486 77.544 46.9006 77.544H49.5326C50.1392 77.544 50.6012 77.6793 50.9186 77.95C51.2452 78.2207 51.4086 78.6173 51.4086 79.14C51.4086 79.7 51.2266 80.1247 50.8626 80.414C50.5079 80.7033 49.9946 80.848 49.3226 80.848H44.9686ZM47.9506 75.612C48.5199 75.612 48.9446 75.4953 49.2246 75.262C49.5139 75.0193 49.6586 74.6413 49.6586 74.128V73.904C49.6586 73.3907 49.5139 73.0173 49.2246 72.784C48.9446 72.5413 48.5199 72.42 47.9506 72.42C47.3812 72.42 46.9519 72.5413 46.6626 72.784C46.3732 73.0173 46.2286 73.3907 46.2286 73.904V74.128C46.2286 74.6413 46.3732 75.0193 46.6626 75.262C46.9519 75.4953 47.3812 75.612 47.9506 75.612ZM49.1406 71.874C49.1406 71.4167 49.2386 71.076 49.4346 70.852C49.6306 70.628 49.9339 70.516 50.3446 70.516H51.3666V71.524H49.9386C49.5839 71.524 49.4066 71.7293 49.4066 72.14L49.1406 71.874ZM53.1568 79V72.532H52.1768V71.524H54.2628V72.812H54.6268C54.8135 72.3267 55.0748 71.9673 55.4108 71.734C55.7561 71.5007 56.1948 71.384 56.7268 71.384C57.5015 71.384 58.0895 71.6173 58.4908 72.084C58.9015 72.5507 59.1068 73.2367 59.1068 74.142V77.992H60.0728V79H57.7908V74.422C57.7908 73.7407 57.6555 73.246 57.3848 72.938C57.1235 72.6207 56.7035 72.462 56.1248 72.462C55.5555 72.462 55.1355 72.6207 54.8648 72.938C54.5941 73.246 54.4588 73.7407 54.4588 74.422V79H53.1568ZM61.2424 79V77.502H62.7964V79H61.2424ZM73.2405 72.14V70.39H69.4325V73.582H73.0025V74.562H69.4325V77.95H73.2965V76.144H74.4445V79H68.0745V70.39H66.9545V69.34H74.3885V72.14H73.2405ZM75.6407 79V77.992H76.6207L78.2167 74.632L78.2027 75.402L76.7187 72.532H75.7387V71.524H77.7127L79.1407 74.548H79.5047L80.9187 71.524H82.8507V72.532H81.8707L80.3867 75.402V74.632L81.9687 77.992H82.9347V79H80.9607L79.4487 75.724H79.0847L77.5727 79H75.6407ZM84.6431 80.848V72.532H83.6631V71.524H85.7491V72.91H86.1131C86.3278 72.3967 86.6125 72.014 86.9671 71.762C87.3311 71.51 87.7838 71.384 88.3251 71.384C88.9318 71.384 89.4498 71.538 89.8791 71.846C90.3178 72.1447 90.6538 72.5833 90.8871 73.162C91.1205 73.7313 91.2371 74.4313 91.2371 75.262C91.2371 76.0833 91.1205 76.7833 90.8871 77.362C90.6538 77.9407 90.3178 78.384 89.8791 78.692C89.4498 78.9907 88.9318 79.14 88.3251 79.14C87.7931 79.14 87.3498 79.0233 86.9951 78.79C86.6498 78.5567 86.3791 78.1927 86.1831 77.698H85.8191C85.8658 78.1367 85.8985 78.4867 85.9171 78.748C85.9451 79.0093 85.9591 79.2427 85.9591 79.448V80.848H84.6431ZM87.8911 78.062C88.5631 78.062 89.0578 77.8707 89.3751 77.488C89.6925 77.096 89.8511 76.4893 89.8511 75.668V74.856C89.8511 74.0253 89.6925 73.4187 89.3751 73.036C89.0578 72.6533 88.5631 72.462 87.8911 72.462C87.2285 72.462 86.7385 72.6533 86.4211 73.036C86.1131 73.4187 85.9591 74.0253 85.9591 74.856V75.668C85.9591 76.4893 86.1131 77.096 86.4211 77.488C86.7385 77.8707 87.2285 78.062 87.8911 78.062ZM95.9741 79.14C95.2554 79.14 94.6394 78.9907 94.1261 78.692C93.6221 78.3933 93.2347 77.9547 92.9641 77.376C92.7027 76.7973 92.5721 76.0927 92.5721 75.262C92.5721 74.422 92.7027 73.7173 92.9641 73.148C93.2347 72.5693 93.6221 72.1307 94.1261 71.832C94.6394 71.5333 95.2554 71.384 95.9741 71.384C96.6647 71.384 97.2527 71.524 97.7381 71.804C98.2234 72.0747 98.5921 72.476 98.8441 73.008C99.1054 73.54 99.2361 74.198 99.2361 74.982V75.472H93.4681V74.576H98.7181L97.9481 75.178V74.856C97.9481 74.016 97.7894 73.4047 97.4721 73.022C97.1547 72.63 96.6554 72.434 95.9741 72.434C95.2834 72.434 94.7747 72.63 94.4481 73.022C94.1307 73.4047 93.9721 74.016 93.9721 74.856V75.654C93.9721 76.4753 94.1307 77.082 94.4481 77.474C94.7747 77.866 95.2834 78.062 95.9741 78.062C96.4221 78.062 96.7721 77.992 97.0241 77.852C97.2854 77.7027 97.4721 77.5253 97.5841 77.32C97.6961 77.1147 97.7521 76.9233 97.7521 76.746V76.69H99.1241C98.9561 77.4927 98.6014 78.104 98.0601 78.524C97.5281 78.9347 96.8327 79.14 95.9741 79.14ZM101.159 79V72.532H100.179V71.524H102.265V72.868H102.629C102.815 72.3827 103.067 72.0233 103.385 71.79C103.711 71.5567 104.131 71.44 104.645 71.44H105.723V72.532H104.127C103.557 72.532 103.137 72.686 102.867 72.994C102.596 73.302 102.461 73.7967 102.461 74.478V79H101.159ZM107.505 79V72.532H106.399V71.524H108.835V79H107.505ZM107.379 70.614V69.34H108.919V70.614H107.379ZM115.533 74.31C115.533 73.6847 115.412 73.2227 115.169 72.924C114.927 72.616 114.549 72.462 114.035 72.462C113.531 72.462 113.153 72.616 112.901 72.924C112.649 73.2227 112.523 73.6847 112.523 74.31V79H111.221V72.532H110.241V71.524H112.327V72.812H112.691C112.859 72.3267 113.102 71.9673 113.419 71.734C113.737 71.5007 114.143 71.384 114.637 71.384C115.141 71.384 115.552 71.5007 115.869 71.734C116.196 71.9673 116.443 72.3267 116.611 72.812H116.961C117.139 72.3267 117.386 71.9673 117.703 71.734C118.021 71.5007 118.441 71.384 118.963 71.384C119.691 71.384 120.242 71.6173 120.615 72.084C120.998 72.5507 121.189 73.2367 121.189 74.142V77.992H122.155V79H119.859V74.31C119.859 73.6847 119.738 73.2227 119.495 72.924C119.253 72.616 118.875 72.462 118.361 72.462C117.848 72.462 117.47 72.616 117.227 72.924C116.985 73.2227 116.863 73.6847 116.863 74.31V79H115.533V74.31ZM126.449 79.14C125.73 79.14 125.114 78.9907 124.601 78.692C124.097 78.3933 123.709 77.9547 123.439 77.376C123.177 76.7973 123.047 76.0927 123.047 75.262C123.047 74.422 123.177 73.7173 123.439 73.148C123.709 72.5693 124.097 72.1307 124.601 71.832C125.114 71.5333 125.73 71.384 126.449 71.384C127.139 71.384 127.727 71.524 128.213 71.804C128.698 72.0747 129.067 72.476 129.319 73.008C129.58 73.54 129.711 74.198 129.711 74.982V75.472H123.943V74.576H129.193L128.423 75.178V74.856C128.423 74.016 128.264 73.4047 127.947 73.022C127.629 72.63 127.13 72.434 126.449 72.434C125.758 72.434 125.249 72.63 124.923 73.022C124.605 73.4047 124.447 74.016 124.447 74.856V75.654C124.447 76.4753 124.605 77.082 124.923 77.474C125.249 77.866 125.758 78.062 126.449 78.062C126.897 78.062 127.247 77.992 127.499 77.852C127.76 77.7027 127.947 77.5253 128.059 77.32C128.171 77.1147 128.227 76.9233 128.227 76.746V76.69H129.599C129.431 77.4927 129.076 78.104 128.535 78.524C128.003 78.9347 127.307 79.14 126.449 79.14ZM131.633 79V72.532H130.653V71.524H132.739V72.812H133.103C133.29 72.3267 133.551 71.9673 133.887 71.734C134.233 71.5007 134.671 71.384 135.203 71.384C135.978 71.384 136.566 71.6173 136.967 72.084C137.378 72.5507 137.583 73.2367 137.583 74.142V77.992H138.549V79H136.267V74.422C136.267 73.7407 136.132 73.246 135.861 72.938C135.6 72.6207 135.18 72.462 134.601 72.462C134.032 72.462 133.612 72.6207 133.341 72.938C133.071 73.246 132.935 73.7407 132.935 74.422V79H131.633ZM141.204 79C140.616 79 140.322 78.7013 140.322 78.104V71.524L140.798 70.026H141.638V77.992H143.388V79H141.204ZM138.964 72.532V71.524H143.388V72.532H138.964ZM145.239 79V72.532H144.133V71.524H146.569V79H145.239ZM145.113 70.614V69.34H146.653V70.614H145.113ZM148.956 79V72.532H147.976V71.524H150.062V72.812H150.426C150.612 72.3267 150.874 71.9673 151.21 71.734C151.555 71.5007 151.994 71.384 152.526 71.384C153.3 71.384 153.888 71.6173 154.29 72.084C154.7 72.5507 154.906 73.2367 154.906 74.142V77.992H155.872V79H153.59V74.422C153.59 73.7407 153.454 73.246 153.184 72.938C152.922 72.6207 152.502 72.462 151.924 72.462C151.354 72.462 150.934 72.6207 150.664 72.938C150.393 73.246 150.258 73.7407 150.258 74.422V79H148.956ZM156.859 80.848V79.84H161.143C161.442 79.84 161.652 79.7933 161.773 79.7C161.904 79.6067 161.969 79.4527 161.969 79.238C161.969 79.014 161.904 78.8553 161.773 78.762C161.652 78.6687 161.442 78.622 161.143 78.622H158.399C157.895 78.622 157.513 78.5333 157.251 78.356C156.999 78.1693 156.873 77.9033 156.873 77.558C156.873 77.25 156.971 77.0073 157.167 76.83C157.373 76.6527 157.667 76.5453 158.049 76.508V76.186C157.639 76.018 157.331 75.752 157.125 75.388C156.92 75.0147 156.817 74.562 156.817 74.03C156.817 73.1807 157.083 72.5273 157.615 72.07C158.147 71.6127 158.889 71.384 159.841 71.384C160.793 71.384 161.531 71.6127 162.053 72.07C162.585 72.5273 162.851 73.1807 162.851 74.03C162.851 74.8513 162.59 75.486 162.067 75.934C161.545 76.3727 160.812 76.592 159.869 76.592H158.791C158.539 76.592 158.357 76.6293 158.245 76.704C158.143 76.7787 158.091 76.9 158.091 77.068C158.091 77.236 158.143 77.3573 158.245 77.432C158.357 77.5067 158.539 77.544 158.791 77.544H161.423C162.03 77.544 162.492 77.6793 162.809 77.95C163.136 78.2207 163.299 78.6173 163.299 79.14C163.299 79.7 163.117 80.1247 162.753 80.414C162.399 80.7033 161.885 80.848 161.213 80.848H156.859ZM159.841 75.612C160.411 75.612 160.835 75.4953 161.115 75.262C161.405 75.0193 161.549 74.6413 161.549 74.128V73.904C161.549 73.3907 161.405 73.0173 161.115 72.784C160.835 72.5413 160.411 72.42 159.841 72.42C159.272 72.42 158.843 72.5413 158.553 72.784C158.264 73.0173 158.119 73.3907 158.119 73.904V74.128C158.119 74.6413 158.264 75.0193 158.553 75.262C158.843 75.4953 159.272 75.612 159.841 75.612ZM161.031 71.874C161.031 71.4167 161.129 71.076 161.325 70.852C161.521 70.628 161.825 70.516 162.235 70.516H163.257V71.524H161.829C161.475 71.524 161.297 71.7293 161.297 72.14L161.031 71.874ZM169.42 79L167.446 71.524H168.804L170.442 77.88H170.82L172.486 71.524H173.816L175.482 77.88H175.846L177.484 71.524H178.8L176.826 79H174.614L173.298 74.072H172.948L171.618 79H169.42ZM180.54 79V72.532H179.434V71.524H181.87V79H180.54ZM180.414 70.614V69.34H181.954V70.614H180.414ZM185.432 79C184.844 79 184.55 78.7013 184.55 78.104V71.524L185.026 70.026H185.866V77.992H187.616V79H185.432ZM183.192 72.532V71.524H187.616V72.532H183.192ZM189.174 79V70.348H188.208V69.34H190.504V70.95C190.504 71.1647 190.49 71.4027 190.462 71.664C190.443 71.9253 190.41 72.2753 190.364 72.714H190.728C190.896 72.2567 191.143 71.9207 191.47 71.706C191.806 71.4913 192.235 71.384 192.758 71.384C193.542 71.384 194.13 71.6173 194.522 72.084C194.923 72.5507 195.124 73.2367 195.124 74.142V77.992H196.104V79H193.822V74.422C193.822 73.7407 193.686 73.246 193.416 72.938C193.145 72.6207 192.725 72.462 192.156 72.462C191.586 72.462 191.166 72.6207 190.896 72.938C190.634 73.246 190.504 73.7407 190.504 74.422V79H189.174ZM200.922 79V72.532H199.942V71.524H202.028V72.812H202.392C202.579 72.3267 202.84 71.9673 203.176 71.734C203.522 71.5007 203.96 71.384 204.492 71.384C205.267 71.384 205.855 71.6173 206.256 72.084C206.667 72.5507 206.872 73.2367 206.872 74.142V77.992H207.838V79H205.556V74.422C205.556 73.7407 205.421 73.246 205.15 72.938C204.889 72.6207 204.469 72.462 203.89 72.462C203.321 72.462 202.901 72.6207 202.63 72.938C202.36 73.246 202.224 73.7407 202.224 74.422V79H200.922ZM212.144 79.14C211.425 79.14 210.809 78.9907 210.296 78.692C209.792 78.3933 209.405 77.9547 209.134 77.376C208.873 76.7973 208.742 76.0927 208.742 75.262C208.742 74.422 208.873 73.7173 209.134 73.148C209.405 72.5693 209.792 72.1307 210.296 71.832C210.809 71.5333 211.425 71.384 212.144 71.384C212.835 71.384 213.423 71.524 213.908 71.804C214.393 72.0747 214.762 72.476 215.014 73.008C215.275 73.54 215.406 74.198 215.406 74.982V75.472H209.638V74.576H214.888L214.118 75.178V74.856C214.118 74.016 213.959 73.4047 213.642 73.022C213.325 72.63 212.825 72.434 212.144 72.434C211.453 72.434 210.945 72.63 210.618 73.022C210.301 73.4047 210.142 74.016 210.142 74.856V75.654C210.142 76.4753 210.301 77.082 210.618 77.474C210.945 77.866 211.453 78.062 212.144 78.062C212.592 78.062 212.942 77.992 213.194 77.852C213.455 77.7027 213.642 77.5253 213.754 77.32C213.866 77.1147 213.922 76.9233 213.922 76.746V76.69H215.294C215.126 77.4927 214.771 78.104 214.23 78.524C213.698 78.9347 213.003 79.14 212.144 79.14ZM219.653 79.14C218.869 79.14 218.271 78.9067 217.861 78.44C217.459 77.9733 217.259 77.2873 217.259 76.382V72.532H216.293V71.524H218.589V76.102C218.589 76.7833 218.719 77.2827 218.981 77.6C219.251 77.908 219.671 78.062 220.241 78.062C220.819 78.062 221.239 77.908 221.501 77.6C221.771 77.2827 221.907 76.7833 221.907 76.102V71.524H223.223V77.992H224.203V79H222.999C222.401 79 222.103 78.7013 222.103 78.104V77.712H221.739C221.561 78.1973 221.3 78.5567 220.955 78.79C220.619 79.0233 220.185 79.14 219.653 79.14ZM225.778 79V72.532H224.798V71.524H226.884V72.868H227.248C227.435 72.3827 227.687 72.0233 228.004 71.79C228.331 71.5567 228.751 71.44 229.264 71.44H230.342V72.532H228.746C228.177 72.532 227.757 72.686 227.486 72.994C227.215 73.302 227.08 73.7967 227.08 74.478V79H225.778ZM231.129 79V77.502H232.683V79H231.129ZM233.957 79V77.502H235.511V79H233.957ZM236.785 79V77.502H238.339V79H236.785Z" fill="white"/>
<g clip-path="url(#clip1_107_56251)">
<path fill-rule="evenodd" clip-rule="evenodd" d="M29.1789 94.4417C28.3166 94.4417 27.5166 94.7972 26.9566 95.3839C26.6455 95.695 26.4055 96.0772 26.2544 96.5039C26.13 96.8239 26.0678 97.1794 26.0678 97.5528C26.0678 97.7137 26.0846 97.8728 26.1122 98.031C26.1353 98.1803 26.1726 98.3252 26.2153 98.4692V98.4701C26.2304 98.5199 26.2375 98.5714 26.2544 98.6194C26.2811 98.6905 26.3166 98.7705 26.3344 98.7972C26.3433 98.8239 26.3611 98.8594 26.3789 98.8861C26.5389 99.2505 26.77 99.5705 27.09 99.8461C27.1024 99.8568 27.202 99.9305 27.3513 100.027C27.3033 100.279 27.2046 100.523 27.0109 100.718C26.49 101.238 25.6455 101.238 25.1246 100.718C24.6046 100.197 24.6046 99.3528 25.1246 98.8319C25.1949 98.7625 25.2811 98.7261 25.3611 98.6754C25.2526 98.3234 25.1789 97.9394 25.1789 97.5528C25.1789 97.0861 25.258 96.6363 25.418 96.2194H22.7095L16.4998 102.428L23.4144 109.343L29.6233 103.133V97.5528C29.6233 96.8177 29.0251 96.2194 28.29 96.2194H27.402C27.81 95.6728 28.466 95.3305 29.1789 95.3305C30.4055 95.3305 31.4011 96.3261 31.4011 97.5528H32.29C32.29 95.8372 30.8944 94.4417 29.1789 94.4417" fill="#9698A2"/>
</g>
<rect x="30.5" y="92" width="65" height="20" rx="10" fill="#9698A2"/>
<path d="M39.112 98.6H40.792V107H39.088L39.112 98.6ZM42.16 98.6C42.64 98.6 43.064 98.696 43.432 98.888C43.808 99.072 44.104 99.356 44.32 99.74C44.536 100.116 44.644 100.588 44.644 101.156C44.644 101.74 44.524 102.228 44.284 102.62C44.052 103.004 43.748 103.296 43.372 103.496C43.004 103.688 42.608 103.784 42.184 103.784H39.904V98.6H42.16ZM40.768 102.332H41.956C42.148 102.332 42.316 102.288 42.46 102.2C42.604 102.112 42.712 101.984 42.784 101.816C42.864 101.64 42.904 101.444 42.904 101.228C42.904 100.996 42.864 100.8 42.784 100.64C42.712 100.472 42.604 100.348 42.46 100.268C42.316 100.18 42.148 100.136 41.956 100.136H40.768V102.332ZM41.44 102.872L43.048 102.836L44.644 106.724V107H42.892L41.44 102.872ZM49.8296 98.6V100.136H47.2016V102.188C47.4496 102.092 47.7096 102.016 47.9816 101.96C48.2616 101.904 48.5376 101.868 48.8096 101.852C49.0816 101.836 49.3336 101.844 49.5656 101.876V103.352L49.4576 103.424C49.2736 103.368 49.0576 103.336 48.8096 103.328C48.5696 103.32 48.3096 103.336 48.0296 103.376C47.7496 103.416 47.4736 103.484 47.2016 103.58V105.464H49.8296V107H45.5216V98.6H49.8296ZM55.5364 104.78C55.5364 105.276 55.4284 105.7 55.2124 106.052C55.0044 106.404 54.7124 106.676 54.3364 106.868C53.9604 107.052 53.5284 107.144 53.0404 107.144C52.6564 107.144 52.3004 107.096 51.9724 107C51.6444 106.912 51.3604 106.804 51.1204 106.676C50.8884 106.548 50.7164 106.44 50.6044 106.352V104.708H50.8204C51.0764 104.94 51.3884 105.148 51.7564 105.332C52.1324 105.508 52.4924 105.596 52.8364 105.596C53.0204 105.596 53.1844 105.568 53.3284 105.512C53.4804 105.448 53.6004 105.36 53.6884 105.248C53.7764 105.136 53.8204 105 53.8204 104.84C53.8204 104.6 53.7484 104.408 53.6044 104.264C53.4684 104.112 53.2564 103.952 52.9684 103.784L51.9724 103.196C51.7244 103.052 51.4804 102.884 51.2404 102.692C51.0084 102.492 50.8124 102.244 50.6524 101.948C50.5004 101.644 50.4244 101.276 50.4244 100.844C50.4244 100.332 50.5324 99.9 50.7484 99.548C50.9724 99.188 51.2644 98.92 51.6244 98.744C51.9924 98.56 52.4044 98.468 52.8604 98.468C53.2124 98.468 53.5324 98.504 53.8204 98.576C54.1164 98.648 54.3764 98.744 54.6004 98.864C54.8324 98.976 55.0244 99.108 55.1764 99.26V100.904H54.9484C54.7084 100.64 54.4124 100.428 54.0604 100.268C53.7164 100.1 53.3644 100.016 53.0044 100.016C52.7644 100.016 52.5604 100.076 52.3924 100.196C52.2244 100.316 52.1404 100.492 52.1404 100.724C52.1404 100.956 52.2364 101.156 52.4284 101.324C52.6204 101.492 52.8724 101.672 53.1844 101.864L54.1804 102.476C54.4524 102.644 54.6884 102.836 54.8884 103.052C55.0884 103.26 55.2444 103.504 55.3564 103.784C55.4764 104.064 55.5364 104.396 55.5364 104.78ZM60.7046 98.6V100.136H58.0766V102.188C58.3246 102.092 58.5846 102.016 58.8566 101.96C59.1366 101.904 59.4126 101.868 59.6846 101.852C59.9566 101.836 60.2086 101.844 60.4406 101.876V103.352L60.3326 103.424C60.1486 103.368 59.9326 103.336 59.6846 103.328C59.4446 103.32 59.1846 103.336 58.9046 103.376C58.6246 103.416 58.3486 103.484 58.0766 103.58V105.464H60.7046V107H56.3966V98.6H60.7046ZM61.1194 107V106.724L62.8714 98.6L65.8594 98.612L67.6234 106.724V107H65.8714L65.4874 104.888H63.2554L62.8594 107H61.1194ZM63.4834 103.412H65.2474L64.6594 100.196H64.0714L63.4834 103.412ZM68.3151 98.6H69.9951V107H68.2911L68.3151 98.6ZM71.3631 98.6C71.8431 98.6 72.2671 98.696 72.6351 98.888C73.0111 99.072 73.3071 99.356 73.5231 99.74C73.7391 100.116 73.8471 100.588 73.8471 101.156C73.8471 101.74 73.7271 102.228 73.4871 102.62C73.2551 103.004 72.9511 103.296 72.5751 103.496C72.2071 103.688 71.8111 103.784 71.3871 103.784H69.1071V98.6H71.3631ZM69.9711 102.332H71.1591C71.3511 102.332 71.5191 102.288 71.6631 102.2C71.8071 102.112 71.9151 101.984 71.9871 101.816C72.0671 101.64 72.1071 101.444 72.1071 101.228C72.1071 100.996 72.0671 100.8 71.9871 100.64C71.9151 100.472 71.8071 100.348 71.6631 100.268C71.5191 100.18 71.3511 100.136 71.1591 100.136H69.9711V102.332ZM70.6431 102.872L72.2511 102.836L73.8471 106.724V107H72.0951L70.6431 102.872ZM74.4127 102.8C74.4127 102.056 74.5127 101.412 74.7127 100.868C74.9127 100.324 75.1807 99.876 75.5167 99.524C75.8607 99.164 76.2487 98.9 76.6807 98.732C77.1127 98.556 77.5607 98.468 78.0247 98.468C78.4727 98.468 78.8407 98.516 79.1287 98.612C79.4247 98.7 79.6367 98.8 79.7647 98.912V100.52H79.5367C79.4247 100.4 79.2647 100.288 79.0567 100.184C78.8487 100.08 78.5927 100.028 78.2887 100.028C77.8727 100.028 77.5047 100.136 77.1847 100.352C76.8647 100.56 76.6127 100.872 76.4287 101.288C76.2527 101.696 76.1647 102.2 76.1647 102.8C76.1647 103.4 76.2527 103.908 76.4287 104.324C76.6127 104.732 76.8647 105.044 77.1847 105.26C77.5047 105.468 77.8727 105.572 78.2887 105.572C78.5927 105.572 78.8487 105.52 79.0567 105.416C79.2647 105.312 79.4247 105.2 79.5367 105.08H79.7647V106.688C79.6367 106.792 79.4247 106.892 79.1287 106.988C78.8407 107.084 78.4727 107.132 78.0247 107.132C77.5607 107.132 77.1127 107.048 76.6807 106.88C76.2487 106.704 75.8607 106.44 75.5167 106.088C75.1807 105.728 74.9127 105.276 74.7127 104.732C74.5127 104.188 74.4127 103.544 74.4127 102.8ZM84.8167 98.6H86.5087V107H84.8167V103.556H82.4287V107H80.7247V98.6H82.4287V102.044H84.8167V98.6Z" fill="black"/>
<rect x="93.5" y="92" width="60" height="20" rx="10" fill="#9698A2"/>
<path d="M101.596 107V106.724L103.348 98.6L106.336 98.612L108.1 106.724V107H106.348L105.964 104.888H103.732L103.336 107H101.596ZM103.96 103.412H105.724L105.136 100.196H104.548L103.96 103.412ZM108.768 98.6H110.448V107H108.768V98.6ZM113.967 98.6C114.631 98.6 115.227 98.752 115.755 99.056C116.283 99.352 116.703 99.808 117.015 100.424C117.327 101.04 117.483 101.832 117.483 102.8C117.483 103.76 117.327 104.552 117.015 105.176C116.703 105.792 116.283 106.252 115.755 106.556C115.227 106.852 114.631 107 113.967 107H111.651V98.6H113.967ZM113.943 105.404C114.487 105.404 114.927 105.176 115.263 104.72C115.599 104.264 115.767 103.624 115.767 102.8C115.767 101.96 115.595 101.316 115.251 100.868C114.915 100.42 114.479 100.196 113.943 100.196H113.331V105.404H113.943ZM122.65 98.6V100.136H120.022V102.188C120.27 102.092 120.53 102.016 120.802 101.96C121.082 101.904 121.358 101.868 121.63 101.852C121.902 101.836 122.154 101.844 122.386 101.876V103.352L122.278 103.424C122.094 103.368 121.878 103.336 121.63 103.328C121.39 103.32 121.13 103.336 120.85 103.376C120.57 103.416 120.294 103.484 120.022 103.58V105.464H122.65V107H118.342V98.6H122.65ZM128.357 104.78C128.357 105.276 128.249 105.7 128.033 106.052C127.825 106.404 127.533 106.676 127.157 106.868C126.781 107.052 126.349 107.144 125.861 107.144C125.477 107.144 125.121 107.096 124.793 107C124.465 106.912 124.181 106.804 123.941 106.676C123.709 106.548 123.537 106.44 123.425 106.352V104.708H123.641C123.897 104.94 124.209 105.148 124.577 105.332C124.953 105.508 125.313 105.596 125.657 105.596C125.841 105.596 126.005 105.568 126.149 105.512C126.301 105.448 126.421 105.36 126.509 105.248C126.597 105.136 126.641 105 126.641 104.84C126.641 104.6 126.569 104.408 126.425 104.264C126.289 104.112 126.077 103.952 125.789 103.784L124.793 103.196C124.545 103.052 124.301 102.884 124.061 102.692C123.829 102.492 123.633 102.244 123.473 101.948C123.321 101.644 123.245 101.276 123.245 100.844C123.245 100.332 123.353 99.9 123.569 99.548C123.793 99.188 124.085 98.92 124.445 98.744C124.813 98.56 125.225 98.468 125.681 98.468C126.033 98.468 126.353 98.504 126.641 98.576C126.937 98.648 127.197 98.744 127.421 98.864C127.653 98.976 127.845 99.108 127.997 99.26V100.904H127.769C127.529 100.64 127.233 100.428 126.881 100.268C126.537 100.1 126.185 100.016 125.825 100.016C125.585 100.016 125.381 100.076 125.213 100.196C125.045 100.316 124.961 100.492 124.961 100.724C124.961 100.956 125.057 101.156 125.249 101.324C125.441 101.492 125.693 101.672 126.005 101.864L127.001 102.476C127.273 102.644 127.509 102.836 127.709 103.052C127.909 103.26 128.065 103.504 128.177 103.784C128.297 104.064 128.357 104.396 128.357 104.78ZM129.217 98.6H130.897V107H129.217V98.6ZM131.788 102.8C131.788 101.8 131.964 100.98 132.316 100.34C132.676 99.7 133.152 99.228 133.744 98.924C134.344 98.62 135.004 98.468 135.724 98.468C136.116 98.468 136.468 98.508 136.78 98.588C137.092 98.668 137.356 98.764 137.572 98.876C137.796 98.98 137.956 99.084 138.052 99.188V100.904H137.824C137.728 100.76 137.588 100.62 137.404 100.484C137.22 100.348 137 100.24 136.744 100.16C136.496 100.072 136.216 100.028 135.904 100.028C135.408 100.028 134.98 100.132 134.62 100.34C134.268 100.54 134 100.848 133.816 101.264C133.632 101.672 133.54 102.184 133.54 102.8C133.54 103.392 133.624 103.9 133.792 104.324C133.968 104.74 134.22 105.06 134.548 105.284C134.876 105.5 135.264 105.608 135.712 105.608C135.904 105.608 136.068 105.588 136.204 105.548C136.34 105.5 136.444 105.44 136.516 105.368V103.472H134.476V102.008H138.052V106.148C137.708 106.492 137.312 106.744 136.864 106.904C136.424 107.056 135.944 107.132 135.424 107.132C134.952 107.132 134.496 107.048 134.056 106.88C133.624 106.704 133.236 106.44 132.892 106.088C132.556 105.736 132.288 105.288 132.088 104.744C131.888 104.2 131.788 103.552 131.788 102.8ZM143.162 98.6H144.806V107H142.97L140.894 101.792H140.762L140.834 107H139.19V98.6H141.026L143.102 103.88H143.234L143.162 98.6Z" fill="black"/>
<defs>
<clipPath id="clip0_107_56251">
<rect width="20" height="20" fill="white" transform="translate(220.5 16)"/>
</clipPath>
<clipPath id="clip1_107_56251">
<rect width="16" height="16" fill="white" transform="translate(16.5 94)"/>
</clipPath>
</defs>
</svg>
