<svg width="257" height="128" viewBox="0 0 257 128" fill="none" xmlns="http://www.w3.org/2000/svg">
<rect x="0.5" width="256" height="128" rx="16" fill="#141519"/>
<path d="M17.186 32V22.2H20.588C21.1853 22.2 21.708 22.312 22.156 22.536C22.604 22.76 22.954 23.11 23.206 23.586C23.4673 24.0527 23.598 24.664 23.598 25.42C23.598 26.1667 23.458 26.792 23.178 27.296C22.9073 27.7907 22.5433 28.164 22.086 28.416C21.638 28.6587 21.1387 28.78 20.588 28.78H19.146V32H17.186ZM19.146 27.086H20.322C20.574 27.086 20.798 27.0207 20.994 26.89C21.19 26.7593 21.3393 26.5773 21.442 26.344C21.5447 26.1107 21.596 25.8353 21.596 25.518C21.596 25.2007 21.5447 24.93 21.442 24.706C21.3393 24.4727 21.19 24.2953 20.994 24.174C20.798 24.0527 20.574 23.992 20.322 23.992H19.146V27.086ZM24.0271 27.1C24.0271 25.9147 24.2184 24.9487 24.6011 24.202C24.9837 23.4553 25.4831 22.9093 26.0991 22.564C26.7244 22.2093 27.4011 22.032 28.1291 22.032C28.8571 22.032 29.5291 22.2093 30.1451 22.564C30.7704 22.9093 31.2744 23.4553 31.6571 24.202C32.0397 24.9487 32.2311 25.9147 32.2311 27.1C32.2311 28.2853 32.0397 29.2513 31.6571 29.998C31.2744 30.7447 30.7704 31.2953 30.1451 31.65C29.5291 31.9953 28.8571 32.168 28.1291 32.168C27.4011 32.168 26.7244 31.9953 26.0991 31.65C25.4831 31.2953 24.9837 30.7447 24.6011 29.998C24.2184 29.2513 24.0271 28.2853 24.0271 27.1ZM26.0711 27.1C26.0711 27.8093 26.1597 28.402 26.3371 28.878C26.5237 29.354 26.7711 29.7133 27.0791 29.956C27.3964 30.1893 27.7464 30.306 28.1291 30.306C28.5117 30.306 28.8617 30.1893 29.1791 29.956C29.5057 29.7133 29.7624 29.354 29.9491 28.878C30.1357 28.402 30.2291 27.8093 30.2291 27.1C30.2291 26.3813 30.1311 25.784 29.9351 25.308C29.7484 24.832 29.4964 24.4773 29.1791 24.244C28.8617 24.0107 28.5164 23.894 28.1431 23.894C27.7511 23.894 27.3964 24.0153 27.0791 24.258C26.7711 24.5007 26.5237 24.86 26.3371 25.336C26.1597 25.8027 26.0711 26.3907 26.0711 27.1ZM38.8505 29.41C38.8505 29.9887 38.7245 30.4833 38.4725 30.894C38.2298 31.3047 37.8891 31.622 37.4505 31.846C37.0118 32.0607 36.5078 32.168 35.9385 32.168C35.4905 32.168 35.0751 32.112 34.6925 32C34.3098 31.8973 33.9785 31.7713 33.6985 31.622C33.4278 31.4727 33.2271 31.3467 33.0965 31.244V29.326H33.3485C33.6471 29.5967 34.0111 29.8393 34.4405 30.054C34.8791 30.2593 35.2991 30.362 35.7005 30.362C35.9151 30.362 36.1065 30.3293 36.2745 30.264C36.4518 30.1893 36.5918 30.0867 36.6945 29.956C36.7971 29.8253 36.8485 29.6667 36.8485 29.48C36.8485 29.2 36.7645 28.976 36.5965 28.808C36.4378 28.6307 36.1905 28.444 35.8545 28.248L34.6925 27.562C34.4031 27.394 34.1185 27.198 33.8385 26.974C33.5678 26.7407 33.3391 26.4513 33.1525 26.106C32.9751 25.7513 32.8865 25.322 32.8865 24.818C32.8865 24.2207 33.0125 23.7167 33.2645 23.306C33.5258 22.886 33.8665 22.5733 34.2865 22.368C34.7158 22.1533 35.1965 22.046 35.7285 22.046C36.1391 22.046 36.5125 22.088 36.8485 22.172C37.1938 22.256 37.4971 22.368 37.7585 22.508C38.0291 22.6387 38.2531 22.7927 38.4305 22.97V24.888H38.1645C37.8845 24.58 37.5391 24.3327 37.1285 24.146C36.7271 23.95 36.3165 23.852 35.8965 23.852C35.6165 23.852 35.3785 23.922 35.1825 24.062C34.9865 24.202 34.8885 24.4073 34.8885 24.678C34.8885 24.9487 35.0005 25.182 35.2245 25.378C35.4485 25.574 35.7425 25.784 36.1065 26.008L37.2685 26.722C37.5858 26.918 37.8611 27.142 38.0945 27.394C38.3278 27.6367 38.5098 27.9213 38.6405 28.248C38.7805 28.5747 38.8505 28.962 38.8505 29.41ZM45.076 22.2V24.006H43.2V32H41.24V24.006H39.336V22.2H45.076ZM50.9366 22.2V23.992H47.8706V26.386C48.1599 26.274 48.4633 26.1853 48.7806 26.12C49.1073 26.0547 49.4293 26.0127 49.7466 25.994C50.0639 25.9753 50.3579 25.9847 50.6286 26.022V27.744L50.5026 27.828C50.2879 27.7627 50.0359 27.7253 49.7466 27.716C49.4666 27.7067 49.1633 27.7253 48.8366 27.772C48.5099 27.8187 48.1879 27.898 47.8706 28.01V30.208H50.9366V32H45.9106V22.2H50.9366ZM54.6966 22.2C55.4713 22.2 56.1666 22.3773 56.7826 22.732C57.3986 23.0773 57.8886 23.6093 58.2526 24.328C58.6166 25.0467 58.7986 25.9707 58.7986 27.1C58.7986 28.22 58.6166 29.144 58.2526 29.872C57.8886 30.5907 57.3986 31.1273 56.7826 31.482C56.1666 31.8273 55.4713 32 54.6966 32H51.9946V22.2H54.6966ZM54.6686 30.138C55.3033 30.138 55.8166 29.872 56.2086 29.34C56.6006 28.808 56.7966 28.0613 56.7966 27.1C56.7966 26.12 56.5959 25.3687 56.1946 24.846C55.8026 24.3233 55.2939 24.062 54.6686 24.062H53.9546V30.138H54.6686Z" fill="#6D6F79"/>
<path d="M67.714 31.14C66.9767 31.14 66.3607 31.0233 65.866 30.79C65.3713 30.5473 64.984 30.174 64.704 29.67C64.424 29.166 64.242 28.5127 64.158 27.71H65.544V27.948C65.544 28.6387 65.726 29.1613 66.09 29.516C66.4633 29.8613 67.0047 30.034 67.714 30.034C68.3767 30.034 68.8947 29.8987 69.268 29.628C69.6507 29.348 69.842 28.956 69.842 28.452V28.088C69.842 27.584 69.716 27.206 69.464 26.954C69.212 26.6927 68.8387 26.562 68.344 26.562H66.44V25.582H68.344C68.82 25.582 69.1793 25.4607 69.422 25.218C69.674 24.966 69.8 24.602 69.8 24.126V23.818C69.8 23.342 69.6133 22.9733 69.24 22.712C68.876 22.4413 68.3673 22.306 67.714 22.306C67.0047 22.306 66.468 22.4787 66.104 22.824C65.7493 23.1693 65.572 23.692 65.572 24.392V24.63H64.2C64.2747 23.8273 64.4473 23.174 64.718 22.67C64.998 22.166 65.3807 21.7973 65.866 21.564C66.3607 21.3213 66.9767 21.2 67.714 21.2C68.442 21.2 69.0627 21.3073 69.576 21.522C70.0987 21.7273 70.4953 22.0307 70.766 22.432C71.046 22.8333 71.186 23.3233 71.186 23.902C71.186 24.49 71.046 24.952 70.766 25.288C70.486 25.624 70.0893 25.8247 69.576 25.89V26.254C70.108 26.31 70.514 26.5153 70.794 26.87C71.0833 27.2247 71.228 27.7147 71.228 28.34C71.228 28.9373 71.088 29.446 70.808 29.866C70.528 30.2767 70.1267 30.594 69.604 30.818C69.0813 31.0327 68.4513 31.14 67.714 31.14ZM75.6563 31.14C75.0683 31.14 74.5503 30.9907 74.1023 30.692C73.6636 30.384 73.3276 29.9407 73.0943 29.362C72.8609 28.7833 72.7443 28.0833 72.7443 27.262C72.7443 26.4313 72.8609 25.7313 73.0943 25.162C73.3276 24.5833 73.6636 24.1447 74.1023 23.846C74.5409 23.538 75.0589 23.384 75.6563 23.384C76.1976 23.384 76.6409 23.5007 76.9863 23.734C77.3316 23.9673 77.6069 24.3313 77.8123 24.826H78.1623C78.1156 24.3873 78.0783 24.0373 78.0503 23.776C78.0316 23.5147 78.0223 23.2767 78.0223 23.062V22.348H76.9163V21.34H79.3383V29.992H80.3183V31H79.1143C78.5263 31 78.2323 30.7013 78.2323 30.104V29.614H77.8683C77.6629 30.118 77.3783 30.5007 77.0143 30.762C76.6503 31.014 76.1976 31.14 75.6563 31.14ZM76.0903 30.062C76.7529 30.062 77.2383 29.8707 77.5463 29.488C77.8636 29.096 78.0223 28.4893 78.0223 27.668V26.856C78.0223 26.0253 77.8636 25.4187 77.5463 25.036C77.2383 24.6533 76.7529 24.462 76.0903 24.462C75.4183 24.462 74.9236 24.6533 74.6063 25.036C74.2983 25.4187 74.1443 26.0253 74.1443 26.856V27.668C74.1443 28.4893 74.2983 29.096 74.6063 29.488C74.9236 29.8707 75.4183 30.062 76.0903 30.062ZM86.8531 31.14C86.1158 31.14 85.5371 30.958 85.1171 30.594C84.6971 30.2207 84.4871 29.7073 84.4871 29.054C84.4871 28.382 84.7064 27.8593 85.1451 27.486C85.5931 27.1127 86.2464 26.884 87.1051 26.8L89.1911 26.59V27.486L87.4831 27.654C86.9138 27.71 86.4984 27.836 86.2371 28.032C85.9758 28.2187 85.8451 28.494 85.8451 28.858V28.942C85.8451 29.3153 85.9758 29.6 86.2371 29.796C86.5078 29.9827 86.8904 30.076 87.3851 30.076C87.9918 30.076 88.4444 29.9453 88.7431 29.684C89.0418 29.4133 89.1911 29.0073 89.1911 28.466V27.304V27.108V26.226C89.1911 25.61 89.0651 25.162 88.8131 24.882C88.5704 24.602 88.1738 24.462 87.6231 24.462C87.2311 24.462 86.9138 24.5273 86.6711 24.658C86.4378 24.7793 86.2651 24.938 86.1531 25.134C86.0504 25.33 85.9991 25.5447 85.9991 25.778V25.834H84.6551C84.7858 25.0127 85.0984 24.4013 85.5931 24C86.0971 23.5893 86.7831 23.384 87.6511 23.384C88.5938 23.384 89.3078 23.622 89.7931 24.098C90.2784 24.5647 90.5211 25.2553 90.5211 26.17V29.992H91.4871V31H90.2831C89.6951 31 89.4011 30.706 89.4011 30.118V29.74H89.0511C88.8644 30.216 88.5938 30.5707 88.2391 30.804C87.8938 31.028 87.4318 31.14 86.8531 31.14ZM92.3514 32.848V31.84H96.6354C96.934 31.84 97.144 31.7933 97.2654 31.7C97.396 31.6067 97.4614 31.4527 97.4614 31.238C97.4614 31.014 97.396 30.8553 97.2654 30.762C97.144 30.6687 96.934 30.622 96.6354 30.622H93.8914C93.3874 30.622 93.0047 30.5333 92.7434 30.356C92.4914 30.1693 92.3654 29.9033 92.3654 29.558C92.3654 29.25 92.4634 29.0073 92.6594 28.83C92.8647 28.6527 93.1587 28.5453 93.5414 28.508V28.186C93.1307 28.018 92.8227 27.752 92.6174 27.388C92.412 27.0147 92.3094 26.562 92.3094 26.03C92.3094 25.1807 92.5754 24.5273 93.1074 24.07C93.6394 23.6127 94.3814 23.384 95.3334 23.384C96.2854 23.384 97.0227 23.6127 97.5454 24.07C98.0774 24.5273 98.3434 25.1807 98.3434 26.03C98.3434 26.8513 98.082 27.486 97.5594 27.934C97.0367 28.3727 96.304 28.592 95.3614 28.592H94.2834C94.0314 28.592 93.8494 28.6293 93.7374 28.704C93.6347 28.7787 93.5834 28.9 93.5834 29.068C93.5834 29.236 93.6347 29.3573 93.7374 29.432C93.8494 29.5067 94.0314 29.544 94.2834 29.544H96.9154C97.522 29.544 97.984 29.6793 98.3014 29.95C98.628 30.2207 98.7914 30.6173 98.7914 31.14C98.7914 31.7 98.6094 32.1247 98.2454 32.414C97.8907 32.7033 97.3774 32.848 96.7054 32.848H92.3514ZM95.3334 27.612C95.9027 27.612 96.3274 27.4953 96.6074 27.262C96.8967 27.0193 97.0414 26.6413 97.0414 26.128V25.904C97.0414 25.3907 96.8967 25.0173 96.6074 24.784C96.3274 24.5413 95.9027 24.42 95.3334 24.42C94.764 24.42 94.3347 24.5413 94.0454 24.784C93.756 25.0173 93.6114 25.3907 93.6114 25.904V26.128C93.6114 26.6413 93.756 27.0193 94.0454 27.262C94.3347 27.4953 94.764 27.612 95.3334 27.612ZM96.5234 23.874C96.5234 23.4167 96.6214 23.076 96.8174 22.852C97.0134 22.628 97.3167 22.516 97.7274 22.516H98.7494V23.524H97.3214C96.9667 23.524 96.7894 23.7293 96.7894 24.14L96.5234 23.874ZM103.244 31.14C102.526 31.14 101.91 30.9907 101.396 30.692C100.883 30.3933 100.491 29.9547 100.22 29.376C99.9496 28.7973 99.8143 28.0927 99.8143 27.262C99.8143 26.422 99.9496 25.7173 100.22 25.148C100.491 24.5693 100.883 24.1307 101.396 23.832C101.91 23.5333 102.526 23.384 103.244 23.384C103.972 23.384 104.588 23.5333 105.092 23.832C105.596 24.1307 105.984 24.5693 106.254 25.148C106.525 25.7173 106.66 26.422 106.66 27.262C106.66 28.0927 106.525 28.7973 106.254 29.376C105.984 29.9547 105.596 30.3933 105.092 30.692C104.588 30.9907 103.972 31.14 103.244 31.14ZM103.244 30.062C103.935 30.062 104.444 29.866 104.77 29.474C105.097 29.082 105.26 28.4753 105.26 27.654V26.87C105.26 26.0487 105.097 25.442 104.77 25.05C104.444 24.658 103.935 24.462 103.244 24.462C102.544 24.462 102.031 24.658 101.704 25.05C101.378 25.442 101.214 26.0487 101.214 26.87V27.654C101.214 28.4753 101.378 29.082 101.704 29.474C102.031 29.866 102.544 30.062 103.244 30.062Z" fill="#9698A2"/>
<path d="M238.833 18.8922V33.1079C238.833 33.4329 238.704 33.7447 238.474 33.9745C238.245 34.2043 237.933 34.3334 237.608 34.3334H223.392C223.067 34.3334 222.755 34.2043 222.526 33.9745C222.296 33.7447 222.167 33.4329 222.167 33.1079V18.8922C222.167 18.5672 222.296 18.2555 222.526 18.0257C222.755 17.7959 223.067 17.6667 223.392 17.6667H237.608C237.933 17.6667 238.245 17.7959 238.474 18.0257C238.704 18.2555 238.833 18.5672 238.833 18.8922ZM227.069 24.0393H224.618V31.8824H227.069V24.0393ZM227.289 21.3432C227.29 21.1578 227.255 20.974 227.185 20.8022C227.116 20.6304 227.013 20.4741 226.883 20.3421C226.752 20.2101 226.598 20.105 226.427 20.0329C226.256 19.9607 226.073 19.9229 225.887 19.9216H225.843C225.466 19.9216 225.104 20.0714 224.838 20.338C224.571 20.6046 224.422 20.9662 224.422 21.3432C224.422 21.7202 224.571 22.0818 224.838 22.3484C225.104 22.615 225.466 22.7648 225.843 22.7648C226.029 22.7693 226.213 22.7373 226.386 22.6706C226.559 22.6038 226.717 22.5036 226.852 22.3757C226.986 22.2478 227.094 22.0946 227.169 21.925C227.244 21.7555 227.285 21.5727 227.289 21.3873V21.3432ZM236.382 27.1177C236.382 24.7599 234.882 23.8432 233.392 23.8432C232.904 23.8188 232.418 23.9227 231.983 24.1446C231.548 24.3665 231.179 24.6987 230.912 25.1079H230.843V24.0393H228.539V31.8824H230.99V27.7108C230.955 27.2837 231.089 26.8597 231.365 26.5311C231.64 26.2025 232.034 25.9958 232.461 25.956H232.554C233.333 25.956 233.912 26.4462 233.912 27.6814V31.8824H236.363L236.382 27.1177Z" fill="#9698A2"/>
<path d="M17.844 59V50.39H16.724V49.34H21.4C22.2867 49.34 23.024 49.508 23.612 49.844C24.2 50.18 24.6387 50.7027 24.928 51.412C25.2267 52.1213 25.376 53.0407 25.376 54.17C25.376 55.29 25.2267 56.2093 24.928 56.928C24.6387 57.6373 24.2 58.16 23.612 58.496C23.024 58.832 22.2867 59 21.4 59H17.844ZM19.202 57.95H21.288C22.1933 57.95 22.8607 57.7073 23.29 57.222C23.7193 56.7367 23.934 55.9527 23.934 54.87V53.47C23.934 52.3873 23.7193 51.6033 23.29 51.118C22.8607 50.6327 22.1933 50.39 21.288 50.39H19.202V57.95ZM27.4833 59V52.532H26.3773V51.524H28.8133V59H27.4833ZM27.3573 50.614V49.34H28.8973V50.614H27.3573ZM32.4878 59L30.2478 51.524H31.6338L33.5238 57.88H33.8878L35.7638 51.524H37.0938L34.8538 59H32.4878ZM38.8036 59V52.532H37.6976V51.524H40.1336V59H38.8036ZM38.6776 50.614V49.34H40.2176V50.614H38.6776ZM42.5201 59V52.532H41.5401V51.524H43.6261V52.812H43.9901C44.1768 52.3267 44.4381 51.9673 44.7741 51.734C45.1194 51.5007 45.5581 51.384 46.0901 51.384C46.8648 51.384 47.4528 51.6173 47.8541 52.084C48.2648 52.5507 48.4701 53.2367 48.4701 54.142V57.992H49.4361V59H47.1541V54.422C47.1541 53.7407 47.0188 53.246 46.7481 52.938C46.4868 52.6207 46.0668 52.462 45.4881 52.462C44.9188 52.462 44.4988 52.6207 44.2281 52.938C43.9574 53.246 43.8221 53.7407 43.8221 54.422V59H42.5201ZM50.4236 60.848V59.84H54.7076C55.0063 59.84 55.2163 59.7933 55.3376 59.7C55.4683 59.6067 55.5336 59.4527 55.5336 59.238C55.5336 59.014 55.4683 58.8553 55.3376 58.762C55.2163 58.6687 55.0063 58.622 54.7076 58.622H51.9636C51.4596 58.622 51.077 58.5333 50.8156 58.356C50.5636 58.1693 50.4376 57.9033 50.4376 57.558C50.4376 57.25 50.5356 57.0073 50.7316 56.83C50.937 56.6527 51.231 56.5453 51.6136 56.508V56.186C51.203 56.018 50.895 55.752 50.6896 55.388C50.4843 55.0147 50.3816 54.562 50.3816 54.03C50.3816 53.1807 50.6476 52.5273 51.1796 52.07C51.7116 51.6127 52.4536 51.384 53.4056 51.384C54.3576 51.384 55.095 51.6127 55.6176 52.07C56.1496 52.5273 56.4156 53.1807 56.4156 54.03C56.4156 54.8513 56.1543 55.486 55.6316 55.934C55.109 56.3727 54.3763 56.592 53.4336 56.592H52.3556C52.1036 56.592 51.9216 56.6293 51.8096 56.704C51.707 56.7787 51.6556 56.9 51.6556 57.068C51.6556 57.236 51.707 57.3573 51.8096 57.432C51.9216 57.5067 52.1036 57.544 52.3556 57.544H54.9876C55.5943 57.544 56.0563 57.6793 56.3736 57.95C56.7003 58.2207 56.8636 58.6173 56.8636 59.14C56.8636 59.7 56.6816 60.1247 56.3176 60.414C55.963 60.7033 55.4496 60.848 54.7776 60.848H50.4236ZM53.4056 55.612C53.975 55.612 54.3996 55.4953 54.6796 55.262C54.969 55.0193 55.1136 54.6413 55.1136 54.128V53.904C55.1136 53.3907 54.969 53.0173 54.6796 52.784C54.3996 52.5413 53.975 52.42 53.4056 52.42C52.8363 52.42 52.407 52.5413 52.1176 52.784C51.8283 53.0173 51.6836 53.3907 51.6836 53.904V54.128C51.6836 54.6413 51.8283 55.0193 52.1176 55.262C52.407 55.4953 52.8363 55.612 53.4056 55.612ZM54.5956 51.874C54.5956 51.4167 54.6936 51.076 54.8896 50.852C55.0856 50.628 55.389 50.516 55.7996 50.516H56.8216V51.524H55.3936C55.039 51.524 54.8616 51.7293 54.8616 52.14L54.5956 51.874ZM62.0185 59V52.532H60.9125V51.524H63.3485V59H62.0185ZM61.8925 50.614V49.34H63.4325V50.614H61.8925ZM65.7349 59V52.532H64.7549V51.524H66.8409V52.812H67.2049C67.3916 52.3267 67.6529 51.9673 67.9889 51.734C68.3343 51.5007 68.7729 51.384 69.3049 51.384C70.0796 51.384 70.6676 51.6173 71.0689 52.084C71.4796 52.5507 71.6849 53.2367 71.6849 54.142V57.992H72.6509V59H70.3689V54.422C70.3689 53.7407 70.2336 53.246 69.9629 52.938C69.7016 52.6207 69.2816 52.462 68.7029 52.462C68.1336 52.462 67.7136 52.6207 67.4429 52.938C67.1723 53.246 67.0369 53.7407 67.0369 54.422V59H65.7349ZM75.3055 59C74.7175 59 74.4235 58.7013 74.4235 58.104V51.524L74.8995 50.026H75.7395V57.992H77.4895V59H75.3055ZM73.0655 52.532V51.524H77.4895V52.532H73.0655ZM81.838 59.14C81.1193 59.14 80.5033 58.9907 79.99 58.692C79.4767 58.3933 79.0847 57.9547 78.814 57.376C78.5433 56.7973 78.408 56.0927 78.408 55.262C78.408 54.422 78.5433 53.7173 78.814 53.148C79.0847 52.5693 79.4767 52.1307 79.99 51.832C80.5033 51.5333 81.1193 51.384 81.838 51.384C82.566 51.384 83.182 51.5333 83.686 51.832C84.19 52.1307 84.5773 52.5693 84.848 53.148C85.1187 53.7173 85.254 54.422 85.254 55.262C85.254 56.0927 85.1187 56.7973 84.848 57.376C84.5773 57.9547 84.19 58.3933 83.686 58.692C83.182 58.9907 82.566 59.14 81.838 59.14ZM81.838 58.062C82.5287 58.062 83.0373 57.866 83.364 57.474C83.6907 57.082 83.854 56.4753 83.854 55.654V54.87C83.854 54.0487 83.6907 53.442 83.364 53.05C83.0373 52.658 82.5287 52.462 81.838 52.462C81.138 52.462 80.6247 52.658 80.298 53.05C79.9713 53.442 79.808 54.0487 79.808 54.87V55.654C79.808 56.4753 79.9713 57.082 80.298 57.474C80.6247 57.866 81.138 58.062 81.838 58.062ZM93.4207 59.14C92.4594 59.14 91.7267 58.86 91.2227 58.3C90.728 57.7307 90.4807 56.9047 90.4807 55.822V50.39H89.3607V49.34H91.8387V55.528C91.8387 56.3867 92.0114 57.0167 92.3567 57.418C92.7114 57.8193 93.262 58.02 94.0087 58.02C94.774 58.02 95.3294 57.8193 95.6747 57.418C96.02 57.0167 96.1927 56.3867 96.1927 55.528V49.34H97.5507V57.95H98.6707V59H97.2987C96.7014 59 96.4027 58.7013 96.4027 58.104V57.516H96.0527C95.838 58.0667 95.516 58.4773 95.0867 58.748C94.6667 59.0093 94.1114 59.14 93.4207 59.14ZM99.3621 59V57.964H100.482L102.428 53.54V54.31L100.58 50.376H99.4461V49.34H101.63L103.422 53.442H103.772L105.564 49.34H107.692V50.376H106.558L104.71 54.31V53.54L106.656 57.964H107.79V59H105.606L103.73 54.646H103.366L101.49 59H99.3621ZM112.807 60.848V52.532H111.827V51.524H113.913V52.91H114.277C114.492 52.3967 114.777 52.014 115.131 51.762C115.495 51.51 115.948 51.384 116.489 51.384C117.096 51.384 117.614 51.538 118.043 51.846C118.482 52.1447 118.818 52.5833 119.051 53.162C119.285 53.7313 119.401 54.4313 119.401 55.262C119.401 56.0833 119.285 56.7833 119.051 57.362C118.818 57.9407 118.482 58.384 118.043 58.692C117.614 58.9907 117.096 59.14 116.489 59.14C115.957 59.14 115.514 59.0233 115.159 58.79C114.814 58.5567 114.543 58.1927 114.347 57.698H113.983C114.03 58.1367 114.063 58.4867 114.081 58.748C114.109 59.0093 114.123 59.2427 114.123 59.448V60.848H112.807ZM116.055 58.062C116.727 58.062 117.222 57.8707 117.539 57.488C117.857 57.096 118.015 56.4893 118.015 55.668V54.856C118.015 54.0253 117.857 53.4187 117.539 53.036C117.222 52.6533 116.727 52.462 116.055 52.462C115.393 52.462 114.903 52.6533 114.585 53.036C114.277 53.4187 114.123 54.0253 114.123 54.856V55.668C114.123 56.4893 114.277 57.096 114.585 57.488C114.903 57.8707 115.393 58.062 116.055 58.062ZM121.352 59V52.532H120.372V51.524H122.458V52.868H122.822C123.009 52.3827 123.261 52.0233 123.578 51.79C123.905 51.5567 124.325 51.44 124.838 51.44H125.916V52.532H124.32C123.751 52.532 123.331 52.686 123.06 52.994C122.789 53.302 122.654 53.7967 122.654 54.478V59H121.352ZM127.698 59V52.532H126.592V51.524H129.028V59H127.698ZM127.572 50.614V49.34H129.112V50.614H127.572ZM131.415 59V52.532H130.435V51.524H132.521V52.812H132.885C133.071 52.3267 133.333 51.9673 133.669 51.734C134.014 51.5007 134.453 51.384 134.985 51.384C135.759 51.384 136.347 51.6173 136.749 52.084C137.159 52.5507 137.365 53.2367 137.365 54.142V57.992H138.331V59H136.049V54.422C136.049 53.7407 135.913 53.246 135.643 52.938C135.381 52.6207 134.961 52.462 134.383 52.462C133.813 52.462 133.393 52.6207 133.123 52.938C132.852 53.246 132.717 53.7407 132.717 54.422V59H131.415ZM142.58 59.14C141.88 59.14 141.278 58.9953 140.774 58.706C140.28 58.4073 139.897 57.9687 139.626 57.39C139.365 56.8113 139.234 56.102 139.234 55.262C139.234 54.4127 139.365 53.7033 139.626 53.134C139.897 52.5553 140.28 52.1213 140.774 51.832C141.278 51.5333 141.88 51.384 142.58 51.384C143.467 51.384 144.186 51.608 144.736 52.056C145.287 52.504 145.632 53.162 145.772 54.03H144.442V53.96C144.442 53.736 144.377 53.512 144.246 53.288C144.125 53.0547 143.929 52.8587 143.658 52.7C143.388 52.5413 143.028 52.462 142.58 52.462C141.927 52.462 141.437 52.6533 141.11 53.036C140.793 53.4187 140.634 54.0253 140.634 54.856V55.668C140.634 56.4893 140.793 57.096 141.11 57.488C141.437 57.8707 141.927 58.062 142.58 58.062C143.028 58.062 143.388 57.9827 143.658 57.824C143.929 57.656 144.125 57.4507 144.246 57.208C144.377 56.9653 144.442 56.718 144.442 56.466V56.382H145.786C145.665 57.278 145.324 57.964 144.764 58.44C144.214 58.9067 143.486 59.14 142.58 59.14ZM147.81 59V52.532H146.704V51.524H149.14V59H147.81ZM147.684 50.614V49.34H149.224V50.614H147.684ZM151.526 60.848V52.532H150.546V51.524H152.632V52.91H152.996C153.211 52.3967 153.495 52.014 153.85 51.762C154.214 51.51 154.667 51.384 155.208 51.384C155.815 51.384 156.333 51.538 156.762 51.846C157.201 52.1447 157.537 52.5833 157.77 53.162C158.003 53.7313 158.12 54.4313 158.12 55.262C158.12 56.0833 158.003 56.7833 157.77 57.362C157.537 57.9407 157.201 58.384 156.762 58.692C156.333 58.9907 155.815 59.14 155.208 59.14C154.676 59.14 154.233 59.0233 153.878 58.79C153.533 58.5567 153.262 58.1927 153.066 57.698H152.702C152.749 58.1367 152.781 58.4867 152.8 58.748C152.828 59.0093 152.842 59.2427 152.842 59.448V60.848H151.526ZM154.774 58.062C155.446 58.062 155.941 57.8707 156.258 57.488C156.575 57.096 156.734 56.4893 156.734 55.668V54.856C156.734 54.0253 156.575 53.4187 156.258 53.036C155.941 52.6533 155.446 52.462 154.774 52.462C154.111 52.462 153.621 52.6533 153.304 53.036C152.996 53.4187 152.842 54.0253 152.842 54.856V55.668C152.842 56.4893 152.996 57.096 153.304 57.488C153.621 57.8707 154.111 58.062 154.774 58.062ZM160.015 59V50.348H158.909V49.34H161.331V59H160.015ZM166.589 59.14C165.871 59.14 165.255 58.9907 164.741 58.692C164.237 58.3933 163.85 57.9547 163.579 57.376C163.318 56.7973 163.187 56.0927 163.187 55.262C163.187 54.422 163.318 53.7173 163.579 53.148C163.85 52.5693 164.237 52.1307 164.741 51.832C165.255 51.5333 165.871 51.384 166.589 51.384C167.28 51.384 167.868 51.524 168.353 51.804C168.839 52.0747 169.207 52.476 169.459 53.008C169.721 53.54 169.851 54.198 169.851 54.982V55.472H164.083V54.576H169.333L168.563 55.178V54.856C168.563 54.016 168.405 53.4047 168.087 53.022C167.77 52.63 167.271 52.434 166.589 52.434C165.899 52.434 165.39 52.63 165.063 53.022C164.746 53.4047 164.587 54.016 164.587 54.856V55.654C164.587 56.4753 164.746 57.082 165.063 57.474C165.39 57.866 165.899 58.062 166.589 58.062C167.037 58.062 167.387 57.992 167.639 57.852C167.901 57.7027 168.087 57.5253 168.199 57.32C168.311 57.1147 168.367 56.9233 168.367 56.746V56.69H169.739C169.571 57.4927 169.217 58.104 168.675 58.524C168.143 58.9347 167.448 59.14 166.589 59.14ZM174.238 59.14C173.295 59.14 172.572 58.944 172.068 58.552C171.564 58.16 171.242 57.5393 171.102 56.69H172.432V56.746C172.432 56.97 172.488 57.1847 172.6 57.39C172.712 57.5953 172.899 57.7633 173.16 57.894C173.421 58.0247 173.781 58.09 174.238 58.09C174.789 58.09 175.218 57.9967 175.526 57.81C175.834 57.614 175.988 57.3387 175.988 56.984C175.988 56.7133 175.895 56.508 175.708 56.368C175.521 56.2187 175.199 56.0927 174.742 55.99L173.202 55.654C172.493 55.486 171.975 55.2433 171.648 54.926C171.331 54.6087 171.172 54.184 171.172 53.652C171.172 52.924 171.433 52.364 171.956 51.972C172.488 51.58 173.235 51.384 174.196 51.384C175.12 51.384 175.834 51.58 176.338 51.972C176.842 52.364 177.164 52.9847 177.304 53.834H175.974V53.778C175.974 53.554 175.923 53.3393 175.82 53.134C175.717 52.9287 175.535 52.7607 175.274 52.63C175.013 52.4993 174.653 52.434 174.196 52.434C173.655 52.434 173.235 52.5273 172.936 52.714C172.637 52.9007 172.488 53.176 172.488 53.54C172.488 53.8013 172.581 54.0067 172.768 54.156C172.955 54.3053 173.267 54.4313 173.706 54.534L175.246 54.87C175.965 55.038 176.487 55.276 176.814 55.584C177.141 55.892 177.304 56.3167 177.304 56.858C177.304 57.586 177.038 58.1507 176.506 58.552C175.974 58.944 175.218 59.14 174.238 59.14ZM183.71 59C183.122 59 182.828 58.7013 182.828 58.104V51.524L183.304 50.026H184.144V57.992H185.894V59H183.71ZM181.47 52.532V51.524H185.894V52.532H181.47ZM187.451 59V50.348H186.485V49.34H188.781V50.95C188.781 51.1647 188.767 51.4027 188.739 51.664C188.72 51.9253 188.688 52.2753 188.641 52.714H189.005C189.173 52.2567 189.42 51.9207 189.747 51.706C190.083 51.4913 190.512 51.384 191.035 51.384C191.819 51.384 192.407 51.6173 192.799 52.084C193.2 52.5507 193.401 53.2367 193.401 54.142V57.992H194.381V59H192.099V54.422C192.099 53.7407 191.964 53.246 191.693 52.938C191.422 52.6207 191.002 52.462 190.433 52.462C189.864 52.462 189.444 52.6207 189.173 52.938C188.912 53.246 188.781 53.7407 188.781 54.422V59H187.451ZM195.989 59V52.532H194.883V51.524H197.319V59H195.989ZM195.863 50.614V49.34H197.403V50.614H195.863ZM202.17 59.14C201.227 59.14 200.504 58.944 200 58.552C199.496 58.16 199.174 57.5393 199.034 56.69H200.364V56.746C200.364 56.97 200.42 57.1847 200.532 57.39C200.644 57.5953 200.83 57.7633 201.092 57.894C201.353 58.0247 201.712 58.09 202.17 58.09C202.72 58.09 203.15 57.9967 203.458 57.81C203.766 57.614 203.92 57.3387 203.92 56.984C203.92 56.7133 203.826 56.508 203.64 56.368C203.453 56.2187 203.131 56.0927 202.674 55.99L201.134 55.654C200.424 55.486 199.906 55.2433 199.58 54.926C199.262 54.6087 199.104 54.184 199.104 53.652C199.104 52.924 199.365 52.364 199.888 51.972C200.42 51.58 201.166 51.384 202.128 51.384C203.052 51.384 203.766 51.58 204.27 51.972C204.774 52.364 205.096 52.9847 205.236 53.834H203.906V53.778C203.906 53.554 203.854 53.3393 203.752 53.134C203.649 52.9287 203.467 52.7607 203.206 52.63C202.944 52.4993 202.585 52.434 202.128 52.434C201.586 52.434 201.166 52.5273 200.868 52.714C200.569 52.9007 200.42 53.176 200.42 53.54C200.42 53.8013 200.513 54.0067 200.7 54.156C200.886 54.3053 201.199 54.4313 201.638 54.534L203.178 54.87C203.896 55.038 204.419 55.276 204.746 55.584C205.072 55.892 205.236 56.3167 205.236 56.858C205.236 57.586 204.97 58.1507 204.438 58.552C203.906 58.944 203.15 59.14 202.17 59.14ZM18.838 79L16.864 71.524H18.222L19.86 77.88H20.238L21.904 71.524H23.234L24.9 77.88H25.264L26.902 71.524H28.218L26.244 79H24.032L22.716 74.072H22.366L21.036 79H18.838ZM32.5092 79.14C31.7906 79.14 31.1746 78.9907 30.6612 78.692C30.1572 78.3933 29.7699 77.9547 29.4992 77.376C29.2379 76.7973 29.1072 76.0927 29.1072 75.262C29.1072 74.422 29.2379 73.7173 29.4992 73.148C29.7699 72.5693 30.1572 72.1307 30.6612 71.832C31.1746 71.5333 31.7906 71.384 32.5092 71.384C33.1999 71.384 33.7879 71.524 34.2732 71.804C34.7586 72.0747 35.1272 72.476 35.3792 73.008C35.6406 73.54 35.7712 74.198 35.7712 74.982V75.472H30.0032V74.576H35.2532L34.4832 75.178V74.856C34.4832 74.016 34.3246 73.4047 34.0072 73.022C33.6899 72.63 33.1906 72.434 32.5092 72.434C31.8186 72.434 31.3099 72.63 30.9832 73.022C30.6659 73.4047 30.5072 74.016 30.5072 74.856V75.654C30.5072 76.4753 30.6659 77.082 30.9832 77.474C31.3099 77.866 31.8186 78.062 32.5092 78.062C32.9572 78.062 33.3072 77.992 33.5592 77.852C33.8206 77.7027 34.0072 77.5253 34.1192 77.32C34.2312 77.1147 34.2872 76.9233 34.2872 76.746V76.69H35.6592C35.4912 77.4927 35.1366 78.104 34.5952 78.524C34.0632 78.9347 33.3679 79.14 32.5092 79.14ZM40.4799 79.14C39.7613 79.14 39.1453 78.9907 38.6319 78.692C38.1279 78.3933 37.7406 77.9547 37.4699 77.376C37.2086 76.7973 37.0779 76.0927 37.0779 75.262C37.0779 74.422 37.2086 73.7173 37.4699 73.148C37.7406 72.5693 38.1279 72.1307 38.6319 71.832C39.1453 71.5333 39.7613 71.384 40.4799 71.384C41.1706 71.384 41.7586 71.524 42.2439 71.804C42.7293 72.0747 43.0979 72.476 43.3499 73.008C43.6113 73.54 43.7419 74.198 43.7419 74.982V75.472H37.9739V74.576H43.2239L42.4539 75.178V74.856C42.4539 74.016 42.2953 73.4047 41.9779 73.022C41.6606 72.63 41.1613 72.434 40.4799 72.434C39.7893 72.434 39.2806 72.63 38.9539 73.022C38.6366 73.4047 38.4779 74.016 38.4779 74.856V75.654C38.4779 76.4753 38.6366 77.082 38.9539 77.474C39.2806 77.866 39.7893 78.062 40.4799 78.062C40.9279 78.062 41.2779 77.992 41.5299 77.852C41.7913 77.7027 41.9779 77.5253 42.0899 77.32C42.2019 77.1147 42.2579 76.9233 42.2579 76.746V76.69H43.6299C43.4619 77.4927 43.1073 78.104 42.5659 78.524C42.0339 78.9347 41.3386 79.14 40.4799 79.14ZM45.4826 79V70.348H44.5026V69.34H46.7986V74.66H47.8346L50.3686 71.524H51.9926L48.7866 75.43L48.7586 74.674L51.1946 77.992H52.1746V79H50.2706L47.8346 75.612H46.7986V79H45.4826ZM53.3263 79V77.502H54.8803V79H53.3263ZM63.5745 79.14C62.7158 79.14 61.9831 78.958 61.3765 78.594C60.7791 78.2207 60.3218 77.6653 60.0045 76.928C59.6965 76.1907 59.5425 75.2713 59.5425 74.17C59.5425 73.0593 59.6965 72.14 60.0045 71.412C60.3218 70.6747 60.7791 70.124 61.3765 69.76C61.9831 69.3867 62.7158 69.2 63.5745 69.2C64.6851 69.2 65.5718 69.4987 66.2345 70.096C66.8971 70.684 67.3078 71.5567 67.4665 72.714H66.0665V72.462C66.0665 72.07 65.9778 71.7153 65.8005 71.398C65.6325 71.0713 65.3665 70.81 65.0025 70.614C64.6385 70.418 64.1625 70.32 63.5745 70.32C62.6878 70.32 62.0345 70.5767 61.6145 71.09C61.1945 71.594 60.9845 72.3873 60.9845 73.47V74.87C60.9845 75.9527 61.1945 76.7507 61.6145 77.264C62.0345 77.768 62.6878 78.02 63.5745 78.02C64.1625 78.02 64.6385 77.9173 65.0025 77.712C65.3665 77.5067 65.6325 77.236 65.8005 76.9C65.9778 76.564 66.0665 76.1953 66.0665 75.794V75.514H67.4805C67.3405 76.7087 66.9345 77.614 66.2625 78.23C65.5998 78.8367 64.7038 79.14 63.5745 79.14ZM71.1617 79.14C70.4244 79.14 69.8457 78.958 69.4257 78.594C69.0057 78.2207 68.7957 77.7073 68.7957 77.054C68.7957 76.382 69.015 75.8593 69.4537 75.486C69.9017 75.1127 70.555 74.884 71.4137 74.8L73.4997 74.59V75.486L71.7917 75.654C71.2224 75.71 70.807 75.836 70.5457 76.032C70.2844 76.2187 70.1537 76.494 70.1537 76.858V76.942C70.1537 77.3153 70.2844 77.6 70.5457 77.796C70.8164 77.9827 71.199 78.076 71.6937 78.076C72.3004 78.076 72.753 77.9453 73.0517 77.684C73.3504 77.4133 73.4997 77.0073 73.4997 76.466V75.304V75.108V74.226C73.4997 73.61 73.3737 73.162 73.1217 72.882C72.879 72.602 72.4824 72.462 71.9317 72.462C71.5397 72.462 71.2224 72.5273 70.9797 72.658C70.7464 72.7793 70.5737 72.938 70.4617 73.134C70.359 73.33 70.3077 73.5447 70.3077 73.778V73.834H68.9637C69.0944 73.0127 69.407 72.4013 69.9017 72C70.4057 71.5893 71.0917 71.384 71.9597 71.384C72.9024 71.384 73.6164 71.622 74.1017 72.098C74.587 72.5647 74.8297 73.2553 74.8297 74.17V77.992H75.7957V79H74.5917C74.0037 79 73.7097 78.706 73.7097 78.118V77.74H73.3597C73.173 78.216 72.9024 78.5707 72.5477 78.804C72.2024 79.028 71.7404 79.14 71.1617 79.14ZM77.192 79V72.532H76.212V71.524H78.298V72.812H78.662C78.8486 72.3267 79.11 71.9673 79.446 71.734C79.7913 71.5007 80.23 71.384 80.762 71.384C81.5366 71.384 82.1246 71.6173 82.526 72.084C82.9366 72.5507 83.142 73.2367 83.142 74.142V77.992H84.108V79H81.826V74.422C81.826 73.7407 81.6906 73.246 81.42 72.938C81.1586 72.6207 80.7386 72.462 80.16 72.462C79.5906 72.462 79.1706 72.6207 78.9 72.938C78.6293 73.246 78.494 73.7407 78.494 74.422V79H77.192ZM84.7365 72.21L84.3725 70.04V69.34H85.7165V70.04L85.3525 72.21H84.7365ZM88.9773 79C88.3893 79 88.0953 78.7013 88.0953 78.104V71.524L88.5713 70.026H89.4113V77.992H91.1613V79H88.9773ZM86.7373 72.532V71.524H91.1613V72.532H86.7373ZM97.2872 79L95.3132 71.524H96.6712L98.3092 77.88H98.6872L100.353 71.524H101.683L103.349 77.88H103.713L105.351 71.524H106.667L104.693 79H102.481L101.165 74.072H100.815L99.4852 79H97.2872ZM109.908 79.14C109.17 79.14 108.592 78.958 108.172 78.594C107.752 78.2207 107.542 77.7073 107.542 77.054C107.542 76.382 107.761 75.8593 108.2 75.486C108.648 75.1127 109.301 74.884 110.16 74.8L112.246 74.59V75.486L110.538 75.654C109.968 75.71 109.553 75.836 109.292 76.032C109.03 76.2187 108.9 76.494 108.9 76.858V76.942C108.9 77.3153 109.03 77.6 109.292 77.796C109.562 77.9827 109.945 78.076 110.44 78.076C111.046 78.076 111.499 77.9453 111.798 77.684C112.096 77.4133 112.246 77.0073 112.246 76.466V75.304V75.108V74.226C112.246 73.61 112.12 73.162 111.868 72.882C111.625 72.602 111.228 72.462 110.678 72.462C110.286 72.462 109.968 72.5273 109.726 72.658C109.492 72.7793 109.32 72.938 109.208 73.134C109.105 73.33 109.054 73.5447 109.054 73.778V73.834H107.71C107.84 73.0127 108.153 72.4013 108.648 72C109.152 71.5893 109.838 71.384 110.706 71.384C111.648 71.384 112.362 71.622 112.848 72.098C113.333 72.5647 113.576 73.2553 113.576 74.17V77.992H114.542V79H113.338C112.75 79 112.456 78.706 112.456 78.118V77.74H112.106C111.919 78.216 111.648 78.5707 111.294 78.804C110.948 79.028 110.486 79.14 109.908 79.14ZM116.036 79V72.532H114.93V71.524H117.366V79H116.036ZM115.91 70.614V69.34H117.45V70.614H115.91ZM120.929 79C120.341 79 120.047 78.7013 120.047 78.104V71.524L120.523 70.026H121.363V77.992H123.113V79H120.929ZM118.689 72.532V71.524H123.113V72.532H118.689ZM129.35 79C128.762 79 128.468 78.7013 128.468 78.104V71.524L128.944 70.026H129.784V77.992H131.534V79H129.35ZM127.11 72.532V71.524H131.534V72.532H127.11ZM135.883 79.14C135.164 79.14 134.548 78.9907 134.035 78.692C133.522 78.3933 133.13 77.9547 132.859 77.376C132.588 76.7973 132.453 76.0927 132.453 75.262C132.453 74.422 132.588 73.7173 132.859 73.148C133.13 72.5693 133.522 72.1307 134.035 71.832C134.548 71.5333 135.164 71.384 135.883 71.384C136.611 71.384 137.227 71.5333 137.731 71.832C138.235 72.1307 138.622 72.5693 138.893 73.148C139.164 73.7173 139.299 74.422 139.299 75.262C139.299 76.0927 139.164 76.7973 138.893 77.376C138.622 77.9547 138.235 78.3933 137.731 78.692C137.227 78.9907 136.611 79.14 135.883 79.14ZM135.883 78.062C136.574 78.062 137.082 77.866 137.409 77.474C137.736 77.082 137.899 76.4753 137.899 75.654V74.87C137.899 74.0487 137.736 73.442 137.409 73.05C137.082 72.658 136.574 72.462 135.883 72.462C135.183 72.462 134.67 72.658 134.343 73.05C134.016 73.442 133.853 74.0487 133.853 74.87V75.654C133.853 76.4753 134.016 77.082 134.343 77.474C134.67 77.866 135.183 78.062 135.883 78.062ZM144.54 79V72.532H143.56V71.524H145.646V72.868H146.01C146.196 72.3827 146.448 72.0233 146.766 71.79C147.092 71.5567 147.512 71.44 148.026 71.44H149.104V72.532H147.508C146.938 72.532 146.518 72.686 146.248 72.994C145.977 73.302 145.842 73.7967 145.842 74.478V79H144.54ZM153.04 79.14C152.322 79.14 151.706 78.9907 151.192 78.692C150.688 78.3933 150.301 77.9547 150.03 77.376C149.769 76.7973 149.638 76.0927 149.638 75.262C149.638 74.422 149.769 73.7173 150.03 73.148C150.301 72.5693 150.688 72.1307 151.192 71.832C151.706 71.5333 152.322 71.384 153.04 71.384C153.731 71.384 154.319 71.524 154.804 71.804C155.29 72.0747 155.658 72.476 155.91 73.008C156.172 73.54 156.302 74.198 156.302 74.982V75.472H150.534V74.576H155.784L155.014 75.178V74.856C155.014 74.016 154.856 73.4047 154.538 73.022C154.221 72.63 153.722 72.434 153.04 72.434C152.35 72.434 151.841 72.63 151.514 73.022C151.197 73.4047 151.038 74.016 151.038 74.856V75.654C151.038 76.4753 151.197 77.082 151.514 77.474C151.841 77.866 152.35 78.062 153.04 78.062C153.488 78.062 153.838 77.992 154.09 77.852C154.352 77.7027 154.538 77.5253 154.65 77.32C154.762 77.1147 154.818 76.9233 154.818 76.746V76.69H156.19C156.022 77.4927 155.668 78.104 155.126 78.524C154.594 78.9347 153.899 79.14 153.04 79.14ZM160.535 79.14C159.947 79.14 159.429 78.9907 158.981 78.692C158.543 78.384 158.207 77.9407 157.973 77.362C157.74 76.7833 157.623 76.0833 157.623 75.262C157.623 74.4313 157.74 73.7313 157.973 73.162C158.207 72.5833 158.543 72.1447 158.981 71.846C159.42 71.538 159.938 71.384 160.535 71.384C161.077 71.384 161.52 71.5007 161.865 71.734C162.211 71.9673 162.486 72.3313 162.691 72.826H163.041C162.995 72.3873 162.957 72.0373 162.929 71.776C162.911 71.5147 162.901 71.2767 162.901 71.062V70.348H161.795V69.34H164.217V77.992H165.197V79H163.993C163.405 79 163.111 78.7013 163.111 78.104V77.614H162.747C162.542 78.118 162.257 78.5007 161.893 78.762C161.529 79.014 161.077 79.14 160.535 79.14ZM160.969 78.062C161.632 78.062 162.117 77.8707 162.425 77.488C162.743 77.096 162.901 76.4893 162.901 75.668V74.856C162.901 74.0253 162.743 73.4187 162.425 73.036C162.117 72.6533 161.632 72.462 160.969 72.462C160.297 72.462 159.803 72.6533 159.485 73.036C159.177 73.4187 159.023 74.0253 159.023 74.856V75.668C159.023 76.4893 159.177 77.096 159.485 77.488C159.803 77.8707 160.297 78.062 160.969 78.062ZM169.501 79.14C168.783 79.14 168.167 78.9907 167.653 78.692C167.149 78.3933 166.762 77.9547 166.491 77.376C166.23 76.7973 166.099 76.0927 166.099 75.262C166.099 74.422 166.23 73.7173 166.491 73.148C166.762 72.5693 167.149 72.1307 167.653 71.832C168.167 71.5333 168.783 71.384 169.501 71.384C170.192 71.384 170.78 71.524 171.265 71.804C171.751 72.0747 172.119 72.476 172.371 73.008C172.633 73.54 172.763 74.198 172.763 74.982V75.472H166.995V74.576H172.245L171.475 75.178V74.856C171.475 74.016 171.317 73.4047 170.999 73.022C170.682 72.63 170.183 72.434 169.501 72.434C168.811 72.434 168.302 72.63 167.975 73.022C167.658 73.4047 167.499 74.016 167.499 74.856V75.654C167.499 76.4753 167.658 77.082 167.975 77.474C168.302 77.866 168.811 78.062 169.501 78.062C169.949 78.062 170.299 77.992 170.551 77.852C170.813 77.7027 170.999 77.5253 171.111 77.32C171.223 77.1147 171.279 76.9233 171.279 76.746V76.69H172.651C172.483 77.4927 172.129 78.104 171.587 78.524C171.055 78.9347 170.36 79.14 169.501 79.14ZM177.15 79.14C176.207 79.14 175.484 78.944 174.98 78.552C174.476 78.16 174.154 77.5393 174.014 76.69H175.344V76.746C175.344 76.97 175.4 77.1847 175.512 77.39C175.624 77.5953 175.811 77.7633 176.072 77.894C176.333 78.0247 176.693 78.09 177.15 78.09C177.701 78.09 178.13 77.9967 178.438 77.81C178.746 77.614 178.9 77.3387 178.9 76.984C178.9 76.7133 178.807 76.508 178.62 76.368C178.433 76.2187 178.111 76.0927 177.654 75.99L176.114 75.654C175.405 75.486 174.887 75.2433 174.56 74.926C174.243 74.6087 174.084 74.184 174.084 73.652C174.084 72.924 174.345 72.364 174.868 71.972C175.4 71.58 176.147 71.384 177.108 71.384C178.032 71.384 178.746 71.58 179.25 71.972C179.754 72.364 180.076 72.9847 180.216 73.834H178.886V73.778C178.886 73.554 178.835 73.3393 178.732 73.134C178.629 72.9287 178.447 72.7607 178.186 72.63C177.925 72.4993 177.565 72.434 177.108 72.434C176.567 72.434 176.147 72.5273 175.848 72.714C175.549 72.9007 175.4 73.176 175.4 73.54C175.4 73.8013 175.493 74.0067 175.68 74.156C175.867 74.3053 176.179 74.4313 176.618 74.534L178.158 74.87C178.877 75.038 179.399 75.276 179.726 75.584C180.053 75.892 180.216 76.3167 180.216 76.858C180.216 77.586 179.95 78.1507 179.418 78.552C178.886 78.944 178.13 79.14 177.15 79.14ZM182.235 79V72.532H181.129V71.524H183.565V79H182.235ZM182.109 70.614V69.34H183.649V70.614H182.109ZM185.42 80.848V79.84H189.704C190.002 79.84 190.212 79.7933 190.334 79.7C190.464 79.6067 190.53 79.4527 190.53 79.238C190.53 79.014 190.464 78.8553 190.334 78.762C190.212 78.6687 190.002 78.622 189.704 78.622H186.96C186.456 78.622 186.073 78.5333 185.812 78.356C185.56 78.1693 185.434 77.9033 185.434 77.558C185.434 77.25 185.532 77.0073 185.728 76.83C185.933 76.6527 186.227 76.5453 186.61 76.508V76.186C186.199 76.018 185.891 75.752 185.686 75.388C185.48 75.0147 185.378 74.562 185.378 74.03C185.378 73.1807 185.644 72.5273 186.176 72.07C186.708 71.6127 187.45 71.384 188.402 71.384C189.354 71.384 190.091 71.6127 190.614 72.07C191.146 72.5273 191.412 73.1807 191.412 74.03C191.412 74.8513 191.15 75.486 190.628 75.934C190.105 76.3727 189.372 76.592 188.43 76.592H187.352C187.1 76.592 186.918 76.6293 186.806 76.704C186.703 76.7787 186.652 76.9 186.652 77.068C186.652 77.236 186.703 77.3573 186.806 77.432C186.918 77.5067 187.1 77.544 187.352 77.544H189.984C190.59 77.544 191.052 77.6793 191.37 77.95C191.696 78.2207 191.86 78.6173 191.86 79.14C191.86 79.7 191.678 80.1247 191.314 80.414C190.959 80.7033 190.446 80.848 189.774 80.848H185.42ZM188.402 75.612C188.971 75.612 189.396 75.4953 189.676 75.262C189.965 75.0193 190.11 74.6413 190.11 74.128V73.904C190.11 73.3907 189.965 73.0173 189.676 72.784C189.396 72.5413 188.971 72.42 188.402 72.42C187.832 72.42 187.403 72.5413 187.114 72.784C186.824 73.0173 186.68 73.3907 186.68 73.904V74.128C186.68 74.6413 186.824 75.0193 187.114 75.262C187.403 75.4953 187.832 75.612 188.402 75.612ZM189.592 71.874C189.592 71.4167 189.69 71.076 189.886 70.852C190.082 70.628 190.385 70.516 190.796 70.516H191.818V71.524H190.39C190.035 71.524 189.858 71.7293 189.858 72.14L189.592 71.874ZM193.608 79V72.532H192.628V71.524H194.714V72.812H195.078C195.265 72.3267 195.526 71.9673 195.862 71.734C196.207 71.5007 196.646 71.384 197.178 71.384C197.953 71.384 198.541 71.6173 198.942 72.084C199.353 72.5507 199.558 73.2367 199.558 74.142V77.992H200.524V79H198.242V74.422C198.242 73.7407 198.107 73.246 197.836 72.938C197.575 72.6207 197.155 72.462 196.576 72.462C196.007 72.462 195.587 72.6207 195.316 72.938C195.045 73.246 194.91 73.7407 194.91 74.422V79H193.608ZM209.664 74.31C209.664 73.6847 209.543 73.2227 209.3 72.924C209.057 72.616 208.679 72.462 208.166 72.462C207.662 72.462 207.284 72.616 207.032 72.924C206.78 73.2227 206.654 73.6847 206.654 74.31V79H205.352V72.532H204.372V71.524H206.458V72.812H206.822C206.99 72.3267 207.233 71.9673 207.55 71.734C207.867 71.5007 208.273 71.384 208.768 71.384C209.272 71.384 209.683 71.5007 210 71.734C210.327 71.9673 210.574 72.3267 210.742 72.812H211.092C211.269 72.3267 211.517 71.9673 211.834 71.734C212.151 71.5007 212.571 71.384 213.094 71.384C213.822 71.384 214.373 71.6173 214.746 72.084C215.129 72.5507 215.32 73.2367 215.32 74.142V77.992H216.286V79H213.99V74.31C213.99 73.6847 213.869 73.2227 213.626 72.924C213.383 72.616 213.005 72.462 212.492 72.462C211.979 72.462 211.601 72.616 211.358 72.924C211.115 73.2227 210.994 73.6847 210.994 74.31V79H209.664V74.31ZM217.545 80.848V79.84H219.673L220.065 78.692H218.945L216.747 71.524H218.133L220.009 77.684H220.373L222.249 71.524H223.593L220.975 79.952C220.881 80.2413 220.76 80.4607 220.611 80.61C220.461 80.7687 220.237 80.848 219.939 80.848H217.545ZM224.826 79V77.502H226.38V79H224.826ZM227.654 79V77.502H229.208V79H227.654ZM230.482 79V77.502H232.036V79H230.482Z" fill="white"/>
<g clip-path="url(#clip0_107_56286)">
<path fill-rule="evenodd" clip-rule="evenodd" d="M29.1789 94.4417C28.3166 94.4417 27.5166 94.7972 26.9566 95.3839C26.6455 95.695 26.4055 96.0772 26.2544 96.5039C26.13 96.8239 26.0678 97.1794 26.0678 97.5528C26.0678 97.7137 26.0846 97.8728 26.1122 98.031C26.1353 98.1803 26.1726 98.3252 26.2153 98.4692V98.4701C26.2304 98.5199 26.2375 98.5714 26.2544 98.6194C26.2811 98.6905 26.3166 98.7705 26.3344 98.7972C26.3433 98.8239 26.3611 98.8594 26.3789 98.8861C26.5389 99.2505 26.77 99.5705 27.09 99.8461C27.1024 99.8568 27.202 99.9305 27.3513 100.027C27.3033 100.279 27.2046 100.523 27.0109 100.718C26.49 101.238 25.6455 101.238 25.1246 100.718C24.6046 100.197 24.6046 99.3528 25.1246 98.8319C25.1949 98.7625 25.2811 98.7261 25.3611 98.6754C25.2526 98.3234 25.1789 97.9394 25.1789 97.5528C25.1789 97.0861 25.258 96.6363 25.418 96.2194H22.7095L16.4998 102.428L23.4144 109.343L29.6233 103.133V97.5528C29.6233 96.8177 29.0251 96.2194 28.29 96.2194H27.402C27.81 95.6728 28.466 95.3305 29.1789 95.3305C30.4055 95.3305 31.4011 96.3261 31.4011 97.5528H32.29C32.29 95.8372 30.8944 94.4417 29.1789 94.4417" fill="#9698A2"/>
</g>
<rect x="30.5" y="92" width="64" height="20" rx="10" fill="#9698A2"/>
<path d="M44.776 104.084C44.776 104.652 44.692 105.132 44.524 105.524C44.356 105.916 44.128 106.232 43.84 106.472C43.56 106.704 43.248 106.872 42.904 106.976C42.568 107.08 42.232 107.132 41.896 107.132C41.56 107.132 41.22 107.08 40.876 106.976C40.54 106.872 40.228 106.704 39.94 106.472C39.66 106.232 39.436 105.916 39.268 105.524C39.1 105.132 39.016 104.652 39.016 104.084V98.6H40.708V103.868C40.708 104.18 40.752 104.456 40.84 104.696C40.928 104.928 41.06 105.112 41.236 105.248C41.412 105.376 41.632 105.44 41.896 105.44C42.16 105.44 42.38 105.376 42.556 105.248C42.732 105.112 42.864 104.928 42.952 104.696C43.04 104.456 43.084 104.18 43.084 103.868V98.6H44.776V104.084ZM45.3929 107V106.724L47.0969 102.68L45.5129 98.876V98.6H47.2409L48.4769 101.828H48.6569L49.8689 98.6H51.5969V98.876L50.0849 102.68L51.7169 106.724V107H49.9889L48.6569 103.748H48.4769L47.1209 107H45.3929ZM54.7048 98.6C55.3688 98.6 55.9648 98.752 56.4928 99.056C57.0208 99.352 57.4408 99.808 57.7528 100.424C58.0648 101.04 58.2208 101.832 58.2208 102.8C58.2208 103.76 58.0648 104.552 57.7528 105.176C57.4408 105.792 57.0208 106.252 56.4928 106.556C55.9648 106.852 55.3688 107 54.7048 107H52.3888V98.6H54.7048ZM54.6808 105.404C55.2248 105.404 55.6648 105.176 56.0008 104.72C56.3368 104.264 56.5048 103.624 56.5048 102.8C56.5048 101.96 56.3328 101.316 55.9888 100.868C55.6528 100.42 55.2168 100.196 54.6808 100.196H54.0688V105.404H54.6808ZM63.3882 98.6V100.136H60.7602V102.188C61.0082 102.092 61.2682 102.016 61.5402 101.96C61.8202 101.904 62.0962 101.868 62.3682 101.852C62.6402 101.836 62.8922 101.844 63.1242 101.876V103.352L63.0162 103.424C62.8322 103.368 62.6162 103.336 62.3682 103.328C62.1282 103.32 61.8682 103.336 61.5882 103.376C61.3082 103.416 61.0322 103.484 60.7602 103.58V105.464H63.3882V107H59.0802V98.6H63.3882ZM69.095 104.78C69.095 105.276 68.987 105.7 68.771 106.052C68.563 106.404 68.271 106.676 67.895 106.868C67.519 107.052 67.087 107.144 66.599 107.144C66.215 107.144 65.859 107.096 65.531 107C65.203 106.912 64.919 106.804 64.679 106.676C64.447 106.548 64.275 106.44 64.163 106.352V104.708H64.379C64.635 104.94 64.947 105.148 65.315 105.332C65.691 105.508 66.051 105.596 66.395 105.596C66.579 105.596 66.743 105.568 66.887 105.512C67.039 105.448 67.159 105.36 67.247 105.248C67.335 105.136 67.379 105 67.379 104.84C67.379 104.6 67.307 104.408 67.163 104.264C67.027 104.112 66.815 103.952 66.527 103.784L65.531 103.196C65.283 103.052 65.039 102.884 64.799 102.692C64.567 102.492 64.371 102.244 64.211 101.948C64.059 101.644 63.983 101.276 63.983 100.844C63.983 100.332 64.091 99.9 64.307 99.548C64.531 99.188 64.823 98.92 65.183 98.744C65.551 98.56 65.963 98.468 66.419 98.468C66.771 98.468 67.091 98.504 67.379 98.576C67.675 98.648 67.935 98.744 68.159 98.864C68.391 98.976 68.583 99.108 68.735 99.26V100.904H68.507C68.267 100.64 67.971 100.428 67.619 100.268C67.275 100.1 66.923 100.016 66.563 100.016C66.323 100.016 66.119 100.076 65.951 100.196C65.783 100.316 65.699 100.492 65.699 100.724C65.699 100.956 65.795 101.156 65.987 101.324C66.179 101.492 66.431 101.672 66.743 101.864L67.739 102.476C68.011 102.644 68.247 102.836 68.447 103.052C68.647 103.26 68.803 103.504 68.915 103.784C69.035 104.064 69.095 104.396 69.095 104.78ZM69.9552 98.6H71.6352V107H69.9552V98.6ZM72.526 102.8C72.526 101.8 72.702 100.98 73.054 100.34C73.414 99.7 73.89 99.228 74.482 98.924C75.082 98.62 75.742 98.468 76.462 98.468C76.854 98.468 77.206 98.508 77.518 98.588C77.83 98.668 78.094 98.764 78.31 98.876C78.534 98.98 78.694 99.084 78.79 99.188V100.904H78.562C78.466 100.76 78.326 100.62 78.142 100.484C77.958 100.348 77.738 100.24 77.482 100.16C77.234 100.072 76.954 100.028 76.642 100.028C76.146 100.028 75.718 100.132 75.358 100.34C75.006 100.54 74.738 100.848 74.554 101.264C74.37 101.672 74.278 102.184 74.278 102.8C74.278 103.392 74.362 103.9 74.53 104.324C74.706 104.74 74.958 105.06 75.286 105.284C75.614 105.5 76.002 105.608 76.45 105.608C76.642 105.608 76.806 105.588 76.942 105.548C77.078 105.5 77.182 105.44 77.254 105.368V103.472H75.214V102.008H78.79V106.148C78.446 106.492 78.05 106.744 77.602 106.904C77.162 107.056 76.682 107.132 76.162 107.132C75.69 107.132 75.234 107.048 74.794 106.88C74.362 106.704 73.974 106.44 73.63 106.088C73.294 105.736 73.026 105.288 72.826 104.744C72.626 104.2 72.526 103.552 72.526 102.8ZM83.8998 98.6H85.5438V107H83.7078L81.6318 101.792H81.4998L81.5718 107H79.9278V98.6H81.7638L83.8398 103.88H83.9718L83.8998 98.6Z" fill="black"/>
<rect x="92.5" y="92" width="82" height="20" rx="10" fill="#9698A2"/>
<path d="M100.596 107V106.724L102.348 98.6L105.336 98.612L107.1 106.724V107H105.348L104.964 104.888H102.732L102.336 107H100.596ZM102.96 103.412H104.724L104.136 100.196H103.548L102.96 103.412ZM107.768 107V98.6H110.684C111.196 98.6 111.644 98.696 112.028 98.888C112.412 99.08 112.712 99.38 112.928 99.788C113.152 100.188 113.264 100.712 113.264 101.36C113.264 102 113.144 102.536 112.904 102.968C112.672 103.392 112.36 103.712 111.968 103.928C111.584 104.136 111.156 104.24 110.684 104.24H109.448V107H107.768ZM109.448 102.788H110.456C110.672 102.788 110.864 102.732 111.032 102.62C111.2 102.508 111.328 102.352 111.416 102.152C111.504 101.952 111.548 101.716 111.548 101.444C111.548 101.172 111.504 100.94 111.416 100.748C111.328 100.548 111.2 100.396 111.032 100.292C110.864 100.188 110.672 100.136 110.456 100.136H109.448V102.788ZM113.943 107V98.6H116.859C117.371 98.6 117.819 98.696 118.203 98.888C118.587 99.08 118.887 99.38 119.103 99.788C119.327 100.188 119.439 100.712 119.439 101.36C119.439 102 119.319 102.536 119.079 102.968C118.847 103.392 118.535 103.712 118.143 103.928C117.759 104.136 117.331 104.24 116.859 104.24H115.623V107H113.943ZM115.623 102.788H116.631C116.847 102.788 117.039 102.732 117.207 102.62C117.375 102.508 117.503 102.352 117.591 102.152C117.679 101.952 117.723 101.716 117.723 101.444C117.723 101.172 117.679 100.94 117.591 100.748C117.503 100.548 117.375 100.396 117.207 100.292C117.039 100.188 116.847 100.136 116.631 100.136H115.623V102.788ZM120.143 98.6H121.823V107H120.119L120.143 98.6ZM123.191 98.6C123.671 98.6 124.095 98.696 124.463 98.888C124.839 99.072 125.135 99.356 125.351 99.74C125.567 100.116 125.675 100.588 125.675 101.156C125.675 101.74 125.555 102.228 125.315 102.62C125.083 103.004 124.779 103.296 124.403 103.496C124.035 103.688 123.639 103.784 123.215 103.784H120.935V98.6H123.191ZM121.799 102.332H122.987C123.179 102.332 123.347 102.288 123.491 102.2C123.635 102.112 123.743 101.984 123.815 101.816C123.895 101.64 123.935 101.444 123.935 101.228C123.935 100.996 123.895 100.8 123.815 100.64C123.743 100.472 123.635 100.348 123.491 100.268C123.347 100.18 123.179 100.136 122.987 100.136H121.799V102.332ZM122.471 102.872L124.079 102.836L125.675 106.724V107H123.923L122.471 102.872ZM130.861 98.6V100.136H128.233V102.188C128.481 102.092 128.741 102.016 129.013 101.96C129.293 101.904 129.569 101.868 129.841 101.852C130.113 101.836 130.365 101.844 130.597 101.876V103.352L130.489 103.424C130.305 103.368 130.089 103.336 129.841 103.328C129.601 103.32 129.341 103.336 129.061 103.376C128.781 103.416 128.505 103.484 128.233 103.58V105.464H130.861V107H126.553V98.6H130.861ZM134.084 98.6C134.748 98.6 135.344 98.752 135.872 99.056C136.4 99.352 136.82 99.808 137.132 100.424C137.444 101.04 137.6 101.832 137.6 102.8C137.6 103.76 137.444 104.552 137.132 105.176C136.82 105.792 136.4 106.252 135.872 106.556C135.344 106.852 134.748 107 134.084 107H131.768V98.6H134.084ZM134.06 105.404C134.604 105.404 135.044 105.176 135.38 104.72C135.716 104.264 135.884 103.624 135.884 102.8C135.884 101.96 135.712 101.316 135.368 100.868C135.032 100.42 134.596 100.196 134.06 100.196H133.448V105.404H134.06ZM142.767 98.6V100.136H140.139V102.188C140.387 102.092 140.647 102.016 140.919 101.96C141.199 101.904 141.475 101.868 141.747 101.852C142.019 101.836 142.271 101.844 142.503 101.876V103.352L142.395 103.424C142.211 103.368 141.995 103.336 141.747 103.328C141.507 103.32 141.247 103.336 140.967 103.376C140.687 103.416 140.411 103.484 140.139 103.58V105.464H142.767V107H138.459V98.6H142.767ZM148.474 104.78C148.474 105.276 148.366 105.7 148.15 106.052C147.942 106.404 147.65 106.676 147.274 106.868C146.898 107.052 146.466 107.144 145.978 107.144C145.594 107.144 145.238 107.096 144.91 107C144.582 106.912 144.298 106.804 144.058 106.676C143.826 106.548 143.654 106.44 143.542 106.352V104.708H143.758C144.014 104.94 144.326 105.148 144.694 105.332C145.07 105.508 145.43 105.596 145.774 105.596C145.958 105.596 146.122 105.568 146.266 105.512C146.418 105.448 146.538 105.36 146.626 105.248C146.714 105.136 146.758 105 146.758 104.84C146.758 104.6 146.686 104.408 146.542 104.264C146.406 104.112 146.194 103.952 145.906 103.784L144.91 103.196C144.662 103.052 144.418 102.884 144.178 102.692C143.946 102.492 143.75 102.244 143.59 101.948C143.438 101.644 143.362 101.276 143.362 100.844C143.362 100.332 143.47 99.9 143.686 99.548C143.91 99.188 144.202 98.92 144.562 98.744C144.93 98.56 145.342 98.468 145.798 98.468C146.15 98.468 146.47 98.504 146.758 98.576C147.054 98.648 147.314 98.744 147.538 98.864C147.77 98.976 147.962 99.108 148.114 99.26V100.904H147.886C147.646 100.64 147.35 100.428 146.998 100.268C146.654 100.1 146.302 100.016 145.942 100.016C145.702 100.016 145.498 100.076 145.33 100.196C145.162 100.316 145.078 100.492 145.078 100.724C145.078 100.956 145.174 101.156 145.366 101.324C145.558 101.492 145.81 101.672 146.122 101.864L147.118 102.476C147.39 102.644 147.626 102.836 147.826 103.052C148.026 103.26 148.182 103.504 148.294 103.784C148.414 104.064 148.474 104.396 148.474 104.78ZM149.334 98.6H151.014V107H149.334V98.6ZM151.905 102.8C151.905 101.8 152.081 100.98 152.433 100.34C152.793 99.7 153.269 99.228 153.861 98.924C154.461 98.62 155.121 98.468 155.841 98.468C156.233 98.468 156.585 98.508 156.897 98.588C157.209 98.668 157.473 98.764 157.689 98.876C157.913 98.98 158.073 99.084 158.169 99.188V100.904H157.941C157.845 100.76 157.705 100.62 157.521 100.484C157.337 100.348 157.117 100.24 156.861 100.16C156.613 100.072 156.333 100.028 156.021 100.028C155.525 100.028 155.097 100.132 154.737 100.34C154.385 100.54 154.117 100.848 153.933 101.264C153.749 101.672 153.657 102.184 153.657 102.8C153.657 103.392 153.741 103.9 153.909 104.324C154.085 104.74 154.337 105.06 154.665 105.284C154.993 105.5 155.381 105.608 155.829 105.608C156.021 105.608 156.185 105.588 156.321 105.548C156.457 105.5 156.561 105.44 156.633 105.368V103.472H154.593V102.008H158.169V106.148C157.825 106.492 157.429 106.744 156.981 106.904C156.541 107.056 156.061 107.132 155.541 107.132C155.069 107.132 154.613 107.048 154.173 106.88C153.741 106.704 153.353 106.44 153.009 106.088C152.673 105.736 152.405 105.288 152.205 104.744C152.005 104.2 151.905 103.552 151.905 102.8ZM163.279 98.6H164.923V107H163.087L161.011 101.792H160.879L160.951 107H159.307V98.6H161.143L163.219 103.88H163.351L163.279 98.6Z" fill="black"/>
<defs>
<clipPath id="clip0_107_56286">
<rect width="16" height="16" fill="white" transform="translate(16.5 94)"/>
</clipPath>
</defs>
</svg>
