<svg width="256" height="128" viewBox="0 0 256 128" fill="none" xmlns="http://www.w3.org/2000/svg">
<rect width="256" height="128" rx="16" fill="#141519"/>
<path d="M16.686 32V22.2H20.088C20.6853 22.2 21.208 22.312 21.656 22.536C22.104 22.76 22.454 23.11 22.706 23.586C22.9673 24.0527 23.098 24.664 23.098 25.42C23.098 26.1667 22.958 26.792 22.678 27.296C22.4073 27.7907 22.0433 28.164 21.586 28.416C21.138 28.6587 20.6387 28.78 20.088 28.78H18.646V32H16.686ZM18.646 27.086H19.822C20.074 27.086 20.298 27.0207 20.494 26.89C20.69 26.7593 20.8393 26.5773 20.942 26.344C21.0447 26.1107 21.096 25.8353 21.096 25.518C21.096 25.2007 21.0447 24.93 20.942 24.706C20.8393 24.4727 20.69 24.2953 20.494 24.174C20.298 24.0527 20.074 23.992 19.822 23.992H18.646V27.086ZM23.5271 27.1C23.5271 25.9147 23.7184 24.9487 24.1011 24.202C24.4837 23.4553 24.9831 22.9093 25.5991 22.564C26.2244 22.2093 26.9011 22.032 27.6291 22.032C28.3571 22.032 29.0291 22.2093 29.6451 22.564C30.2704 22.9093 30.7744 23.4553 31.1571 24.202C31.5397 24.9487 31.7311 25.9147 31.7311 27.1C31.7311 28.2853 31.5397 29.2513 31.1571 29.998C30.7744 30.7447 30.2704 31.2953 29.6451 31.65C29.0291 31.9953 28.3571 32.168 27.6291 32.168C26.9011 32.168 26.2244 31.9953 25.5991 31.65C24.9831 31.2953 24.4837 30.7447 24.1011 29.998C23.7184 29.2513 23.5271 28.2853 23.5271 27.1ZM25.5711 27.1C25.5711 27.8093 25.6597 28.402 25.8371 28.878C26.0237 29.354 26.2711 29.7133 26.5791 29.956C26.8964 30.1893 27.2464 30.306 27.6291 30.306C28.0117 30.306 28.3617 30.1893 28.6791 29.956C29.0057 29.7133 29.2624 29.354 29.4491 28.878C29.6357 28.402 29.7291 27.8093 29.7291 27.1C29.7291 26.3813 29.6311 25.784 29.4351 25.308C29.2484 24.832 28.9964 24.4773 28.6791 24.244C28.3617 24.0107 28.0164 23.894 27.6431 23.894C27.2511 23.894 26.8964 24.0153 26.5791 24.258C26.2711 24.5007 26.0237 24.86 25.8371 25.336C25.6597 25.8027 25.5711 26.3907 25.5711 27.1ZM38.3505 29.41C38.3505 29.9887 38.2245 30.4833 37.9725 30.894C37.7298 31.3047 37.3891 31.622 36.9505 31.846C36.5118 32.0607 36.0078 32.168 35.4385 32.168C34.9905 32.168 34.5751 32.112 34.1925 32C33.8098 31.8973 33.4785 31.7713 33.1985 31.622C32.9278 31.4727 32.7271 31.3467 32.5965 31.244V29.326H32.8485C33.1471 29.5967 33.5111 29.8393 33.9405 30.054C34.3791 30.2593 34.7991 30.362 35.2005 30.362C35.4151 30.362 35.6065 30.3293 35.7745 30.264C35.9518 30.1893 36.0918 30.0867 36.1945 29.956C36.2971 29.8253 36.3485 29.6667 36.3485 29.48C36.3485 29.2 36.2645 28.976 36.0965 28.808C35.9378 28.6307 35.6905 28.444 35.3545 28.248L34.1925 27.562C33.9031 27.394 33.6185 27.198 33.3385 26.974C33.0678 26.7407 32.8391 26.4513 32.6525 26.106C32.4751 25.7513 32.3865 25.322 32.3865 24.818C32.3865 24.2207 32.5125 23.7167 32.7645 23.306C33.0258 22.886 33.3665 22.5733 33.7865 22.368C34.2158 22.1533 34.6965 22.046 35.2285 22.046C35.6391 22.046 36.0125 22.088 36.3485 22.172C36.6938 22.256 36.9971 22.368 37.2585 22.508C37.5291 22.6387 37.7531 22.7927 37.9305 22.97V24.888H37.6645C37.3845 24.58 37.0391 24.3327 36.6285 24.146C36.2271 23.95 35.8165 23.852 35.3965 23.852C35.1165 23.852 34.8785 23.922 34.6825 24.062C34.4865 24.202 34.3885 24.4073 34.3885 24.678C34.3885 24.9487 34.5005 25.182 34.7245 25.378C34.9485 25.574 35.2425 25.784 35.6065 26.008L36.7685 26.722C37.0858 26.918 37.3611 27.142 37.5945 27.394C37.8278 27.6367 38.0098 27.9213 38.1405 28.248C38.2805 28.5747 38.3505 28.962 38.3505 29.41ZM44.576 22.2V24.006H42.7V32H40.74V24.006H38.836V22.2H44.576ZM50.4366 22.2V23.992H47.3706V26.386C47.6599 26.274 47.9633 26.1853 48.2806 26.12C48.6073 26.0547 48.9293 26.0127 49.2466 25.994C49.5639 25.9753 49.8579 25.9847 50.1286 26.022V27.744L50.0026 27.828C49.7879 27.7627 49.5359 27.7253 49.2466 27.716C48.9666 27.7067 48.6633 27.7253 48.3366 27.772C48.0099 27.8187 47.6879 27.898 47.3706 28.01V30.208H50.4366V32H45.4106V22.2H50.4366ZM54.1966 22.2C54.9713 22.2 55.6666 22.3773 56.2826 22.732C56.8986 23.0773 57.3886 23.6093 57.7526 24.328C58.1166 25.0467 58.2986 25.9707 58.2986 27.1C58.2986 28.22 58.1166 29.144 57.7526 29.872C57.3886 30.5907 56.8986 31.1273 56.2826 31.482C55.6666 31.8273 54.9713 32 54.1966 32H51.4946V22.2H54.1966ZM54.1686 30.138C54.8033 30.138 55.3166 29.872 55.7086 29.34C56.1006 28.808 56.2966 28.0613 56.2966 27.1C56.2966 26.12 56.0959 25.3687 55.6946 24.846C55.3026 24.3233 54.7939 24.062 54.1686 24.062H53.4546V30.138H54.1686Z" fill="#6D6F79"/>
<path d="M67.214 31.14C66.4767 31.14 65.8607 31.0233 65.366 30.79C64.8713 30.5473 64.484 30.174 64.204 29.67C63.924 29.166 63.742 28.5127 63.658 27.71H65.044V27.948C65.044 28.6387 65.226 29.1613 65.59 29.516C65.9633 29.8613 66.5047 30.034 67.214 30.034C67.8767 30.034 68.3947 29.8987 68.768 29.628C69.1507 29.348 69.342 28.956 69.342 28.452V28.088C69.342 27.584 69.216 27.206 68.964 26.954C68.712 26.6927 68.3387 26.562 67.844 26.562H65.94V25.582H67.844C68.32 25.582 68.6793 25.4607 68.922 25.218C69.174 24.966 69.3 24.602 69.3 24.126V23.818C69.3 23.342 69.1133 22.9733 68.74 22.712C68.376 22.4413 67.8673 22.306 67.214 22.306C66.5047 22.306 65.968 22.4787 65.604 22.824C65.2493 23.1693 65.072 23.692 65.072 24.392V24.63H63.7C63.7747 23.8273 63.9473 23.174 64.218 22.67C64.498 22.166 64.8807 21.7973 65.366 21.564C65.8607 21.3213 66.4767 21.2 67.214 21.2C67.942 21.2 68.5627 21.3073 69.076 21.522C69.5987 21.7273 69.9953 22.0307 70.266 22.432C70.546 22.8333 70.686 23.3233 70.686 23.902C70.686 24.49 70.546 24.952 70.266 25.288C69.986 25.624 69.5893 25.8247 69.076 25.89V26.254C69.608 26.31 70.014 26.5153 70.294 26.87C70.5833 27.2247 70.728 27.7147 70.728 28.34C70.728 28.9373 70.588 29.446 70.308 29.866C70.028 30.2767 69.6267 30.594 69.104 30.818C68.5813 31.0327 67.9513 31.14 67.214 31.14ZM75.1563 31.14C74.5683 31.14 74.0503 30.9907 73.6023 30.692C73.1636 30.384 72.8276 29.9407 72.5943 29.362C72.3609 28.7833 72.2443 28.0833 72.2443 27.262C72.2443 26.4313 72.3609 25.7313 72.5943 25.162C72.8276 24.5833 73.1636 24.1447 73.6023 23.846C74.0409 23.538 74.5589 23.384 75.1563 23.384C75.6976 23.384 76.1409 23.5007 76.4863 23.734C76.8316 23.9673 77.1069 24.3313 77.3123 24.826H77.6623C77.6156 24.3873 77.5783 24.0373 77.5503 23.776C77.5316 23.5147 77.5223 23.2767 77.5223 23.062V22.348H76.4163V21.34H78.8383V29.992H79.8183V31H78.6143C78.0263 31 77.7323 30.7013 77.7323 30.104V29.614H77.3683C77.1629 30.118 76.8783 30.5007 76.5143 30.762C76.1503 31.014 75.6976 31.14 75.1563 31.14ZM75.5903 30.062C76.2529 30.062 76.7383 29.8707 77.0463 29.488C77.3636 29.096 77.5223 28.4893 77.5223 27.668V26.856C77.5223 26.0253 77.3636 25.4187 77.0463 25.036C76.7383 24.6533 76.2529 24.462 75.5903 24.462C74.9183 24.462 74.4236 24.6533 74.1063 25.036C73.7983 25.4187 73.6443 26.0253 73.6443 26.856V27.668C73.6443 28.4893 73.7983 29.096 74.1063 29.488C74.4236 29.8707 74.9183 30.062 75.5903 30.062ZM86.3531 31.14C85.6158 31.14 85.0371 30.958 84.6171 30.594C84.1971 30.2207 83.9871 29.7073 83.9871 29.054C83.9871 28.382 84.2064 27.8593 84.6451 27.486C85.0931 27.1127 85.7464 26.884 86.6051 26.8L88.6911 26.59V27.486L86.9831 27.654C86.4138 27.71 85.9984 27.836 85.7371 28.032C85.4758 28.2187 85.3451 28.494 85.3451 28.858V28.942C85.3451 29.3153 85.4758 29.6 85.7371 29.796C86.0078 29.9827 86.3904 30.076 86.8851 30.076C87.4918 30.076 87.9444 29.9453 88.2431 29.684C88.5418 29.4133 88.6911 29.0073 88.6911 28.466V27.304V27.108V26.226C88.6911 25.61 88.5651 25.162 88.3131 24.882C88.0704 24.602 87.6738 24.462 87.1231 24.462C86.7311 24.462 86.4138 24.5273 86.1711 24.658C85.9378 24.7793 85.7651 24.938 85.6531 25.134C85.5504 25.33 85.4991 25.5447 85.4991 25.778V25.834H84.1551C84.2858 25.0127 84.5984 24.4013 85.0931 24C85.5971 23.5893 86.2831 23.384 87.1511 23.384C88.0938 23.384 88.8078 23.622 89.2931 24.098C89.7784 24.5647 90.0211 25.2553 90.0211 26.17V29.992H90.9871V31H89.7831C89.1951 31 88.9011 30.706 88.9011 30.118V29.74H88.5511C88.3644 30.216 88.0938 30.5707 87.7391 30.804C87.3938 31.028 86.9318 31.14 86.3531 31.14ZM91.8514 32.848V31.84H96.1354C96.434 31.84 96.644 31.7933 96.7654 31.7C96.896 31.6067 96.9614 31.4527 96.9614 31.238C96.9614 31.014 96.896 30.8553 96.7654 30.762C96.644 30.6687 96.434 30.622 96.1354 30.622H93.3914C92.8874 30.622 92.5047 30.5333 92.2434 30.356C91.9914 30.1693 91.8654 29.9033 91.8654 29.558C91.8654 29.25 91.9634 29.0073 92.1594 28.83C92.3647 28.6527 92.6587 28.5453 93.0414 28.508V28.186C92.6307 28.018 92.3227 27.752 92.1174 27.388C91.912 27.0147 91.8094 26.562 91.8094 26.03C91.8094 25.1807 92.0754 24.5273 92.6074 24.07C93.1394 23.6127 93.8814 23.384 94.8334 23.384C95.7854 23.384 96.5227 23.6127 97.0454 24.07C97.5774 24.5273 97.8434 25.1807 97.8434 26.03C97.8434 26.8513 97.582 27.486 97.0594 27.934C96.5367 28.3727 95.804 28.592 94.8614 28.592H93.7834C93.5314 28.592 93.3494 28.6293 93.2374 28.704C93.1347 28.7787 93.0834 28.9 93.0834 29.068C93.0834 29.236 93.1347 29.3573 93.2374 29.432C93.3494 29.5067 93.5314 29.544 93.7834 29.544H96.4154C97.022 29.544 97.484 29.6793 97.8014 29.95C98.128 30.2207 98.2914 30.6173 98.2914 31.14C98.2914 31.7 98.1094 32.1247 97.7454 32.414C97.3907 32.7033 96.8774 32.848 96.2054 32.848H91.8514ZM94.8334 27.612C95.4027 27.612 95.8274 27.4953 96.1074 27.262C96.3967 27.0193 96.5414 26.6413 96.5414 26.128V25.904C96.5414 25.3907 96.3967 25.0173 96.1074 24.784C95.8274 24.5413 95.4027 24.42 94.8334 24.42C94.264 24.42 93.8347 24.5413 93.5454 24.784C93.256 25.0173 93.1114 25.3907 93.1114 25.904V26.128C93.1114 26.6413 93.256 27.0193 93.5454 27.262C93.8347 27.4953 94.264 27.612 94.8334 27.612ZM96.0234 23.874C96.0234 23.4167 96.1214 23.076 96.3174 22.852C96.5134 22.628 96.8167 22.516 97.2274 22.516H98.2494V23.524H96.8214C96.4667 23.524 96.2894 23.7293 96.2894 24.14L96.0234 23.874ZM102.744 31.14C102.026 31.14 101.41 30.9907 100.896 30.692C100.383 30.3933 99.9909 29.9547 99.7203 29.376C99.4496 28.7973 99.3143 28.0927 99.3143 27.262C99.3143 26.422 99.4496 25.7173 99.7203 25.148C99.9909 24.5693 100.383 24.1307 100.896 23.832C101.41 23.5333 102.026 23.384 102.744 23.384C103.472 23.384 104.088 23.5333 104.592 23.832C105.096 24.1307 105.484 24.5693 105.754 25.148C106.025 25.7173 106.16 26.422 106.16 27.262C106.16 28.0927 106.025 28.7973 105.754 29.376C105.484 29.9547 105.096 30.3933 104.592 30.692C104.088 30.9907 103.472 31.14 102.744 31.14ZM102.744 30.062C103.435 30.062 103.944 29.866 104.27 29.474C104.597 29.082 104.76 28.4753 104.76 27.654V26.87C104.76 26.0487 104.597 25.442 104.27 25.05C103.944 24.658 103.435 24.462 102.744 24.462C102.044 24.462 101.531 24.658 101.204 25.05C100.878 25.442 100.714 26.0487 100.714 26.87V27.654C100.714 28.4753 100.878 29.082 101.204 29.474C101.531 29.866 102.044 30.062 102.744 30.062Z" fill="#9698A2"/>
<path d="M237.387 16.8957C237.238 16.9 237.078 16.9664 236.938 17.1293C234.813 20.2031 232.453 23.2149 230.051 26.211C230.141 26.2461 230.227 26.2852 230.305 26.332C230.481 26.4297 230.633 26.5508 230.762 26.6836C233.242 23.7188 235.676 20.7305 237.797 17.5965C237.965 17.2121 237.84 17.0563 237.648 16.9559C237.602 16.9305 237.547 16.9117 237.488 16.9024C237.457 16.8973 237.422 16.8949 237.387 16.8957ZM222.466 17.8129C222.767 18.3402 223.115 18.8477 222.554 19.6547C222.963 19.236 223.451 18.8145 224.211 19.6C224.047 19.2027 223.537 18.8973 223.973 18.2832C223.306 18.6184 222.963 18.2832 222.466 17.8129ZM230.438 19.6727C230.148 20.1055 229.723 20.2461 229.164 20.0742C229.723 20.2656 230.004 20.6406 229.856 21.3125C230.18 20.707 230.563 20.4766 231.008 20.6445C230.758 20.3985 230.332 20.3711 230.438 19.6727ZM237.527 21.5C237.371 22.3789 237.293 23.293 235.84 23.4883C236.734 23.5195 237.719 23.6328 237.859 25.293C238.055 24.707 237.742 23.8164 238.859 23.6797C237.742 23.2735 237.66 22.5391 237.527 21.5ZM223.507 25.25C223.589 26.2188 223.191 26.8672 222.059 27.0313C223.206 27.1758 223.812 27.6328 223.851 28.418C224.07 27.8906 223.823 27.2149 224.973 26.9805C224.109 26.7774 223.613 26.211 223.507 25.25ZM229.578 26.8008L229.055 27.4492C229.113 27.4805 229.172 27.5156 229.231 27.5508C229.402 27.6602 229.57 27.7891 229.711 27.9336L230.305 27.2305C230.215 27.125 230.094 27.0195 229.957 26.9414C229.84 26.875 229.711 26.8242 229.578 26.8008ZM228.125 27.8789C228.094 27.8789 228.066 27.8789 228.047 27.8828C228.008 27.8906 227.988 27.9024 227.981 27.9102L227.961 27.9336L227.938 27.9492C226.106 29.3555 223.365 30.711 221.142 32.0235C221.719 32.1953 222.307 32.4024 222.883 32.6328L224.305 31.4414L223.452 32.875C224.117 33.1719 224.758 33.5078 225.328 33.875L226.395 32.1641L225.918 34.2813C226.27 34.543 226.582 34.8203 226.848 35.1055C227.91 32.7969 229.309 31.1914 229.492 29.0586L229.496 29.0352L229.5 29.0117C229.523 28.9219 229.492 28.7891 229.379 28.6211C229.262 28.457 229.07 28.2813 228.856 28.1445C228.645 28.0117 228.406 27.918 228.234 27.8906C228.191 27.8828 228.156 27.8789 228.125 27.8789ZM232.469 27.8867C232.848 28.3984 232.856 28.8945 232.285 29.3828C232.973 29.0625 233.469 29.1016 233.762 29.5235C233.695 29.1563 233.328 28.8672 233.879 28.3359C233.332 28.5234 232.859 28.3828 232.469 27.8867ZM234.684 31.4336C235.141 32.1133 235.465 32.5859 234.844 33.3008C235.758 32.9102 235.996 33.5742 236.453 33.8399C235.676 32.793 236.352 32.3047 237.004 31.9063C235.813 32.4063 235.27 31.8945 234.684 31.4336Z" fill="#C7C9D0"/>
<path d="M16.434 59L19.234 49.34H21.684L24.498 59H23.056L20.62 50.502H20.242L17.792 59H16.434ZM17.96 56.564L18.086 55.57H22.762L22.888 56.564H17.96ZM17.82 50.39V49.34H20.004V50.39H17.82ZM27.1043 59C26.5163 59 26.2223 58.7013 26.2223 58.104V51.524L26.6983 50.026H27.5383V57.992H29.2883V59H27.1043ZM24.8643 52.532V51.524H29.2883V52.532H24.8643ZM32.2176 59C31.6296 59 31.3356 58.7013 31.3356 58.104V51.524L31.8116 50.026H32.6516V57.992H34.4016V59H32.2176ZM29.9776 52.532V51.524H34.4016V52.532H29.9776ZM38.7221 59.14C38.0034 59.14 37.3874 58.9907 36.8741 58.692C36.3701 58.3933 35.9828 57.9547 35.7121 57.376C35.4508 56.7973 35.3201 56.0927 35.3201 55.262C35.3201 54.422 35.4508 53.7173 35.7121 53.148C35.9828 52.5693 36.3701 52.1307 36.8741 51.832C37.3874 51.5333 38.0034 51.384 38.7221 51.384C39.4128 51.384 40.0008 51.524 40.4861 51.804C40.9714 52.0747 41.3401 52.476 41.5921 53.008C41.8534 53.54 41.9841 54.198 41.9841 54.982V55.472H36.2161V54.576H41.4661L40.6961 55.178V54.856C40.6961 54.016 40.5374 53.4047 40.2201 53.022C39.9028 52.63 39.4034 52.434 38.7221 52.434C38.0314 52.434 37.5228 52.63 37.1961 53.022C36.8788 53.4047 36.7201 54.016 36.7201 54.856V55.654C36.7201 56.4753 36.8788 57.082 37.1961 57.474C37.5228 57.866 38.0314 58.062 38.7221 58.062C39.1701 58.062 39.5201 57.992 39.7721 57.852C40.0334 57.7027 40.2201 57.5253 40.3321 57.32C40.4441 57.1147 40.5001 56.9233 40.5001 56.746V56.69H41.8721C41.7041 57.4927 41.3494 58.104 40.8081 58.524C40.2761 58.9347 39.5808 59.14 38.7221 59.14ZM43.9068 59V52.532H42.9268V51.524H45.0128V52.812H45.3768C45.5635 52.3267 45.8248 51.9673 46.1608 51.734C46.5061 51.5007 46.9448 51.384 47.4768 51.384C48.2515 51.384 48.8395 51.6173 49.2408 52.084C49.6515 52.5507 49.8568 53.2367 49.8568 54.142V57.992H50.8228V59H48.5408V54.422C48.5408 53.7407 48.4055 53.246 48.1348 52.938C47.8735 52.6207 47.4535 52.462 46.8748 52.462C46.3055 52.462 45.8855 52.6207 45.6148 52.938C45.3441 53.246 45.2088 53.7407 45.2088 54.422V59H43.9068ZM54.6524 59.14C54.0644 59.14 53.5464 58.9907 53.0984 58.692C52.6597 58.384 52.3237 57.9407 52.0904 57.362C51.857 56.7833 51.7404 56.0833 51.7404 55.262C51.7404 54.4313 51.857 53.7313 52.0904 53.162C52.3237 52.5833 52.6597 52.1447 53.0984 51.846C53.537 51.538 54.055 51.384 54.6524 51.384C55.1937 51.384 55.637 51.5007 55.9824 51.734C56.3277 51.9673 56.603 52.3313 56.8084 52.826H57.1584C57.1117 52.3873 57.0744 52.0373 57.0464 51.776C57.0277 51.5147 57.0184 51.2767 57.0184 51.062V50.348H55.9124V49.34H58.3344V57.992H59.3144V59H58.1104C57.5224 59 57.2284 58.7013 57.2284 58.104V57.614H56.8644C56.659 58.118 56.3744 58.5007 56.0104 58.762C55.6464 59.014 55.1937 59.14 54.6524 59.14ZM55.0864 58.062C55.749 58.062 56.2344 57.8707 56.5424 57.488C56.8597 57.096 57.0184 56.4893 57.0184 55.668V54.856C57.0184 54.0253 56.8597 53.4187 56.5424 53.036C56.2344 52.6533 55.749 52.462 55.0864 52.462C54.4144 52.462 53.9197 52.6533 53.6024 53.036C53.2944 53.4187 53.1404 54.0253 53.1404 54.856V55.668C53.1404 56.4893 53.2944 57.096 53.6024 57.488C53.9197 57.8707 54.4144 58.062 55.0864 58.062ZM60.9306 59V52.532H59.8246V51.524H62.2606V59H60.9306ZM60.8046 50.614V49.34H62.3446V50.614H60.8046ZM64.647 59V52.532H63.667V51.524H65.753V52.812H66.117C66.3037 52.3267 66.565 51.9673 66.901 51.734C67.2464 51.5007 67.685 51.384 68.217 51.384C68.9917 51.384 69.5797 51.6173 69.981 52.084C70.3917 52.5507 70.597 53.2367 70.597 54.142V57.992H71.563V59H69.281V54.422C69.281 53.7407 69.1457 53.246 68.875 52.938C68.6137 52.6207 68.1937 52.462 67.615 52.462C67.0457 52.462 66.6257 52.6207 66.355 52.938C66.0844 53.246 65.949 53.7407 65.949 54.422V59H64.647ZM72.5506 60.848V59.84H76.8346C77.1333 59.84 77.3433 59.7933 77.4646 59.7C77.5953 59.6067 77.6606 59.4527 77.6606 59.238C77.6606 59.014 77.5953 58.8553 77.4646 58.762C77.3433 58.6687 77.1333 58.622 76.8346 58.622H74.0906C73.5866 58.622 73.2039 58.5333 72.9426 58.356C72.6906 58.1693 72.5646 57.9033 72.5646 57.558C72.5646 57.25 72.6626 57.0073 72.8586 56.83C73.0639 56.6527 73.3579 56.5453 73.7406 56.508V56.186C73.3299 56.018 73.0219 55.752 72.8166 55.388C72.6113 55.0147 72.5086 54.562 72.5086 54.03C72.5086 53.1807 72.7746 52.5273 73.3066 52.07C73.8386 51.6127 74.5806 51.384 75.5326 51.384C76.4846 51.384 77.2219 51.6127 77.7446 52.07C78.2766 52.5273 78.5426 53.1807 78.5426 54.03C78.5426 54.8513 78.2813 55.486 77.7586 55.934C77.2359 56.3727 76.5033 56.592 75.5606 56.592H74.4826C74.2306 56.592 74.0486 56.6293 73.9366 56.704C73.8339 56.7787 73.7826 56.9 73.7826 57.068C73.7826 57.236 73.8339 57.3573 73.9366 57.432C74.0486 57.5067 74.2306 57.544 74.4826 57.544H77.1146C77.7213 57.544 78.1833 57.6793 78.5006 57.95C78.8273 58.2207 78.9906 58.6173 78.9906 59.14C78.9906 59.7 78.8086 60.1247 78.4446 60.414C78.0899 60.7033 77.5766 60.848 76.9046 60.848H72.5506ZM75.5326 55.612C76.1019 55.612 76.5266 55.4953 76.8066 55.262C77.0959 55.0193 77.2406 54.6413 77.2406 54.128V53.904C77.2406 53.3907 77.0959 53.0173 76.8066 52.784C76.5266 52.5413 76.1019 52.42 75.5326 52.42C74.9633 52.42 74.5339 52.5413 74.2446 52.784C73.9553 53.0173 73.8106 53.3907 73.8106 53.904V54.128C73.8106 54.6413 73.9553 55.0193 74.2446 55.262C74.5339 55.4953 74.9633 55.612 75.5326 55.612ZM76.7226 51.874C76.7226 51.4167 76.8206 51.076 77.0166 50.852C77.2126 50.628 77.5159 50.516 77.9266 50.516H78.9486V51.524H77.5206C77.1659 51.524 76.9886 51.7293 76.9886 52.14L76.7226 51.874ZM85.7554 59.14C85.0181 59.14 84.4394 58.958 84.0194 58.594C83.5994 58.2207 83.3894 57.7073 83.3894 57.054C83.3894 56.382 83.6088 55.8593 84.0474 55.486C84.4954 55.1127 85.1488 54.884 86.0074 54.8L88.0934 54.59V55.486L86.3854 55.654C85.8161 55.71 85.4008 55.836 85.1394 56.032C84.8781 56.2187 84.7474 56.494 84.7474 56.858V56.942C84.7474 57.3153 84.8781 57.6 85.1394 57.796C85.4101 57.9827 85.7928 58.076 86.2874 58.076C86.8941 58.076 87.3468 57.9453 87.6454 57.684C87.9441 57.4133 88.0934 57.0073 88.0934 56.466V55.304V55.108V54.226C88.0934 53.61 87.9674 53.162 87.7154 52.882C87.4728 52.602 87.0761 52.462 86.5254 52.462C86.1334 52.462 85.8161 52.5273 85.5734 52.658C85.3401 52.7793 85.1674 52.938 85.0554 53.134C84.9528 53.33 84.9014 53.5447 84.9014 53.778V53.834H83.5574C83.6881 53.0127 84.0008 52.4013 84.4954 52C84.9994 51.5893 85.6854 51.384 86.5534 51.384C87.4961 51.384 88.2101 51.622 88.6954 52.098C89.1808 52.5647 89.4234 53.2553 89.4234 54.17V57.992H90.3894V59H89.1854C88.5974 59 88.3034 58.706 88.3034 58.118V57.74H87.9534C87.7668 58.216 87.4961 58.5707 87.1414 58.804C86.7961 59.028 86.3341 59.14 85.7554 59.14ZM96.1583 59L94.1843 51.524H95.5423L97.1803 57.88H97.5583L99.2243 51.524H100.554L102.22 57.88H102.584L104.222 51.524H105.538L103.564 59H101.352L100.036 54.072H99.6863L98.3563 59H96.1583ZM109.858 59.14C109.139 59.14 108.523 58.9907 108.01 58.692C107.496 58.3933 107.104 57.9547 106.834 57.376C106.563 56.7973 106.428 56.0927 106.428 55.262C106.428 54.422 106.563 53.7173 106.834 53.148C107.104 52.5693 107.496 52.1307 108.01 51.832C108.523 51.5333 109.139 51.384 109.858 51.384C110.586 51.384 111.202 51.5333 111.706 51.832C112.21 52.1307 112.597 52.5693 112.868 53.148C113.138 53.7173 113.274 54.422 113.274 55.262C113.274 56.0927 113.138 56.7973 112.868 57.376C112.597 57.9547 112.21 58.3933 111.706 58.692C111.202 58.9907 110.586 59.14 109.858 59.14ZM109.858 58.062C110.548 58.062 111.057 57.866 111.384 57.474C111.71 57.082 111.874 56.4753 111.874 55.654V54.87C111.874 54.0487 111.71 53.442 111.384 53.05C111.057 52.658 110.548 52.462 109.858 52.462C109.158 52.462 108.644 52.658 108.318 53.05C107.991 53.442 107.828 54.0487 107.828 54.87V55.654C107.828 56.4753 107.991 57.082 108.318 57.474C108.644 57.866 109.158 58.062 109.858 58.062ZM115.206 59V52.532H114.226V51.524H116.312V52.868H116.676C116.862 52.3827 117.114 52.0233 117.432 51.79C117.758 51.5567 118.178 51.44 118.692 51.44H119.77V52.532H118.174C117.604 52.532 117.184 52.686 116.914 52.994C116.643 53.302 116.508 53.7967 116.508 54.478V59H115.206ZM121.272 59V50.348H120.292V49.34H122.588V54.66H123.624L126.158 51.524H127.782L124.576 55.43L124.548 54.674L126.984 57.992H127.964V59H126.06L123.624 55.612H122.588V59H121.272ZM131.67 59.14C130.727 59.14 130.004 58.944 129.5 58.552C128.996 58.16 128.674 57.5393 128.534 56.69H129.864V56.746C129.864 56.97 129.92 57.1847 130.032 57.39C130.144 57.5953 130.33 57.7633 130.592 57.894C130.853 58.0247 131.212 58.09 131.67 58.09C132.22 58.09 132.65 57.9967 132.958 57.81C133.266 57.614 133.42 57.3387 133.42 56.984C133.42 56.7133 133.326 56.508 133.14 56.368C132.953 56.2187 132.631 56.0927 132.174 55.99L130.634 55.654C129.924 55.486 129.406 55.2433 129.08 54.926C128.762 54.6087 128.604 54.184 128.604 53.652C128.604 52.924 128.865 52.364 129.388 51.972C129.92 51.58 130.666 51.384 131.628 51.384C132.552 51.384 133.266 51.58 133.77 51.972C134.274 52.364 134.596 52.9847 134.736 53.834H133.406V53.778C133.406 53.554 133.354 53.3393 133.252 53.134C133.149 52.9287 132.967 52.7607 132.706 52.63C132.444 52.4993 132.085 52.434 131.628 52.434C131.086 52.434 130.666 52.5273 130.368 52.714C130.069 52.9007 129.92 53.176 129.92 53.54C129.92 53.8013 130.013 54.0067 130.2 54.156C130.386 54.3053 130.699 54.4313 131.138 54.534L132.678 54.87C133.396 55.038 133.919 55.276 134.246 55.584C134.572 55.892 134.736 56.3167 134.736 56.858C134.736 57.586 134.47 58.1507 133.938 58.552C133.406 58.944 132.65 59.14 131.67 59.14ZM136.461 59V50.348H135.495V49.34H137.791V50.95C137.791 51.1647 137.777 51.4027 137.749 51.664C137.73 51.9253 137.697 52.2753 137.651 52.714H138.015C138.183 52.2567 138.43 51.9207 138.757 51.706C139.093 51.4913 139.522 51.384 140.045 51.384C140.829 51.384 141.417 51.6173 141.809 52.084C142.21 52.5507 142.411 53.2367 142.411 54.142V57.992H143.391V59H141.109V54.422C141.109 53.7407 140.973 53.246 140.703 52.938C140.432 52.6207 140.012 52.462 139.443 52.462C138.873 52.462 138.453 52.6207 138.183 52.938C137.921 53.246 137.791 53.7407 137.791 54.422V59H136.461ZM147.715 59.14C146.996 59.14 146.38 58.9907 145.867 58.692C145.354 58.3933 144.962 57.9547 144.691 57.376C144.42 56.7973 144.285 56.0927 144.285 55.262C144.285 54.422 144.42 53.7173 144.691 53.148C144.962 52.5693 145.354 52.1307 145.867 51.832C146.38 51.5333 146.996 51.384 147.715 51.384C148.443 51.384 149.059 51.5333 149.563 51.832C150.067 52.1307 150.454 52.5693 150.725 53.148C150.996 53.7173 151.131 54.422 151.131 55.262C151.131 56.0927 150.996 56.7973 150.725 57.376C150.454 57.9547 150.067 58.3933 149.563 58.692C149.059 58.9907 148.443 59.14 147.715 59.14ZM147.715 58.062C148.406 58.062 148.914 57.866 149.241 57.474C149.568 57.082 149.731 56.4753 149.731 55.654V54.87C149.731 54.0487 149.568 53.442 149.241 53.05C148.914 52.658 148.406 52.462 147.715 52.462C147.015 52.462 146.502 52.658 146.175 53.05C145.848 53.442 145.685 54.0487 145.685 54.87V55.654C145.685 56.4753 145.848 57.082 146.175 57.474C146.502 57.866 147.015 58.062 147.715 58.062ZM153.063 60.848V52.532H152.083V51.524H154.169V52.91H154.533C154.748 52.3967 155.032 52.014 155.387 51.762C155.751 51.51 156.204 51.384 156.745 51.384C157.352 51.384 157.87 51.538 158.299 51.846C158.738 52.1447 159.074 52.5833 159.307 53.162C159.54 53.7313 159.657 54.4313 159.657 55.262C159.657 56.0833 159.54 56.7833 159.307 57.362C159.074 57.9407 158.738 58.384 158.299 58.692C157.87 58.9907 157.352 59.14 156.745 59.14C156.213 59.14 155.77 59.0233 155.415 58.79C155.07 58.5567 154.799 58.1927 154.603 57.698H154.239C154.286 58.1367 154.318 58.4867 154.337 58.748C154.365 59.0093 154.379 59.2427 154.379 59.448V60.848H153.063ZM156.311 58.062C156.983 58.062 157.478 57.8707 157.795 57.488C158.112 57.096 158.271 56.4893 158.271 55.668V54.856C158.271 54.0253 158.112 53.4187 157.795 53.036C157.478 52.6533 156.983 52.462 156.311 52.462C155.648 52.462 155.158 52.6533 154.841 53.036C154.533 53.4187 154.379 54.0253 154.379 54.856V55.668C154.379 56.4893 154.533 57.096 154.841 57.488C155.158 57.8707 155.648 58.062 156.311 58.062ZM167.731 59.14C167.012 59.14 166.396 58.9907 165.883 58.692C165.369 58.3933 164.977 57.9547 164.707 57.376C164.436 56.7973 164.301 56.0927 164.301 55.262C164.301 54.422 164.436 53.7173 164.707 53.148C164.977 52.5693 165.369 52.1307 165.883 51.832C166.396 51.5333 167.012 51.384 167.731 51.384C168.459 51.384 169.075 51.5333 169.579 51.832C170.083 52.1307 170.47 52.5693 170.741 53.148C171.011 53.7173 171.147 54.422 171.147 55.262C171.147 56.0927 171.011 56.7973 170.741 57.376C170.47 57.9547 170.083 58.3933 169.579 58.692C169.075 58.9907 168.459 59.14 167.731 59.14ZM167.731 58.062C168.421 58.062 168.93 57.866 169.257 57.474C169.583 57.082 169.747 56.4753 169.747 55.654V54.87C169.747 54.0487 169.583 53.442 169.257 53.05C168.93 52.658 168.421 52.462 167.731 52.462C167.031 52.462 166.517 52.658 166.191 53.05C165.864 53.442 165.701 54.0487 165.701 54.87V55.654C165.701 56.4753 165.864 57.082 166.191 57.474C166.517 57.866 167.031 58.062 167.731 58.062ZM173.079 59V52.532H172.099V51.524H174.185V52.812H174.549C174.735 52.3267 174.997 51.9673 175.333 51.734C175.678 51.5007 176.117 51.384 176.649 51.384C177.423 51.384 178.011 51.6173 178.413 52.084C178.823 52.5507 179.029 53.2367 179.029 54.142V57.992H179.995V59H177.713V54.422C177.713 53.7407 177.577 53.246 177.307 52.938C177.045 52.6207 176.625 52.462 176.047 52.462C175.477 52.462 175.057 52.6207 174.787 52.938C174.516 53.246 174.381 53.7407 174.381 54.422V59H173.079ZM187.553 59.14C186.853 59.14 186.251 58.9953 185.747 58.706C185.252 58.4073 184.869 57.9687 184.599 57.39C184.337 56.8113 184.207 56.102 184.207 55.262C184.207 54.4127 184.337 53.7033 184.599 53.134C184.869 52.5553 185.252 52.1213 185.747 51.832C186.251 51.5333 186.853 51.384 187.553 51.384C188.439 51.384 189.158 51.608 189.709 52.056C190.259 52.504 190.605 53.162 190.745 54.03H189.415V53.96C189.415 53.736 189.349 53.512 189.219 53.288C189.097 53.0547 188.901 52.8587 188.631 52.7C188.36 52.5413 188.001 52.462 187.553 52.462C186.899 52.462 186.409 52.6533 186.083 53.036C185.765 53.4187 185.607 54.0253 185.607 54.856V55.668C185.607 56.4893 185.765 57.096 186.083 57.488C186.409 57.8707 186.899 58.062 187.553 58.062C188.001 58.062 188.36 57.9827 188.631 57.824C188.901 57.656 189.097 57.4507 189.219 57.208C189.349 56.9653 189.415 56.718 189.415 56.466V56.382H190.759C190.637 57.278 190.297 57.964 189.737 58.44C189.186 58.9067 188.458 59.14 187.553 59.14ZM195.498 59.14C194.779 59.14 194.163 58.9907 193.65 58.692C193.137 58.3933 192.745 57.9547 192.474 57.376C192.203 56.7973 192.068 56.0927 192.068 55.262C192.068 54.422 192.203 53.7173 192.474 53.148C192.745 52.5693 193.137 52.1307 193.65 51.832C194.163 51.5333 194.779 51.384 195.498 51.384C196.226 51.384 196.842 51.5333 197.346 51.832C197.85 52.1307 198.237 52.5693 198.508 53.148C198.779 53.7173 198.914 54.422 198.914 55.262C198.914 56.0927 198.779 56.7973 198.508 57.376C198.237 57.9547 197.85 58.3933 197.346 58.692C196.842 58.9907 196.226 59.14 195.498 59.14ZM195.498 58.062C196.189 58.062 196.697 57.866 197.024 57.474C197.351 57.082 197.514 56.4753 197.514 55.654V54.87C197.514 54.0487 197.351 53.442 197.024 53.05C196.697 52.658 196.189 52.462 195.498 52.462C194.798 52.462 194.285 52.658 193.958 53.05C193.631 53.442 193.468 54.0487 193.468 54.87V55.654C193.468 56.4753 193.631 57.082 193.958 57.474C194.285 57.866 194.798 58.062 195.498 58.062ZM200.79 59V50.348H199.684V49.34H202.106V59H200.79ZM207.393 59.14C206.674 59.14 206.058 58.9907 205.545 58.692C205.031 58.3933 204.639 57.9547 204.369 57.376C204.098 56.7973 203.963 56.0927 203.963 55.262C203.963 54.422 204.098 53.7173 204.369 53.148C204.639 52.5693 205.031 52.1307 205.545 51.832C206.058 51.5333 206.674 51.384 207.393 51.384C208.121 51.384 208.737 51.5333 209.241 51.832C209.745 52.1307 210.132 52.5693 210.403 53.148C210.673 53.7173 210.809 54.422 210.809 55.262C210.809 56.0927 210.673 56.7973 210.403 57.376C210.132 57.9547 209.745 58.3933 209.241 58.692C208.737 58.9907 208.121 59.14 207.393 59.14ZM207.393 58.062C208.083 58.062 208.592 57.866 208.919 57.474C209.245 57.082 209.409 56.4753 209.409 55.654V54.87C209.409 54.0487 209.245 53.442 208.919 53.05C208.592 52.658 208.083 52.462 207.393 52.462C206.693 52.462 206.179 52.658 205.853 53.05C205.526 53.442 205.363 54.0487 205.363 54.87V55.654C205.363 56.4753 205.526 57.082 205.853 57.474C206.179 57.866 206.693 58.062 207.393 58.062ZM212.741 59V52.532H211.761V51.524H213.847V52.868H214.211C214.397 52.3827 214.649 52.0233 214.967 51.79C215.293 51.5567 215.713 51.44 216.227 51.44H217.305V52.532H215.709C215.139 52.532 214.719 52.686 214.449 52.994C214.178 53.302 214.043 53.7967 214.043 54.478V59H212.741ZM18.45 79C17.862 79 17.568 78.7013 17.568 78.104V71.524L18.044 70.026H18.884V77.992H20.634V79H18.45ZM16.21 72.532V71.524H20.634V72.532H16.21ZM22.1913 79V70.348H21.2253V69.34H23.5213V70.95C23.5213 71.1647 23.5073 71.4027 23.4793 71.664C23.4606 71.9253 23.4279 72.2753 23.3813 72.714H23.7453C23.9133 72.2567 24.1606 71.9207 24.4873 71.706C24.8233 71.4913 25.2526 71.384 25.7753 71.384C26.5593 71.384 27.1473 71.6173 27.5393 72.084C27.9406 72.5507 28.1413 73.2367 28.1413 74.142V77.992H29.1213V79H26.8393V74.422C26.8393 73.7407 26.7039 73.246 26.4333 72.938C26.1626 72.6207 25.7426 72.462 25.1733 72.462C24.6039 72.462 24.1839 72.6207 23.9133 72.938C23.6519 73.246 23.5213 73.7407 23.5213 74.422V79H22.1913ZM33.4174 79.14C32.6988 79.14 32.0828 78.9907 31.5694 78.692C31.0654 78.3933 30.6781 77.9547 30.4074 77.376C30.1461 76.7973 30.0154 76.0927 30.0154 75.262C30.0154 74.422 30.1461 73.7173 30.4074 73.148C30.6781 72.5693 31.0654 72.1307 31.5694 71.832C32.0828 71.5333 32.6988 71.384 33.4174 71.384C34.1081 71.384 34.6961 71.524 35.1814 71.804C35.6668 72.0747 36.0354 72.476 36.2874 73.008C36.5488 73.54 36.6794 74.198 36.6794 74.982V75.472H30.9114V74.576H36.1614L35.3914 75.178V74.856C35.3914 74.016 35.2328 73.4047 34.9154 73.022C34.5981 72.63 34.0988 72.434 33.4174 72.434C32.7268 72.434 32.2181 72.63 31.8914 73.022C31.5741 73.4047 31.4154 74.016 31.4154 74.856V75.654C31.4154 76.4753 31.5741 77.082 31.8914 77.474C32.2181 77.866 32.7268 78.062 33.4174 78.062C33.8654 78.062 34.2154 77.992 34.4674 77.852C34.7288 77.7027 34.9154 77.5253 35.0274 77.32C35.1394 77.1147 35.1954 76.9233 35.1954 76.746V76.69H36.5674C36.3994 77.4927 36.0448 78.104 35.5034 78.524C34.9714 78.9347 34.2761 79.14 33.4174 79.14ZM41.4161 79.14C40.6975 79.14 40.0815 78.9907 39.5681 78.692C39.0548 78.3933 38.6628 77.9547 38.3921 77.376C38.1215 76.7973 37.9861 76.0927 37.9861 75.262C37.9861 74.422 38.1215 73.7173 38.3921 73.148C38.6628 72.5693 39.0548 72.1307 39.5681 71.832C40.0815 71.5333 40.6975 71.384 41.4161 71.384C42.1441 71.384 42.7601 71.5333 43.2641 71.832C43.7681 72.1307 44.1555 72.5693 44.4261 73.148C44.6968 73.7173 44.8321 74.422 44.8321 75.262C44.8321 76.0927 44.6968 76.7973 44.4261 77.376C44.1555 77.9547 43.7681 78.3933 43.2641 78.692C42.7601 78.9907 42.1441 79.14 41.4161 79.14ZM41.4161 78.062C42.1068 78.062 42.6155 77.866 42.9421 77.474C43.2688 77.082 43.4321 76.4753 43.4321 75.654V74.87C43.4321 74.0487 43.2688 73.442 42.9421 73.05C42.6155 72.658 42.1068 72.462 41.4161 72.462C40.7161 72.462 40.2028 72.658 39.8761 73.05C39.5495 73.442 39.3861 74.0487 39.3861 74.87V75.654C39.3861 76.4753 39.5495 77.082 39.8761 77.474C40.2028 77.866 40.7161 78.062 41.4161 78.062ZM46.7642 79V72.532H45.7842V71.524H47.8702V72.868H48.2342C48.4209 72.3827 48.6729 72.0233 48.9902 71.79C49.3169 71.5567 49.7369 71.44 50.2502 71.44H51.3282V72.532H49.7322C49.1629 72.532 48.7429 72.686 48.4722 72.994C48.2016 73.302 48.0662 73.7967 48.0662 74.478V79H46.7642ZM52.9003 80.848V79.84H55.0283L55.4203 78.692H54.3003L52.1023 71.524H53.4883L55.3643 77.684H55.7283L57.6043 71.524H58.9483L56.3303 79.952C56.2369 80.2413 56.1156 80.4607 55.9663 80.61C55.8169 80.7687 55.5929 80.848 55.2943 80.848H52.9003ZM65.0164 79C64.4284 79 64.1344 78.7013 64.1344 78.104V71.524L64.6104 70.026H65.4504V77.992H67.2004V79H65.0164ZM62.7764 72.532V71.524H67.2004V72.532H62.7764ZM71.5489 79.14C70.8303 79.14 70.2143 78.9907 69.7009 78.692C69.1876 78.3933 68.7956 77.9547 68.5249 77.376C68.2543 76.7973 68.1189 76.0927 68.1189 75.262C68.1189 74.422 68.2543 73.7173 68.5249 73.148C68.7956 72.5693 69.1876 72.1307 69.7009 71.832C70.2143 71.5333 70.8303 71.384 71.5489 71.384C72.2769 71.384 72.8929 71.5333 73.3969 71.832C73.9009 72.1307 74.2883 72.5693 74.5589 73.148C74.8296 73.7173 74.9649 74.422 74.9649 75.262C74.9649 76.0927 74.8296 76.7973 74.5589 77.376C74.2883 77.9547 73.9009 78.3933 73.3969 78.692C72.8929 78.9907 72.2769 79.14 71.5489 79.14ZM71.5489 78.062C72.2396 78.062 72.7483 77.866 73.0749 77.474C73.4016 77.082 73.5649 76.4753 73.5649 75.654V74.87C73.5649 74.0487 73.4016 73.442 73.0749 73.05C72.7483 72.658 72.2396 72.462 71.5489 72.462C70.8489 72.462 70.3356 72.658 70.0089 73.05C69.6823 73.442 69.5189 74.0487 69.5189 74.87V75.654C69.5189 76.4753 69.6823 77.082 70.0089 77.474C70.3356 77.866 70.8489 78.062 71.5489 78.062ZM79.207 79.14C78.619 79.14 78.101 78.9907 77.653 78.692C77.2144 78.384 76.8784 77.9407 76.645 77.362C76.4117 76.7833 76.295 76.0833 76.295 75.262C76.295 74.4313 76.4117 73.7313 76.645 73.162C76.8784 72.5833 77.2144 72.1447 77.653 71.846C78.0917 71.538 78.6097 71.384 79.207 71.384C79.7484 71.384 80.1917 71.5007 80.537 71.734C80.8824 71.9673 81.1577 72.3313 81.363 72.826H81.713C81.6664 72.3873 81.629 72.0373 81.601 71.776C81.5824 71.5147 81.573 71.2767 81.573 71.062V70.348H80.467V69.34H82.889V77.992H83.869V79H82.665C82.077 79 81.783 78.7013 81.783 78.104V77.614H81.419C81.2137 78.118 80.929 78.5007 80.565 78.762C80.201 79.014 79.7484 79.14 79.207 79.14ZM79.641 78.062C80.3037 78.062 80.789 77.8707 81.097 77.488C81.4144 77.096 81.573 76.4893 81.573 75.668V74.856C81.573 74.0253 81.4144 73.4187 81.097 73.036C80.789 72.6533 80.3037 72.462 79.641 72.462C78.969 72.462 78.4744 72.6533 78.157 73.036C77.849 73.4187 77.695 74.0253 77.695 74.856V75.668C77.695 76.4893 77.849 77.096 78.157 77.488C78.4744 77.8707 78.969 78.062 79.641 78.062ZM87.0953 79.14C86.3579 79.14 85.7793 78.958 85.3593 78.594C84.9393 78.2207 84.7293 77.7073 84.7293 77.054C84.7293 76.382 84.9486 75.8593 85.3873 75.486C85.8353 75.1127 86.4886 74.884 87.3473 74.8L89.4333 74.59V75.486L87.7253 75.654C87.1559 75.71 86.7406 75.836 86.4793 76.032C86.2179 76.2187 86.0873 76.494 86.0873 76.858V76.942C86.0873 77.3153 86.2179 77.6 86.4793 77.796C86.7499 77.9827 87.1326 78.076 87.6273 78.076C88.2339 78.076 88.6866 77.9453 88.9853 77.684C89.2839 77.4133 89.4333 77.0073 89.4333 76.466V75.304V75.108V74.226C89.4333 73.61 89.3073 73.162 89.0553 72.882C88.8126 72.602 88.4159 72.462 87.8653 72.462C87.4733 72.462 87.1559 72.5273 86.9133 72.658C86.6799 72.7793 86.5073 72.938 86.3953 73.134C86.2926 73.33 86.2413 73.5447 86.2413 73.778V73.834H84.8973C85.0279 73.0127 85.3406 72.4013 85.8353 72C86.3393 71.5893 87.0253 71.384 87.8933 71.384C88.8359 71.384 89.5499 71.622 90.0353 72.098C90.5206 72.5647 90.7633 73.2553 90.7633 74.17V77.992H91.7293V79H90.5253C89.9373 79 89.6433 78.706 89.6433 78.118V77.74H89.2933C89.1066 78.216 88.8359 78.5707 88.4813 78.804C88.1359 79.028 87.6739 79.14 87.0953 79.14ZM92.8632 80.848V79.84H94.9912L95.3832 78.692H94.2632L92.0652 71.524H93.4512L95.3272 77.684H95.6912L97.5672 71.524H98.9112L96.2932 79.952C96.1998 80.2413 96.0785 80.4607 95.9292 80.61C95.7798 80.7687 95.5558 80.848 95.2572 80.848H92.8632ZM99.3244 79V77.502H100.878V79H99.3244ZM109.195 79.14C108.42 79.14 107.771 79.0233 107.249 78.79C106.735 78.5473 106.334 78.174 106.045 77.67C105.765 77.166 105.583 76.5127 105.499 75.71H106.87V75.934C106.87 76.606 107.057 77.124 107.431 77.488C107.813 77.8427 108.401 78.02 109.195 78.02C109.904 78.02 110.455 77.8893 110.847 77.628C111.239 77.3573 111.435 76.9793 111.435 76.494V76.34C111.435 75.976 111.313 75.6913 111.071 75.486C110.828 75.2713 110.431 75.0987 109.881 74.968L107.949 74.548C107.127 74.352 106.525 74.058 106.143 73.666C105.76 73.2647 105.569 72.7187 105.569 72.028C105.569 71.1227 105.877 70.4273 106.493 69.942C107.109 69.4473 107.986 69.2 109.125 69.2C109.89 69.2 110.529 69.3213 111.043 69.564C111.556 69.7973 111.953 70.166 112.233 70.67C112.522 71.174 112.709 71.8273 112.793 72.63H111.421V72.406C111.421 71.7433 111.234 71.23 110.861 70.866C110.497 70.502 109.918 70.32 109.125 70.32C108.434 70.32 107.893 70.4507 107.501 70.712C107.118 70.9733 106.927 71.3513 106.927 71.846V72C106.927 72.364 107.043 72.6533 107.277 72.868C107.519 73.0733 107.911 73.2413 108.453 73.372L110.385 73.792C111.215 73.9787 111.822 74.2727 112.204 74.674C112.597 75.0753 112.793 75.626 112.793 76.326C112.793 77.222 112.48 77.9173 111.855 78.412C111.239 78.8973 110.352 79.14 109.195 79.14ZM117.596 79.14C116.877 79.14 116.261 78.9907 115.748 78.692C115.234 78.3933 114.842 77.9547 114.572 77.376C114.301 76.7973 114.166 76.0927 114.166 75.262C114.166 74.422 114.301 73.7173 114.572 73.148C114.842 72.5693 115.234 72.1307 115.748 71.832C116.261 71.5333 116.877 71.384 117.596 71.384C118.324 71.384 118.94 71.5333 119.444 71.832C119.948 72.1307 120.335 72.5693 120.606 73.148C120.876 73.7173 121.012 74.422 121.012 75.262C121.012 76.0927 120.876 76.7973 120.606 77.376C120.335 77.9547 119.948 78.3933 119.444 78.692C118.94 78.9907 118.324 79.14 117.596 79.14ZM117.596 78.062C118.286 78.062 118.795 77.866 119.122 77.474C119.448 77.082 119.612 76.4753 119.612 75.654V74.87C119.612 74.0487 119.448 73.442 119.122 73.05C118.795 72.658 118.286 72.462 117.596 72.462C116.896 72.462 116.382 72.658 116.056 73.05C115.729 73.442 115.566 74.0487 115.566 74.87V75.654C115.566 76.4753 115.729 77.082 116.056 77.474C116.382 77.866 116.896 78.062 117.596 78.062ZM129.039 79.14C128.32 79.14 127.704 78.9907 127.191 78.692C126.687 78.3933 126.299 77.9547 126.029 77.376C125.767 76.7973 125.637 76.0927 125.637 75.262C125.637 74.422 125.767 73.7173 126.029 73.148C126.299 72.5693 126.687 72.1307 127.191 71.832C127.704 71.5333 128.32 71.384 129.039 71.384C129.729 71.384 130.317 71.524 130.803 71.804C131.288 72.0747 131.657 72.476 131.909 73.008C132.17 73.54 132.301 74.198 132.301 74.982V75.472H126.533V74.576H131.783L131.013 75.178V74.856C131.013 74.016 130.854 73.4047 130.537 73.022C130.219 72.63 129.72 72.434 129.039 72.434C128.348 72.434 127.839 72.63 127.513 73.022C127.195 73.4047 127.037 74.016 127.037 74.856V75.654C127.037 76.4753 127.195 77.082 127.513 77.474C127.839 77.866 128.348 78.062 129.039 78.062C129.487 78.062 129.837 77.992 130.089 77.852C130.35 77.7027 130.537 77.5253 130.649 77.32C130.761 77.1147 130.817 76.9233 130.817 76.746V76.69H132.189C132.021 77.4927 131.666 78.104 131.125 78.524C130.593 78.9347 129.897 79.14 129.039 79.14ZM135.931 79.14C135.194 79.14 134.615 78.958 134.195 78.594C133.775 78.2207 133.565 77.7073 133.565 77.054C133.565 76.382 133.785 75.8593 134.223 75.486C134.671 75.1127 135.325 74.884 136.183 74.8L138.269 74.59V75.486L136.561 75.654C135.992 75.71 135.577 75.836 135.315 76.032C135.054 76.2187 134.923 76.494 134.923 76.858V76.942C134.923 77.3153 135.054 77.6 135.315 77.796C135.586 77.9827 135.969 78.076 136.463 78.076C137.07 78.076 137.523 77.9453 137.821 77.684C138.12 77.4133 138.269 77.0073 138.269 76.466V75.304V75.108V74.226C138.269 73.61 138.143 73.162 137.891 72.882C137.649 72.602 137.252 72.462 136.701 72.462C136.309 72.462 135.992 72.5273 135.749 72.658C135.516 72.7793 135.343 72.938 135.231 73.134C135.129 73.33 135.077 73.5447 135.077 73.778V73.834H133.733C133.864 73.0127 134.177 72.4013 134.671 72C135.175 71.5893 135.861 71.384 136.729 71.384C137.672 71.384 138.386 71.622 138.871 72.098C139.357 72.5647 139.599 73.2553 139.599 74.17V77.992H140.565V79H139.361C138.773 79 138.479 78.706 138.479 78.118V77.74H138.129C137.943 78.216 137.672 78.5707 137.317 78.804C136.972 79.028 136.51 79.14 135.931 79.14ZM141.43 80.848V79.84H145.714C146.012 79.84 146.222 79.7933 146.344 79.7C146.474 79.6067 146.54 79.4527 146.54 79.238C146.54 79.014 146.474 78.8553 146.344 78.762C146.222 78.6687 146.012 78.622 145.714 78.622H142.97C142.466 78.622 142.083 78.5333 141.822 78.356C141.57 78.1693 141.444 77.9033 141.444 77.558C141.444 77.25 141.542 77.0073 141.738 76.83C141.943 76.6527 142.237 76.5453 142.62 76.508V76.186C142.209 76.018 141.901 75.752 141.696 75.388C141.49 75.0147 141.388 74.562 141.388 74.03C141.388 73.1807 141.654 72.5273 142.186 72.07C142.718 71.6127 143.46 71.384 144.412 71.384C145.364 71.384 146.101 71.6127 146.624 72.07C147.156 72.5273 147.422 73.1807 147.422 74.03C147.422 74.8513 147.16 75.486 146.638 75.934C146.115 76.3727 145.382 76.592 144.44 76.592H143.362C143.11 76.592 142.928 76.6293 142.816 76.704C142.713 76.7787 142.662 76.9 142.662 77.068C142.662 77.236 142.713 77.3573 142.816 77.432C142.928 77.5067 143.11 77.544 143.362 77.544H145.994C146.6 77.544 147.062 77.6793 147.38 77.95C147.706 78.2207 147.87 78.6173 147.87 79.14C147.87 79.7 147.688 80.1247 147.324 80.414C146.969 80.7033 146.456 80.848 145.784 80.848H141.43ZM144.412 75.612C144.981 75.612 145.406 75.4953 145.686 75.262C145.975 75.0193 146.12 74.6413 146.12 74.128V73.904C146.12 73.3907 145.975 73.0173 145.686 72.784C145.406 72.5413 144.981 72.42 144.412 72.42C143.842 72.42 143.413 72.5413 143.124 72.784C142.834 73.0173 142.69 73.3907 142.69 73.904V74.128C142.69 74.6413 142.834 75.0193 143.124 75.262C143.413 75.4953 143.842 75.612 144.412 75.612ZM145.602 71.874C145.602 71.4167 145.7 71.076 145.896 70.852C146.092 70.628 146.395 70.516 146.806 70.516H147.828V71.524H146.4C146.045 71.524 145.868 71.7293 145.868 72.14L145.602 71.874ZM152.294 79.14C151.576 79.14 150.96 78.9907 150.446 78.692C149.942 78.3933 149.555 77.9547 149.284 77.376C149.023 76.7973 148.892 76.0927 148.892 75.262C148.892 74.422 149.023 73.7173 149.284 73.148C149.555 72.5693 149.942 72.1307 150.446 71.832C150.96 71.5333 151.576 71.384 152.294 71.384C152.985 71.384 153.573 71.524 154.058 71.804C154.544 72.0747 154.912 72.476 155.164 73.008C155.426 73.54 155.556 74.198 155.556 74.982V75.472H149.788V74.576H155.038L154.268 75.178V74.856C154.268 74.016 154.11 73.4047 153.792 73.022C153.475 72.63 152.976 72.434 152.294 72.434C151.604 72.434 151.095 72.63 150.768 73.022C150.451 73.4047 150.292 74.016 150.292 74.856V75.654C150.292 76.4753 150.451 77.082 150.768 77.474C151.095 77.866 151.604 78.062 152.294 78.062C152.742 78.062 153.092 77.992 153.344 77.852C153.606 77.7027 153.792 77.5253 153.904 77.32C154.016 77.1147 154.072 76.9233 154.072 76.746V76.69H155.444C155.276 77.4927 154.922 78.104 154.38 78.524C153.848 78.9347 153.153 79.14 152.294 79.14ZM157.479 79V72.532H156.499V71.524H158.585V72.868H158.949C159.136 72.3827 159.388 72.0233 159.705 71.79C160.032 71.5567 160.452 71.44 160.965 71.44H162.043V72.532H160.447C159.878 72.532 159.458 72.686 159.187 72.994C158.916 73.302 158.781 73.7967 158.781 74.478V79H157.479ZM167.87 79C167.282 79 166.988 78.7013 166.988 78.104V71.524L167.464 70.026H168.304V77.992H170.054V79H167.87ZM165.63 72.532V71.524H170.054V72.532H165.63ZM174.402 79.14C173.684 79.14 173.068 78.9907 172.554 78.692C172.041 78.3933 171.649 77.9547 171.378 77.376C171.108 76.7973 170.972 76.0927 170.972 75.262C170.972 74.422 171.108 73.7173 171.378 73.148C171.649 72.5693 172.041 72.1307 172.554 71.832C173.068 71.5333 173.684 71.384 174.402 71.384C175.13 71.384 175.746 71.5333 176.25 71.832C176.754 72.1307 177.142 72.5693 177.412 73.148C177.683 73.7173 177.818 74.422 177.818 75.262C177.818 76.0927 177.683 76.7973 177.412 77.376C177.142 77.9547 176.754 78.3933 176.25 78.692C175.746 78.9907 175.13 79.14 174.402 79.14ZM174.402 78.062C175.093 78.062 175.602 77.866 175.928 77.474C176.255 77.082 176.418 76.4753 176.418 75.654V74.87C176.418 74.0487 176.255 73.442 175.928 73.05C175.602 72.658 175.093 72.462 174.402 72.462C173.702 72.462 173.189 72.658 172.862 73.05C172.536 73.442 172.372 74.0487 172.372 74.87V75.654C172.372 76.4753 172.536 77.082 172.862 77.474C173.189 77.866 173.702 78.062 174.402 78.062ZM185.845 79.14C185.126 79.14 184.51 78.9907 183.997 78.692C183.493 78.3933 183.106 77.9547 182.835 77.376C182.574 76.7973 182.443 76.0927 182.443 75.262C182.443 74.422 182.574 73.7173 182.835 73.148C183.106 72.5693 183.493 72.1307 183.997 71.832C184.51 71.5333 185.126 71.384 185.845 71.384C186.536 71.384 187.124 71.524 187.609 71.804C188.094 72.0747 188.463 72.476 188.715 73.008C188.976 73.54 189.107 74.198 189.107 74.982V75.472H183.339V74.576H188.589L187.819 75.178V74.856C187.819 74.016 187.66 73.4047 187.343 73.022C187.026 72.63 186.526 72.434 185.845 72.434C185.154 72.434 184.646 72.63 184.319 73.022C184.002 73.4047 183.843 74.016 183.843 74.856V75.654C183.843 76.4753 184.002 77.082 184.319 77.474C184.646 77.866 185.154 78.062 185.845 78.062C186.293 78.062 186.643 77.992 186.895 77.852C187.156 77.7027 187.343 77.5253 187.455 77.32C187.567 77.1147 187.623 76.9233 187.623 76.746V76.69H188.995C188.827 77.4927 188.472 78.104 187.931 78.524C187.399 78.9347 186.704 79.14 185.845 79.14ZM189.861 79V77.992H190.841L192.437 74.632L192.423 75.402L190.939 72.532H189.959V71.524H191.933L193.361 74.548H193.725L195.139 71.524H197.071V72.532H196.091L194.607 75.402V74.632L196.189 77.992H197.155V79H195.181L193.669 75.724H193.305L191.793 79H189.861ZM198.864 80.848V72.532H197.884V71.524H199.97V72.91H200.334C200.549 72.3967 200.833 72.014 201.188 71.762C201.552 71.51 202.005 71.384 202.546 71.384C203.153 71.384 203.671 71.538 204.1 71.846C204.539 72.1447 204.875 72.5833 205.108 73.162C205.341 73.7313 205.458 74.4313 205.458 75.262C205.458 76.0833 205.341 76.7833 205.108 77.362C204.875 77.9407 204.539 78.384 204.1 78.692C203.671 78.9907 203.153 79.14 202.546 79.14C202.014 79.14 201.571 79.0233 201.216 78.79C200.871 78.5567 200.6 78.1927 200.404 77.698H200.04C200.087 78.1367 200.119 78.4867 200.138 78.748C200.166 79.0093 200.18 79.2427 200.18 79.448V80.848H198.864ZM202.112 78.062C202.784 78.062 203.279 77.8707 203.596 77.488C203.913 77.096 204.072 76.4893 204.072 75.668V74.856C204.072 74.0253 203.913 73.4187 203.596 73.036C203.279 72.6533 202.784 72.462 202.112 72.462C201.449 72.462 200.959 72.6533 200.642 73.036C200.334 73.4187 200.18 74.0253 200.18 74.856V75.668C200.18 76.4893 200.334 77.096 200.642 77.488C200.959 77.8707 201.449 78.062 202.112 78.062ZM209.117 79.14C208.379 79.14 207.801 78.958 207.381 78.594C206.961 78.2207 206.751 77.7073 206.751 77.054C206.751 76.382 206.97 75.8593 207.409 75.486C207.857 75.1127 208.51 74.884 209.369 74.8L211.455 74.59V75.486L209.747 75.654C209.177 75.71 208.762 75.836 208.501 76.032C208.239 76.2187 208.109 76.494 208.109 76.858V76.942C208.109 77.3153 208.239 77.6 208.501 77.796C208.771 77.9827 209.154 78.076 209.649 78.076C210.255 78.076 210.708 77.9453 211.007 77.684C211.305 77.4133 211.455 77.0073 211.455 76.466V75.304V75.108V74.226C211.455 73.61 211.329 73.162 211.077 72.882C210.834 72.602 210.437 72.462 209.887 72.462C209.495 72.462 209.177 72.5273 208.935 72.658C208.701 72.7793 208.529 72.938 208.417 73.134C208.314 73.33 208.263 73.5447 208.263 73.778V73.834H206.919C207.049 73.0127 207.362 72.4013 207.857 72C208.361 71.5893 209.047 71.384 209.915 71.384C210.857 71.384 211.571 71.622 212.057 72.098C212.542 72.5647 212.785 73.2553 212.785 74.17V77.992H213.751V79H212.547C211.959 79 211.665 78.706 211.665 78.118V77.74H211.315C211.128 78.216 210.857 78.5707 210.503 78.804C210.157 79.028 209.695 79.14 209.117 79.14ZM215.147 79V72.532H214.167V71.524H216.253V72.812H216.617C216.804 72.3267 217.065 71.9673 217.401 71.734C217.746 71.5007 218.185 71.384 218.717 71.384C219.492 71.384 220.08 71.6173 220.481 72.084C220.892 72.5507 221.097 73.2367 221.097 74.142V77.992H222.063V79H219.781V74.422C219.781 73.7407 219.646 73.246 219.375 72.938C219.114 72.6207 218.694 72.462 218.115 72.462C217.546 72.462 217.126 72.6207 216.855 72.938C216.584 73.246 216.449 73.7407 216.449 74.422V79H215.147ZM225.893 79.14C225.305 79.14 224.787 78.9907 224.339 78.692C223.9 78.384 223.564 77.9407 223.331 77.362C223.097 76.7833 222.981 76.0833 222.981 75.262C222.981 74.4313 223.097 73.7313 223.331 73.162C223.564 72.5833 223.9 72.1447 224.339 71.846C224.777 71.538 225.295 71.384 225.893 71.384C226.434 71.384 226.877 71.5007 227.223 71.734C227.568 71.9673 227.843 72.3313 228.049 72.826H228.399C228.352 72.3873 228.315 72.0373 228.287 71.776C228.268 71.5147 228.259 71.2767 228.259 71.062V70.348H227.153V69.34H229.575V77.992H230.555V79H229.351C228.763 79 228.469 78.7013 228.469 78.104V77.614H228.105C227.899 78.118 227.615 78.5007 227.251 78.762C226.887 79.014 226.434 79.14 225.893 79.14ZM226.327 78.062C226.989 78.062 227.475 77.8707 227.783 77.488C228.1 77.096 228.259 76.4893 228.259 75.668V74.856C228.259 74.0253 228.1 73.4187 227.783 73.036C227.475 72.6533 226.989 72.462 226.327 72.462C225.655 72.462 225.16 72.6533 224.843 73.036C224.535 73.4187 224.381 74.0253 224.381 74.856V75.668C224.381 76.4893 224.535 77.096 224.843 77.488C225.16 77.8707 225.655 78.062 226.327 78.062ZM231.723 79V77.502H233.277V79H231.723ZM234.551 79V77.502H236.105V79H234.551ZM237.379 79V77.502H238.933V79H237.379Z" fill="white"/>
<g clip-path="url(#clip0_452_1646)">
<path fill-rule="evenodd" clip-rule="evenodd" d="M28.6789 94.4417C27.8166 94.4417 27.0166 94.7972 26.4566 95.3839C26.1455 95.695 25.9055 96.0772 25.7544 96.5039C25.63 96.8239 25.5678 97.1794 25.5678 97.5528C25.5678 97.7137 25.5846 97.8728 25.6122 98.031C25.6353 98.1803 25.6726 98.3252 25.7153 98.4692V98.4701C25.7304 98.5199 25.7375 98.5714 25.7544 98.6194C25.7811 98.6905 25.8166 98.7705 25.8344 98.7972C25.8433 98.8239 25.8611 98.8594 25.8789 98.8861C26.0389 99.2505 26.27 99.5705 26.59 99.8461C26.6024 99.8568 26.702 99.9305 26.8513 100.027C26.8033 100.279 26.7046 100.523 26.5109 100.718C25.99 101.238 25.1455 101.238 24.6246 100.718C24.1046 100.197 24.1046 99.3528 24.6246 98.8319C24.6949 98.7625 24.7811 98.7261 24.8611 98.6754C24.7526 98.3234 24.6789 97.9394 24.6789 97.5528C24.6789 97.0861 24.758 96.6363 24.918 96.2194H22.2095L15.9998 102.428L22.9144 109.343L29.1233 103.133V97.5528C29.1233 96.8177 28.5251 96.2194 27.79 96.2194H26.902C27.31 95.6728 27.966 95.3305 28.6789 95.3305C29.9055 95.3305 30.9011 96.3261 30.9011 97.5528H31.79C31.79 95.8372 30.3944 94.4417 28.6789 94.4417" fill="#9698A2"/>
</g>
<rect x="30" y="92" width="64" height="20" rx="10" fill="#9698A2"/>
<path d="M44.276 104.084C44.276 104.652 44.192 105.132 44.024 105.524C43.856 105.916 43.628 106.232 43.34 106.472C43.06 106.704 42.748 106.872 42.404 106.976C42.068 107.08 41.732 107.132 41.396 107.132C41.06 107.132 40.72 107.08 40.376 106.976C40.04 106.872 39.728 106.704 39.44 106.472C39.16 106.232 38.936 105.916 38.768 105.524C38.6 105.132 38.516 104.652 38.516 104.084V98.6H40.208V103.868C40.208 104.18 40.252 104.456 40.34 104.696C40.428 104.928 40.56 105.112 40.736 105.248C40.912 105.376 41.132 105.44 41.396 105.44C41.66 105.44 41.88 105.376 42.056 105.248C42.232 105.112 42.364 104.928 42.452 104.696C42.54 104.456 42.584 104.18 42.584 103.868V98.6H44.276V104.084ZM44.8929 107V106.724L46.5969 102.68L45.0129 98.876V98.6H46.7409L47.9769 101.828H48.1569L49.3689 98.6H51.0969V98.876L49.5849 102.68L51.2169 106.724V107H49.4889L48.1569 103.748H47.9769L46.6209 107H44.8929ZM54.2048 98.6C54.8688 98.6 55.4648 98.752 55.9928 99.056C56.5208 99.352 56.9408 99.808 57.2528 100.424C57.5648 101.04 57.7208 101.832 57.7208 102.8C57.7208 103.76 57.5648 104.552 57.2528 105.176C56.9408 105.792 56.5208 106.252 55.9928 106.556C55.4648 106.852 54.8688 107 54.2048 107H51.8888V98.6H54.2048ZM54.1808 105.404C54.7248 105.404 55.1648 105.176 55.5008 104.72C55.8368 104.264 56.0048 103.624 56.0048 102.8C56.0048 101.96 55.8328 101.316 55.4888 100.868C55.1528 100.42 54.7168 100.196 54.1808 100.196H53.5688V105.404H54.1808ZM62.8882 98.6V100.136H60.2602V102.188C60.5082 102.092 60.7682 102.016 61.0402 101.96C61.3202 101.904 61.5962 101.868 61.8682 101.852C62.1402 101.836 62.3922 101.844 62.6242 101.876V103.352L62.5162 103.424C62.3322 103.368 62.1162 103.336 61.8682 103.328C61.6282 103.32 61.3682 103.336 61.0882 103.376C60.8082 103.416 60.5322 103.484 60.2602 103.58V105.464H62.8882V107H58.5802V98.6H62.8882ZM68.595 104.78C68.595 105.276 68.487 105.7 68.271 106.052C68.063 106.404 67.771 106.676 67.395 106.868C67.019 107.052 66.587 107.144 66.099 107.144C65.715 107.144 65.359 107.096 65.031 107C64.703 106.912 64.419 106.804 64.179 106.676C63.947 106.548 63.775 106.44 63.663 106.352V104.708H63.879C64.135 104.94 64.447 105.148 64.815 105.332C65.191 105.508 65.551 105.596 65.895 105.596C66.079 105.596 66.243 105.568 66.387 105.512C66.539 105.448 66.659 105.36 66.747 105.248C66.835 105.136 66.879 105 66.879 104.84C66.879 104.6 66.807 104.408 66.663 104.264C66.527 104.112 66.315 103.952 66.027 103.784L65.031 103.196C64.783 103.052 64.539 102.884 64.299 102.692C64.067 102.492 63.871 102.244 63.711 101.948C63.559 101.644 63.483 101.276 63.483 100.844C63.483 100.332 63.591 99.9 63.807 99.548C64.031 99.188 64.323 98.92 64.683 98.744C65.051 98.56 65.463 98.468 65.919 98.468C66.271 98.468 66.591 98.504 66.879 98.576C67.175 98.648 67.435 98.744 67.659 98.864C67.891 98.976 68.083 99.108 68.235 99.26V100.904H68.007C67.767 100.64 67.471 100.428 67.119 100.268C66.775 100.1 66.423 100.016 66.063 100.016C65.823 100.016 65.619 100.076 65.451 100.196C65.283 100.316 65.199 100.492 65.199 100.724C65.199 100.956 65.295 101.156 65.487 101.324C65.679 101.492 65.931 101.672 66.243 101.864L67.239 102.476C67.511 102.644 67.747 102.836 67.947 103.052C68.147 103.26 68.303 103.504 68.415 103.784C68.535 104.064 68.595 104.396 68.595 104.78ZM69.4552 98.6H71.1352V107H69.4552V98.6ZM72.026 102.8C72.026 101.8 72.202 100.98 72.554 100.34C72.914 99.7 73.39 99.228 73.982 98.924C74.582 98.62 75.242 98.468 75.962 98.468C76.354 98.468 76.706 98.508 77.018 98.588C77.33 98.668 77.594 98.764 77.81 98.876C78.034 98.98 78.194 99.084 78.29 99.188V100.904H78.062C77.966 100.76 77.826 100.62 77.642 100.484C77.458 100.348 77.238 100.24 76.982 100.16C76.734 100.072 76.454 100.028 76.142 100.028C75.646 100.028 75.218 100.132 74.858 100.34C74.506 100.54 74.238 100.848 74.054 101.264C73.87 101.672 73.778 102.184 73.778 102.8C73.778 103.392 73.862 103.9 74.03 104.324C74.206 104.74 74.458 105.06 74.786 105.284C75.114 105.5 75.502 105.608 75.95 105.608C76.142 105.608 76.306 105.588 76.442 105.548C76.578 105.5 76.682 105.44 76.754 105.368V103.472H74.714V102.008H78.29V106.148C77.946 106.492 77.55 106.744 77.102 106.904C76.662 107.056 76.182 107.132 75.662 107.132C75.19 107.132 74.734 107.048 74.294 106.88C73.862 106.704 73.474 106.44 73.13 106.088C72.794 105.736 72.526 105.288 72.326 104.744C72.126 104.2 72.026 103.552 72.026 102.8ZM83.3998 98.6H85.0438V107H83.2078L81.1318 101.792H80.9998L81.0718 107H79.4278V98.6H81.2638L83.3398 103.88H83.4718L83.3998 98.6Z" fill="black"/>
<rect x="92" y="92" width="82" height="20" rx="10" fill="#9698A2"/>
<path d="M100.096 107V106.724L101.848 98.6L104.836 98.612L106.6 106.724V107H104.848L104.464 104.888H102.232L101.836 107H100.096ZM102.46 103.412H104.224L103.636 100.196H103.048L102.46 103.412ZM107.268 107V98.6H110.184C110.696 98.6 111.144 98.696 111.528 98.888C111.912 99.08 112.212 99.38 112.428 99.788C112.652 100.188 112.764 100.712 112.764 101.36C112.764 102 112.644 102.536 112.404 102.968C112.172 103.392 111.86 103.712 111.468 103.928C111.084 104.136 110.656 104.24 110.184 104.24H108.948V107H107.268ZM108.948 102.788H109.956C110.172 102.788 110.364 102.732 110.532 102.62C110.7 102.508 110.828 102.352 110.916 102.152C111.004 101.952 111.048 101.716 111.048 101.444C111.048 101.172 111.004 100.94 110.916 100.748C110.828 100.548 110.7 100.396 110.532 100.292C110.364 100.188 110.172 100.136 109.956 100.136H108.948V102.788ZM113.443 107V98.6H116.359C116.871 98.6 117.319 98.696 117.703 98.888C118.087 99.08 118.387 99.38 118.603 99.788C118.827 100.188 118.939 100.712 118.939 101.36C118.939 102 118.819 102.536 118.579 102.968C118.347 103.392 118.035 103.712 117.643 103.928C117.259 104.136 116.831 104.24 116.359 104.24H115.123V107H113.443ZM115.123 102.788H116.131C116.347 102.788 116.539 102.732 116.707 102.62C116.875 102.508 117.003 102.352 117.091 102.152C117.179 101.952 117.223 101.716 117.223 101.444C117.223 101.172 117.179 100.94 117.091 100.748C117.003 100.548 116.875 100.396 116.707 100.292C116.539 100.188 116.347 100.136 116.131 100.136H115.123V102.788ZM119.643 98.6H121.323V107H119.619L119.643 98.6ZM122.691 98.6C123.171 98.6 123.595 98.696 123.963 98.888C124.339 99.072 124.635 99.356 124.851 99.74C125.067 100.116 125.175 100.588 125.175 101.156C125.175 101.74 125.055 102.228 124.815 102.62C124.583 103.004 124.279 103.296 123.903 103.496C123.535 103.688 123.139 103.784 122.715 103.784H120.435V98.6H122.691ZM121.299 102.332H122.487C122.679 102.332 122.847 102.288 122.991 102.2C123.135 102.112 123.243 101.984 123.315 101.816C123.395 101.64 123.435 101.444 123.435 101.228C123.435 100.996 123.395 100.8 123.315 100.64C123.243 100.472 123.135 100.348 122.991 100.268C122.847 100.18 122.679 100.136 122.487 100.136H121.299V102.332ZM121.971 102.872L123.579 102.836L125.175 106.724V107H123.423L121.971 102.872ZM130.361 98.6V100.136H127.733V102.188C127.981 102.092 128.241 102.016 128.513 101.96C128.793 101.904 129.069 101.868 129.341 101.852C129.613 101.836 129.865 101.844 130.097 101.876V103.352L129.989 103.424C129.805 103.368 129.589 103.336 129.341 103.328C129.101 103.32 128.841 103.336 128.561 103.376C128.281 103.416 128.005 103.484 127.733 103.58V105.464H130.361V107H126.053V98.6H130.361ZM133.584 98.6C134.248 98.6 134.844 98.752 135.372 99.056C135.9 99.352 136.32 99.808 136.632 100.424C136.944 101.04 137.1 101.832 137.1 102.8C137.1 103.76 136.944 104.552 136.632 105.176C136.32 105.792 135.9 106.252 135.372 106.556C134.844 106.852 134.248 107 133.584 107H131.268V98.6H133.584ZM133.56 105.404C134.104 105.404 134.544 105.176 134.88 104.72C135.216 104.264 135.384 103.624 135.384 102.8C135.384 101.96 135.212 101.316 134.868 100.868C134.532 100.42 134.096 100.196 133.56 100.196H132.948V105.404H133.56ZM142.267 98.6V100.136H139.639V102.188C139.887 102.092 140.147 102.016 140.419 101.96C140.699 101.904 140.975 101.868 141.247 101.852C141.519 101.836 141.771 101.844 142.003 101.876V103.352L141.895 103.424C141.711 103.368 141.495 103.336 141.247 103.328C141.007 103.32 140.747 103.336 140.467 103.376C140.187 103.416 139.911 103.484 139.639 103.58V105.464H142.267V107H137.959V98.6H142.267ZM147.974 104.78C147.974 105.276 147.866 105.7 147.65 106.052C147.442 106.404 147.15 106.676 146.774 106.868C146.398 107.052 145.966 107.144 145.478 107.144C145.094 107.144 144.738 107.096 144.41 107C144.082 106.912 143.798 106.804 143.558 106.676C143.326 106.548 143.154 106.44 143.042 106.352V104.708H143.258C143.514 104.94 143.826 105.148 144.194 105.332C144.57 105.508 144.93 105.596 145.274 105.596C145.458 105.596 145.622 105.568 145.766 105.512C145.918 105.448 146.038 105.36 146.126 105.248C146.214 105.136 146.258 105 146.258 104.84C146.258 104.6 146.186 104.408 146.042 104.264C145.906 104.112 145.694 103.952 145.406 103.784L144.41 103.196C144.162 103.052 143.918 102.884 143.678 102.692C143.446 102.492 143.25 102.244 143.09 101.948C142.938 101.644 142.862 101.276 142.862 100.844C142.862 100.332 142.97 99.9 143.186 99.548C143.41 99.188 143.702 98.92 144.062 98.744C144.43 98.56 144.842 98.468 145.298 98.468C145.65 98.468 145.97 98.504 146.258 98.576C146.554 98.648 146.814 98.744 147.038 98.864C147.27 98.976 147.462 99.108 147.614 99.26V100.904H147.386C147.146 100.64 146.85 100.428 146.498 100.268C146.154 100.1 145.802 100.016 145.442 100.016C145.202 100.016 144.998 100.076 144.83 100.196C144.662 100.316 144.578 100.492 144.578 100.724C144.578 100.956 144.674 101.156 144.866 101.324C145.058 101.492 145.31 101.672 145.622 101.864L146.618 102.476C146.89 102.644 147.126 102.836 147.326 103.052C147.526 103.26 147.682 103.504 147.794 103.784C147.914 104.064 147.974 104.396 147.974 104.78ZM148.834 98.6H150.514V107H148.834V98.6ZM151.405 102.8C151.405 101.8 151.581 100.98 151.933 100.34C152.293 99.7 152.769 99.228 153.361 98.924C153.961 98.62 154.621 98.468 155.341 98.468C155.733 98.468 156.085 98.508 156.397 98.588C156.709 98.668 156.973 98.764 157.189 98.876C157.413 98.98 157.573 99.084 157.669 99.188V100.904H157.441C157.345 100.76 157.205 100.62 157.021 100.484C156.837 100.348 156.617 100.24 156.361 100.16C156.113 100.072 155.833 100.028 155.521 100.028C155.025 100.028 154.597 100.132 154.237 100.34C153.885 100.54 153.617 100.848 153.433 101.264C153.249 101.672 153.157 102.184 153.157 102.8C153.157 103.392 153.241 103.9 153.409 104.324C153.585 104.74 153.837 105.06 154.165 105.284C154.493 105.5 154.881 105.608 155.329 105.608C155.521 105.608 155.685 105.588 155.821 105.548C155.957 105.5 156.061 105.44 156.133 105.368V103.472H154.093V102.008H157.669V106.148C157.325 106.492 156.929 106.744 156.481 106.904C156.041 107.056 155.561 107.132 155.041 107.132C154.569 107.132 154.113 107.048 153.673 106.88C153.241 106.704 152.853 106.44 152.509 106.088C152.173 105.736 151.905 105.288 151.705 104.744C151.505 104.2 151.405 103.552 151.405 102.8ZM162.779 98.6H164.423V107H162.587L160.511 101.792H160.379L160.451 107H158.807V98.6H160.643L162.719 103.88H162.851L162.779 98.6Z" fill="black"/>
<defs>
<clipPath id="clip0_452_1646">
<rect width="16" height="16" fill="white" transform="translate(16 94)"/>
</clipPath>
</defs>
</svg>
