<svg width="98" height="98" viewBox="0 0 98 98" fill="none" xmlns="http://www.w3.org/2000/svg">
<rect width="98" height="98" rx="49" fill="#33353C"/>
<path d="M81.5633 26.2031C81.2644 26.434 80.9619 26.5681 80.6557 26.6052C80.353 26.6468 80.0631 26.6036 79.7861 26.4757C79.5135 26.3443 79.2721 26.1425 79.0618 25.8704C78.8963 25.6563 78.768 25.4348 78.6767 25.2061C78.581 24.9808 78.5154 24.7715 78.4799 24.578C78.4478 24.389 78.4322 24.2443 78.433 24.144L79.5773 23.2597L79.6911 23.4069C79.6675 23.6531 79.6821 23.9162 79.7346 24.1962C79.795 24.4773 79.889 24.7003 80.0166 24.8654C80.0785 24.9458 80.1414 25.0041 80.2052 25.0403C80.2767 25.0776 80.3469 25.0946 80.4157 25.0914C80.4844 25.0881 80.5455 25.0658 80.5991 25.0244C80.7017 24.9452 80.7544 24.8474 80.7572 24.7312C80.768 24.616 80.7571 24.4499 80.7247 24.2327L80.6322 23.6843C80.6056 23.4839 80.5946 23.2715 80.5993 23.047C80.6118 22.8236 80.6706 22.6 80.7757 22.3763C80.8842 22.1571 81.0678 21.9475 81.3265 21.7476C81.6343 21.5097 81.9413 21.3722 82.2475 21.3351C82.5616 21.299 82.8532 21.3444 83.1223 21.4713C83.3993 21.5993 83.6378 21.7926 83.8378 22.0513C83.9791 22.2342 84.094 22.4198 84.1824 22.608C84.2708 22.7961 84.3333 22.983 84.3698 23.1685C84.4108 23.3506 84.4184 23.5264 84.3926 23.696L83.2484 24.5802L83.1346 24.433C83.177 24.1652 83.1704 23.9031 83.1148 23.6468C83.0637 23.387 82.9761 23.1768 82.852 23.0162C82.783 22.927 82.7004 22.8662 82.604 22.8337C82.5112 22.8058 82.4223 22.8245 82.3376 22.89C82.2395 22.9659 82.1904 23.0822 82.1904 23.2389C82.1938 23.4001 82.211 23.6113 82.2418 23.8725L82.3082 24.4839C82.3361 24.7045 82.3313 24.9149 82.2936 25.115C82.2559 25.3152 82.1774 25.5041 82.0582 25.6817C81.9424 25.8638 81.7774 26.0376 81.5633 26.2031ZM86.8711 26.6918L87.6462 27.9724L82.5818 31.0376L81.8067 29.757L83.7746 28.5659L83.2185 27.6471L81.2506 28.8382L80.4711 27.5504L85.5356 24.4851L86.315 25.7729L84.3471 26.964L84.9032 27.8828L86.8711 26.6918ZM85.5466 30.2836C86.2021 29.9956 86.7828 29.8666 87.2888 29.8968C87.7947 29.9269 88.218 30.0704 88.5586 30.3271C88.9068 30.5868 89.1693 30.9179 89.3462 31.3205C89.5231 31.7231 89.5883 32.1378 89.5419 32.5647C89.5029 32.9944 89.3234 33.4058 89.0035 33.7989C88.6836 34.192 88.1959 34.5325 87.5403 34.8206C86.8848 35.1087 86.3041 35.2376 85.7982 35.2074C85.2923 35.1773 84.8653 35.0324 84.5172 34.7728C84.1765 34.516 83.9177 34.1864 83.7408 33.7838C83.5638 33.3812 83.4949 32.965 83.5339 32.5353C83.5803 32.1084 83.7635 31.6984 84.0834 31.3054C84.4033 30.9123 84.8911 30.5717 85.5466 30.2836ZM86.1624 31.685C85.8321 31.8301 85.5704 31.9913 85.3773 32.1686C85.1894 32.3435 85.0644 32.5216 85.0024 32.7028C84.9478 32.8869 84.9557 33.0589 85.026 33.219C85.0963 33.379 85.2177 33.5011 85.3903 33.5854C85.568 33.6674 85.7848 33.6984 86.0408 33.6783C86.3019 33.6559 86.5976 33.5721 86.928 33.427C87.2686 33.2773 87.5318 33.1124 87.7174 32.9322C87.9054 32.7573 88.0266 32.5778 88.0812 32.3937C88.138 32.2147 88.1313 32.0452 88.061 31.8852C87.9907 31.7252 87.8692 31.6031 87.6967 31.5188C87.5264 31.4397 87.3108 31.4113 87.0496 31.4337C86.7937 31.4538 86.4979 31.5375 86.1624 31.685ZM90.6122 34.5257L91.0174 36.0281L87.4096 37.3953L87.4272 37.4607L91.2597 36.9262L91.5878 38.1428L88.0064 39.6081L88.0284 39.6897L91.83 39.041L92.2353 40.5433L92.0148 40.6028L86.2841 41.2113L85.8018 39.4232L88.6515 38.3304L88.6317 38.2569L85.6167 38.7373L85.1344 36.9492L90.3916 34.5852L90.6122 34.5257ZM92.3249 41.6116L92.5483 43.0746L86.6963 43.9682L86.4729 42.5052L92.3249 41.6116ZM92.8925 46.8504L92.9806 48.2938L87.0718 48.6546L86.9821 47.1858L89.8373 45.9355L89.8327 45.8595L86.9162 46.1053L86.828 44.6619L92.7368 44.3011L92.827 45.7783L89.8874 47.0338L89.8921 47.1098L92.8925 46.8504ZM90.0447 49.3538C90.7479 49.4001 91.3164 49.5618 91.7502 49.839C92.1836 50.1218 92.4935 50.4784 92.6798 50.9088C92.8658 51.3448 92.9422 51.8159 92.9088 52.3222C92.8907 52.5979 92.8491 52.8438 92.784 53.0598C92.7189 53.2759 92.642 53.4573 92.5532 53.604C92.4697 53.7567 92.3892 53.8644 92.3116 53.9271L90.8095 53.8282L90.8212 53.651C90.9262 53.6014 91.0306 53.5179 91.1344 53.4004C91.2381 53.2829 91.3265 53.1419 91.3995 52.9772C91.4778 52.8185 91.5234 52.6407 91.5364 52.4438C91.5567 52.1344 91.5122 51.8659 91.4029 51.6383C91.2932 51.4164 91.1183 51.241 90.8782 51.1122C90.6381 50.9834 90.3239 50.9062 89.9358 50.8807C89.5701 50.8566 89.2545 50.8867 88.9891 50.9709C88.7293 51.0555 88.5253 51.1918 88.3774 51.3798C88.2294 51.5678 88.1461 51.8024 88.1276 52.0837C88.125 52.1231 88.1252 52.1627 88.1282 52.2024C88.1313 52.2422 88.1431 52.2768 88.1638 52.3065L89.2102 52.3754L89.2768 51.3627L90.5595 51.4472L90.4045 53.8016L87.4003 53.6038C87.1744 53.3459 87.0155 53.0558 86.9237 52.7333C86.8372 52.4169 86.806 52.0758 86.8301 51.7102C86.8519 51.3782 86.9319 51.0643 87.0701 50.7683C87.2138 50.4726 87.4174 50.212 87.6809 49.9864C87.9443 49.7608 88.272 49.5903 88.6638 49.4748C89.0556 49.3593 89.5159 49.319 90.0447 49.3538ZM86.3672 56.234L92.1171 57.6421L91.6001 59.7531C91.5143 60.1036 91.3742 60.3914 91.1797 60.6166C90.9839 60.8473 90.7262 60.9989 90.4066 61.0716C90.0911 61.1511 89.7061 61.1351 89.2516 61.0238C88.808 60.9152 88.4585 60.7425 88.203 60.5058C87.9462 60.2746 87.7767 60.0068 87.6946 59.7022C87.6165 59.4045 87.6151 59.1023 87.6902 58.7957L87.8551 58.1221L86.0151 57.6715L86.3672 56.234ZM89.0872 58.4238L88.9786 58.8674C88.9505 58.9824 88.9578 59.0828 89.0006 59.1688C89.0489 59.2561 89.121 59.3289 89.217 59.3872C89.3171 59.4524 89.4302 59.5004 89.5561 59.5312C89.6821 59.5621 89.799 59.5704 89.907 59.5562C90.0191 59.5488 90.114 59.5169 90.1916 59.4605C90.2693 59.404 90.3222 59.3183 90.3504 59.2033L90.459 58.7597L89.0872 58.4238ZM88.1456 61.3486C88.8142 61.6048 89.3177 61.9215 89.6561 62.2987C89.9946 62.676 90.1946 63.0757 90.2563 63.4978C90.3212 63.9272 90.2749 64.3472 90.1176 64.7578C89.9602 65.1685 89.715 65.5092 89.3818 65.78C89.0517 66.058 88.6348 66.2243 88.131 66.2788C87.6271 66.3332 87.0409 66.2324 86.3723 65.9762C85.7037 65.72 85.2001 65.4032 84.8617 65.026C84.5232 64.6487 84.3216 64.2454 84.2566 63.816C84.195 63.3939 84.2429 62.9776 84.4002 62.5669C84.5576 62.1563 84.8012 61.8119 85.1312 61.5338C85.4644 61.263 85.8829 61.1004 86.3868 61.0459C86.8907 60.9915 87.4769 61.0924 88.1456 61.3486ZM87.5978 62.7779C87.2609 62.6488 86.9615 62.5793 86.6996 62.5696C86.4429 62.5618 86.2288 62.6005 86.0573 62.6857C85.889 62.7782 85.7736 62.906 85.7111 63.0693C85.6486 63.2325 85.649 63.4047 85.7124 63.5859C85.781 63.7692 85.9134 63.9437 86.1095 64.1095C86.3109 64.2772 86.58 64.4256 86.9169 64.5547C87.2644 64.6879 87.5675 64.7557 87.8261 64.7582C88.0828 64.766 88.2952 64.7236 88.4635 64.6311C88.6298 64.5439 88.7441 64.4187 88.8067 64.2555C88.8692 64.0923 88.8688 63.92 88.8054 63.7388C88.74 63.5628 88.6067 63.3909 88.4053 63.2232C88.2092 63.0574 87.94 62.909 87.5978 62.7779ZM83.2411 69.1467C82.9068 68.9708 82.6592 68.7512 82.4983 68.4881C82.3347 68.23 82.2536 67.9484 82.2549 67.6432C82.2613 67.3408 82.3445 67.0374 82.5047 66.733C82.6308 66.4936 82.7789 66.2848 82.949 66.1068C83.1142 65.9262 83.2774 65.7795 83.4386 65.6668C83.5973 65.5592 83.7224 65.4849 83.814 65.4439L85.0937 66.1176L85.007 66.2822C84.7733 66.363 84.54 66.4855 84.3071 66.6496C84.0765 66.8213 83.9127 66.9995 83.8155 67.1841C83.7682 67.2739 83.7413 67.3553 83.7347 67.4283C83.7305 67.5089 83.7442 67.5798 83.7757 67.641C83.8072 67.7021 83.8529 67.7485 83.9128 67.78C84.0275 67.8404 84.1383 67.8478 84.2452 67.8021C84.3544 67.764 84.5011 67.6851 84.6852 67.5654L85.1456 67.2535C85.3168 67.1461 85.5055 67.0479 85.7116 66.9589C85.9201 66.8775 86.1479 66.8381 86.395 66.8408C86.6395 66.8484 86.9064 66.9284 87.1957 67.0807C87.54 67.2619 87.7926 67.4841 87.9535 67.7472C88.1168 68.0179 88.1967 68.302 88.1929 68.5995C88.1916 68.9047 88.1148 69.2019 87.9625 69.4913C87.8548 69.6958 87.7337 69.8774 87.5993 70.036C87.4648 70.1945 87.3208 70.329 87.1672 70.4393C87.0185 70.5522 86.8618 70.6321 86.6968 70.6791L85.4172 70.0055L85.5039 69.8409C85.7652 69.7681 86.0008 69.6533 86.2109 69.4963C86.426 69.3419 86.5808 69.1749 86.6753 68.9953C86.7278 68.8955 86.7489 68.7951 86.7384 68.694C86.7252 68.5979 86.6713 68.5249 86.5765 68.475C86.4667 68.4172 86.3406 68.4209 86.198 68.486C86.0528 68.5561 85.8678 68.6594 85.643 68.7959L85.1144 69.1102C84.9253 69.2273 84.7319 69.3103 84.5342 69.3591C84.3364 69.4079 84.132 69.415 83.9209 69.3803C83.7072 69.3506 83.4806 69.2728 83.2411 69.1467ZM84.7074 74.6433L83.5639 73.8889L84.1181 73.0488L80.3204 70.5433L81.1354 69.3079L84.9331 71.8135L85.5106 70.9382L86.6541 71.6927L84.7074 74.6433ZM78.6187 75.4659C78.3258 75.2274 78.1266 74.9632 78.0208 74.6734C77.9115 74.388 77.8877 74.0959 77.9494 73.7971C78.0154 73.5018 78.157 73.2209 78.3742 72.9543C78.5451 72.7444 78.7316 72.5691 78.9336 72.4283C79.1313 72.2839 79.3203 72.1724 79.5006 72.0939C79.6773 72.0197 79.8147 71.9716 79.9126 71.9496L81.0338 72.863L80.9163 73.0072C80.6712 73.0403 80.4183 73.1142 80.1575 73.229C79.8975 73.3517 79.7017 73.4939 79.5699 73.6557C79.5058 73.7343 79.4633 73.8088 79.4424 73.8791C79.4224 73.9572 79.4217 74.0294 79.4405 74.0957C79.4593 74.1619 79.4949 74.2163 79.5474 74.2591C79.6479 74.341 79.7551 74.3701 79.8689 74.3464C79.9835 74.3307 80.1428 74.2824 80.347 74.2015L80.86 73.9868C81.0491 73.9154 81.2534 73.8564 81.4731 73.8099C81.6936 73.7714 81.9247 73.7779 82.1664 73.8293C82.4045 73.8851 82.6503 74.0163 82.9038 74.2229C83.2054 74.4686 83.4091 74.7363 83.5148 75.026C83.6214 75.3237 83.6434 75.618 83.5809 75.9089C83.5193 76.2077 83.3852 76.4839 83.1787 76.7374C83.0326 76.9166 82.8781 77.0707 82.7149 77.1995C82.5517 77.3284 82.384 77.4317 82.2116 77.5094C82.0435 77.5907 81.874 77.638 81.7031 77.6515L80.582 76.7381L80.6995 76.5939C80.97 76.5743 81.2237 76.5083 81.4607 76.3959C81.7021 76.2871 81.8868 76.1541 82.015 75.9967C82.0862 75.9093 82.1267 75.815 82.1364 75.7138C82.1425 75.617 82.1041 75.5348 82.021 75.4671C81.9249 75.3888 81.8005 75.3674 81.6478 75.4031C81.4916 75.4431 81.2898 75.5077 81.0425 75.5971L80.4622 75.8006C80.2537 75.878 80.0477 75.9211 79.8442 75.9299C79.6407 75.9386 79.4389 75.9051 79.2389 75.8294C79.0352 75.758 78.8285 75.6369 78.6187 75.4659ZM72.5053 81.0158C72.2678 80.7221 72.127 80.4226 72.0831 80.1173C72.0348 79.8156 72.0715 79.5248 72.1933 79.245C72.3186 78.9696 72.5149 78.7238 72.7823 78.5075C72.9927 78.3373 73.2112 78.204 73.4379 78.1077C73.661 78.007 73.8688 77.9368 74.0614 77.897C74.2497 77.8607 74.394 77.8419 74.4943 77.8405L75.4038 78.9648L75.259 79.0816C75.0124 79.0636 74.7496 79.0839 74.4708 79.1427C74.1912 79.2093 73.9703 79.3083 73.8081 79.4395C73.7294 79.5035 73.6725 79.5676 73.6374 79.6319C73.6017 79.7043 73.5863 79.7748 73.591 79.8435C73.5958 79.9121 73.6195 79.9727 73.662 80.0253C73.7436 80.1262 73.8424 80.1767 73.9587 80.1769C74.0741 80.1851 74.24 80.1706 74.4564 80.1333L75.0026 80.0286C75.2023 79.9976 75.4144 79.9819 75.639 79.9816C75.8627 79.9892 76.0875 80.043 76.3134 80.143C76.535 80.2466 76.7486 80.4255 76.9543 80.6797C77.1989 80.9822 77.3432 81.286 77.3871 81.5914C77.4302 81.9046 77.3913 82.1971 77.2704 82.469C77.1486 82.7488 76.9606 82.9915 76.7064 83.1971C76.5267 83.3425 76.3438 83.4615 76.1576 83.5541C75.9714 83.6467 75.786 83.7133 75.6013 83.7539C75.4202 83.7989 75.2446 83.8104 75.0745 83.7884L74.165 82.6641L74.3099 82.5473C74.5786 82.5837 74.8405 82.5713 75.0955 82.51C75.3541 82.4532 75.5623 82.3609 75.7201 82.2333C75.8077 82.1623 75.8667 82.0783 75.897 81.9813C75.9229 81.8879 75.9022 81.7995 75.8348 81.7162C75.7569 81.6197 75.6396 81.5732 75.4827 81.5768C75.3216 81.5838 75.1109 81.6057 74.8504 81.6423L74.2407 81.7222C74.0207 81.7551 73.8103 81.7549 73.6093 81.7217C73.4084 81.6884 73.2178 81.6142 73.0376 81.4989C72.8529 81.3872 72.6755 81.2262 72.5053 81.0158ZM72.1347 86.3331L70.8717 87.1365L67.6946 82.1415L68.9577 81.3381L70.1922 83.279L71.0984 82.7026L69.8639 80.7617L71.1341 79.9538L74.3111 84.9488L73.041 85.7567L71.8065 83.8158L70.9002 84.3922L72.1347 86.3331ZM68.5143 85.0888C68.8169 85.7377 68.9587 86.3154 68.9398 86.8219C68.9209 87.3284 68.7869 87.7547 68.5378 88.1011C68.286 88.4548 67.9608 88.7247 67.5622 88.9105C67.1637 89.0963 66.7505 89.1708 66.3227 89.1338C65.8922 89.1044 65.4769 88.9341 65.0768 88.623C64.6767 88.3119 64.3254 87.8319 64.0228 87.1829C63.7202 86.534 63.5784 85.9563 63.5973 85.4498C63.6162 84.9434 63.7516 84.5132 64.0034 84.1594C64.2525 83.8131 64.5763 83.5471 64.9749 83.3612C65.3735 83.1754 65.788 83.0972 66.2185 83.1266C66.6463 83.1636 67.0602 83.3376 67.4603 83.6487C67.8604 83.9598 68.2118 84.4398 68.5143 85.0888ZM67.127 85.7356C66.9745 85.4086 66.8076 85.1505 66.6261 84.9614C66.447 84.7775 66.2662 84.6565 66.0836 84.5985C65.8984 84.548 65.7266 84.5597 65.5681 84.6336C65.4097 84.7074 65.2903 84.8315 65.2099 85.0059C65.1318 85.1854 65.1057 85.4028 65.1315 85.6583C65.1596 85.9188 65.25 86.2126 65.4025 86.5397C65.5597 86.8769 65.7304 87.1363 65.9146 87.3179C66.0937 87.5019 66.2759 87.6192 66.4612 87.6696C66.6413 87.7225 66.8106 87.712 66.969 87.6381C67.1274 87.5643 67.2468 87.4402 67.3273 87.2658C67.4026 87.0938 67.4262 86.8776 67.398 86.617C67.3722 86.3616 67.2819 86.0678 67.127 85.7356ZM64.3859 90.2475L62.8929 90.686L61.4458 87.1095L61.3809 87.1285L62.0004 90.9481L60.7914 91.3032L59.2469 87.7553L59.1657 87.7791L59.8988 91.5654L58.4058 92.0039L58.3415 91.7848L57.6057 86.0691L59.3827 85.5471L60.5385 88.3719L60.6115 88.3504L60.0643 85.3469L61.8412 84.825L64.3216 90.0283L64.3859 90.2475ZM57.3399 92.1172L55.8822 92.3731L54.8587 86.5425L56.3164 86.2866L57.3399 92.1172ZM52.115 92.8012L50.6738 92.9214L50.1818 87.0221L51.6482 86.8998L52.9617 89.7265L53.0376 89.7202L52.727 86.8098L54.1681 86.6896L54.6601 92.5889L53.1853 92.7119L51.8647 89.801L51.7889 89.8073L52.115 92.8012ZM49.5489 90.0098C49.5182 90.7139 49.3692 91.2858 49.1017 91.7256C48.8286 92.1652 48.479 92.4829 48.0529 92.6788C47.6211 92.8744 47.1518 92.9612 46.6448 92.9392C46.3688 92.9271 46.1221 92.891 45.9047 92.8308C45.6872 92.7705 45.5041 92.6976 45.3555 92.6122C45.201 92.5321 45.0915 92.4539 45.0271 92.3778L45.0926 90.8739L45.27 90.8816C45.3219 90.9854 45.4077 91.0879 45.5275 91.1891C45.6472 91.2902 45.7903 91.3754 45.9565 91.4448C46.1169 91.5195 46.2957 91.5611 46.4928 91.5697C46.8026 91.5832 47.0701 91.5327 47.2951 91.4184C47.5146 91.3038 47.686 91.125 47.8094 90.8821C47.9329 90.6392 48.0031 90.3234 48.02 89.9347C48.0359 89.5686 47.9988 89.2538 47.9087 88.9903C47.8184 88.7324 47.6776 88.5316 47.4863 88.3878C47.2951 88.2441 47.0586 88.1661 46.777 88.1538C46.7376 88.1521 46.698 88.1532 46.6584 88.1571C46.6187 88.161 46.5843 88.1736 46.5551 88.1949L46.5096 89.2426L47.5234 89.2868L47.4675 90.571L45.1103 90.4683L45.2412 87.4606C45.494 87.2289 45.7805 87.0636 46.1008 86.9647C46.4153 86.8712 46.7556 86.8324 47.1217 86.8483C47.454 86.8628 47.7697 86.9358 48.0687 87.0673C48.3674 87.2045 48.6325 87.4022 48.8639 87.6606C49.0953 87.919 49.2731 88.2427 49.3973 88.6319C49.5214 89.021 49.5719 89.4803 49.5489 90.0098ZM42.5886 86.4861L41.3087 92.2659L39.1867 91.796C38.8344 91.718 38.5435 91.5843 38.3141 91.3949C38.0791 91.2043 37.9217 90.95 37.842 90.6321C37.7555 90.3184 37.7629 89.9332 37.8641 89.4763C37.9628 89.0304 38.1277 88.6771 38.3586 88.4165C38.5841 88.1546 38.8481 87.9792 39.1507 87.8903C39.4467 87.8057 39.7487 87.7975 40.057 87.8657L40.734 88.0157L41.1436 86.1661L42.5886 86.4861ZM40.4598 89.2542L40.0139 89.1555C39.8983 89.1299 39.798 89.1394 39.7131 89.1841C39.6269 89.2343 39.5557 89.308 39.4995 89.4053C39.4366 89.5069 39.3911 89.621 39.3631 89.7476C39.335 89.8742 39.3293 89.9913 39.3459 90.0989C39.3558 90.2108 39.3898 90.305 39.448 90.3813C39.5061 90.4577 39.593 90.5087 39.7086 90.5343L40.1544 90.6331L40.4598 89.2542ZM37.5148 88.3778C37.2735 89.0519 36.9681 89.5623 36.5985 89.9091C36.2289 90.2559 35.8337 90.4648 35.4131 90.5358C34.9852 90.6102 34.5643 90.5733 34.1503 90.4251C33.7362 90.2769 33.3901 90.0393 33.112 89.7122C32.8266 89.3885 32.6511 88.9754 32.5855 88.4728C32.5199 87.9703 32.6077 87.3819 32.849 86.7078C33.0902 86.0337 33.3957 85.5232 33.7653 85.1765C34.1349 84.8297 34.5336 84.6191 34.9615 84.5447C35.3821 84.4737 35.7995 84.5123 36.2135 84.6605C36.6275 84.8086 36.9772 85.0446 37.2626 85.3683C37.5407 85.6954 37.7126 86.1102 37.7783 86.6127C37.8439 87.1153 37.7561 87.7036 37.5148 88.3778ZM36.0737 87.862C36.1952 87.5222 36.258 87.2213 36.262 86.9593C36.2641 86.7025 36.2206 86.4894 36.1316 86.3198C36.0354 86.1536 35.905 86.0411 35.7404 85.9822C35.5759 85.9233 35.4037 85.9275 35.2239 85.9949C35.0422 86.0676 34.8707 86.2038 34.7094 86.4036C34.5462 86.6087 34.4038 86.881 34.2822 87.2208C34.1568 87.5711 34.0957 87.8756 34.0989 88.1343C34.0969 88.391 34.1439 88.6025 34.2402 88.7686C34.3311 88.9329 34.4588 89.0445 34.6233 89.1034C34.7879 89.1623 34.9601 89.1581 35.1399 89.0907C35.3144 89.0214 35.4832 88.8842 35.6464 88.6791C35.8077 88.4794 35.9502 88.207 36.0737 87.862ZM29.6095 83.6479C29.778 83.3098 29.992 83.0574 30.2515 82.8906C30.5059 82.7214 30.7856 82.634 31.0907 82.6286C31.3933 82.6282 31.6985 82.7047 32.0063 82.858C32.2485 82.9787 32.4605 83.1222 32.6422 83.2883C32.8265 83.4495 32.9768 83.6094 33.0929 83.7681C33.2041 83.9242 33.2812 84.0477 33.3241 84.1384L32.6791 85.4327L32.5126 85.3497C32.4266 85.1179 32.2989 84.8873 32.1297 84.6581C31.9529 84.4314 31.7712 84.2716 31.5845 84.1785C31.4936 84.1333 31.4117 84.1082 31.3385 84.1032C31.2578 84.1008 31.1873 84.116 31.1268 84.1489C31.0663 84.1817 31.021 84.2284 30.9908 84.289C30.933 84.4051 30.9281 84.516 30.9762 84.6218C31.0166 84.7302 31.0988 84.8751 31.2226 85.0565L31.5447 85.5099C31.6558 85.6787 31.7582 85.8651 31.8517 86.0692C31.9377 86.2758 31.9822 86.5027 31.985 86.7498C31.9828 86.9943 31.9088 87.263 31.763 87.5556C31.5895 87.9038 31.373 88.1613 31.1135 88.328C30.8465 88.4973 30.5642 88.5834 30.2667 88.5864C29.9616 88.5918 29.6627 88.5216 29.37 88.3758C29.1632 88.2727 28.9789 88.1557 28.8174 88.0248C28.6559 87.8939 28.5183 87.7529 28.4046 87.6017C28.2884 87.4557 28.205 87.3007 28.1543 87.1369L28.7994 85.8426L28.9659 85.9256C29.0444 86.1851 29.1645 86.4182 29.3261 86.6247C29.4852 86.8363 29.6556 86.9874 29.8373 87.0779C29.9382 87.1282 30.0391 87.147 30.1399 87.1342C30.2357 87.119 30.3075 87.0634 30.3552 86.9675C30.4106 86.8565 30.4041 86.7305 30.3358 86.5893C30.2625 86.4457 30.1551 86.2631 30.0136 86.0414L29.6877 85.5199C29.5664 85.3335 29.4792 85.142 29.4259 84.9454C29.3727 84.7488 29.3611 84.5446 29.3911 84.3327C29.416 84.1184 29.4888 83.8901 29.6095 83.6479ZM24.1469 85.2361L24.8758 84.0761L25.7279 84.6115L28.1484 80.759L29.4015 81.5463L26.981 85.3988L27.869 85.9567L27.1401 87.1167L24.1469 85.2361ZM23.1891 79.1672C23.4211 78.8691 23.6808 78.664 23.9681 78.5518C24.251 78.4362 24.5425 78.4059 24.8426 78.4609C25.1393 78.5203 25.4234 78.6557 25.6947 78.8669C25.9083 79.0331 26.0877 79.2157 26.233 79.4145C26.3818 79.6089 26.4975 79.7953 26.58 79.9739C26.658 80.1489 26.7092 80.2852 26.7334 80.3826L25.8451 81.5238L25.6983 81.4095C25.6598 81.1652 25.5803 80.914 25.4597 80.6558C25.3313 80.3987 25.1847 80.206 25.0201 80.0779C24.94 80.0156 24.8646 79.9747 24.7939 79.9554C24.7153 79.9371 24.6431 79.9381 24.5773 79.9583C24.5116 79.9786 24.4579 80.0154 24.4163 80.0688C24.3367 80.1711 24.3099 80.2789 24.3361 80.3921C24.3544 80.5064 24.4062 80.6646 24.4917 80.8669L24.7178 81.375C24.7934 81.5625 24.8568 81.7655 24.9082 81.984C24.9516 82.2036 24.9503 82.4348 24.9042 82.6775C24.8537 82.9169 24.728 83.1655 24.5272 83.4236C24.2882 83.7306 24.0251 83.9401 23.7377 84.0523C23.4425 84.1654 23.1488 84.194 22.8566 84.138C22.5564 84.083 22.2773 83.9551 22.0193 83.7542C21.8369 83.6123 21.6794 83.4611 21.547 83.3009C21.4145 83.1406 21.3075 82.9752 21.226 82.8046C21.141 82.6384 21.0899 82.47 21.0726 82.2994L21.9609 81.1582L22.1077 81.2725C22.1333 81.5425 22.2049 81.7947 22.3225 82.0291C22.4367 82.268 22.5738 82.4497 22.734 82.5744C22.823 82.6437 22.9181 82.682 23.0195 82.6895C23.1164 82.6935 23.1978 82.6532 23.2636 82.5687C23.3397 82.4708 23.3583 82.3459 23.3193 82.1941C23.2759 82.0388 23.2067 81.8385 23.1118 81.5932L22.8955 81.0176C22.8135 80.8109 22.7658 80.6059 22.7525 80.4027C22.7393 80.1994 22.7683 79.997 22.8395 79.7952C22.9064 79.5901 23.0229 79.3807 23.1891 79.1672ZM17.5047 73.1787C17.7928 72.9345 18.0891 72.7871 18.3935 72.7366C18.6941 72.6816 18.9857 72.7118 19.2681 72.8273C19.5462 72.9465 19.7963 73.1373 20.0185 73.3998C20.1934 73.6064 20.3315 73.8219 20.4328 74.0463C20.5384 74.2671 20.6133 74.4734 20.6574 74.6651C20.6978 74.8524 20.7198 74.9963 20.7235 75.0966L19.6197 76.0309L19.4995 75.8889C19.512 75.6419 19.4858 75.3797 19.4209 75.1023C19.348 74.8242 19.2442 74.6055 19.1094 74.4463C19.0439 74.3688 18.9785 74.3134 18.9133 74.28C18.8401 74.2459 18.7692 74.232 18.7007 74.2383C18.6322 74.2446 18.5721 74.2696 18.5204 74.3133C18.4213 74.3969 18.373 74.4969 18.3755 74.6132C18.3699 74.7288 18.3881 74.8943 18.4302 75.1098L18.5469 75.6536C18.5824 75.8526 18.6028 76.0643 18.6081 76.2888C18.6055 76.5126 18.5567 76.7385 18.4617 76.9666C18.3631 77.1905 18.189 77.408 17.9394 77.6192C17.6423 77.8704 17.3417 78.0214 17.0376 78.0723C16.7254 78.1223 16.4321 78.0899 16.1576 77.9751C15.8752 77.8596 15.6284 77.677 15.4171 77.4274C15.2678 77.251 15.1447 77.0708 15.0481 76.8867C14.9514 76.7026 14.8806 76.5187 14.8359 76.335C14.7869 76.1549 14.7715 75.9796 14.7897 75.8091L15.8935 74.8748L16.0136 75.0168C15.9832 75.2863 16.0015 75.5478 16.0684 75.8014C16.131 76.0587 16.2279 76.2647 16.359 76.4197C16.4318 76.5057 16.5171 76.5628 16.6148 76.591C16.7088 76.6148 16.7967 76.5921 16.8784 76.5229C16.9729 76.4426 17.0168 76.3242 17.01 76.1678C16.9994 76.0069 16.9729 75.7967 16.9304 75.5371L16.837 74.9293C16.7992 74.7101 16.7947 74.4997 16.8235 74.2981C16.8523 74.0965 16.9223 73.9043 17.0335 73.7215C17.141 73.5345 17.2981 73.3535 17.5047 73.1787ZM12.1804 72.9264L11.3492 71.6816L16.2723 68.3942L17.1036 69.6391L15.1906 70.9164L15.787 71.8096L17.7 70.5323L18.5359 71.7842L13.6128 75.0715L12.7768 73.8196L14.6898 72.5423L14.0934 71.6491L12.1804 72.9264ZM13.344 69.2793C12.7019 69.5962 12.1275 69.7508 11.6207 69.7432C11.114 69.7355 10.6847 69.611 10.333 69.3697C9.97366 69.1258 9.69668 68.8067 9.50203 68.4124C9.30738 68.018 9.22377 67.6066 9.25118 67.1781C9.27104 66.7471 9.43203 66.3281 9.73416 65.9212C10.0363 65.5143 10.5084 65.1524 11.1505 64.8354C11.7925 64.5185 12.3669 64.3639 12.8737 64.3715C13.3804 64.3792 13.8135 64.5049 14.1728 64.7488C14.5245 64.9902 14.7977 65.308 14.9924 65.7024C15.187 66.0967 15.2744 66.5094 15.2545 66.9404C15.2271 67.3689 15.0623 67.7866 14.7602 68.1935C14.4581 68.6005 13.986 68.9623 13.344 69.2793ZM12.6665 67.9067C12.99 67.747 13.2443 67.5743 13.4293 67.3887C13.6093 67.2055 13.7262 67.0221 13.7801 66.8383C13.8264 66.6519 13.8109 66.4804 13.7336 66.3237C13.6562 66.167 13.5295 66.0503 13.3534 65.9738C13.1722 65.8997 12.9542 65.8784 12.6994 65.9099C12.4395 65.9439 12.1478 66.0407 11.8242 66.2004C11.4906 66.3651 11.235 66.5416 11.0575 66.7298C10.8776 66.9129 10.7644 67.0976 10.7181 67.284C10.6693 67.4653 10.6835 67.6343 10.7609 67.791C10.8382 67.9477 10.965 68.0643 11.1411 68.1409C11.3147 68.2124 11.5314 68.2311 11.7913 68.1972C12.0461 68.1657 12.3378 68.0689 12.6665 67.9067ZM8.09479 65.2666L7.62317 63.7837L11.1666 62.2574L11.1461 62.1929L7.3412 62.8972L6.95929 61.6964L10.472 60.0734L10.4464 59.9928L6.67736 60.8099L6.20575 59.3271L6.42334 59.2578L12.1214 58.3952L12.6827 60.1601L9.88432 61.3785L9.90738 61.451L12.898 60.8371L13.4593 62.602L8.31238 65.1974L8.09479 65.2666ZM6.06879 58.2638L5.78057 56.8122L11.587 55.6593L11.8752 57.1109L6.06879 58.2638ZM5.26885 53.0554L5.11665 51.6173L11.0036 50.9943L11.1584 52.4576L8.36166 53.8336L8.36965 53.9093L11.2723 53.534L11.4246 54.9721L5.53763 55.5952L5.38187 54.1235L8.26275 52.7385L8.25476 52.6629L5.26885 53.0554ZM8.0025 50.4279C7.29793 50.4129 6.72281 50.2766 6.27715 50.019C5.83162 49.7558 5.5062 49.4133 5.30087 48.9916C5.09568 48.5643 4.99848 48.097 5.00928 47.5898C5.01515 47.3136 5.04579 47.0661 5.1012 46.8473C5.15661 46.6286 5.22539 46.444 5.30754 46.2934C5.38417 46.1372 5.45984 46.026 5.53456 45.9599L7.03954 45.992L7.03576 46.1695C6.9331 46.2237 6.83248 46.3117 6.7339 46.4336C6.63544 46.5555 6.5534 46.7004 6.48781 46.8682C6.41669 47.0302 6.37903 47.2098 6.37483 47.4071C6.36823 47.7171 6.4246 47.9834 6.54393 48.2059C6.66338 48.4227 6.84591 48.5901 7.09152 48.7081C7.33713 48.8261 7.65441 48.8893 8.04334 48.8975C8.40972 48.9053 8.72363 48.8613 8.98507 48.7653C9.24088 48.6693 9.43852 48.524 9.578 48.3296C9.71747 48.1352 9.79021 47.8971 9.7962 47.6153C9.79704 47.5758 9.79507 47.5363 9.79027 47.4967C9.78546 47.4571 9.77209 47.423 9.75015 47.3944L8.70175 47.3721L8.68015 48.3866L7.395 48.3593L7.4452 46.0004L10.4552 46.0644C10.6924 46.312 10.864 46.5947 10.97 46.9128C11.0705 47.2251 11.1169 47.5644 11.1091 47.9308C11.102 48.2634 11.036 48.5806 10.9112 48.8824C10.7807 49.1842 10.5889 49.4536 10.3357 49.6907C10.0825 49.9278 9.76281 50.1127 9.37651 50.2455C8.99023 50.3782 8.53235 50.4392 8.0025 50.4279ZM11.3706 43.391L5.56375 42.24L5.98634 40.108C6.0565 39.7541 6.1837 39.4603 6.36795 39.2267C6.5533 38.9876 6.80401 38.8246 7.12009 38.7378C7.43173 38.6444 7.81706 38.6432 8.27608 38.7342C8.72403 38.823 9.08088 38.9799 9.34663 39.205C9.61348 39.4246 9.79471 39.6847 9.89031 39.9853C9.98148 40.2792 9.99637 40.581 9.93498 40.8907L9.80014 41.571L11.6583 41.9393L11.3706 43.391ZM8.55583 41.3243L8.64462 40.8764C8.66764 40.7602 8.65586 40.6602 8.60927 40.5762C8.55716 40.4912 8.48186 40.4216 8.38336 40.3676C8.28043 40.307 8.16536 40.2641 8.03816 40.2389C7.91096 40.2136 7.79376 40.2105 7.68654 40.2295C7.57489 40.2419 7.48152 40.278 7.40644 40.3378C7.33152 40.3978 7.28246 40.4858 7.25928 40.6018L7.17048 41.0497L8.55583 41.3243ZM9.36656 38.3606C8.68723 38.1343 8.17011 37.8403 7.81522 37.4785C7.46033 37.1167 7.24271 36.7263 7.16237 36.3073C7.07845 35.8813 7.10597 35.4596 7.24491 35.0424C7.38386 34.6252 7.61375 34.2739 7.93459 33.9885C8.25186 33.696 8.66097 33.5114 9.16193 33.4346C9.66289 33.3578 10.253 33.4325 10.9324 33.6587C11.6117 33.885 12.1288 34.179 12.4837 34.5408C12.8386 34.9026 13.058 35.2966 13.1419 35.7227C13.2223 36.1416 13.193 36.5597 13.054 36.9769C12.9151 37.3942 12.687 37.749 12.3697 38.0415C12.0489 38.3269 11.638 38.5079 11.137 38.5847C10.636 38.6615 10.0459 38.5868 9.36656 38.3606ZM9.8502 36.9083C10.1925 37.0223 10.4948 37.0784 10.7568 37.0765C11.0136 37.0729 11.2257 37.0247 11.3933 36.9319C11.5573 36.832 11.6669 36.6992 11.7221 36.5334C11.7773 36.3676 11.7693 36.1955 11.6979 36.0172C11.6212 35.8372 11.4812 35.6688 11.2779 35.5119C11.0692 35.3533 10.7938 35.217 10.4514 35.103C10.0984 34.9854 9.7926 34.9311 9.53408 34.9401C9.27735 34.9437 9.06699 34.9955 8.90299 35.0954C8.74077 35.1899 8.63204 35.3201 8.57684 35.4859C8.52161 35.6518 8.52969 35.8238 8.60105 36.0021C8.6742 36.175 8.81509 36.3407 9.02372 36.4994C9.22701 36.6562 9.50251 36.7925 9.8502 36.9083ZM13.9195 30.3521C14.2612 30.513 14.5184 30.7213 14.6908 30.977C14.8657 31.2276 14.9593 31.5054 14.9715 31.8103C14.9786 32.1127 14.909 32.4195 14.7624 32.7307C14.6472 32.9755 14.5085 33.1906 14.3464 33.3761C14.1894 33.5639 14.0329 33.7176 13.8768 33.8373C13.7232 33.9519 13.6015 34.0317 13.5118 34.0767L12.2034 33.4607L12.2827 33.2923C12.5126 33.2012 12.7402 33.0684 12.9656 32.8941C13.1883 32.7124 13.3441 32.5271 13.4329 32.3384C13.4762 32.2466 13.4995 32.1641 13.5028 32.0908C13.5034 32.0101 13.4866 31.9399 13.4524 31.8802C13.4182 31.8204 13.3705 31.7762 13.3093 31.7473C13.192 31.6921 13.081 31.6897 12.9762 31.7401C12.8688 31.783 12.7258 31.8683 12.5472 31.9961L12.1011 32.3281C11.9348 32.443 11.7507 32.5495 11.5487 32.6476C11.344 32.7382 11.1182 32.7876 10.8712 32.796C10.6267 32.7992 10.3565 32.7312 10.0606 32.5919C9.70868 32.4262 9.44646 32.2155 9.27397 31.9598C9.09879 31.6965 9.00644 31.4163 8.9969 31.1189C8.98467 30.814 9.04821 30.5136 9.18751 30.2178C9.28598 30.0087 9.39885 29.8219 9.52612 29.6575C9.65339 29.4931 9.79131 29.3524 9.93988 29.2354C10.0833 29.116 10.2364 29.0291 10.399 28.9749L11.7074 29.5909L11.6281 29.7592C11.3703 29.8435 11.14 29.9687 10.9371 30.1349C10.7291 30.2987 10.5819 30.4724 10.4954 30.6561C10.4474 30.7581 10.4309 30.8593 10.4459 30.9599C10.4632 31.0553 10.5204 31.1258 10.6173 31.1715C10.7295 31.2243 10.8554 31.2151 10.9949 31.1437C11.1369 31.0672 11.3171 30.9557 11.5356 30.8094L12.0497 30.4719C12.2334 30.3465 12.4229 30.255 12.6182 30.1975C12.8136 30.1399 13.0175 30.1237 13.23 30.149C13.4448 30.1691 13.6746 30.2368 13.9195 30.3521ZM12.2102 24.9261L13.3862 25.629L12.8699 26.4928L16.7752 28.8271L16.0159 30.0974L12.1106 27.7632L11.5726 28.6633L10.3966 27.9604L12.2102 24.9261ZM18.2564 23.8336C18.5596 24.059 18.7704 24.314 18.8889 24.5988C19.0108 24.879 19.0476 25.1698 18.9992 25.4711C18.9464 25.769 18.8174 26.0559 18.6123 26.332C18.4508 26.5492 18.2724 26.7326 18.0768 26.8823C17.8858 27.0353 17.7019 27.1551 17.5253 27.2416C17.352 27.3235 17.2169 27.3777 17.1201 27.404L15.9594 26.5414L16.0704 26.392C16.3138 26.3481 16.5631 26.263 16.8186 26.1368C17.0728 26.0026 17.2622 25.8518 17.3866 25.6844C17.4471 25.603 17.4863 25.5267 17.504 25.4556C17.5206 25.3766 17.518 25.3044 17.4963 25.2391C17.4746 25.1738 17.4366 25.121 17.3823 25.0806C17.2782 25.0032 17.1698 24.9789 17.0572 25.0076C16.9434 25.0284 16.7864 25.0837 16.586 25.1737L16.083 25.411C15.8973 25.4907 15.6958 25.5587 15.4784 25.6149C15.2599 25.6632 15.0287 25.667 14.785 25.6263C14.5446 25.5812 14.2932 25.461 14.0308 25.266C13.7185 25.0339 13.5032 24.7755 13.3847 24.4907C13.265 24.1981 13.2299 23.9051 13.2794 23.6117C13.3277 23.3104 13.4494 23.0285 13.6444 22.7661C13.7823 22.5806 13.9299 22.4198 14.0872 22.2838C14.2444 22.1478 14.4074 22.0372 14.5762 21.9519C14.7405 21.8632 14.9077 21.8084 15.0778 21.7873L16.2385 22.65L16.1275 22.7993C15.8582 22.8309 15.6076 22.9081 15.3759 23.0309C15.1396 23.1503 14.9609 23.2915 14.8398 23.4544C14.7726 23.5449 14.7363 23.6409 14.7311 23.7424C14.7293 23.8394 14.7714 23.9198 14.8573 23.9837C14.9569 24.0577 15.0821 24.0735 15.233 24.0311C15.3873 23.9842 15.586 23.9106 15.8291 23.8103L16.3998 23.5812C16.6047 23.4946 16.8086 23.4424 17.0114 23.4246C17.2143 23.4069 17.4174 23.4313 17.6207 23.4981C17.8273 23.5604 18.0392 23.6722 18.2564 23.8336ZM25.7621 16.7638C25.9974 17.0593 26.1359 17.3599 26.1775 17.6655C26.2235 17.9676 26.1845 18.2581 26.0607 18.5369C25.9333 18.8114 25.7351 19.0557 25.4661 19.27C25.2544 19.4386 25.0348 19.5702 24.8075 19.6648C24.5836 19.7638 24.3752 19.8324 24.1823 19.8708C23.9938 19.9056 23.8494 19.9233 23.749 19.924L22.848 18.7928L22.9936 18.6769C23.2401 18.6968 23.5029 18.6784 23.7822 18.6218C24.0623 18.5572 24.284 18.46 24.4471 18.33C24.5265 18.2668 24.5839 18.2031 24.6193 18.1389C24.6555 18.0668 24.6715 17.9964 24.6673 17.9277C24.663 17.859 24.6398 17.7982 24.5976 17.7453C24.5169 17.6438 24.4184 17.5925 24.3021 17.5914C24.1868 17.5824 24.0208 17.5957 23.8041 17.6313L23.2571 17.7318C23.0572 17.7613 22.8449 17.7754 22.6204 17.774C22.3968 17.7647 22.1724 17.7092 21.9472 17.6075C21.7264 17.5022 21.5142 17.3217 21.3104 17.0659C21.0681 16.7616 20.9261 16.4566 20.8845 16.151C20.8438 15.8375 20.885 15.5452 21.0079 15.2743C21.1318 14.9955 21.3216 14.7542 21.5774 14.5505C21.7582 14.4065 21.9421 14.2889 22.1289 14.1977C22.3158 14.1065 22.5017 14.0413 22.6867 14.0021C22.8682 13.9585 23.0439 13.9483 23.2138 13.9716L24.1147 15.1028L23.9692 15.2187C23.7007 15.1802 23.4387 15.1907 23.1833 15.25C22.9243 15.3049 22.7154 15.3956 22.5566 15.522C22.4684 15.5922 22.4088 15.6758 22.3778 15.7726C22.3512 15.8658 22.3712 15.9544 22.438 16.0382C22.5154 16.135 22.6324 16.1824 22.789 16.1803C22.9501 16.1744 23.161 16.1542 23.4217 16.1195L24.0321 16.0443C24.2523 16.013 24.4627 16.0148 24.6634 16.0496C24.8641 16.0844 25.0541 16.1601 25.2335 16.2767C25.4172 16.3898 25.5935 16.5522 25.7621 16.7638ZM26.173 11.4495L27.4421 10.6557L30.5812 15.6747L29.3121 16.4685L28.0923 14.5182L27.1817 15.0877L28.4015 17.038L27.1252 17.8362L23.9862 12.8172L25.2624 12.019L26.4822 13.9692L27.3928 13.3997L26.173 11.4495ZM29.7839 12.7213C29.4862 12.07 29.3488 11.4913 29.3716 10.985C29.3943 10.4787 29.5316 10.0533 29.7833 9.70893C30.0378 9.35706 30.365 9.08973 30.765 8.90693C31.1649 8.72413 31.5787 8.65282 32.0061 8.69301C32.4364 8.72572 32.8504 8.89914 33.2481 9.21328C33.6459 9.52741 33.9935 10.0101 34.2912 10.6613C34.5888 11.3125 34.7262 11.8913 34.7035 12.3976C34.6807 12.9039 34.5421 13.333 34.2876 13.6849C34.0359 14.0293 33.71 14.2929 33.31 14.4757C32.9101 14.6585 32.495 14.7335 32.0647 14.7008C31.6372 14.6606 31.2246 14.4835 30.8269 14.1693C30.4292 13.8552 30.0815 13.3725 29.7839 12.7213ZM31.1761 12.085C31.326 12.4132 31.491 12.6725 31.6711 12.863C31.8488 13.0483 32.0287 13.1706 32.2107 13.23C32.3956 13.2819 32.5676 13.2715 32.7265 13.1988C32.8855 13.1262 33.0058 13.003 33.0876 12.8293C33.167 12.6504 33.1948 12.4331 33.1709 12.1775C33.1447 11.9167 33.0567 11.6222 32.9067 11.2941C32.752 10.9556 32.5833 10.6949 32.4004 10.5119C32.2227 10.3266 32.0415 10.208 31.8566 10.1561C31.6768 10.1019 31.5075 10.1111 31.3485 10.1837C31.1896 10.2564 31.0692 10.3796 30.9874 10.5533C30.9108 10.7247 30.8856 10.9408 30.9118 11.2016C30.9356 11.4572 31.0237 11.7517 31.1761 12.085ZM33.9513 7.59413L35.4476 7.16694L36.8676 10.7544L36.9326 10.7358L36.3421 6.91156L37.5537 6.56564L39.0713 10.1252L39.1526 10.102L38.4483 6.31026L39.9445 5.88307L40.0072 6.10263L40.6996 11.8238L38.9187 12.3323L37.7843 9.49882L37.7111 9.51973L38.2356 12.5273L36.4547 13.0358L34.014 7.81369L33.9513 7.59413ZM41.0114 5.77791L42.471 5.5331L43.4502 11.3713L41.9906 11.6162L41.0114 5.77791ZM46.2414 5.13368L47.6833 5.02443L48.1305 10.9273L46.6632 11.0385L45.3713 8.20189L45.2953 8.20762L45.5838 11.1202L44.1418 11.2295L43.6947 5.32658L45.1704 5.21479L46.4688 8.13569L46.5447 8.12996L46.2414 5.13368ZM48.7862 7.94447C48.8222 7.24065 48.9756 6.66987 49.2463 6.2321C49.5228 5.79462 49.8748 5.47956 50.3024 5.28694C50.7356 5.09457 51.2056 5.01135 51.7124 5.03728C51.9883 5.05139 52.2347 5.0894 52.4517 5.1513C52.6687 5.21321 52.8512 5.28746 52.9992 5.37407C53.1531 5.45533 53.262 5.53429 53.3258 5.61094L53.2489 7.11429L53.0716 7.10522C53.0204 7.00099 52.9355 6.89778 52.8166 6.7956C52.6976 6.69356 52.5553 6.60725 52.3895 6.53666C52.2297 6.46074 52.0513 6.41773 51.8542 6.40765C51.5445 6.39181 51.2767 6.44021 51.0508 6.55285C50.8305 6.66578 50.6577 6.84325 50.5324 7.08524C50.4071 7.32723 50.3346 7.64247 50.3147 8.03098C50.296 8.39696 50.3307 8.71205 50.4188 8.97624C50.5072 9.23479 50.6464 9.43669 50.8366 9.58192C51.0267 9.72712 51.2626 9.80692 51.5441 9.82133C51.5835 9.82334 51.6231 9.82254 51.6628 9.81894C51.7025 9.81534 51.737 9.803 51.7663 9.78189L51.8198 8.73461L50.8063 8.68277L50.872 7.39901L53.2284 7.51954L53.0746 10.5262C52.8201 10.756 52.5323 10.9191 52.2112 11.0156C51.8961 11.1067 51.5555 11.1429 51.1895 11.1242C50.8573 11.1072 50.5422 11.0318 50.2442 10.898C49.9465 10.7586 49.6829 10.5588 49.4535 10.2987C49.2241 10.0385 49.0488 9.7134 48.9276 9.32338C48.8064 8.93331 48.7591 8.47374 48.7862 7.94447ZM55.7195 11.5209L57.0432 5.75103L59.1616 6.23703C59.5133 6.31771 59.8032 6.45362 60.0312 6.64475C60.2647 6.83715 60.4201 7.09262 60.4974 7.41114C60.5815 7.72543 60.5712 8.11063 60.4666 8.56673C60.3644 9.01184 60.1969 9.36385 59.964 9.62276C59.7365 9.88294 59.4712 10.0563 59.1679 10.1429C58.8713 10.2253 58.5692 10.2312 58.2615 10.1606L57.5856 10.0055L57.162 11.8519L55.7195 11.5209ZM57.8692 8.76908L58.3143 8.8712C58.4297 8.89767 58.5301 8.88888 58.6154 8.84482C58.702 8.79529 58.7737 8.7221 58.8306 8.62525C58.8943 8.52415 58.9406 8.41041 58.9696 8.28404C58.9986 8.15765 59.0053 8.04059 58.9895 7.93286C58.9805 7.82088 58.9472 7.72648 58.8896 7.64965C58.832 7.57282 58.7455 7.52117 58.6301 7.49469L58.185 7.39257L57.8692 8.76908ZM60.8075 9.66787C61.0539 8.99558 61.3632 8.48747 61.7354 8.14353C62.1077 7.79957 62.5044 7.5937 62.9255 7.52591C63.3539 7.45474 63.7746 7.49482 64.1875 7.64615C64.6004 7.79747 64.9447 8.03774 65.2203 8.36694C65.5032 8.69279 65.6755 9.10723 65.7374 9.61025C65.7992 10.1133 65.7069 10.701 65.4605 11.3732C65.2141 12.0455 64.9048 12.5536 64.5326 12.8976C64.1603 13.2415 63.76 13.449 63.3316 13.5202C62.9104 13.588 62.4934 13.5463 62.0805 13.395C61.6676 13.2436 61.3197 13.005 61.0368 12.6792C60.761 12.3501 60.5923 11.934 60.5306 11.4308C60.4688 10.9278 60.5611 10.3402 60.8075 9.66787ZM62.2447 10.1946C62.1205 10.5334 62.0555 10.8338 62.0495 11.0958C62.0455 11.3525 62.0873 11.566 62.175 11.7363C62.27 11.9032 62.3995 12.0167 62.5636 12.0768C62.7277 12.137 62.8999 12.1341 63.0802 12.068C63.2625 11.9967 63.435 11.8618 63.5979 11.6633C63.7626 11.4595 63.9071 11.1882 64.0313 10.8494C64.1593 10.5 64.2227 10.196 64.2215 9.93734C64.2255 9.68061 64.18 9.4688 64.0851 9.30189C63.9954 9.13692 63.8685 9.02437 63.7044 8.96423C63.5403 8.90409 63.3681 8.90702 63.1878 8.97304C63.0128 9.041 62.8429 9.17689 62.6781 9.38072C62.5153 9.57925 62.3708 9.85053 62.2447 10.1946ZM68.6766 14.4576C68.5056 14.7944 68.2897 15.0452 68.0289 15.21C67.7733 15.3774 67.4928 15.4626 67.1877 15.4657C66.8852 15.4638 66.5806 15.385 66.2739 15.2293C66.0326 15.1067 65.8217 14.9617 65.6413 14.7942C65.4582 14.6316 65.3092 14.4706 65.1942 14.311C65.0843 14.154 65.0081 14.03 64.9659 13.9389L65.6207 12.6496L65.7866 12.7338C65.8708 12.9663 65.9967 13.1978 66.1642 13.4283C66.3393 13.6563 66.5198 13.8175 66.7058 13.912C66.7963 13.958 66.8781 13.9837 66.9512 13.9892C67.0318 13.9922 67.1025 13.9775 67.1632 13.9451C67.2239 13.9127 67.2696 13.8664 67.3003 13.8061C67.359 13.6905 67.3647 13.5795 67.3175 13.4733C67.2778 13.3647 67.1968 13.2192 67.0744 13.0369L66.7558 12.581C66.6459 12.4114 66.5449 12.2242 66.4529 12.0194C66.3685 11.8121 66.3258 11.5849 66.3248 11.3378C66.3289 11.0932 66.4049 10.8252 66.553 10.5336C66.7291 10.1868 66.9476 9.93098 67.2083 9.7662C67.4766 9.59896 67.7596 9.51501 68.0571 9.51433C68.3622 9.5112 68.6605 9.58366 68.9521 9.73172C69.1582 9.83639 69.3415 9.95478 69.502 10.0869C69.6626 10.219 69.7991 10.3611 69.9116 10.5131C70.0267 10.66 70.1089 10.8156 70.1583 10.9798L69.5035 12.2692L69.3376 12.185C69.2611 11.9248 69.1428 11.6908 68.9827 11.4831C68.8252 11.2703 68.6559 11.1179 68.475 11.026C68.3744 10.975 68.2737 10.9554 68.1728 10.9674C68.0769 10.9819 68.0047 11.0369 67.9562 11.1325C67.9 11.2431 67.9055 11.3692 67.9727 11.5108C68.0449 11.6549 68.1509 11.8384 68.2907 12.0612L68.6127 12.5851C68.7326 12.7725 68.8184 12.9646 68.8701 13.1616C68.9218 13.3586 68.9319 13.5629 68.9003 13.7745C68.8737 13.9886 68.7991 14.2163 68.6766 14.4576ZM74.1511 12.911L73.4135 14.0655L72.5654 13.5236L70.1157 17.3576L68.8686 16.5608L71.3183 12.7268L70.4347 12.1622L71.1723 11.0077L74.1511 12.911ZM75.0628 18.987C74.8285 19.2833 74.5673 19.4865 74.2791 19.5965C73.9954 19.7099 73.7037 19.738 73.404 19.6807C73.1078 19.619 72.8248 19.4815 72.555 19.2682C72.3427 19.1004 72.1646 18.9165 72.0209 18.7166C71.8736 18.5211 71.7594 18.3337 71.6782 18.1546C71.6015 17.9789 71.5514 17.8423 71.5279 17.7447L72.4248 16.6103L72.5708 16.7257C72.6074 16.9702 72.685 17.2221 72.8036 17.4811C72.9301 17.7393 73.0752 17.933 73.2389 18.0624C73.3185 18.1253 73.3936 18.1667 73.4641 18.1866C73.5426 18.2055 73.6148 18.2051 73.6807 18.1853C73.7466 18.1656 73.8006 18.1291 73.8425 18.0761C73.9229 17.9743 73.9505 17.8668 73.9252 17.7533C73.9078 17.639 73.8571 17.4803 73.7732 17.2774L73.551 16.7675C73.4769 16.5795 73.4149 16.3761 73.3653 16.1571C73.3235 15.9372 73.3266 15.7061 73.3745 15.4636C73.4268 15.2247 73.5544 14.977 73.7572 14.7205C73.9984 14.4153 74.2632 14.2078 74.5514 14.0978C74.8475 13.987 75.1414 13.9606 75.4332 14.0188C75.7329 14.0761 76.011 14.2061 76.2675 14.4089C76.4488 14.5523 76.6051 14.7046 76.7364 14.8658C76.8676 15.0271 76.9733 15.1933 77.0536 15.3646C77.1373 15.5314 77.1871 15.7002 77.2031 15.8709L76.3062 17.0053L76.1603 16.8899C76.1367 16.6197 76.067 16.367 75.9512 16.1317C75.8388 15.8919 75.7031 15.7092 75.5439 15.5833C75.4554 15.5133 75.3605 15.4743 75.2592 15.4661C75.1623 15.4613 75.0807 15.501 75.0143 15.585C74.9373 15.6823 74.9178 15.807 74.9556 15.9591C74.9979 16.1147 75.0656 16.3155 75.1585 16.5615L75.3705 17.1388C75.451 17.3462 75.4971 17.5515 75.5088 17.7548C75.5205 17.9582 75.49 18.1604 75.4172 18.3616C75.3488 18.5663 75.2306 18.7747 75.0628 18.987Z" fill="#9698A2"/>
</svg>
