<svg width="256" height="128" viewBox="0 0 256 128" fill="none" xmlns="http://www.w3.org/2000/svg">
<rect width="256" height="128" rx="16" fill="#141519"/>
<path d="M16.686 32V22.2H20.088C20.6853 22.2 21.208 22.312 21.656 22.536C22.104 22.76 22.454 23.11 22.706 23.586C22.9673 24.0527 23.098 24.664 23.098 25.42C23.098 26.1667 22.958 26.792 22.678 27.296C22.4073 27.7907 22.0433 28.164 21.586 28.416C21.138 28.6587 20.6387 28.78 20.088 28.78H18.646V32H16.686ZM18.646 27.086H19.822C20.074 27.086 20.298 27.0207 20.494 26.89C20.69 26.7593 20.8393 26.5773 20.942 26.344C21.0447 26.1107 21.096 25.8353 21.096 25.518C21.096 25.2007 21.0447 24.93 20.942 24.706C20.8393 24.4727 20.69 24.2953 20.494 24.174C20.298 24.0527 20.074 23.992 19.822 23.992H18.646V27.086ZM23.5271 27.1C23.5271 25.9147 23.7184 24.9487 24.1011 24.202C24.4837 23.4553 24.9831 22.9093 25.5991 22.564C26.2244 22.2093 26.9011 22.032 27.6291 22.032C28.3571 22.032 29.0291 22.2093 29.6451 22.564C30.2704 22.9093 30.7744 23.4553 31.1571 24.202C31.5397 24.9487 31.7311 25.9147 31.7311 27.1C31.7311 28.2853 31.5397 29.2513 31.1571 29.998C30.7744 30.7447 30.2704 31.2953 29.6451 31.65C29.0291 31.9953 28.3571 32.168 27.6291 32.168C26.9011 32.168 26.2244 31.9953 25.5991 31.65C24.9831 31.2953 24.4837 30.7447 24.1011 29.998C23.7184 29.2513 23.5271 28.2853 23.5271 27.1ZM25.5711 27.1C25.5711 27.8093 25.6597 28.402 25.8371 28.878C26.0237 29.354 26.2711 29.7133 26.5791 29.956C26.8964 30.1893 27.2464 30.306 27.6291 30.306C28.0117 30.306 28.3617 30.1893 28.6791 29.956C29.0057 29.7133 29.2624 29.354 29.4491 28.878C29.6357 28.402 29.7291 27.8093 29.7291 27.1C29.7291 26.3813 29.6311 25.784 29.4351 25.308C29.2484 24.832 28.9964 24.4773 28.6791 24.244C28.3617 24.0107 28.0164 23.894 27.6431 23.894C27.2511 23.894 26.8964 24.0153 26.5791 24.258C26.2711 24.5007 26.0237 24.86 25.8371 25.336C25.6597 25.8027 25.5711 26.3907 25.5711 27.1ZM38.3505 29.41C38.3505 29.9887 38.2245 30.4833 37.9725 30.894C37.7298 31.3047 37.3891 31.622 36.9505 31.846C36.5118 32.0607 36.0078 32.168 35.4385 32.168C34.9905 32.168 34.5751 32.112 34.1925 32C33.8098 31.8973 33.4785 31.7713 33.1985 31.622C32.9278 31.4727 32.7271 31.3467 32.5965 31.244V29.326H32.8485C33.1471 29.5967 33.5111 29.8393 33.9405 30.054C34.3791 30.2593 34.7991 30.362 35.2005 30.362C35.4151 30.362 35.6065 30.3293 35.7745 30.264C35.9518 30.1893 36.0918 30.0867 36.1945 29.956C36.2971 29.8253 36.3485 29.6667 36.3485 29.48C36.3485 29.2 36.2645 28.976 36.0965 28.808C35.9378 28.6307 35.6905 28.444 35.3545 28.248L34.1925 27.562C33.9031 27.394 33.6185 27.198 33.3385 26.974C33.0678 26.7407 32.8391 26.4513 32.6525 26.106C32.4751 25.7513 32.3865 25.322 32.3865 24.818C32.3865 24.2207 32.5125 23.7167 32.7645 23.306C33.0258 22.886 33.3665 22.5733 33.7865 22.368C34.2158 22.1533 34.6965 22.046 35.2285 22.046C35.6391 22.046 36.0125 22.088 36.3485 22.172C36.6938 22.256 36.9971 22.368 37.2585 22.508C37.5291 22.6387 37.7531 22.7927 37.9305 22.97V24.888H37.6645C37.3845 24.58 37.0391 24.3327 36.6285 24.146C36.2271 23.95 35.8165 23.852 35.3965 23.852C35.1165 23.852 34.8785 23.922 34.6825 24.062C34.4865 24.202 34.3885 24.4073 34.3885 24.678C34.3885 24.9487 34.5005 25.182 34.7245 25.378C34.9485 25.574 35.2425 25.784 35.6065 26.008L36.7685 26.722C37.0858 26.918 37.3611 27.142 37.5945 27.394C37.8278 27.6367 38.0098 27.9213 38.1405 28.248C38.2805 28.5747 38.3505 28.962 38.3505 29.41ZM44.576 22.2V24.006H42.7V32H40.74V24.006H38.836V22.2H44.576ZM50.4366 22.2V23.992H47.3706V26.386C47.6599 26.274 47.9633 26.1853 48.2806 26.12C48.6073 26.0547 48.9293 26.0127 49.2466 25.994C49.5639 25.9753 49.8579 25.9847 50.1286 26.022V27.744L50.0026 27.828C49.7879 27.7627 49.5359 27.7253 49.2466 27.716C48.9666 27.7067 48.6633 27.7253 48.3366 27.772C48.0099 27.8187 47.6879 27.898 47.3706 28.01V30.208H50.4366V32H45.4106V22.2H50.4366ZM54.1966 22.2C54.9713 22.2 55.6666 22.3773 56.2826 22.732C56.8986 23.0773 57.3886 23.6093 57.7526 24.328C58.1166 25.0467 58.2986 25.9707 58.2986 27.1C58.2986 28.22 58.1166 29.144 57.7526 29.872C57.3886 30.5907 56.8986 31.1273 56.2826 31.482C55.6666 31.8273 54.9713 32 54.1966 32H51.4946V22.2H54.1966ZM54.1686 30.138C54.8033 30.138 55.3166 29.872 55.7086 29.34C56.1006 28.808 56.2966 28.0613 56.2966 27.1C56.2966 26.12 56.0959 25.3687 55.6946 24.846C55.3026 24.3233 54.7939 24.062 54.1686 24.062H53.4546V30.138H54.1686Z" fill="#6D6F79"/>
<path d="M67.214 31.14C66.4767 31.14 65.8607 31.0233 65.366 30.79C64.8713 30.5473 64.484 30.174 64.204 29.67C63.924 29.166 63.742 28.5127 63.658 27.71H65.044V27.948C65.044 28.6387 65.226 29.1613 65.59 29.516C65.9633 29.8613 66.5047 30.034 67.214 30.034C67.8767 30.034 68.3947 29.8987 68.768 29.628C69.1507 29.348 69.342 28.956 69.342 28.452V28.088C69.342 27.584 69.216 27.206 68.964 26.954C68.712 26.6927 68.3387 26.562 67.844 26.562H65.94V25.582H67.844C68.32 25.582 68.6793 25.4607 68.922 25.218C69.174 24.966 69.3 24.602 69.3 24.126V23.818C69.3 23.342 69.1133 22.9733 68.74 22.712C68.376 22.4413 67.8673 22.306 67.214 22.306C66.5047 22.306 65.968 22.4787 65.604 22.824C65.2493 23.1693 65.072 23.692 65.072 24.392V24.63H63.7C63.7747 23.8273 63.9473 23.174 64.218 22.67C64.498 22.166 64.8807 21.7973 65.366 21.564C65.8607 21.3213 66.4767 21.2 67.214 21.2C67.942 21.2 68.5627 21.3073 69.076 21.522C69.5987 21.7273 69.9953 22.0307 70.266 22.432C70.546 22.8333 70.686 23.3233 70.686 23.902C70.686 24.49 70.546 24.952 70.266 25.288C69.986 25.624 69.5893 25.8247 69.076 25.89V26.254C69.608 26.31 70.014 26.5153 70.294 26.87C70.5833 27.2247 70.728 27.7147 70.728 28.34C70.728 28.9373 70.588 29.446 70.308 29.866C70.028 30.2767 69.6267 30.594 69.104 30.818C68.5813 31.0327 67.9513 31.14 67.214 31.14ZM75.1563 31.14C74.5683 31.14 74.0503 30.9907 73.6023 30.692C73.1636 30.384 72.8276 29.9407 72.5943 29.362C72.3609 28.7833 72.2443 28.0833 72.2443 27.262C72.2443 26.4313 72.3609 25.7313 72.5943 25.162C72.8276 24.5833 73.1636 24.1447 73.6023 23.846C74.0409 23.538 74.5589 23.384 75.1563 23.384C75.6976 23.384 76.1409 23.5007 76.4863 23.734C76.8316 23.9673 77.1069 24.3313 77.3123 24.826H77.6623C77.6156 24.3873 77.5783 24.0373 77.5503 23.776C77.5316 23.5147 77.5223 23.2767 77.5223 23.062V22.348H76.4163V21.34H78.8383V29.992H79.8183V31H78.6143C78.0263 31 77.7323 30.7013 77.7323 30.104V29.614H77.3683C77.1629 30.118 76.8783 30.5007 76.5143 30.762C76.1503 31.014 75.6976 31.14 75.1563 31.14ZM75.5903 30.062C76.2529 30.062 76.7383 29.8707 77.0463 29.488C77.3636 29.096 77.5223 28.4893 77.5223 27.668V26.856C77.5223 26.0253 77.3636 25.4187 77.0463 25.036C76.7383 24.6533 76.2529 24.462 75.5903 24.462C74.9183 24.462 74.4236 24.6533 74.1063 25.036C73.7983 25.4187 73.6443 26.0253 73.6443 26.856V27.668C73.6443 28.4893 73.7983 29.096 74.1063 29.488C74.4236 29.8707 74.9183 30.062 75.5903 30.062ZM86.3531 31.14C85.6158 31.14 85.0371 30.958 84.6171 30.594C84.1971 30.2207 83.9871 29.7073 83.9871 29.054C83.9871 28.382 84.2064 27.8593 84.6451 27.486C85.0931 27.1127 85.7464 26.884 86.6051 26.8L88.6911 26.59V27.486L86.9831 27.654C86.4138 27.71 85.9984 27.836 85.7371 28.032C85.4758 28.2187 85.3451 28.494 85.3451 28.858V28.942C85.3451 29.3153 85.4758 29.6 85.7371 29.796C86.0078 29.9827 86.3904 30.076 86.8851 30.076C87.4918 30.076 87.9444 29.9453 88.2431 29.684C88.5418 29.4133 88.6911 29.0073 88.6911 28.466V27.304V27.108V26.226C88.6911 25.61 88.5651 25.162 88.3131 24.882C88.0704 24.602 87.6738 24.462 87.1231 24.462C86.7311 24.462 86.4138 24.5273 86.1711 24.658C85.9378 24.7793 85.7651 24.938 85.6531 25.134C85.5504 25.33 85.4991 25.5447 85.4991 25.778V25.834H84.1551C84.2858 25.0127 84.5984 24.4013 85.0931 24C85.5971 23.5893 86.2831 23.384 87.1511 23.384C88.0938 23.384 88.8078 23.622 89.2931 24.098C89.7784 24.5647 90.0211 25.2553 90.0211 26.17V29.992H90.9871V31H89.7831C89.1951 31 88.9011 30.706 88.9011 30.118V29.74H88.5511C88.3644 30.216 88.0938 30.5707 87.7391 30.804C87.3938 31.028 86.9318 31.14 86.3531 31.14ZM91.8514 32.848V31.84H96.1354C96.434 31.84 96.644 31.7933 96.7654 31.7C96.896 31.6067 96.9614 31.4527 96.9614 31.238C96.9614 31.014 96.896 30.8553 96.7654 30.762C96.644 30.6687 96.434 30.622 96.1354 30.622H93.3914C92.8874 30.622 92.5047 30.5333 92.2434 30.356C91.9914 30.1693 91.8654 29.9033 91.8654 29.558C91.8654 29.25 91.9634 29.0073 92.1594 28.83C92.3647 28.6527 92.6587 28.5453 93.0414 28.508V28.186C92.6307 28.018 92.3227 27.752 92.1174 27.388C91.912 27.0147 91.8094 26.562 91.8094 26.03C91.8094 25.1807 92.0754 24.5273 92.6074 24.07C93.1394 23.6127 93.8814 23.384 94.8334 23.384C95.7854 23.384 96.5227 23.6127 97.0454 24.07C97.5774 24.5273 97.8434 25.1807 97.8434 26.03C97.8434 26.8513 97.582 27.486 97.0594 27.934C96.5367 28.3727 95.804 28.592 94.8614 28.592H93.7834C93.5314 28.592 93.3494 28.6293 93.2374 28.704C93.1347 28.7787 93.0834 28.9 93.0834 29.068C93.0834 29.236 93.1347 29.3573 93.2374 29.432C93.3494 29.5067 93.5314 29.544 93.7834 29.544H96.4154C97.022 29.544 97.484 29.6793 97.8014 29.95C98.128 30.2207 98.2914 30.6173 98.2914 31.14C98.2914 31.7 98.1094 32.1247 97.7454 32.414C97.3907 32.7033 96.8774 32.848 96.2054 32.848H91.8514ZM94.8334 27.612C95.4027 27.612 95.8274 27.4953 96.1074 27.262C96.3967 27.0193 96.5414 26.6413 96.5414 26.128V25.904C96.5414 25.3907 96.3967 25.0173 96.1074 24.784C95.8274 24.5413 95.4027 24.42 94.8334 24.42C94.264 24.42 93.8347 24.5413 93.5454 24.784C93.256 25.0173 93.1114 25.3907 93.1114 25.904V26.128C93.1114 26.6413 93.256 27.0193 93.5454 27.262C93.8347 27.4953 94.264 27.612 94.8334 27.612ZM96.0234 23.874C96.0234 23.4167 96.1214 23.076 96.3174 22.852C96.5134 22.628 96.8167 22.516 97.2274 22.516H98.2494V23.524H96.8214C96.4667 23.524 96.2894 23.7293 96.2894 24.14L96.0234 23.874ZM102.744 31.14C102.026 31.14 101.41 30.9907 100.896 30.692C100.383 30.3933 99.9909 29.9547 99.7203 29.376C99.4496 28.7973 99.3143 28.0927 99.3143 27.262C99.3143 26.422 99.4496 25.7173 99.7203 25.148C99.9909 24.5693 100.383 24.1307 100.896 23.832C101.41 23.5333 102.026 23.384 102.744 23.384C103.472 23.384 104.088 23.5333 104.592 23.832C105.096 24.1307 105.484 24.5693 105.754 25.148C106.025 25.7173 106.16 26.422 106.16 27.262C106.16 28.0927 106.025 28.7973 105.754 29.376C105.484 29.9547 105.096 30.3933 104.592 30.692C104.088 30.9907 103.472 31.14 102.744 31.14ZM102.744 30.062C103.435 30.062 103.944 29.866 104.27 29.474C104.597 29.082 104.76 28.4753 104.76 27.654V26.87C104.76 26.0487 104.597 25.442 104.27 25.05C103.944 24.658 103.435 24.462 102.744 24.462C102.044 24.462 101.531 24.658 101.204 25.05C100.878 25.442 100.714 26.0487 100.714 26.87V27.654C100.714 28.4753 100.878 29.082 101.204 29.474C101.531 29.866 102.044 30.062 102.744 30.062Z" fill="#9698A2"/>
<path d="M234.018 20.2791C233.407 19.5787 233.04 18.6654 233.04 17.6671H232.274C232.472 18.7583 233.121 19.6948 234.018 20.2791Z" fill="#9698A2"/>
<path d="M226.935 25.9209C225.609 25.9209 224.53 27.0005 224.53 28.3278C224.53 29.2527 225.056 30.0575 225.821 30.46C225.535 30.0653 225.365 29.5816 225.365 29.0553C225.365 27.728 226.444 26.6484 227.77 26.6484C228.017 26.6484 228.257 26.6909 228.481 26.7605V23.8351C228.249 23.8042 228.013 23.7848 227.77 23.7848C227.727 23.7848 227.689 23.7887 227.646 23.7887V26.033C227.418 25.9634 227.182 25.9209 226.935 25.9209Z" fill="#9698A2"/>
<path d="M236.187 21.5638V23.7889C234.702 23.7889 233.326 23.313 232.205 22.508V28.3319C232.205 31.238 229.842 33.6063 226.935 33.6063C225.813 33.6063 224.77 33.2503 223.915 32.6504C224.878 33.6836 226.25 34.3338 227.77 34.3338C230.674 34.3338 233.04 31.9694 233.04 29.0594V23.2355C234.161 24.0405 235.537 24.5164 237.022 24.5164V21.6529C236.732 21.6529 236.454 21.6219 236.187 21.5638Z" fill="#9698A2"/>
<path d="M232.205 28.3315V22.5077C233.326 23.3126 234.702 23.7885 236.187 23.7885V21.5635C235.329 21.3816 234.575 20.9173 234.018 20.2787C233.121 19.6945 232.475 18.758 232.27 17.6667H230.175L230.171 29.148C230.125 30.4327 229.065 31.466 227.77 31.466C226.966 31.466 226.258 31.0674 225.817 30.4637C225.052 30.0574 224.526 29.2564 224.526 28.3315C224.526 27.0042 225.605 25.9246 226.931 25.9246C227.178 25.9246 227.418 25.9672 227.642 26.0368V23.7924C224.797 23.8543 222.5 26.1916 222.5 29.059C222.5 30.4443 223.037 31.7059 223.915 32.6501C224.77 33.2499 225.814 33.6059 226.935 33.6059C229.838 33.6059 232.205 31.2377 232.205 28.3315Z" fill="#9698A2"/>
<path d="M22.51 52.14V50.39H18.702V53.582H22.272V54.562H18.702V57.95H22.566V56.144H23.714V59H17.344V50.39H16.224V49.34H23.658V52.14H22.51ZM24.9102 59V57.992H25.8902L27.4862 54.632L27.4722 55.402L25.9882 52.532H25.0082V51.524H26.9822L28.4102 54.548H28.7742L30.1882 51.524H32.1202V52.532H31.1402L29.6562 55.402V54.632L31.2382 57.992H32.2042V59H30.2302L28.7182 55.724H28.3542L26.8422 59H24.9102ZM33.9127 60.848V52.532H32.9327V51.524H35.0187V52.91H35.3827C35.5973 52.3967 35.882 52.014 36.2367 51.762C36.6007 51.51 37.0533 51.384 37.5947 51.384C38.2013 51.384 38.7193 51.538 39.1487 51.846C39.5873 52.1447 39.9233 52.5833 40.1567 53.162C40.39 53.7313 40.5067 54.4313 40.5067 55.262C40.5067 56.0833 40.39 56.7833 40.1567 57.362C39.9233 57.9407 39.5873 58.384 39.1487 58.692C38.7193 58.9907 38.2013 59.14 37.5947 59.14C37.0627 59.14 36.6193 59.0233 36.2647 58.79C35.9193 58.5567 35.6487 58.1927 35.4527 57.698H35.0887C35.1353 58.1367 35.168 58.4867 35.1867 58.748C35.2147 59.0093 35.2287 59.2427 35.2287 59.448V60.848H33.9127ZM37.1607 58.062C37.8327 58.062 38.3273 57.8707 38.6447 57.488C38.962 57.096 39.1207 56.4893 39.1207 55.668V54.856C39.1207 54.0253 38.962 53.4187 38.6447 53.036C38.3273 52.6533 37.8327 52.462 37.1607 52.462C36.498 52.462 36.008 52.6533 35.6907 53.036C35.3827 53.4187 35.2287 54.0253 35.2287 54.856V55.668C35.2287 56.4893 35.3827 57.096 35.6907 57.488C36.008 57.8707 36.498 58.062 37.1607 58.062ZM42.4016 59V50.348H41.2956V49.34H43.7176V59H42.4016ZM49.004 59.14C48.2853 59.14 47.6693 58.9907 47.156 58.692C46.6427 58.3933 46.2507 57.9547 45.98 57.376C45.7093 56.7973 45.574 56.0927 45.574 55.262C45.574 54.422 45.7093 53.7173 45.98 53.148C46.2507 52.5693 46.6427 52.1307 47.156 51.832C47.6693 51.5333 48.2853 51.384 49.004 51.384C49.732 51.384 50.348 51.5333 50.852 51.832C51.356 52.1307 51.7433 52.5693 52.014 53.148C52.2847 53.7173 52.42 54.422 52.42 55.262C52.42 56.0927 52.2847 56.7973 52.014 57.376C51.7433 57.9547 51.356 58.3933 50.852 58.692C50.348 58.9907 49.732 59.14 49.004 59.14ZM49.004 58.062C49.6947 58.062 50.2033 57.866 50.53 57.474C50.8567 57.082 51.02 56.4753 51.02 55.654V54.87C51.02 54.0487 50.8567 53.442 50.53 53.05C50.2033 52.658 49.6947 52.462 49.004 52.462C48.304 52.462 47.7907 52.658 47.464 53.05C47.1373 53.442 46.974 54.0487 46.974 54.87V55.654C46.974 56.4753 47.1373 57.082 47.464 57.474C47.7907 57.866 48.304 58.062 49.004 58.062ZM54.3521 59V52.532H53.3721V51.524H55.4581V52.868H55.8221C56.0088 52.3827 56.2608 52.0233 56.5781 51.79C56.9048 51.5567 57.3248 51.44 57.8381 51.44H58.9161V52.532H57.3201C56.7508 52.532 56.3308 52.686 56.0601 52.994C55.7895 53.302 55.6541 53.7967 55.6541 54.478V59H54.3521ZM60.6982 59V52.532H59.5922V51.524H62.0282V59H60.6982ZM60.5722 50.614V49.34H62.1122V50.614H60.5722ZM64.4146 59V52.532H63.4346V51.524H65.5206V52.812H65.8846C66.0713 52.3267 66.3326 51.9673 66.6686 51.734C67.014 51.5007 67.4526 51.384 67.9846 51.384C68.7593 51.384 69.3473 51.6173 69.7486 52.084C70.1593 52.5507 70.3646 53.2367 70.3646 54.142V57.992H71.3306V59H69.0486V54.422C69.0486 53.7407 68.9133 53.246 68.6426 52.938C68.3813 52.6207 67.9613 52.462 67.3826 52.462C66.8133 52.462 66.3933 52.6207 66.1226 52.938C65.852 53.246 65.7166 53.7407 65.7166 54.422V59H64.4146ZM72.3182 60.848V59.84H76.6022C76.9008 59.84 77.1108 59.7933 77.2322 59.7C77.3628 59.6067 77.4282 59.4527 77.4282 59.238C77.4282 59.014 77.3628 58.8553 77.2322 58.762C77.1108 58.6687 76.9008 58.622 76.6022 58.622H73.8582C73.3542 58.622 72.9715 58.5333 72.7102 58.356C72.4582 58.1693 72.3322 57.9033 72.3322 57.558C72.3322 57.25 72.4302 57.0073 72.6262 56.83C72.8315 56.6527 73.1255 56.5453 73.5082 56.508V56.186C73.0975 56.018 72.7895 55.752 72.5842 55.388C72.3788 55.0147 72.2762 54.562 72.2762 54.03C72.2762 53.1807 72.5422 52.5273 73.0742 52.07C73.6062 51.6127 74.3482 51.384 75.3002 51.384C76.2522 51.384 76.9895 51.6127 77.5122 52.07C78.0442 52.5273 78.3102 53.1807 78.3102 54.03C78.3102 54.8513 78.0488 55.486 77.5262 55.934C77.0035 56.3727 76.2708 56.592 75.3282 56.592H74.2502C73.9982 56.592 73.8162 56.6293 73.7042 56.704C73.6015 56.7787 73.5502 56.9 73.5502 57.068C73.5502 57.236 73.6015 57.3573 73.7042 57.432C73.8162 57.5067 73.9982 57.544 74.2502 57.544H76.8822C77.4888 57.544 77.9508 57.6793 78.2682 57.95C78.5948 58.2207 78.7582 58.6173 78.7582 59.14C78.7582 59.7 78.5762 60.1247 78.2122 60.414C77.8575 60.7033 77.3442 60.848 76.6722 60.848H72.3182ZM75.3002 55.612C75.8695 55.612 76.2942 55.4953 76.5742 55.262C76.8635 55.0193 77.0082 54.6413 77.0082 54.128V53.904C77.0082 53.3907 76.8635 53.0173 76.5742 52.784C76.2942 52.5413 75.8695 52.42 75.3002 52.42C74.7308 52.42 74.3015 52.5413 74.0122 52.784C73.7228 53.0173 73.5782 53.3907 73.5782 53.904V54.128C73.5782 54.6413 73.7228 55.0193 74.0122 55.262C74.3015 55.4953 74.7308 55.612 75.3002 55.612ZM76.4902 51.874C76.4902 51.4167 76.5882 51.076 76.7842 50.852C76.9802 50.628 77.2835 50.516 77.6942 50.516H78.7162V51.524H77.2882C76.9335 51.524 76.7562 51.7293 76.7562 52.14L76.4902 51.874ZM84.991 59C84.403 59 84.109 58.7013 84.109 58.104V51.524L84.585 50.026H85.425V57.992H87.175V59H84.991ZM82.751 52.532V51.524H87.175V52.532H82.751ZM88.7323 59V50.348H87.7663V49.34H90.0623V50.95C90.0623 51.1647 90.0483 51.4027 90.0203 51.664C90.0016 51.9253 89.969 52.2753 89.9223 52.714H90.2863C90.4543 52.2567 90.7016 51.9207 91.0283 51.706C91.3643 51.4913 91.7936 51.384 92.3163 51.384C93.1003 51.384 93.6883 51.6173 94.0803 52.084C94.4816 52.5507 94.6823 53.2367 94.6823 54.142V57.992H95.6623V59H93.3803V54.422C93.3803 53.7407 93.245 53.246 92.9743 52.938C92.7036 52.6207 92.2836 52.462 91.7143 52.462C91.145 52.462 90.725 52.6207 90.4543 52.938C90.193 53.246 90.0623 53.7407 90.0623 54.422V59H88.7323ZM99.9584 59.14C99.2398 59.14 98.6238 58.9907 98.1104 58.692C97.6064 58.3933 97.2191 57.9547 96.9484 57.376C96.6871 56.7973 96.5564 56.0927 96.5564 55.262C96.5564 54.422 96.6871 53.7173 96.9484 53.148C97.2191 52.5693 97.6064 52.1307 98.1104 51.832C98.6238 51.5333 99.2398 51.384 99.9584 51.384C100.649 51.384 101.237 51.524 101.722 51.804C102.208 52.0747 102.576 52.476 102.828 53.008C103.09 53.54 103.22 54.198 103.22 54.982V55.472H97.4524V54.576H102.702L101.932 55.178V54.856C101.932 54.016 101.774 53.4047 101.456 53.022C101.139 52.63 100.64 52.434 99.9584 52.434C99.2678 52.434 98.7591 52.63 98.4324 53.022C98.1151 53.4047 97.9564 54.016 97.9564 54.856V55.654C97.9564 56.4753 98.1151 57.082 98.4324 57.474C98.7591 57.866 99.2678 58.062 99.9584 58.062C100.406 58.062 100.756 57.992 101.008 57.852C101.27 57.7027 101.456 57.5253 101.568 57.32C101.68 57.1147 101.736 56.9233 101.736 56.746V56.69H103.108C102.94 57.4927 102.586 58.104 102.044 58.524C101.512 58.9347 100.817 59.14 99.9584 59.14ZM108.396 59V50.348H107.29V49.34H109.712V59H108.396ZM112.282 59V52.532H111.176V51.524H113.612V59H112.282ZM112.156 50.614V49.34H113.696V50.614H112.156ZM120.311 54.31C120.311 53.6847 120.189 53.2227 119.947 52.924C119.704 52.616 119.326 52.462 118.813 52.462C118.309 52.462 117.931 52.616 117.679 52.924C117.427 53.2227 117.301 53.6847 117.301 54.31V59H115.999V52.532H115.019V51.524H117.105V52.812H117.469C117.637 52.3267 117.879 51.9673 118.197 51.734C118.514 51.5007 118.92 51.384 119.415 51.384C119.919 51.384 120.329 51.5007 120.647 51.734C120.973 51.9673 121.221 52.3267 121.389 52.812H121.739C121.916 52.3267 122.163 51.9673 122.481 51.734C122.798 51.5007 123.218 51.384 123.741 51.384C124.469 51.384 125.019 51.6173 125.393 52.084C125.775 52.5507 125.967 53.2367 125.967 54.142V57.992H126.933V59H124.637V54.31C124.637 53.6847 124.515 53.2227 124.273 52.924C124.03 52.616 123.652 52.462 123.139 52.462C122.625 52.462 122.247 52.616 122.005 52.924C121.762 53.2227 121.641 53.6847 121.641 54.31V59H120.311V54.31ZM128.538 59V52.532H127.432V51.524H129.868V59H128.538ZM128.412 50.614V49.34H129.952V50.614H128.412ZM133.43 59C132.842 59 132.548 58.7013 132.548 58.104V51.524L133.024 50.026H133.864V57.992H135.614V59H133.43ZM131.19 52.532V51.524H135.614V52.532H131.19ZM139.832 59.14C138.889 59.14 138.166 58.944 137.662 58.552C137.158 58.16 136.836 57.5393 136.696 56.69H138.026V56.746C138.026 56.97 138.082 57.1847 138.194 57.39C138.306 57.5953 138.492 57.7633 138.754 57.894C139.015 58.0247 139.374 58.09 139.832 58.09C140.382 58.09 140.812 57.9967 141.12 57.81C141.428 57.614 141.582 57.3387 141.582 56.984C141.582 56.7133 141.488 56.508 141.302 56.368C141.115 56.2187 140.793 56.0927 140.336 55.99L138.796 55.654C138.086 55.486 137.568 55.2433 137.242 54.926C136.924 54.6087 136.766 54.184 136.766 53.652C136.766 52.924 137.027 52.364 137.55 51.972C138.082 51.58 138.828 51.384 139.79 51.384C140.714 51.384 141.428 51.58 141.932 51.972C142.436 52.364 142.758 52.9847 142.898 53.834H141.568V53.778C141.568 53.554 141.516 53.3393 141.414 53.134C141.311 52.9287 141.129 52.7607 140.868 52.63C140.606 52.4993 140.247 52.434 139.79 52.434C139.248 52.434 138.828 52.5273 138.53 52.714C138.231 52.9007 138.082 53.176 138.082 53.54C138.082 53.8013 138.175 54.0067 138.362 54.156C138.548 54.3053 138.861 54.4313 139.3 54.534L140.84 54.87C141.558 55.038 142.081 55.276 142.408 55.584C142.734 55.892 142.898 56.3167 142.898 56.858C142.898 57.586 142.632 58.1507 142.1 58.552C141.568 58.944 140.812 59.14 139.832 59.14ZM150.942 59.14C150.223 59.14 149.607 58.9907 149.094 58.692C148.58 58.3933 148.188 57.9547 147.918 57.376C147.647 56.7973 147.512 56.0927 147.512 55.262C147.512 54.422 147.647 53.7173 147.918 53.148C148.188 52.5693 148.58 52.1307 149.094 51.832C149.607 51.5333 150.223 51.384 150.942 51.384C151.67 51.384 152.286 51.5333 152.79 51.832C153.294 52.1307 153.681 52.5693 153.952 53.148C154.222 53.7173 154.358 54.422 154.358 55.262C154.358 56.0927 154.222 56.7973 153.952 57.376C153.681 57.9547 153.294 58.3933 152.79 58.692C152.286 58.9907 151.67 59.14 150.942 59.14ZM150.942 58.062C151.632 58.062 152.141 57.866 152.468 57.474C152.794 57.082 152.958 56.4753 152.958 55.654V54.87C152.958 54.0487 152.794 53.442 152.468 53.05C152.141 52.658 151.632 52.462 150.942 52.462C150.242 52.462 149.728 52.658 149.402 53.05C149.075 53.442 148.912 54.0487 148.912 54.87V55.654C148.912 56.4753 149.075 57.082 149.402 57.474C149.728 57.866 150.242 58.062 150.942 58.062ZM156.697 50.236C156.697 49.6387 156.991 49.34 157.579 49.34H159.875V50.348H158.013V59H156.697V50.236ZM155.493 59V57.992H159.665V59H155.493ZM155.395 52.532V51.524H159.875V52.532H155.395ZM163.844 59L166.644 49.34H169.094L171.908 59H170.466L168.03 50.502H167.652L165.202 59H163.844ZM165.37 56.564L165.496 55.57H170.172L170.298 56.564H165.37ZM165.23 50.39V49.34H167.414V50.39H165.23ZM172.858 59V57.95H174.076V50.39H172.858V49.34H176.638V50.39H175.434V57.95H176.638V59H172.858ZM181.94 59V52.532H180.834V51.524H183.27V59H181.94ZM181.814 50.614V49.34H183.354V50.614H181.814ZM185.657 59V52.532H184.677V51.524H186.763V52.812H187.127C187.313 52.3267 187.575 51.9673 187.911 51.734C188.256 51.5007 188.695 51.384 189.227 51.384C190.001 51.384 190.589 51.6173 190.991 52.084C191.401 52.5507 191.607 53.2367 191.607 54.142V57.992H192.573V59H190.291V54.422C190.291 53.7407 190.155 53.246 189.885 52.938C189.623 52.6207 189.203 52.462 188.625 52.462C188.055 52.462 187.635 52.6207 187.365 52.938C187.094 53.246 186.959 53.7407 186.959 54.422V59H185.657ZM19.584 79.14C18.996 79.14 18.478 78.9907 18.03 78.692C17.5913 78.384 17.2553 77.9407 17.022 77.362C16.7887 76.7833 16.672 76.0833 16.672 75.262C16.672 74.4313 16.7887 73.7313 17.022 73.162C17.2553 72.5833 17.5913 72.1447 18.03 71.846C18.4687 71.538 18.9867 71.384 19.584 71.384C20.1253 71.384 20.5687 71.5007 20.914 71.734C21.2593 71.9673 21.5347 72.3313 21.74 72.826H22.09C22.0433 72.3873 22.006 72.0373 21.978 71.776C21.9593 71.5147 21.95 71.2767 21.95 71.062V70.348H20.844V69.34H23.266V77.992H24.246V79H23.042C22.454 79 22.16 78.7013 22.16 78.104V77.614H21.796C21.5907 78.118 21.306 78.5007 20.942 78.762C20.578 79.014 20.1253 79.14 19.584 79.14ZM20.018 78.062C20.6807 78.062 21.166 77.8707 21.474 77.488C21.7913 77.096 21.95 76.4893 21.95 75.668V74.856C21.95 74.0253 21.7913 73.4187 21.474 73.036C21.166 72.6533 20.6807 72.462 20.018 72.462C19.346 72.462 18.8513 72.6533 18.534 73.036C18.226 73.4187 18.072 74.0253 18.072 74.856V75.668C18.072 76.4893 18.226 77.096 18.534 77.488C18.8513 77.8707 19.346 78.062 20.018 78.062ZM28.5502 79.14C27.8316 79.14 27.2156 78.9907 26.7022 78.692C26.1982 78.3933 25.8109 77.9547 25.5402 77.376C25.2789 76.7973 25.1482 76.0927 25.1482 75.262C25.1482 74.422 25.2789 73.7173 25.5402 73.148C25.8109 72.5693 26.1982 72.1307 26.7022 71.832C27.2156 71.5333 27.8316 71.384 28.5502 71.384C29.2409 71.384 29.8289 71.524 30.3142 71.804C30.7996 72.0747 31.1682 72.476 31.4202 73.008C31.6816 73.54 31.8122 74.198 31.8122 74.982V75.472H26.0442V74.576H31.2942L30.5242 75.178V74.856C30.5242 74.016 30.3656 73.4047 30.0482 73.022C29.7309 72.63 29.2316 72.434 28.5502 72.434C27.8596 72.434 27.3509 72.63 27.0242 73.022C26.7069 73.4047 26.5482 74.016 26.5482 74.856V75.654C26.5482 76.4753 26.7069 77.082 27.0242 77.474C27.3509 77.866 27.8596 78.062 28.5502 78.062C28.9982 78.062 29.3482 77.992 29.6002 77.852C29.8616 77.7027 30.0482 77.5253 30.1602 77.32C30.2722 77.1147 30.3282 76.9233 30.3282 76.746V76.69H31.7002C31.5322 77.4927 31.1776 78.104 30.6362 78.524C30.1042 78.9347 29.4089 79.14 28.5502 79.14ZM36.1989 79.14C35.2563 79.14 34.5329 78.944 34.0289 78.552C33.5249 78.16 33.2029 77.5393 33.0629 76.69H34.3929V76.746C34.3929 76.97 34.4489 77.1847 34.5609 77.39C34.6729 77.5953 34.8596 77.7633 35.1209 77.894C35.3823 78.0247 35.7416 78.09 36.1989 78.09C36.7496 78.09 37.1789 77.9967 37.4869 77.81C37.7949 77.614 37.9489 77.3387 37.9489 76.984C37.9489 76.7133 37.8556 76.508 37.6689 76.368C37.4823 76.2187 37.1603 76.0927 36.7029 75.99L35.1629 75.654C34.4536 75.486 33.9356 75.2433 33.6089 74.926C33.2916 74.6087 33.1329 74.184 33.1329 73.652C33.1329 72.924 33.3943 72.364 33.9169 71.972C34.4489 71.58 35.1956 71.384 36.1569 71.384C37.0809 71.384 37.7949 71.58 38.2989 71.972C38.8029 72.364 39.1249 72.9847 39.2649 73.834H37.9349V73.778C37.9349 73.554 37.8836 73.3393 37.7809 73.134C37.6783 72.9287 37.4963 72.7607 37.2349 72.63C36.9736 72.4993 36.6143 72.434 36.1569 72.434C35.6156 72.434 35.1956 72.5273 34.8969 72.714C34.5983 72.9007 34.4489 73.176 34.4489 73.54C34.4489 73.8013 34.5423 74.0067 34.7289 74.156C34.9156 74.3053 35.2283 74.4313 35.6669 74.534L37.2069 74.87C37.9256 75.038 38.4483 75.276 38.7749 75.584C39.1016 75.892 39.2649 76.3167 39.2649 76.858C39.2649 77.586 38.9989 78.1507 38.4669 78.552C37.9349 78.944 37.1789 79.14 36.1989 79.14ZM41.2841 79V72.532H40.1781V71.524H42.6141V79H41.2841ZM41.1581 70.614V69.34H42.6981V70.614H41.1581ZM44.4686 80.848V79.84H48.7526C49.0512 79.84 49.2612 79.7933 49.3826 79.7C49.5132 79.6067 49.5786 79.4527 49.5786 79.238C49.5786 79.014 49.5132 78.8553 49.3826 78.762C49.2612 78.6687 49.0512 78.622 48.7526 78.622H46.0086C45.5046 78.622 45.1219 78.5333 44.8606 78.356C44.6086 78.1693 44.4826 77.9033 44.4826 77.558C44.4826 77.25 44.5806 77.0073 44.7766 76.83C44.9819 76.6527 45.2759 76.5453 45.6586 76.508V76.186C45.2479 76.018 44.9399 75.752 44.7346 75.388C44.5292 75.0147 44.4266 74.562 44.4266 74.03C44.4266 73.1807 44.6926 72.5273 45.2246 72.07C45.7566 71.6127 46.4986 71.384 47.4506 71.384C48.4026 71.384 49.1399 71.6127 49.6626 72.07C50.1946 72.5273 50.4606 73.1807 50.4606 74.03C50.4606 74.8513 50.1992 75.486 49.6766 75.934C49.1539 76.3727 48.4212 76.592 47.4786 76.592H46.4006C46.1486 76.592 45.9666 76.6293 45.8546 76.704C45.7519 76.7787 45.7006 76.9 45.7006 77.068C45.7006 77.236 45.7519 77.3573 45.8546 77.432C45.9666 77.5067 46.1486 77.544 46.4006 77.544H49.0326C49.6392 77.544 50.1012 77.6793 50.4186 77.95C50.7452 78.2207 50.9086 78.6173 50.9086 79.14C50.9086 79.7 50.7266 80.1247 50.3626 80.414C50.0079 80.7033 49.4946 80.848 48.8226 80.848H44.4686ZM47.4506 75.612C48.0199 75.612 48.4446 75.4953 48.7246 75.262C49.0139 75.0193 49.1586 74.6413 49.1586 74.128V73.904C49.1586 73.3907 49.0139 73.0173 48.7246 72.784C48.4446 72.5413 48.0199 72.42 47.4506 72.42C46.8812 72.42 46.4519 72.5413 46.1626 72.784C45.8732 73.0173 45.7286 73.3907 45.7286 73.904V74.128C45.7286 74.6413 45.8732 75.0193 46.1626 75.262C46.4519 75.4953 46.8812 75.612 47.4506 75.612ZM48.6406 71.874C48.6406 71.4167 48.7386 71.076 48.9346 70.852C49.1306 70.628 49.4339 70.516 49.8446 70.516H50.8666V71.524H49.4386C49.0839 71.524 48.9066 71.7293 48.9066 72.14L48.6406 71.874ZM52.6568 79V72.532H51.6768V71.524H53.7628V72.812H54.1268C54.3135 72.3267 54.5748 71.9673 54.9108 71.734C55.2561 71.5007 55.6948 71.384 56.2268 71.384C57.0015 71.384 57.5895 71.6173 57.9908 72.084C58.4015 72.5507 58.6068 73.2367 58.6068 74.142V77.992H59.5728V79H57.2908V74.422C57.2908 73.7407 57.1555 73.246 56.8848 72.938C56.6235 72.6207 56.2035 72.462 55.6248 72.462C55.0555 72.462 54.6355 72.6207 54.3648 72.938C54.0941 73.246 53.9588 73.7407 53.9588 74.422V79H52.6568ZM60.7424 79V77.502H62.2964V79H60.7424ZM72.7405 72.14V70.39H68.9325V73.582H72.5025V74.562H68.9325V77.95H72.7965V76.144H73.9445V79H67.5745V70.39H66.4545V69.34H73.8885V72.14H72.7405ZM75.1407 79V77.992H76.1207L77.7167 74.632L77.7027 75.402L76.2187 72.532H75.2387V71.524H77.2127L78.6407 74.548H79.0047L80.4187 71.524H82.3507V72.532H81.3707L79.8867 75.402V74.632L81.4687 77.992H82.4347V79H80.4607L78.9487 75.724H78.5847L77.0727 79H75.1407ZM84.1431 80.848V72.532H83.1631V71.524H85.2491V72.91H85.6131C85.8278 72.3967 86.1125 72.014 86.4671 71.762C86.8311 71.51 87.2838 71.384 87.8251 71.384C88.4318 71.384 88.9498 71.538 89.3791 71.846C89.8178 72.1447 90.1538 72.5833 90.3871 73.162C90.6205 73.7313 90.7371 74.4313 90.7371 75.262C90.7371 76.0833 90.6205 76.7833 90.3871 77.362C90.1538 77.9407 89.8178 78.384 89.3791 78.692C88.9498 78.9907 88.4318 79.14 87.8251 79.14C87.2931 79.14 86.8498 79.0233 86.4951 78.79C86.1498 78.5567 85.8791 78.1927 85.6831 77.698H85.3191C85.3658 78.1367 85.3985 78.4867 85.4171 78.748C85.4451 79.0093 85.4591 79.2427 85.4591 79.448V80.848H84.1431ZM87.3911 78.062C88.0631 78.062 88.5578 77.8707 88.8751 77.488C89.1925 77.096 89.3511 76.4893 89.3511 75.668V74.856C89.3511 74.0253 89.1925 73.4187 88.8751 73.036C88.5578 72.6533 88.0631 72.462 87.3911 72.462C86.7285 72.462 86.2385 72.6533 85.9211 73.036C85.6131 73.4187 85.4591 74.0253 85.4591 74.856V75.668C85.4591 76.4893 85.6131 77.096 85.9211 77.488C86.2385 77.8707 86.7285 78.062 87.3911 78.062ZM95.4741 79.14C94.7554 79.14 94.1394 78.9907 93.6261 78.692C93.1221 78.3933 92.7347 77.9547 92.4641 77.376C92.2027 76.7973 92.0721 76.0927 92.0721 75.262C92.0721 74.422 92.2027 73.7173 92.4641 73.148C92.7347 72.5693 93.1221 72.1307 93.6261 71.832C94.1394 71.5333 94.7554 71.384 95.4741 71.384C96.1647 71.384 96.7527 71.524 97.2381 71.804C97.7234 72.0747 98.0921 72.476 98.3441 73.008C98.6054 73.54 98.7361 74.198 98.7361 74.982V75.472H92.9681V74.576H98.2181L97.4481 75.178V74.856C97.4481 74.016 97.2894 73.4047 96.9721 73.022C96.6547 72.63 96.1554 72.434 95.4741 72.434C94.7834 72.434 94.2747 72.63 93.9481 73.022C93.6307 73.4047 93.4721 74.016 93.4721 74.856V75.654C93.4721 76.4753 93.6307 77.082 93.9481 77.474C94.2747 77.866 94.7834 78.062 95.4741 78.062C95.9221 78.062 96.2721 77.992 96.5241 77.852C96.7854 77.7027 96.9721 77.5253 97.0841 77.32C97.1961 77.1147 97.2521 76.9233 97.2521 76.746V76.69H98.6241C98.4561 77.4927 98.1014 78.104 97.5601 78.524C97.0281 78.9347 96.3327 79.14 95.4741 79.14ZM100.659 79V72.532H99.6788V71.524H101.765V72.868H102.129C102.315 72.3827 102.567 72.0233 102.885 71.79C103.211 71.5567 103.631 71.44 104.145 71.44H105.223V72.532H103.627C103.057 72.532 102.637 72.686 102.367 72.994C102.096 73.302 101.961 73.7967 101.961 74.478V79H100.659ZM107.005 79V72.532H105.899V71.524H108.335V79H107.005ZM106.879 70.614V69.34H108.419V70.614H106.879ZM115.033 74.31C115.033 73.6847 114.912 73.2227 114.669 72.924C114.427 72.616 114.049 72.462 113.535 72.462C113.031 72.462 112.653 72.616 112.401 72.924C112.149 73.2227 112.023 73.6847 112.023 74.31V79H110.721V72.532H109.741V71.524H111.827V72.812H112.191C112.359 72.3267 112.602 71.9673 112.919 71.734C113.237 71.5007 113.643 71.384 114.137 71.384C114.641 71.384 115.052 71.5007 115.369 71.734C115.696 71.9673 115.943 72.3267 116.111 72.812H116.461C116.639 72.3267 116.886 71.9673 117.203 71.734C117.521 71.5007 117.941 71.384 118.463 71.384C119.191 71.384 119.742 71.6173 120.115 72.084C120.498 72.5507 120.689 73.2367 120.689 74.142V77.992H121.655V79H119.359V74.31C119.359 73.6847 119.238 73.2227 118.995 72.924C118.753 72.616 118.375 72.462 117.861 72.462C117.348 72.462 116.97 72.616 116.727 72.924C116.485 73.2227 116.363 73.6847 116.363 74.31V79H115.033V74.31ZM125.949 79.14C125.23 79.14 124.614 78.9907 124.101 78.692C123.597 78.3933 123.209 77.9547 122.939 77.376C122.677 76.7973 122.547 76.0927 122.547 75.262C122.547 74.422 122.677 73.7173 122.939 73.148C123.209 72.5693 123.597 72.1307 124.101 71.832C124.614 71.5333 125.23 71.384 125.949 71.384C126.639 71.384 127.227 71.524 127.713 71.804C128.198 72.0747 128.567 72.476 128.819 73.008C129.08 73.54 129.211 74.198 129.211 74.982V75.472H123.443V74.576H128.693L127.923 75.178V74.856C127.923 74.016 127.764 73.4047 127.447 73.022C127.129 72.63 126.63 72.434 125.949 72.434C125.258 72.434 124.749 72.63 124.423 73.022C124.105 73.4047 123.947 74.016 123.947 74.856V75.654C123.947 76.4753 124.105 77.082 124.423 77.474C124.749 77.866 125.258 78.062 125.949 78.062C126.397 78.062 126.747 77.992 126.999 77.852C127.26 77.7027 127.447 77.5253 127.559 77.32C127.671 77.1147 127.727 76.9233 127.727 76.746V76.69H129.099C128.931 77.4927 128.576 78.104 128.035 78.524C127.503 78.9347 126.807 79.14 125.949 79.14ZM131.133 79V72.532H130.153V71.524H132.239V72.812H132.603C132.79 72.3267 133.051 71.9673 133.387 71.734C133.733 71.5007 134.171 71.384 134.703 71.384C135.478 71.384 136.066 71.6173 136.467 72.084C136.878 72.5507 137.083 73.2367 137.083 74.142V77.992H138.049V79H135.767V74.422C135.767 73.7407 135.632 73.246 135.361 72.938C135.1 72.6207 134.68 72.462 134.101 72.462C133.532 72.462 133.112 72.6207 132.841 72.938C132.571 73.246 132.435 73.7407 132.435 74.422V79H131.133ZM140.704 79C140.116 79 139.822 78.7013 139.822 78.104V71.524L140.298 70.026H141.138V77.992H142.888V79H140.704ZM138.464 72.532V71.524H142.888V72.532H138.464ZM144.739 79V72.532H143.633V71.524H146.069V79H144.739ZM144.613 70.614V69.34H146.153V70.614H144.613ZM148.456 79V72.532H147.476V71.524H149.562V72.812H149.926C150.112 72.3267 150.374 71.9673 150.71 71.734C151.055 71.5007 151.494 71.384 152.026 71.384C152.8 71.384 153.388 71.6173 153.79 72.084C154.2 72.5507 154.406 73.2367 154.406 74.142V77.992H155.372V79H153.09V74.422C153.09 73.7407 152.954 73.246 152.684 72.938C152.422 72.6207 152.002 72.462 151.424 72.462C150.854 72.462 150.434 72.6207 150.164 72.938C149.893 73.246 149.758 73.7407 149.758 74.422V79H148.456ZM156.359 80.848V79.84H160.643C160.942 79.84 161.152 79.7933 161.273 79.7C161.404 79.6067 161.469 79.4527 161.469 79.238C161.469 79.014 161.404 78.8553 161.273 78.762C161.152 78.6687 160.942 78.622 160.643 78.622H157.899C157.395 78.622 157.013 78.5333 156.751 78.356C156.499 78.1693 156.373 77.9033 156.373 77.558C156.373 77.25 156.471 77.0073 156.667 76.83C156.873 76.6527 157.167 76.5453 157.549 76.508V76.186C157.139 76.018 156.831 75.752 156.625 75.388C156.42 75.0147 156.317 74.562 156.317 74.03C156.317 73.1807 156.583 72.5273 157.115 72.07C157.647 71.6127 158.389 71.384 159.341 71.384C160.293 71.384 161.031 71.6127 161.553 72.07C162.085 72.5273 162.351 73.1807 162.351 74.03C162.351 74.8513 162.09 75.486 161.567 75.934C161.045 76.3727 160.312 76.592 159.369 76.592H158.291C158.039 76.592 157.857 76.6293 157.745 76.704C157.643 76.7787 157.591 76.9 157.591 77.068C157.591 77.236 157.643 77.3573 157.745 77.432C157.857 77.5067 158.039 77.544 158.291 77.544H160.923C161.53 77.544 161.992 77.6793 162.309 77.95C162.636 78.2207 162.799 78.6173 162.799 79.14C162.799 79.7 162.617 80.1247 162.253 80.414C161.899 80.7033 161.385 80.848 160.713 80.848H156.359ZM159.341 75.612C159.911 75.612 160.335 75.4953 160.615 75.262C160.905 75.0193 161.049 74.6413 161.049 74.128V73.904C161.049 73.3907 160.905 73.0173 160.615 72.784C160.335 72.5413 159.911 72.42 159.341 72.42C158.772 72.42 158.343 72.5413 158.053 72.784C157.764 73.0173 157.619 73.3907 157.619 73.904V74.128C157.619 74.6413 157.764 75.0193 158.053 75.262C158.343 75.4953 158.772 75.612 159.341 75.612ZM160.531 71.874C160.531 71.4167 160.629 71.076 160.825 70.852C161.021 70.628 161.325 70.516 161.735 70.516H162.757V71.524H161.329C160.975 71.524 160.797 71.7293 160.797 72.14L160.531 71.874ZM168.92 79L166.946 71.524H168.304L169.942 77.88H170.32L171.986 71.524H173.316L174.982 77.88H175.346L176.984 71.524H178.3L176.326 79H174.114L172.798 74.072H172.448L171.118 79H168.92ZM180.04 79V72.532H178.934V71.524H181.37V79H180.04ZM179.914 70.614V69.34H181.454V70.614H179.914ZM184.932 79C184.344 79 184.05 78.7013 184.05 78.104V71.524L184.526 70.026H185.366V77.992H187.116V79H184.932ZM182.692 72.532V71.524H187.116V72.532H182.692ZM188.674 79V70.348H187.708V69.34H190.004V70.95C190.004 71.1647 189.99 71.4027 189.962 71.664C189.943 71.9253 189.91 72.2753 189.864 72.714H190.228C190.396 72.2567 190.643 71.9207 190.97 71.706C191.306 71.4913 191.735 71.384 192.258 71.384C193.042 71.384 193.63 71.6173 194.022 72.084C194.423 72.5507 194.624 73.2367 194.624 74.142V77.992H195.604V79H193.322V74.422C193.322 73.7407 193.186 73.246 192.916 72.938C192.645 72.6207 192.225 72.462 191.656 72.462C191.086 72.462 190.666 72.6207 190.396 72.938C190.134 73.246 190.004 73.7407 190.004 74.422V79H188.674ZM200.422 79V72.532H199.442V71.524H201.528V72.812H201.892C202.079 72.3267 202.34 71.9673 202.676 71.734C203.022 71.5007 203.46 71.384 203.992 71.384C204.767 71.384 205.355 71.6173 205.756 72.084C206.167 72.5507 206.372 73.2367 206.372 74.142V77.992H207.338V79H205.056V74.422C205.056 73.7407 204.921 73.246 204.65 72.938C204.389 72.6207 203.969 72.462 203.39 72.462C202.821 72.462 202.401 72.6207 202.13 72.938C201.86 73.246 201.724 73.7407 201.724 74.422V79H200.422ZM211.644 79.14C210.925 79.14 210.309 78.9907 209.796 78.692C209.292 78.3933 208.905 77.9547 208.634 77.376C208.373 76.7973 208.242 76.0927 208.242 75.262C208.242 74.422 208.373 73.7173 208.634 73.148C208.905 72.5693 209.292 72.1307 209.796 71.832C210.309 71.5333 210.925 71.384 211.644 71.384C212.335 71.384 212.923 71.524 213.408 71.804C213.893 72.0747 214.262 72.476 214.514 73.008C214.775 73.54 214.906 74.198 214.906 74.982V75.472H209.138V74.576H214.388L213.618 75.178V74.856C213.618 74.016 213.459 73.4047 213.142 73.022C212.825 72.63 212.325 72.434 211.644 72.434C210.953 72.434 210.445 72.63 210.118 73.022C209.801 73.4047 209.642 74.016 209.642 74.856V75.654C209.642 76.4753 209.801 77.082 210.118 77.474C210.445 77.866 210.953 78.062 211.644 78.062C212.092 78.062 212.442 77.992 212.694 77.852C212.955 77.7027 213.142 77.5253 213.254 77.32C213.366 77.1147 213.422 76.9233 213.422 76.746V76.69H214.794C214.626 77.4927 214.271 78.104 213.73 78.524C213.198 78.9347 212.503 79.14 211.644 79.14ZM219.153 79.14C218.369 79.14 217.771 78.9067 217.361 78.44C216.959 77.9733 216.759 77.2873 216.759 76.382V72.532H215.793V71.524H218.089V76.102C218.089 76.7833 218.219 77.2827 218.481 77.6C218.751 77.908 219.171 78.062 219.741 78.062C220.319 78.062 220.739 77.908 221.001 77.6C221.271 77.2827 221.407 76.7833 221.407 76.102V71.524H222.723V77.992H223.703V79H222.499C221.901 79 221.603 78.7013 221.603 78.104V77.712H221.239C221.061 78.1973 220.8 78.5567 220.455 78.79C220.119 79.0233 219.685 79.14 219.153 79.14ZM225.278 79V72.532H224.298V71.524H226.384V72.868H226.748C226.935 72.3827 227.187 72.0233 227.504 71.79C227.831 71.5567 228.251 71.44 228.764 71.44H229.842V72.532H228.246C227.677 72.532 227.257 72.686 226.986 72.994C226.715 73.302 226.58 73.7967 226.58 74.478V79H225.278ZM230.629 79V77.502H232.183V79H230.629ZM233.457 79V77.502H235.011V79H233.457ZM236.285 79V77.502H237.839V79H236.285Z" fill="white"/>
<g clip-path="url(#clip0_452_1646)">
<path fill-rule="evenodd" clip-rule="evenodd" d="M28.6789 94.4417C27.8166 94.4417 27.0166 94.7972 26.4566 95.3839C26.1455 95.695 25.9055 96.0772 25.7544 96.5039C25.63 96.8239 25.5678 97.1794 25.5678 97.5528C25.5678 97.7137 25.5846 97.8728 25.6122 98.031C25.6353 98.1803 25.6726 98.3252 25.7153 98.4692V98.4701C25.7304 98.5199 25.7375 98.5714 25.7544 98.6194C25.7811 98.6905 25.8166 98.7705 25.8344 98.7972C25.8433 98.8239 25.8611 98.8594 25.8789 98.8861C26.0389 99.2505 26.27 99.5705 26.59 99.8461C26.6024 99.8568 26.702 99.9305 26.8513 100.027C26.8033 100.279 26.7046 100.523 26.5109 100.718C25.99 101.238 25.1455 101.238 24.6246 100.718C24.1046 100.197 24.1046 99.3528 24.6246 98.8319C24.6949 98.7625 24.7811 98.7261 24.8611 98.6754C24.7526 98.3234 24.6789 97.9394 24.6789 97.5528C24.6789 97.0861 24.758 96.6363 24.918 96.2194H22.2095L15.9998 102.428L22.9144 109.343L29.1233 103.133V97.5528C29.1233 96.8177 28.5251 96.2194 27.79 96.2194H26.902C27.31 95.6728 27.966 95.3305 28.6789 95.3305C29.9055 95.3305 30.9011 96.3261 30.9011 97.5528H31.79C31.79 95.8372 30.3944 94.4417 28.6789 94.4417" fill="#9698A2"/>
</g>
<rect x="30" y="92" width="64" height="20" rx="10" fill="#9698A2"/>
<path d="M44.276 104.084C44.276 104.652 44.192 105.132 44.024 105.524C43.856 105.916 43.628 106.232 43.34 106.472C43.06 106.704 42.748 106.872 42.404 106.976C42.068 107.08 41.732 107.132 41.396 107.132C41.06 107.132 40.72 107.08 40.376 106.976C40.04 106.872 39.728 106.704 39.44 106.472C39.16 106.232 38.936 105.916 38.768 105.524C38.6 105.132 38.516 104.652 38.516 104.084V98.6H40.208V103.868C40.208 104.18 40.252 104.456 40.34 104.696C40.428 104.928 40.56 105.112 40.736 105.248C40.912 105.376 41.132 105.44 41.396 105.44C41.66 105.44 41.88 105.376 42.056 105.248C42.232 105.112 42.364 104.928 42.452 104.696C42.54 104.456 42.584 104.18 42.584 103.868V98.6H44.276V104.084ZM44.8929 107V106.724L46.5969 102.68L45.0129 98.876V98.6H46.7409L47.9769 101.828H48.1569L49.3689 98.6H51.0969V98.876L49.5849 102.68L51.2169 106.724V107H49.4889L48.1569 103.748H47.9769L46.6209 107H44.8929ZM54.2048 98.6C54.8688 98.6 55.4648 98.752 55.9928 99.056C56.5208 99.352 56.9408 99.808 57.2528 100.424C57.5648 101.04 57.7208 101.832 57.7208 102.8C57.7208 103.76 57.5648 104.552 57.2528 105.176C56.9408 105.792 56.5208 106.252 55.9928 106.556C55.4648 106.852 54.8688 107 54.2048 107H51.8888V98.6H54.2048ZM54.1808 105.404C54.7248 105.404 55.1648 105.176 55.5008 104.72C55.8368 104.264 56.0048 103.624 56.0048 102.8C56.0048 101.96 55.8328 101.316 55.4888 100.868C55.1528 100.42 54.7168 100.196 54.1808 100.196H53.5688V105.404H54.1808ZM62.8882 98.6V100.136H60.2602V102.188C60.5082 102.092 60.7682 102.016 61.0402 101.96C61.3202 101.904 61.5962 101.868 61.8682 101.852C62.1402 101.836 62.3922 101.844 62.6242 101.876V103.352L62.5162 103.424C62.3322 103.368 62.1162 103.336 61.8682 103.328C61.6282 103.32 61.3682 103.336 61.0882 103.376C60.8082 103.416 60.5322 103.484 60.2602 103.58V105.464H62.8882V107H58.5802V98.6H62.8882ZM68.595 104.78C68.595 105.276 68.487 105.7 68.271 106.052C68.063 106.404 67.771 106.676 67.395 106.868C67.019 107.052 66.587 107.144 66.099 107.144C65.715 107.144 65.359 107.096 65.031 107C64.703 106.912 64.419 106.804 64.179 106.676C63.947 106.548 63.775 106.44 63.663 106.352V104.708H63.879C64.135 104.94 64.447 105.148 64.815 105.332C65.191 105.508 65.551 105.596 65.895 105.596C66.079 105.596 66.243 105.568 66.387 105.512C66.539 105.448 66.659 105.36 66.747 105.248C66.835 105.136 66.879 105 66.879 104.84C66.879 104.6 66.807 104.408 66.663 104.264C66.527 104.112 66.315 103.952 66.027 103.784L65.031 103.196C64.783 103.052 64.539 102.884 64.299 102.692C64.067 102.492 63.871 102.244 63.711 101.948C63.559 101.644 63.483 101.276 63.483 100.844C63.483 100.332 63.591 99.9 63.807 99.548C64.031 99.188 64.323 98.92 64.683 98.744C65.051 98.56 65.463 98.468 65.919 98.468C66.271 98.468 66.591 98.504 66.879 98.576C67.175 98.648 67.435 98.744 67.659 98.864C67.891 98.976 68.083 99.108 68.235 99.26V100.904H68.007C67.767 100.64 67.471 100.428 67.119 100.268C66.775 100.1 66.423 100.016 66.063 100.016C65.823 100.016 65.619 100.076 65.451 100.196C65.283 100.316 65.199 100.492 65.199 100.724C65.199 100.956 65.295 101.156 65.487 101.324C65.679 101.492 65.931 101.672 66.243 101.864L67.239 102.476C67.511 102.644 67.747 102.836 67.947 103.052C68.147 103.26 68.303 103.504 68.415 103.784C68.535 104.064 68.595 104.396 68.595 104.78ZM69.4552 98.6H71.1352V107H69.4552V98.6ZM72.026 102.8C72.026 101.8 72.202 100.98 72.554 100.34C72.914 99.7 73.39 99.228 73.982 98.924C74.582 98.62 75.242 98.468 75.962 98.468C76.354 98.468 76.706 98.508 77.018 98.588C77.33 98.668 77.594 98.764 77.81 98.876C78.034 98.98 78.194 99.084 78.29 99.188V100.904H78.062C77.966 100.76 77.826 100.62 77.642 100.484C77.458 100.348 77.238 100.24 76.982 100.16C76.734 100.072 76.454 100.028 76.142 100.028C75.646 100.028 75.218 100.132 74.858 100.34C74.506 100.54 74.238 100.848 74.054 101.264C73.87 101.672 73.778 102.184 73.778 102.8C73.778 103.392 73.862 103.9 74.03 104.324C74.206 104.74 74.458 105.06 74.786 105.284C75.114 105.5 75.502 105.608 75.95 105.608C76.142 105.608 76.306 105.588 76.442 105.548C76.578 105.5 76.682 105.44 76.754 105.368V103.472H74.714V102.008H78.29V106.148C77.946 106.492 77.55 106.744 77.102 106.904C76.662 107.056 76.182 107.132 75.662 107.132C75.19 107.132 74.734 107.048 74.294 106.88C73.862 106.704 73.474 106.44 73.13 106.088C72.794 105.736 72.526 105.288 72.326 104.744C72.126 104.2 72.026 103.552 72.026 102.8ZM83.3998 98.6H85.0438V107H83.2078L81.1318 101.792H80.9998L81.0718 107H79.4278V98.6H81.2638L83.3398 103.88H83.4718L83.3998 98.6Z" fill="black"/>
<rect x="92" y="92" width="82" height="20" rx="10" fill="#9698A2"/>
<path d="M100.096 107V106.724L101.848 98.6L104.836 98.612L106.6 106.724V107H104.848L104.464 104.888H102.232L101.836 107H100.096ZM102.46 103.412H104.224L103.636 100.196H103.048L102.46 103.412ZM107.268 107V98.6H110.184C110.696 98.6 111.144 98.696 111.528 98.888C111.912 99.08 112.212 99.38 112.428 99.788C112.652 100.188 112.764 100.712 112.764 101.36C112.764 102 112.644 102.536 112.404 102.968C112.172 103.392 111.86 103.712 111.468 103.928C111.084 104.136 110.656 104.24 110.184 104.24H108.948V107H107.268ZM108.948 102.788H109.956C110.172 102.788 110.364 102.732 110.532 102.62C110.7 102.508 110.828 102.352 110.916 102.152C111.004 101.952 111.048 101.716 111.048 101.444C111.048 101.172 111.004 100.94 110.916 100.748C110.828 100.548 110.7 100.396 110.532 100.292C110.364 100.188 110.172 100.136 109.956 100.136H108.948V102.788ZM113.443 107V98.6H116.359C116.871 98.6 117.319 98.696 117.703 98.888C118.087 99.08 118.387 99.38 118.603 99.788C118.827 100.188 118.939 100.712 118.939 101.36C118.939 102 118.819 102.536 118.579 102.968C118.347 103.392 118.035 103.712 117.643 103.928C117.259 104.136 116.831 104.24 116.359 104.24H115.123V107H113.443ZM115.123 102.788H116.131C116.347 102.788 116.539 102.732 116.707 102.62C116.875 102.508 117.003 102.352 117.091 102.152C117.179 101.952 117.223 101.716 117.223 101.444C117.223 101.172 117.179 100.94 117.091 100.748C117.003 100.548 116.875 100.396 116.707 100.292C116.539 100.188 116.347 100.136 116.131 100.136H115.123V102.788ZM119.643 98.6H121.323V107H119.619L119.643 98.6ZM122.691 98.6C123.171 98.6 123.595 98.696 123.963 98.888C124.339 99.072 124.635 99.356 124.851 99.74C125.067 100.116 125.175 100.588 125.175 101.156C125.175 101.74 125.055 102.228 124.815 102.62C124.583 103.004 124.279 103.296 123.903 103.496C123.535 103.688 123.139 103.784 122.715 103.784H120.435V98.6H122.691ZM121.299 102.332H122.487C122.679 102.332 122.847 102.288 122.991 102.2C123.135 102.112 123.243 101.984 123.315 101.816C123.395 101.64 123.435 101.444 123.435 101.228C123.435 100.996 123.395 100.8 123.315 100.64C123.243 100.472 123.135 100.348 122.991 100.268C122.847 100.18 122.679 100.136 122.487 100.136H121.299V102.332ZM121.971 102.872L123.579 102.836L125.175 106.724V107H123.423L121.971 102.872ZM130.361 98.6V100.136H127.733V102.188C127.981 102.092 128.241 102.016 128.513 101.96C128.793 101.904 129.069 101.868 129.341 101.852C129.613 101.836 129.865 101.844 130.097 101.876V103.352L129.989 103.424C129.805 103.368 129.589 103.336 129.341 103.328C129.101 103.32 128.841 103.336 128.561 103.376C128.281 103.416 128.005 103.484 127.733 103.58V105.464H130.361V107H126.053V98.6H130.361ZM133.584 98.6C134.248 98.6 134.844 98.752 135.372 99.056C135.9 99.352 136.32 99.808 136.632 100.424C136.944 101.04 137.1 101.832 137.1 102.8C137.1 103.76 136.944 104.552 136.632 105.176C136.32 105.792 135.9 106.252 135.372 106.556C134.844 106.852 134.248 107 133.584 107H131.268V98.6H133.584ZM133.56 105.404C134.104 105.404 134.544 105.176 134.88 104.72C135.216 104.264 135.384 103.624 135.384 102.8C135.384 101.96 135.212 101.316 134.868 100.868C134.532 100.42 134.096 100.196 133.56 100.196H132.948V105.404H133.56ZM142.267 98.6V100.136H139.639V102.188C139.887 102.092 140.147 102.016 140.419 101.96C140.699 101.904 140.975 101.868 141.247 101.852C141.519 101.836 141.771 101.844 142.003 101.876V103.352L141.895 103.424C141.711 103.368 141.495 103.336 141.247 103.328C141.007 103.32 140.747 103.336 140.467 103.376C140.187 103.416 139.911 103.484 139.639 103.58V105.464H142.267V107H137.959V98.6H142.267ZM147.974 104.78C147.974 105.276 147.866 105.7 147.65 106.052C147.442 106.404 147.15 106.676 146.774 106.868C146.398 107.052 145.966 107.144 145.478 107.144C145.094 107.144 144.738 107.096 144.41 107C144.082 106.912 143.798 106.804 143.558 106.676C143.326 106.548 143.154 106.44 143.042 106.352V104.708H143.258C143.514 104.94 143.826 105.148 144.194 105.332C144.57 105.508 144.93 105.596 145.274 105.596C145.458 105.596 145.622 105.568 145.766 105.512C145.918 105.448 146.038 105.36 146.126 105.248C146.214 105.136 146.258 105 146.258 104.84C146.258 104.6 146.186 104.408 146.042 104.264C145.906 104.112 145.694 103.952 145.406 103.784L144.41 103.196C144.162 103.052 143.918 102.884 143.678 102.692C143.446 102.492 143.25 102.244 143.09 101.948C142.938 101.644 142.862 101.276 142.862 100.844C142.862 100.332 142.97 99.9 143.186 99.548C143.41 99.188 143.702 98.92 144.062 98.744C144.43 98.56 144.842 98.468 145.298 98.468C145.65 98.468 145.97 98.504 146.258 98.576C146.554 98.648 146.814 98.744 147.038 98.864C147.27 98.976 147.462 99.108 147.614 99.26V100.904H147.386C147.146 100.64 146.85 100.428 146.498 100.268C146.154 100.1 145.802 100.016 145.442 100.016C145.202 100.016 144.998 100.076 144.83 100.196C144.662 100.316 144.578 100.492 144.578 100.724C144.578 100.956 144.674 101.156 144.866 101.324C145.058 101.492 145.31 101.672 145.622 101.864L146.618 102.476C146.89 102.644 147.126 102.836 147.326 103.052C147.526 103.26 147.682 103.504 147.794 103.784C147.914 104.064 147.974 104.396 147.974 104.78ZM148.834 98.6H150.514V107H148.834V98.6ZM151.405 102.8C151.405 101.8 151.581 100.98 151.933 100.34C152.293 99.7 152.769 99.228 153.361 98.924C153.961 98.62 154.621 98.468 155.341 98.468C155.733 98.468 156.085 98.508 156.397 98.588C156.709 98.668 156.973 98.764 157.189 98.876C157.413 98.98 157.573 99.084 157.669 99.188V100.904H157.441C157.345 100.76 157.205 100.62 157.021 100.484C156.837 100.348 156.617 100.24 156.361 100.16C156.113 100.072 155.833 100.028 155.521 100.028C155.025 100.028 154.597 100.132 154.237 100.34C153.885 100.54 153.617 100.848 153.433 101.264C153.249 101.672 153.157 102.184 153.157 102.8C153.157 103.392 153.241 103.9 153.409 104.324C153.585 104.74 153.837 105.06 154.165 105.284C154.493 105.5 154.881 105.608 155.329 105.608C155.521 105.608 155.685 105.588 155.821 105.548C155.957 105.5 156.061 105.44 156.133 105.368V103.472H154.093V102.008H157.669V106.148C157.325 106.492 156.929 106.744 156.481 106.904C156.041 107.056 155.561 107.132 155.041 107.132C154.569 107.132 154.113 107.048 153.673 106.88C153.241 106.704 152.853 106.44 152.509 106.088C152.173 105.736 151.905 105.288 151.705 104.744C151.505 104.2 151.405 103.552 151.405 102.8ZM162.779 98.6H164.423V107H162.587L160.511 101.792H160.379L160.451 107H158.807V98.6H160.643L162.719 103.88H162.851L162.779 98.6Z" fill="black"/>
<defs>
<clipPath id="clip0_452_1646">
<rect width="16" height="16" fill="white" transform="translate(16 94)"/>
</clipPath>
</defs>
</svg>
