<svg width="257" height="128" viewBox="0 0 257 128" fill="none" xmlns="http://www.w3.org/2000/svg">
<rect x="0.5" width="256" height="128" rx="16" fill="#141519"/>
<path d="M17.186 32V22.2H20.588C21.1853 22.2 21.708 22.312 22.156 22.536C22.604 22.76 22.954 23.11 23.206 23.586C23.4673 24.0527 23.598 24.664 23.598 25.42C23.598 26.1667 23.458 26.792 23.178 27.296C22.9073 27.7907 22.5433 28.164 22.086 28.416C21.638 28.6587 21.1387 28.78 20.588 28.78H19.146V32H17.186ZM19.146 27.086H20.322C20.574 27.086 20.798 27.0207 20.994 26.89C21.19 26.7593 21.3393 26.5773 21.442 26.344C21.5447 26.1107 21.596 25.8353 21.596 25.518C21.596 25.2007 21.5447 24.93 21.442 24.706C21.3393 24.4727 21.19 24.2953 20.994 24.174C20.798 24.0527 20.574 23.992 20.322 23.992H19.146V27.086ZM24.0271 27.1C24.0271 25.9147 24.2184 24.9487 24.6011 24.202C24.9837 23.4553 25.4831 22.9093 26.0991 22.564C26.7244 22.2093 27.4011 22.032 28.1291 22.032C28.8571 22.032 29.5291 22.2093 30.1451 22.564C30.7704 22.9093 31.2744 23.4553 31.6571 24.202C32.0397 24.9487 32.2311 25.9147 32.2311 27.1C32.2311 28.2853 32.0397 29.2513 31.6571 29.998C31.2744 30.7447 30.7704 31.2953 30.1451 31.65C29.5291 31.9953 28.8571 32.168 28.1291 32.168C27.4011 32.168 26.7244 31.9953 26.0991 31.65C25.4831 31.2953 24.9837 30.7447 24.6011 29.998C24.2184 29.2513 24.0271 28.2853 24.0271 27.1ZM26.0711 27.1C26.0711 27.8093 26.1597 28.402 26.3371 28.878C26.5237 29.354 26.7711 29.7133 27.0791 29.956C27.3964 30.1893 27.7464 30.306 28.1291 30.306C28.5117 30.306 28.8617 30.1893 29.1791 29.956C29.5057 29.7133 29.7624 29.354 29.9491 28.878C30.1357 28.402 30.2291 27.8093 30.2291 27.1C30.2291 26.3813 30.1311 25.784 29.9351 25.308C29.7484 24.832 29.4964 24.4773 29.1791 24.244C28.8617 24.0107 28.5164 23.894 28.1431 23.894C27.7511 23.894 27.3964 24.0153 27.0791 24.258C26.7711 24.5007 26.5237 24.86 26.3371 25.336C26.1597 25.8027 26.0711 26.3907 26.0711 27.1ZM38.8505 29.41C38.8505 29.9887 38.7245 30.4833 38.4725 30.894C38.2298 31.3047 37.8891 31.622 37.4505 31.846C37.0118 32.0607 36.5078 32.168 35.9385 32.168C35.4905 32.168 35.0751 32.112 34.6925 32C34.3098 31.8973 33.9785 31.7713 33.6985 31.622C33.4278 31.4727 33.2271 31.3467 33.0965 31.244V29.326H33.3485C33.6471 29.5967 34.0111 29.8393 34.4405 30.054C34.8791 30.2593 35.2991 30.362 35.7005 30.362C35.9151 30.362 36.1065 30.3293 36.2745 30.264C36.4518 30.1893 36.5918 30.0867 36.6945 29.956C36.7971 29.8253 36.8485 29.6667 36.8485 29.48C36.8485 29.2 36.7645 28.976 36.5965 28.808C36.4378 28.6307 36.1905 28.444 35.8545 28.248L34.6925 27.562C34.4031 27.394 34.1185 27.198 33.8385 26.974C33.5678 26.7407 33.3391 26.4513 33.1525 26.106C32.9751 25.7513 32.8865 25.322 32.8865 24.818C32.8865 24.2207 33.0125 23.7167 33.2645 23.306C33.5258 22.886 33.8665 22.5733 34.2865 22.368C34.7158 22.1533 35.1965 22.046 35.7285 22.046C36.1391 22.046 36.5125 22.088 36.8485 22.172C37.1938 22.256 37.4971 22.368 37.7585 22.508C38.0291 22.6387 38.2531 22.7927 38.4305 22.97V24.888H38.1645C37.8845 24.58 37.5391 24.3327 37.1285 24.146C36.7271 23.95 36.3165 23.852 35.8965 23.852C35.6165 23.852 35.3785 23.922 35.1825 24.062C34.9865 24.202 34.8885 24.4073 34.8885 24.678C34.8885 24.9487 35.0005 25.182 35.2245 25.378C35.4485 25.574 35.7425 25.784 36.1065 26.008L37.2685 26.722C37.5858 26.918 37.8611 27.142 38.0945 27.394C38.3278 27.6367 38.5098 27.9213 38.6405 28.248C38.7805 28.5747 38.8505 28.962 38.8505 29.41ZM45.076 22.2V24.006H43.2V32H41.24V24.006H39.336V22.2H45.076ZM50.9366 22.2V23.992H47.8706V26.386C48.1599 26.274 48.4633 26.1853 48.7806 26.12C49.1073 26.0547 49.4293 26.0127 49.7466 25.994C50.0639 25.9753 50.3579 25.9847 50.6286 26.022V27.744L50.5026 27.828C50.2879 27.7627 50.0359 27.7253 49.7466 27.716C49.4666 27.7067 49.1633 27.7253 48.8366 27.772C48.5099 27.8187 48.1879 27.898 47.8706 28.01V30.208H50.9366V32H45.9106V22.2H50.9366ZM54.6966 22.2C55.4713 22.2 56.1666 22.3773 56.7826 22.732C57.3986 23.0773 57.8886 23.6093 58.2526 24.328C58.6166 25.0467 58.7986 25.9707 58.7986 27.1C58.7986 28.22 58.6166 29.144 58.2526 29.872C57.8886 30.5907 57.3986 31.1273 56.7826 31.482C56.1666 31.8273 55.4713 32 54.6966 32H51.9946V22.2H54.6966ZM54.6686 30.138C55.3033 30.138 55.8166 29.872 56.2086 29.34C56.6006 28.808 56.7966 28.0613 56.7966 27.1C56.7966 26.12 56.5959 25.3687 56.1946 24.846C55.8026 24.3233 55.2939 24.062 54.6686 24.062H53.9546V30.138H54.6686Z" fill="#6D6F79"/>
<path d="M67.714 31.14C66.9767 31.14 66.3607 31.0233 65.866 30.79C65.3713 30.5473 64.984 30.174 64.704 29.67C64.424 29.166 64.242 28.5127 64.158 27.71H65.544V27.948C65.544 28.6387 65.726 29.1613 66.09 29.516C66.4633 29.8613 67.0047 30.034 67.714 30.034C68.3767 30.034 68.8947 29.8987 69.268 29.628C69.6507 29.348 69.842 28.956 69.842 28.452V28.088C69.842 27.584 69.716 27.206 69.464 26.954C69.212 26.6927 68.8387 26.562 68.344 26.562H66.44V25.582H68.344C68.82 25.582 69.1793 25.4607 69.422 25.218C69.674 24.966 69.8 24.602 69.8 24.126V23.818C69.8 23.342 69.6133 22.9733 69.24 22.712C68.876 22.4413 68.3673 22.306 67.714 22.306C67.0047 22.306 66.468 22.4787 66.104 22.824C65.7493 23.1693 65.572 23.692 65.572 24.392V24.63H64.2C64.2747 23.8273 64.4473 23.174 64.718 22.67C64.998 22.166 65.3807 21.7973 65.866 21.564C66.3607 21.3213 66.9767 21.2 67.714 21.2C68.442 21.2 69.0627 21.3073 69.576 21.522C70.0987 21.7273 70.4953 22.0307 70.766 22.432C71.046 22.8333 71.186 23.3233 71.186 23.902C71.186 24.49 71.046 24.952 70.766 25.288C70.486 25.624 70.0893 25.8247 69.576 25.89V26.254C70.108 26.31 70.514 26.5153 70.794 26.87C71.0833 27.2247 71.228 27.7147 71.228 28.34C71.228 28.9373 71.088 29.446 70.808 29.866C70.528 30.2767 70.1267 30.594 69.604 30.818C69.0813 31.0327 68.4513 31.14 67.714 31.14ZM75.6563 31.14C75.0683 31.14 74.5503 30.9907 74.1023 30.692C73.6636 30.384 73.3276 29.9407 73.0943 29.362C72.8609 28.7833 72.7443 28.0833 72.7443 27.262C72.7443 26.4313 72.8609 25.7313 73.0943 25.162C73.3276 24.5833 73.6636 24.1447 74.1023 23.846C74.5409 23.538 75.0589 23.384 75.6563 23.384C76.1976 23.384 76.6409 23.5007 76.9863 23.734C77.3316 23.9673 77.6069 24.3313 77.8123 24.826H78.1623C78.1156 24.3873 78.0783 24.0373 78.0503 23.776C78.0316 23.5147 78.0223 23.2767 78.0223 23.062V22.348H76.9163V21.34H79.3383V29.992H80.3183V31H79.1143C78.5263 31 78.2323 30.7013 78.2323 30.104V29.614H77.8683C77.6629 30.118 77.3783 30.5007 77.0143 30.762C76.6503 31.014 76.1976 31.14 75.6563 31.14ZM76.0903 30.062C76.7529 30.062 77.2383 29.8707 77.5463 29.488C77.8636 29.096 78.0223 28.4893 78.0223 27.668V26.856C78.0223 26.0253 77.8636 25.4187 77.5463 25.036C77.2383 24.6533 76.7529 24.462 76.0903 24.462C75.4183 24.462 74.9236 24.6533 74.6063 25.036C74.2983 25.4187 74.1443 26.0253 74.1443 26.856V27.668C74.1443 28.4893 74.2983 29.096 74.6063 29.488C74.9236 29.8707 75.4183 30.062 76.0903 30.062ZM86.8531 31.14C86.1158 31.14 85.5371 30.958 85.1171 30.594C84.6971 30.2207 84.4871 29.7073 84.4871 29.054C84.4871 28.382 84.7064 27.8593 85.1451 27.486C85.5931 27.1127 86.2464 26.884 87.1051 26.8L89.1911 26.59V27.486L87.4831 27.654C86.9138 27.71 86.4984 27.836 86.2371 28.032C85.9758 28.2187 85.8451 28.494 85.8451 28.858V28.942C85.8451 29.3153 85.9758 29.6 86.2371 29.796C86.5078 29.9827 86.8904 30.076 87.3851 30.076C87.9918 30.076 88.4444 29.9453 88.7431 29.684C89.0418 29.4133 89.1911 29.0073 89.1911 28.466V27.304V27.108V26.226C89.1911 25.61 89.0651 25.162 88.8131 24.882C88.5704 24.602 88.1738 24.462 87.6231 24.462C87.2311 24.462 86.9138 24.5273 86.6711 24.658C86.4378 24.7793 86.2651 24.938 86.1531 25.134C86.0504 25.33 85.9991 25.5447 85.9991 25.778V25.834H84.6551C84.7858 25.0127 85.0984 24.4013 85.5931 24C86.0971 23.5893 86.7831 23.384 87.6511 23.384C88.5938 23.384 89.3078 23.622 89.7931 24.098C90.2784 24.5647 90.5211 25.2553 90.5211 26.17V29.992H91.4871V31H90.2831C89.6951 31 89.4011 30.706 89.4011 30.118V29.74H89.0511C88.8644 30.216 88.5938 30.5707 88.2391 30.804C87.8938 31.028 87.4318 31.14 86.8531 31.14ZM92.3514 32.848V31.84H96.6354C96.934 31.84 97.144 31.7933 97.2654 31.7C97.396 31.6067 97.4614 31.4527 97.4614 31.238C97.4614 31.014 97.396 30.8553 97.2654 30.762C97.144 30.6687 96.934 30.622 96.6354 30.622H93.8914C93.3874 30.622 93.0047 30.5333 92.7434 30.356C92.4914 30.1693 92.3654 29.9033 92.3654 29.558C92.3654 29.25 92.4634 29.0073 92.6594 28.83C92.8647 28.6527 93.1587 28.5453 93.5414 28.508V28.186C93.1307 28.018 92.8227 27.752 92.6174 27.388C92.412 27.0147 92.3094 26.562 92.3094 26.03C92.3094 25.1807 92.5754 24.5273 93.1074 24.07C93.6394 23.6127 94.3814 23.384 95.3334 23.384C96.2854 23.384 97.0227 23.6127 97.5454 24.07C98.0774 24.5273 98.3434 25.1807 98.3434 26.03C98.3434 26.8513 98.082 27.486 97.5594 27.934C97.0367 28.3727 96.304 28.592 95.3614 28.592H94.2834C94.0314 28.592 93.8494 28.6293 93.7374 28.704C93.6347 28.7787 93.5834 28.9 93.5834 29.068C93.5834 29.236 93.6347 29.3573 93.7374 29.432C93.8494 29.5067 94.0314 29.544 94.2834 29.544H96.9154C97.522 29.544 97.984 29.6793 98.3014 29.95C98.628 30.2207 98.7914 30.6173 98.7914 31.14C98.7914 31.7 98.6094 32.1247 98.2454 32.414C97.8907 32.7033 97.3774 32.848 96.7054 32.848H92.3514ZM95.3334 27.612C95.9027 27.612 96.3274 27.4953 96.6074 27.262C96.8967 27.0193 97.0414 26.6413 97.0414 26.128V25.904C97.0414 25.3907 96.8967 25.0173 96.6074 24.784C96.3274 24.5413 95.9027 24.42 95.3334 24.42C94.764 24.42 94.3347 24.5413 94.0454 24.784C93.756 25.0173 93.6114 25.3907 93.6114 25.904V26.128C93.6114 26.6413 93.756 27.0193 94.0454 27.262C94.3347 27.4953 94.764 27.612 95.3334 27.612ZM96.5234 23.874C96.5234 23.4167 96.6214 23.076 96.8174 22.852C97.0134 22.628 97.3167 22.516 97.7274 22.516H98.7494V23.524H97.3214C96.9667 23.524 96.7894 23.7293 96.7894 24.14L96.5234 23.874ZM103.244 31.14C102.526 31.14 101.91 30.9907 101.396 30.692C100.883 30.3933 100.491 29.9547 100.22 29.376C99.9496 28.7973 99.8143 28.0927 99.8143 27.262C99.8143 26.422 99.9496 25.7173 100.22 25.148C100.491 24.5693 100.883 24.1307 101.396 23.832C101.91 23.5333 102.526 23.384 103.244 23.384C103.972 23.384 104.588 23.5333 105.092 23.832C105.596 24.1307 105.984 24.5693 106.254 25.148C106.525 25.7173 106.66 26.422 106.66 27.262C106.66 28.0927 106.525 28.7973 106.254 29.376C105.984 29.9547 105.596 30.3933 105.092 30.692C104.588 30.9907 103.972 31.14 103.244 31.14ZM103.244 30.062C103.935 30.062 104.444 29.866 104.77 29.474C105.097 29.082 105.26 28.4753 105.26 27.654V26.87C105.26 26.0487 105.097 25.442 104.77 25.05C104.444 24.658 103.935 24.462 103.244 24.462C102.544 24.462 102.031 24.658 101.704 25.05C101.378 25.442 101.214 26.0487 101.214 26.87V27.654C101.214 28.4753 101.378 29.082 101.704 29.474C102.031 29.866 102.544 30.062 103.244 30.062Z" fill="#9698A2"/>
<path d="M234.564 19.3707H236.864L231.839 25.114L237.75 32.9293H233.121L229.496 28.1893L225.348 32.9293H223.046L228.421 26.7862L222.75 19.3707H227.496L230.773 23.7032L234.564 19.3707ZM233.756 31.5526H235.031L226.804 20.6751H225.436L233.756 31.5526Z" fill="#9698A2"/>
<path d="M20.28 59.14C19.524 59.14 18.8987 59.0047 18.404 58.734C17.9093 58.454 17.5407 58.0293 17.298 57.46C17.0647 56.8813 16.948 56.1487 16.948 55.262V54.954H18.306V55.64C18.306 56.48 18.46 57.0867 18.768 57.46C19.076 57.8333 19.58 58.02 20.28 58.02C20.98 58.02 21.484 57.8333 21.792 57.46C22.1 57.0867 22.254 56.4613 22.254 55.584V50.39H18.964V49.34H23.612V55.178C23.612 56.0833 23.4907 56.83 23.248 57.418C23.0053 58.006 22.6367 58.44 22.142 58.72C21.6567 59 21.036 59.14 20.28 59.14ZM28.3421 59.14C27.5581 59.14 26.9608 58.9067 26.5501 58.44C26.1488 57.9733 25.9481 57.2873 25.9481 56.382V52.532H24.9821V51.524H27.2781V56.102C27.2781 56.7833 27.4088 57.2827 27.6701 57.6C27.9408 57.908 28.3608 58.062 28.9301 58.062C29.5088 58.062 29.9288 57.908 30.1901 57.6C30.4608 57.2827 30.5961 56.7833 30.5961 56.102V51.524H31.9121V57.992H32.8921V59H31.6881C31.0908 59 30.7921 58.7013 30.7921 58.104V57.712H30.4281C30.2508 58.1973 29.9895 58.5567 29.6441 58.79C29.3081 59.0233 28.8741 59.14 28.3421 59.14ZM36.9314 59.14C35.9887 59.14 35.2654 58.944 34.7614 58.552C34.2574 58.16 33.9354 57.5393 33.7954 56.69H35.1254V56.746C35.1254 56.97 35.1814 57.1847 35.2934 57.39C35.4054 57.5953 35.592 57.7633 35.8534 57.894C36.1147 58.0247 36.474 58.09 36.9314 58.09C37.482 58.09 37.9114 57.9967 38.2194 57.81C38.5274 57.614 38.6814 57.3387 38.6814 56.984C38.6814 56.7133 38.588 56.508 38.4014 56.368C38.2147 56.2187 37.8927 56.0927 37.4354 55.99L35.8954 55.654C35.186 55.486 34.668 55.2433 34.3414 54.926C34.024 54.6087 33.8654 54.184 33.8654 53.652C33.8654 52.924 34.1267 52.364 34.6494 51.972C35.1814 51.58 35.928 51.384 36.8894 51.384C37.8134 51.384 38.5274 51.58 39.0314 51.972C39.5354 52.364 39.8574 52.9847 39.9974 53.834H38.6674V53.778C38.6674 53.554 38.616 53.3393 38.5134 53.134C38.4107 52.9287 38.2287 52.7607 37.9674 52.63C37.706 52.4993 37.3467 52.434 36.8894 52.434C36.348 52.434 35.928 52.5273 35.6294 52.714C35.3307 52.9007 35.1814 53.176 35.1814 53.54C35.1814 53.8013 35.2747 54.0067 35.4614 54.156C35.648 54.3053 35.9607 54.4313 36.3994 54.534L37.9394 54.87C38.658 55.038 39.1807 55.276 39.5074 55.584C39.834 55.892 39.9974 56.3167 39.9974 56.858C39.9974 57.586 39.7314 58.1507 39.1994 58.552C38.6674 58.944 37.9114 59.14 36.9314 59.14ZM43.0945 59C42.5065 59 42.2125 58.7013 42.2125 58.104V51.524L42.6885 50.026H43.5285V57.992H45.2785V59H43.0945ZM40.8545 52.532V51.524H45.2785V52.532H40.8545ZM50.8024 50.236C50.8024 49.6387 51.0964 49.34 51.6844 49.34H53.9804V50.348H52.1184V59H50.8024V50.236ZM49.5984 59V57.992H53.7704V59H49.5984ZM49.5004 52.532V51.524H53.9804V52.532H49.5004ZM55.7164 59V52.532H54.6104V51.524H57.0464V59H55.7164ZM55.5904 50.614V49.34H57.1164V50.614H55.5904ZM53.4484 51.524H54.9604V52.532H53.4484V51.524ZM59.4322 59V52.532H58.4522V51.524H60.5382V52.812H60.9022C61.0889 52.3267 61.3502 51.9673 61.6862 51.734C62.0315 51.5007 62.4702 51.384 63.0022 51.384C63.7769 51.384 64.3649 51.6173 64.7662 52.084C65.1769 52.5507 65.3822 53.2367 65.3822 54.142V57.992H66.3482V59H64.0662V54.422C64.0662 53.7407 63.9309 53.246 63.6602 52.938C63.3989 52.6207 62.9789 52.462 62.4002 52.462C61.8309 52.462 61.4109 52.6207 61.1402 52.938C60.8695 53.246 60.7342 53.7407 60.7342 54.422V59H59.4322ZM67.9658 59V52.532H66.8598V51.524H69.2958V59H67.9658ZM67.8398 50.614V49.34H69.3798V50.614H67.8398ZM74.1462 59.14C73.2035 59.14 72.4802 58.944 71.9762 58.552C71.4722 58.16 71.1502 57.5393 71.0102 56.69H72.3402V56.746C72.3402 56.97 72.3962 57.1847 72.5082 57.39C72.6202 57.5953 72.8069 57.7633 73.0682 57.894C73.3295 58.0247 73.6889 58.09 74.1462 58.09C74.6969 58.09 75.1262 57.9967 75.4342 57.81C75.7422 57.614 75.8962 57.3387 75.8962 56.984C75.8962 56.7133 75.8029 56.508 75.6162 56.368C75.4295 56.2187 75.1075 56.0927 74.6502 55.99L73.1102 55.654C72.4009 55.486 71.8829 55.2433 71.5562 54.926C71.2389 54.6087 71.0802 54.184 71.0802 53.652C71.0802 52.924 71.3415 52.364 71.8642 51.972C72.3962 51.58 73.1429 51.384 74.1042 51.384C75.0282 51.384 75.7422 51.58 76.2462 51.972C76.7502 52.364 77.0722 52.9847 77.2122 53.834H75.8822V53.778C75.8822 53.554 75.8309 53.3393 75.7282 53.134C75.6255 52.9287 75.4435 52.7607 75.1822 52.63C74.9209 52.4993 74.5615 52.434 74.1042 52.434C73.5629 52.434 73.1429 52.5273 72.8442 52.714C72.5455 52.9007 72.3962 53.176 72.3962 53.54C72.3962 53.8013 72.4895 54.0067 72.6762 54.156C72.8629 54.3053 73.1755 54.4313 73.6142 54.534L75.1542 54.87C75.8729 55.038 76.3955 55.276 76.7222 55.584C77.0489 55.892 77.2122 56.3167 77.2122 56.858C77.2122 57.586 76.9462 58.1507 76.4142 58.552C75.8822 58.944 75.1262 59.14 74.1462 59.14ZM78.9374 59V50.348H77.9714V49.34H80.2674V50.95C80.2674 51.1647 80.2534 51.4027 80.2254 51.664C80.2067 51.9253 80.174 52.2753 80.1274 52.714H80.4914C80.6594 52.2567 80.9067 51.9207 81.2334 51.706C81.5694 51.4913 81.9987 51.384 82.5214 51.384C83.3054 51.384 83.8934 51.6173 84.2854 52.084C84.6867 52.5507 84.8874 53.2367 84.8874 54.142V57.992H85.8674V59H83.5854V54.422C83.5854 53.7407 83.45 53.246 83.1794 52.938C82.9087 52.6207 82.4887 52.462 81.9194 52.462C81.35 52.462 80.93 52.6207 80.6594 52.938C80.398 53.246 80.2674 53.7407 80.2674 54.422V59H78.9374ZM90.1635 59.14C89.4448 59.14 88.8288 58.9907 88.3155 58.692C87.8115 58.3933 87.4242 57.9547 87.1535 57.376C86.8922 56.7973 86.7615 56.0927 86.7615 55.262C86.7615 54.422 86.8922 53.7173 87.1535 53.148C87.4242 52.5693 87.8115 52.1307 88.3155 51.832C88.8288 51.5333 89.4448 51.384 90.1635 51.384C90.8542 51.384 91.4422 51.524 91.9275 51.804C92.4128 52.0747 92.7815 52.476 93.0335 53.008C93.2948 53.54 93.4255 54.198 93.4255 54.982V55.472H87.6575V54.576H92.9075L92.1375 55.178V54.856C92.1375 54.016 91.9788 53.4047 91.6615 53.022C91.3442 52.63 90.8448 52.434 90.1635 52.434C89.4728 52.434 88.9642 52.63 88.6375 53.022C88.3202 53.4047 88.1615 54.016 88.1615 54.856V55.654C88.1615 56.4753 88.3202 57.082 88.6375 57.474C88.9642 57.866 89.4728 58.062 90.1635 58.062C90.6115 58.062 90.9615 57.992 91.2135 57.852C91.4748 57.7027 91.6615 57.5253 91.7735 57.32C91.8855 57.1147 91.9415 56.9233 91.9415 56.746V56.69H93.3135C93.1455 57.4927 92.7908 58.104 92.2495 58.524C91.7175 58.9347 91.0222 59.14 90.1635 59.14ZM97.6582 59.14C97.0702 59.14 96.5522 58.9907 96.1042 58.692C95.6656 58.384 95.3296 57.9407 95.0962 57.362C94.8629 56.7833 94.7462 56.0833 94.7462 55.262C94.7462 54.4313 94.8629 53.7313 95.0962 53.162C95.3296 52.5833 95.6656 52.1447 96.1042 51.846C96.5429 51.538 97.0609 51.384 97.6582 51.384C98.1996 51.384 98.6429 51.5007 98.9882 51.734C99.3336 51.9673 99.6089 52.3313 99.8142 52.826H100.164C100.118 52.3873 100.08 52.0373 100.052 51.776C100.034 51.5147 100.024 51.2767 100.024 51.062V50.348H98.9182V49.34H101.34V57.992H102.32V59H101.116C100.528 59 100.234 58.7013 100.234 58.104V57.614H99.8702C99.6649 58.118 99.3802 58.5007 99.0162 58.762C98.6522 59.014 98.1996 59.14 97.6582 59.14ZM98.0922 58.062C98.7549 58.062 99.2402 57.8707 99.5482 57.488C99.8656 57.096 100.024 56.4893 100.024 55.668V54.856C100.024 54.0253 99.8656 53.4187 99.5482 53.036C99.2402 52.6533 98.7549 52.462 98.0922 52.462C97.4202 52.462 96.9256 52.6533 96.6082 53.036C96.3002 53.4187 96.1462 54.0253 96.1462 54.856V55.668C96.1462 56.4893 96.3002 57.096 96.6082 57.488C96.9256 57.8707 97.4202 58.062 98.0922 58.062ZM108.855 59.14C108.118 59.14 107.539 58.958 107.119 58.594C106.699 58.2207 106.489 57.7073 106.489 57.054C106.489 56.382 106.708 55.8593 107.147 55.486C107.595 55.1127 108.248 54.884 109.107 54.8L111.193 54.59V55.486L109.485 55.654C108.916 55.71 108.5 55.836 108.239 56.032C107.978 56.2187 107.847 56.494 107.847 56.858V56.942C107.847 57.3153 107.978 57.6 108.239 57.796C108.51 57.9827 108.892 58.076 109.387 58.076C109.994 58.076 110.446 57.9453 110.745 57.684C111.044 57.4133 111.193 57.0073 111.193 56.466V55.304V55.108V54.226C111.193 53.61 111.067 53.162 110.815 52.882C110.572 52.602 110.176 52.462 109.625 52.462C109.233 52.462 108.916 52.5273 108.673 52.658C108.44 52.7793 108.267 52.938 108.155 53.134C108.052 53.33 108.001 53.5447 108.001 53.778V53.834H106.657C106.788 53.0127 107.1 52.4013 107.595 52C108.099 51.5893 108.785 51.384 109.653 51.384C110.596 51.384 111.31 51.622 111.795 52.098C112.28 52.5647 112.523 53.2553 112.523 54.17V57.992H113.489V59H112.285C111.697 59 111.403 58.706 111.403 58.118V57.74H111.053C110.866 58.216 110.596 58.5707 110.241 58.804C109.896 59.028 109.434 59.14 108.855 59.14ZM120.924 59.14C120.224 59.14 119.622 58.9953 119.118 58.706C118.623 58.4073 118.241 57.9687 117.97 57.39C117.709 56.8113 117.578 56.102 117.578 55.262C117.578 54.4127 117.709 53.7033 117.97 53.134C118.241 52.5553 118.623 52.1213 119.118 51.832C119.622 51.5333 120.224 51.384 120.924 51.384C121.811 51.384 122.529 51.608 123.08 52.056C123.631 52.504 123.976 53.162 124.116 54.03H122.786V53.96C122.786 53.736 122.721 53.512 122.59 53.288C122.469 53.0547 122.273 52.8587 122.002 52.7C121.731 52.5413 121.372 52.462 120.924 52.462C120.271 52.462 119.781 52.6533 119.454 53.036C119.137 53.4187 118.978 54.0253 118.978 54.856V55.668C118.978 56.4893 119.137 57.096 119.454 57.488C119.781 57.8707 120.271 58.062 120.924 58.062C121.372 58.062 121.731 57.9827 122.002 57.824C122.273 57.656 122.469 57.4507 122.59 57.208C122.721 56.9653 122.786 56.718 122.786 56.466V56.382H124.13C124.009 57.278 123.668 57.964 123.108 58.44C122.557 58.9067 121.829 59.14 120.924 59.14ZM128.869 59.14C128.151 59.14 127.535 58.9907 127.021 58.692C126.508 58.3933 126.116 57.9547 125.845 57.376C125.575 56.7973 125.439 56.0927 125.439 55.262C125.439 54.422 125.575 53.7173 125.845 53.148C126.116 52.5693 126.508 52.1307 127.021 51.832C127.535 51.5333 128.151 51.384 128.869 51.384C129.597 51.384 130.213 51.5333 130.717 51.832C131.221 52.1307 131.609 52.5693 131.879 53.148C132.15 53.7173 132.285 54.422 132.285 55.262C132.285 56.0927 132.15 56.7973 131.879 57.376C131.609 57.9547 131.221 58.3933 130.717 58.692C130.213 58.9907 129.597 59.14 128.869 59.14ZM128.869 58.062C129.56 58.062 130.069 57.866 130.395 57.474C130.722 57.082 130.885 56.4753 130.885 55.654V54.87C130.885 54.0487 130.722 53.442 130.395 53.05C130.069 52.658 129.56 52.462 128.869 52.462C128.169 52.462 127.656 52.658 127.329 53.05C127.003 53.442 126.839 54.0487 126.839 54.87V55.654C126.839 56.4753 127.003 57.082 127.329 57.474C127.656 57.866 128.169 58.062 128.869 58.062ZM134.161 59V50.348H133.055V49.34H135.477V59H134.161ZM137.894 59V50.348H136.788V49.34H139.21V59H137.894ZM143.39 59.14C142.653 59.14 142.074 58.958 141.654 58.594C141.234 58.2207 141.024 57.7073 141.024 57.054C141.024 56.382 141.244 55.8593 141.682 55.486C142.13 55.1127 142.784 54.884 143.642 54.8L145.728 54.59V55.486L144.02 55.654C143.451 55.71 143.036 55.836 142.774 56.032C142.513 56.2187 142.382 56.494 142.382 56.858V56.942C142.382 57.3153 142.513 57.6 142.774 57.796C143.045 57.9827 143.428 58.076 143.922 58.076C144.529 58.076 144.982 57.9453 145.28 57.684C145.579 57.4133 145.728 57.0073 145.728 56.466V55.304V55.108V54.226C145.728 53.61 145.602 53.162 145.35 52.882C145.108 52.602 144.711 52.462 144.16 52.462C143.768 52.462 143.451 52.5273 143.208 52.658C142.975 52.7793 142.802 52.938 142.69 53.134C142.588 53.33 142.536 53.5447 142.536 53.778V53.834H141.192C141.323 53.0127 141.636 52.4013 142.13 52C142.634 51.5893 143.32 51.384 144.188 51.384C145.131 51.384 145.845 51.622 146.33 52.098C146.816 52.5647 147.058 53.2553 147.058 54.17V57.992H148.024V59H146.82C146.232 59 145.938 58.706 145.938 58.118V57.74H145.588C145.402 58.216 145.131 58.5707 144.776 58.804C144.431 59.028 143.969 59.14 143.39 59.14ZM152.906 59.14C152.374 59.14 151.926 59.014 151.562 58.762C151.198 58.5007 150.914 58.118 150.708 57.614H150.344V59H149.238V50.348H148.258V49.34H150.554V51.062C150.554 51.2767 150.54 51.5147 150.512 51.776C150.494 52.0373 150.461 52.3873 150.414 52.826H150.778C150.974 52.3313 151.245 51.9673 151.59 51.734C151.945 51.5007 152.384 51.384 152.906 51.384C153.522 51.384 154.045 51.538 154.474 51.846C154.913 52.1447 155.249 52.5833 155.482 53.162C155.716 53.7313 155.832 54.4313 155.832 55.262C155.832 56.0833 155.716 56.7833 155.482 57.362C155.249 57.9407 154.913 58.384 154.474 58.692C154.036 58.9907 153.513 59.14 152.906 59.14ZM152.5 58.062C153.163 58.062 153.648 57.8707 153.956 57.488C154.274 57.096 154.432 56.4893 154.432 55.668V54.856C154.432 54.0253 154.274 53.4187 153.956 53.036C153.648 52.6533 153.163 52.462 152.5 52.462C151.828 52.462 151.334 52.6533 151.016 53.036C150.708 53.4187 150.554 54.0253 150.554 54.856V55.668C150.554 56.4893 150.708 57.096 151.016 57.488C151.334 57.8707 151.828 58.062 152.5 58.062ZM160.574 59.14C159.856 59.14 159.24 58.9907 158.726 58.692C158.213 58.3933 157.821 57.9547 157.55 57.376C157.28 56.7973 157.144 56.0927 157.144 55.262C157.144 54.422 157.28 53.7173 157.55 53.148C157.821 52.5693 158.213 52.1307 158.726 51.832C159.24 51.5333 159.856 51.384 160.574 51.384C161.302 51.384 161.918 51.5333 162.422 51.832C162.926 52.1307 163.314 52.5693 163.584 53.148C163.855 53.7173 163.99 54.422 163.99 55.262C163.99 56.0927 163.855 56.7973 163.584 57.376C163.314 57.9547 162.926 58.3933 162.422 58.692C161.918 58.9907 161.302 59.14 160.574 59.14ZM160.574 58.062C161.265 58.062 161.774 57.866 162.1 57.474C162.427 57.082 162.59 56.4753 162.59 55.654V54.87C162.59 54.0487 162.427 53.442 162.1 53.05C161.774 52.658 161.265 52.462 160.574 52.462C159.874 52.462 159.361 52.658 159.034 53.05C158.708 53.442 158.544 54.0487 158.544 54.87V55.654C158.544 56.4753 158.708 57.082 159.034 57.474C159.361 57.866 159.874 58.062 160.574 58.062ZM165.922 59V52.532H164.942V51.524H167.028V52.868H167.392C167.579 52.3827 167.831 52.0233 168.148 51.79C168.475 51.5567 168.895 51.44 169.408 51.44H170.486V52.532H168.89C168.321 52.532 167.901 52.686 167.63 52.994C167.36 53.302 167.224 53.7967 167.224 54.478V59H165.922ZM173.332 59.14C172.594 59.14 172.016 58.958 171.596 58.594C171.176 58.2207 170.966 57.7073 170.966 57.054C170.966 56.382 171.185 55.8593 171.624 55.486C172.072 55.1127 172.725 54.884 173.584 54.8L175.67 54.59V55.486L173.962 55.654C173.392 55.71 172.977 55.836 172.716 56.032C172.454 56.2187 172.324 56.494 172.324 56.858V56.942C172.324 57.3153 172.454 57.6 172.716 57.796C172.986 57.9827 173.369 58.076 173.864 58.076C174.47 58.076 174.923 57.9453 175.222 57.684C175.52 57.4133 175.67 57.0073 175.67 56.466V55.304V55.108V54.226C175.67 53.61 175.544 53.162 175.292 52.882C175.049 52.602 174.652 52.462 174.102 52.462C173.71 52.462 173.392 52.5273 173.15 52.658C172.916 52.7793 172.744 52.938 172.632 53.134C172.529 53.33 172.478 53.5447 172.478 53.778V53.834H171.134C171.264 53.0127 171.577 52.4013 172.072 52C172.576 51.5893 173.262 51.384 174.13 51.384C175.072 51.384 175.786 51.622 176.272 52.098C176.757 52.5647 177 53.2553 177 54.17V57.992H177.966V59H176.762C176.174 59 175.88 58.706 175.88 58.118V57.74H175.53C175.343 58.216 175.072 58.5707 174.718 58.804C174.372 59.028 173.91 59.14 173.332 59.14ZM180.538 59C179.95 59 179.656 58.7013 179.656 58.104V51.524L180.132 50.026H180.972V57.992H182.722V59H180.538ZM178.298 52.532V51.524H182.722V52.532H178.298ZM184.573 59V52.532H183.467V51.524H185.903V59H184.573ZM184.447 50.614V49.34H185.987V50.614H184.447ZM189.578 59L187.338 51.524H188.724L190.614 57.88H190.978L192.854 51.524H194.184L191.944 59H189.578ZM198.431 59.14C197.712 59.14 197.096 58.9907 196.583 58.692C196.079 58.3933 195.692 57.9547 195.421 57.376C195.16 56.7973 195.029 56.0927 195.029 55.262C195.029 54.422 195.16 53.7173 195.421 53.148C195.692 52.5693 196.079 52.1307 196.583 51.832C197.096 51.5333 197.712 51.384 198.431 51.384C199.122 51.384 199.71 51.524 200.195 51.804C200.68 52.0747 201.049 52.476 201.301 53.008C201.562 53.54 201.693 54.198 201.693 54.982V55.472H195.925V54.576H201.175L200.405 55.178V54.856C200.405 54.016 200.246 53.4047 199.929 53.022C199.612 52.63 199.112 52.434 198.431 52.434C197.74 52.434 197.232 52.63 196.905 53.022C196.588 53.4047 196.429 54.016 196.429 54.856V55.654C196.429 56.4753 196.588 57.082 196.905 57.474C197.232 57.866 197.74 58.062 198.431 58.062C198.879 58.062 199.229 57.992 199.481 57.852C199.742 57.7027 199.929 57.5253 200.041 57.32C200.153 57.1147 200.209 56.9233 200.209 56.746V56.69H201.581C201.413 57.4927 201.058 58.104 200.517 58.524C199.985 58.9347 199.29 59.14 198.431 59.14ZM17.774 80.848V72.532H16.794V71.524H18.88V72.91H19.244C19.4587 72.3967 19.7433 72.014 20.098 71.762C20.462 71.51 20.9147 71.384 21.456 71.384C22.0627 71.384 22.5807 71.538 23.01 71.846C23.4487 72.1447 23.7847 72.5833 24.018 73.162C24.2513 73.7313 24.368 74.4313 24.368 75.262C24.368 76.0833 24.2513 76.7833 24.018 77.362C23.7847 77.9407 23.4487 78.384 23.01 78.692C22.5807 78.9907 22.0627 79.14 21.456 79.14C20.924 79.14 20.4807 79.0233 20.126 78.79C19.7807 78.5567 19.51 78.1927 19.314 77.698H18.95C18.9967 78.1367 19.0293 78.4867 19.048 78.748C19.076 79.0093 19.09 79.2427 19.09 79.448V80.848H17.774ZM21.022 78.062C21.694 78.062 22.1887 77.8707 22.506 77.488C22.8233 77.096 22.982 76.4893 22.982 75.668V74.856C22.982 74.0253 22.8233 73.4187 22.506 73.036C22.1887 72.6533 21.694 72.462 21.022 72.462C20.3593 72.462 19.8693 72.6533 19.552 73.036C19.244 73.4187 19.09 74.0253 19.09 74.856V75.668C19.09 76.4893 19.244 77.096 19.552 77.488C19.8693 77.8707 20.3593 78.062 21.022 78.062ZM26.3189 79V72.532H25.3389V71.524H27.4249V72.868H27.7889C27.9756 72.3827 28.2276 72.0233 28.5449 71.79C28.8716 71.5567 29.2916 71.44 29.8049 71.44H30.8829V72.532H29.2869C28.7176 72.532 28.2976 72.686 28.0269 72.994C27.7563 73.302 27.6209 73.7967 27.6209 74.478V79H26.3189ZM34.8478 79.14C34.1291 79.14 33.5131 78.9907 32.9998 78.692C32.4864 78.3933 32.0944 77.9547 31.8238 77.376C31.5531 76.7973 31.4178 76.0927 31.4178 75.262C31.4178 74.422 31.5531 73.7173 31.8238 73.148C32.0944 72.5693 32.4864 72.1307 32.9998 71.832C33.5131 71.5333 34.1291 71.384 34.8478 71.384C35.5758 71.384 36.1918 71.5333 36.6958 71.832C37.1998 72.1307 37.5871 72.5693 37.8578 73.148C38.1284 73.7173 38.2638 74.422 38.2638 75.262C38.2638 76.0927 38.1284 76.7973 37.8578 77.376C37.5871 77.9547 37.1998 78.3933 36.6958 78.692C36.1918 78.9907 35.5758 79.14 34.8478 79.14ZM34.8478 78.062C35.5384 78.062 36.0471 77.866 36.3738 77.474C36.7004 77.082 36.8638 76.4753 36.8638 75.654V74.87C36.8638 74.0487 36.7004 73.442 36.3738 73.05C36.0471 72.658 35.5384 72.462 34.8478 72.462C34.1478 72.462 33.6344 72.658 33.3078 73.05C32.9811 73.442 32.8178 74.0487 32.8178 74.87V75.654C32.8178 76.4753 32.9811 77.082 33.3078 77.474C33.6344 77.866 34.1478 78.062 34.8478 78.062ZM39.0899 80.848V79.84H40.2939V72.532H39.1879V71.524H41.6239V79.952C41.6239 80.5493 41.3252 80.848 40.7279 80.848H39.0899ZM40.1679 70.614V69.34H41.7079V70.614H40.1679ZM46.7963 79.14C46.0777 79.14 45.4617 78.9907 44.9483 78.692C44.4443 78.3933 44.057 77.9547 43.7863 77.376C43.525 76.7973 43.3943 76.0927 43.3943 75.262C43.3943 74.422 43.525 73.7173 43.7863 73.148C44.057 72.5693 44.4443 72.1307 44.9483 71.832C45.4617 71.5333 46.0777 71.384 46.7963 71.384C47.487 71.384 48.075 71.524 48.5603 71.804C49.0457 72.0747 49.4143 72.476 49.6663 73.008C49.9277 73.54 50.0583 74.198 50.0583 74.982V75.472H44.2903V74.576H49.5403L48.7703 75.178V74.856C48.7703 74.016 48.6117 73.4047 48.2943 73.022C47.977 72.63 47.4777 72.434 46.7963 72.434C46.1057 72.434 45.597 72.63 45.2703 73.022C44.953 73.4047 44.7943 74.016 44.7943 74.856V75.654C44.7943 76.4753 44.953 77.082 45.2703 77.474C45.597 77.866 46.1057 78.062 46.7963 78.062C47.2443 78.062 47.5943 77.992 47.8463 77.852C48.1077 77.7027 48.2943 77.5253 48.4063 77.32C48.5183 77.1147 48.5743 76.9233 48.5743 76.746V76.69H49.9463C49.7783 77.4927 49.4237 78.104 48.8823 78.524C48.3503 78.9347 47.655 79.14 46.7963 79.14ZM54.711 79.14C54.011 79.14 53.409 78.9953 52.905 78.706C52.4104 78.4073 52.0277 77.9687 51.757 77.39C51.4957 76.8113 51.365 76.102 51.365 75.262C51.365 74.4127 51.4957 73.7033 51.757 73.134C52.0277 72.5553 52.4104 72.1213 52.905 71.832C53.409 71.5333 54.011 71.384 54.711 71.384C55.5977 71.384 56.3164 71.608 56.867 72.056C57.4177 72.504 57.763 73.162 57.903 74.03H56.573V73.96C56.573 73.736 56.5077 73.512 56.377 73.288C56.2557 73.0547 56.0597 72.8587 55.789 72.7C55.5184 72.5413 55.159 72.462 54.711 72.462C54.0577 72.462 53.5677 72.6533 53.241 73.036C52.9237 73.4187 52.765 74.0253 52.765 74.856V75.668C52.765 76.4893 52.9237 77.096 53.241 77.488C53.5677 77.8707 54.0577 78.062 54.711 78.062C55.159 78.062 55.5184 77.9827 55.789 77.824C56.0597 77.656 56.2557 77.4507 56.377 77.208C56.5077 76.9653 56.573 76.718 56.573 76.466V76.382H57.917C57.7957 77.278 57.455 77.964 56.895 78.44C56.3444 78.9067 55.6164 79.14 54.711 79.14ZM61.0184 79C60.4304 79 60.1364 78.7013 60.1364 78.104V71.524L60.6124 70.026H61.4524V77.992H63.2024V79H61.0184ZM58.7784 72.532V71.524H63.2024V72.532H58.7784ZM69.3282 79L67.3542 71.524H68.7122L70.3502 77.88H70.7282L72.3942 71.524H73.7242L75.3902 77.88H75.7542L77.3922 71.524H78.7082L76.7342 79H74.5222L73.2062 74.072H72.8562L71.5262 79H69.3282ZM80.4482 79V72.532H79.3422V71.524H81.7782V79H80.4482ZM80.3222 70.614V69.34H81.8622V70.614H80.3222ZM85.3406 79C84.7526 79 84.4586 78.7013 84.4586 78.104V71.524L84.9346 70.026H85.7746V77.992H87.5246V79H85.3406ZM83.1006 72.532V71.524H87.5246V72.532H83.1006ZM89.0819 79V70.348H88.1159V69.34H90.4119V70.95C90.4119 71.1647 90.3979 71.4027 90.3699 71.664C90.3512 71.9253 90.3186 72.2753 90.2719 72.714H90.6359C90.8039 72.2567 91.0512 71.9207 91.3779 71.706C91.7139 71.4913 92.1432 71.384 92.6659 71.384C93.4499 71.384 94.0379 71.6173 94.4299 72.084C94.8312 72.5507 95.0319 73.2367 95.0319 74.142V77.992H96.0119V79H93.7299V74.422C93.7299 73.7407 93.5946 73.246 93.3239 72.938C93.0532 72.6207 92.6332 72.462 92.0639 72.462C91.4946 72.462 91.0746 72.6207 90.8039 72.938C90.5426 73.246 90.4119 73.7407 90.4119 74.422V79H89.0819ZM105.143 74.31C105.143 73.6847 105.021 73.2227 104.779 72.924C104.536 72.616 104.158 72.462 103.645 72.462C103.141 72.462 102.763 72.616 102.511 72.924C102.259 73.2227 102.133 73.6847 102.133 74.31V79H100.831V72.532H99.8506V71.524H101.937V72.812H102.301C102.469 72.3267 102.711 71.9673 103.029 71.734C103.346 71.5007 103.752 71.384 104.247 71.384C104.751 71.384 105.161 71.5007 105.479 71.734C105.805 71.9673 106.053 72.3267 106.221 72.812H106.571C106.748 72.3267 106.995 71.9673 107.313 71.734C107.63 71.5007 108.05 71.384 108.573 71.384C109.301 71.384 109.851 71.6173 110.225 72.084C110.607 72.5507 110.799 73.2367 110.799 74.142V77.992H111.765V79H109.469V74.31C109.469 73.6847 109.347 73.2227 109.105 72.924C108.862 72.616 108.484 72.462 107.971 72.462C107.457 72.462 107.079 72.616 106.837 72.924C106.594 73.2227 106.473 73.6847 106.473 74.31V79H105.143V74.31ZM113.023 80.848V79.84H115.151L115.543 78.692H114.423L112.225 71.524H113.611L115.487 77.684H115.851L117.727 71.524H119.071L116.453 79.952C116.36 80.2413 116.239 80.4607 116.089 80.61C115.94 80.7687 115.716 80.848 115.417 80.848H113.023ZM125.139 79C124.551 79 124.257 78.7013 124.257 78.104V71.524L124.733 70.026H125.573V77.992H127.323V79H125.139ZM122.899 72.532V71.524H127.323V72.532H122.899ZM131.644 79.14C130.925 79.14 130.309 78.9907 129.796 78.692C129.292 78.3933 128.905 77.9547 128.634 77.376C128.373 76.7973 128.242 76.0927 128.242 75.262C128.242 74.422 128.373 73.7173 128.634 73.148C128.905 72.5693 129.292 72.1307 129.796 71.832C130.309 71.5333 130.925 71.384 131.644 71.384C132.335 71.384 132.923 71.524 133.408 71.804C133.893 72.0747 134.262 72.476 134.514 73.008C134.775 73.54 134.906 74.198 134.906 74.982V75.472H129.138V74.576H134.388L133.618 75.178V74.856C133.618 74.016 133.459 73.4047 133.142 73.022C132.825 72.63 132.325 72.434 131.644 72.434C130.953 72.434 130.445 72.63 130.118 73.022C129.801 73.4047 129.642 74.016 129.642 74.856V75.654C129.642 76.4753 129.801 77.082 130.118 77.474C130.445 77.866 130.953 78.062 131.644 78.062C132.092 78.062 132.442 77.992 132.694 77.852C132.955 77.7027 133.142 77.5253 133.254 77.32C133.366 77.1147 133.422 76.9233 133.422 76.746V76.69H134.794C134.626 77.4927 134.271 78.104 133.73 78.524C133.198 78.9347 132.503 79.14 131.644 79.14ZM138.537 79.14C137.799 79.14 137.221 78.958 136.801 78.594C136.381 78.2207 136.171 77.7073 136.171 77.054C136.171 76.382 136.39 75.8593 136.829 75.486C137.277 75.1127 137.93 74.884 138.789 74.8L140.875 74.59V75.486L139.167 75.654C138.597 75.71 138.182 75.836 137.921 76.032C137.659 76.2187 137.529 76.494 137.529 76.858V76.942C137.529 77.3153 137.659 77.6 137.921 77.796C138.191 77.9827 138.574 78.076 139.069 78.076C139.675 78.076 140.128 77.9453 140.427 77.684C140.725 77.4133 140.875 77.0073 140.875 76.466V75.304V75.108V74.226C140.875 73.61 140.749 73.162 140.497 72.882C140.254 72.602 139.857 72.462 139.307 72.462C138.915 72.462 138.597 72.5273 138.355 72.658C138.121 72.7793 137.949 72.938 137.837 73.134C137.734 73.33 137.683 73.5447 137.683 73.778V73.834H136.339C136.469 73.0127 136.782 72.4013 137.277 72C137.781 71.5893 138.467 71.384 139.335 71.384C140.277 71.384 140.991 71.622 141.477 72.098C141.962 72.5647 142.205 73.2553 142.205 74.17V77.992H143.171V79H141.967C141.379 79 141.085 78.706 141.085 78.118V77.74H140.735C140.548 78.216 140.277 78.5707 139.923 78.804C139.577 79.028 139.115 79.14 138.537 79.14ZM148.879 74.31C148.879 73.6847 148.758 73.2227 148.515 72.924C148.272 72.616 147.894 72.462 147.381 72.462C146.877 72.462 146.499 72.616 146.247 72.924C145.995 73.2227 145.869 73.6847 145.869 74.31V79H144.567V72.532H143.587V71.524H145.673V72.812H146.037C146.205 72.3267 146.448 71.9673 146.765 71.734C147.082 71.5007 147.488 71.384 147.983 71.384C148.487 71.384 148.898 71.5007 149.215 71.734C149.542 71.9673 149.789 72.3267 149.957 72.812H150.307C150.484 72.3267 150.732 71.9673 151.049 71.734C151.366 71.5007 151.786 71.384 152.309 71.384C153.037 71.384 153.588 71.6173 153.961 72.084C154.344 72.5507 154.535 73.2367 154.535 74.142V77.992H155.501V79H153.205V74.31C153.205 73.6847 153.084 73.2227 152.841 72.924C152.598 72.616 152.22 72.462 151.707 72.462C151.194 72.462 150.816 72.616 150.573 72.924C150.33 73.2227 150.209 73.6847 150.209 74.31V79H148.879V74.31ZM157.162 76.508L156.84 70.39V69.34H158.282V70.39L157.96 76.508H157.162ZM156.784 79V77.502H158.338V79H156.784ZM169.217 72.14V70.39H165.409V73.582H168.979V74.562H165.409V77.95H169.273V76.144H170.421V79H164.051V70.39H162.931V69.34H170.365V72.14H169.217ZM171.617 79V77.992H172.597L174.193 74.632L174.179 75.402L172.695 72.532H171.715V71.524H173.689L175.117 74.548H175.481L176.895 71.524H178.827V72.532H177.847L176.363 75.402V74.632L177.945 77.992H178.911V79H176.937L175.425 75.724H175.061L173.549 79H171.617ZM182.994 79.14C182.294 79.14 181.692 78.9953 181.188 78.706C180.694 78.4073 180.311 77.9687 180.04 77.39C179.779 76.8113 179.648 76.102 179.648 75.262C179.648 74.4127 179.779 73.7033 180.04 73.134C180.311 72.5553 180.694 72.1213 181.188 71.832C181.692 71.5333 182.294 71.384 182.994 71.384C183.881 71.384 184.6 71.608 185.15 72.056C185.701 72.504 186.046 73.162 186.186 74.03H184.856V73.96C184.856 73.736 184.791 73.512 184.66 73.288C184.539 73.0547 184.343 72.8587 184.072 72.7C183.802 72.5413 183.442 72.462 182.994 72.462C182.341 72.462 181.851 72.6533 181.524 73.036C181.207 73.4187 181.048 74.0253 181.048 74.856V75.668C181.048 76.4893 181.207 77.096 181.524 77.488C181.851 77.8707 182.341 78.062 182.994 78.062C183.442 78.062 183.802 77.9827 184.072 77.824C184.343 77.656 184.539 77.4507 184.66 77.208C184.791 76.9653 184.856 76.718 184.856 76.466V76.382H186.2C186.079 77.278 185.738 77.964 185.178 78.44C184.628 78.9067 183.9 79.14 182.994 79.14ZM188.224 79V72.532H187.118V71.524H189.554V79H188.224ZM188.098 70.614V69.34H189.638V70.614H188.098ZM193.116 79C192.528 79 192.234 78.7013 192.234 78.104V71.524L192.71 70.026H193.55V77.992H195.3V79H193.116ZM190.876 72.532V71.524H195.3V72.532H190.876ZM199.621 79.14C198.902 79.14 198.286 78.9907 197.773 78.692C197.269 78.3933 196.881 77.9547 196.611 77.376C196.349 76.7973 196.219 76.0927 196.219 75.262C196.219 74.422 196.349 73.7173 196.611 73.148C196.881 72.5693 197.269 72.1307 197.773 71.832C198.286 71.5333 198.902 71.384 199.621 71.384C200.311 71.384 200.899 71.524 201.385 71.804C201.87 72.0747 202.239 72.476 202.491 73.008C202.752 73.54 202.883 74.198 202.883 74.982V75.472H197.115V74.576H202.365L201.595 75.178V74.856C201.595 74.016 201.436 73.4047 201.119 73.022C200.801 72.63 200.302 72.434 199.621 72.434C198.93 72.434 198.421 72.63 198.095 73.022C197.777 73.4047 197.619 74.016 197.619 74.856V75.654C197.619 76.4753 197.777 77.082 198.095 77.474C198.421 77.866 198.93 78.062 199.621 78.062C200.069 78.062 200.419 77.992 200.671 77.852C200.932 77.7027 201.119 77.5253 201.231 77.32C201.343 77.1147 201.399 76.9233 201.399 76.746V76.69H202.771C202.603 77.4927 202.248 78.104 201.707 78.524C201.175 78.9347 200.479 79.14 199.621 79.14ZM207.115 79.14C206.527 79.14 206.009 78.9907 205.561 78.692C205.123 78.384 204.787 77.9407 204.553 77.362C204.32 76.7833 204.203 76.0833 204.203 75.262C204.203 74.4313 204.32 73.7313 204.553 73.162C204.787 72.5833 205.123 72.1447 205.561 71.846C206 71.538 206.518 71.384 207.115 71.384C207.657 71.384 208.1 71.5007 208.445 71.734C208.791 71.9673 209.066 72.3313 209.271 72.826H209.621C209.575 72.3873 209.537 72.0373 209.509 71.776C209.491 71.5147 209.481 71.2767 209.481 71.062V70.348H208.375V69.34H210.797V77.992H211.777V79H210.573C209.985 79 209.691 78.7013 209.691 78.104V77.614H209.327C209.122 78.118 208.837 78.5007 208.473 78.762C208.109 79.014 207.657 79.14 207.115 79.14ZM207.549 78.062C208.212 78.062 208.697 77.8707 209.005 77.488C209.323 77.096 209.481 76.4893 209.481 75.668V74.856C209.481 74.0253 209.323 73.4187 209.005 73.036C208.697 72.6533 208.212 72.462 207.549 72.462C206.877 72.462 206.383 72.6533 206.065 73.036C205.757 73.4187 205.603 74.0253 205.603 74.856V75.668C205.603 76.4893 205.757 77.096 206.065 77.488C206.383 77.8707 206.877 78.062 207.549 78.062ZM217.78 79C217.192 79 216.898 78.7013 216.898 78.104V71.524L217.374 70.026H218.214V77.992H219.964V79H217.78ZM215.54 72.532V71.524H219.964V72.532H215.54ZM224.313 79.14C223.594 79.14 222.978 78.9907 222.465 78.692C221.951 78.3933 221.559 77.9547 221.289 77.376C221.018 76.7973 220.883 76.0927 220.883 75.262C220.883 74.422 221.018 73.7173 221.289 73.148C221.559 72.5693 221.951 72.1307 222.465 71.832C222.978 71.5333 223.594 71.384 224.313 71.384C225.041 71.384 225.657 71.5333 226.161 71.832C226.665 72.1307 227.052 72.5693 227.323 73.148C227.593 73.7173 227.729 74.422 227.729 75.262C227.729 76.0927 227.593 76.7973 227.323 77.376C227.052 77.9547 226.665 78.3933 226.161 78.692C225.657 78.9907 225.041 79.14 224.313 79.14ZM224.313 78.062C225.003 78.062 225.512 77.866 225.839 77.474C226.165 77.082 226.329 76.4753 226.329 75.654V74.87C226.329 74.0487 226.165 73.442 225.839 73.05C225.512 72.658 225.003 72.462 224.313 72.462C223.613 72.462 223.099 72.658 222.773 73.05C222.446 73.442 222.283 74.0487 222.283 74.87V75.654C222.283 76.4753 222.446 77.082 222.773 77.474C223.099 77.866 223.613 78.062 224.313 78.062ZM229.311 79V77.502H230.865V79H229.311ZM232.139 79V77.502H233.693V79H232.139ZM234.967 79V77.502H236.521V79H234.967Z" fill="white"/>
<g clip-path="url(#clip0_107_56270)">
<path fill-rule="evenodd" clip-rule="evenodd" d="M29.1789 94.4417C28.3166 94.4417 27.5166 94.7972 26.9566 95.3839C26.6455 95.695 26.4055 96.0772 26.2544 96.5039C26.13 96.8239 26.0678 97.1794 26.0678 97.5528C26.0678 97.7137 26.0846 97.8728 26.1122 98.031C26.1353 98.1803 26.1726 98.3252 26.2153 98.4692V98.4701C26.2304 98.5199 26.2375 98.5714 26.2544 98.6194C26.2811 98.6905 26.3166 98.7705 26.3344 98.7972C26.3433 98.8239 26.3611 98.8594 26.3789 98.8861C26.5389 99.2505 26.77 99.5705 27.09 99.8461C27.1024 99.8568 27.202 99.9305 27.3513 100.027C27.3033 100.279 27.2046 100.523 27.0109 100.718C26.49 101.238 25.6455 101.238 25.1246 100.718C24.6046 100.197 24.6046 99.3528 25.1246 98.8319C25.1949 98.7625 25.2811 98.7261 25.3611 98.6754C25.2526 98.3234 25.1789 97.9394 25.1789 97.5528C25.1789 97.0861 25.258 96.6363 25.418 96.2194H22.7095L16.4998 102.428L23.4144 109.343L29.6233 103.133V97.5528C29.6233 96.8177 29.0251 96.2194 28.29 96.2194H27.402C27.81 95.6728 28.466 95.3305 29.1789 95.3305C30.4055 95.3305 31.4011 96.3261 31.4011 97.5528H32.29C32.29 95.8372 30.8944 94.4417 29.1789 94.4417" fill="#9698A2"/>
</g>
<rect x="30.5" y="92" width="96" height="20" rx="10" fill="#9698A2"/>
<path d="M38.776 102.8C38.776 102.056 38.876 101.412 39.076 100.868C39.276 100.324 39.544 99.876 39.88 99.524C40.224 99.164 40.612 98.9 41.044 98.732C41.476 98.556 41.924 98.468 42.388 98.468C42.836 98.468 43.204 98.516 43.492 98.612C43.788 98.7 44 98.8 44.128 98.912V100.52H43.9C43.788 100.4 43.628 100.288 43.42 100.184C43.212 100.08 42.956 100.028 42.652 100.028C42.236 100.028 41.868 100.136 41.548 100.352C41.228 100.56 40.976 100.872 40.792 101.288C40.616 101.696 40.528 102.2 40.528 102.8C40.528 103.4 40.616 103.908 40.792 104.324C40.976 104.732 41.228 105.044 41.548 105.26C41.868 105.468 42.236 105.572 42.652 105.572C42.956 105.572 43.212 105.52 43.42 105.416C43.628 105.312 43.788 105.2 43.9 105.08H44.128V106.688C44 106.792 43.788 106.892 43.492 106.988C43.204 107.084 42.836 107.132 42.388 107.132C41.924 107.132 41.476 107.048 41.044 106.88C40.612 106.704 40.224 106.44 39.88 106.088C39.544 105.728 39.276 105.276 39.076 104.732C38.876 104.188 38.776 103.544 38.776 102.8ZM44.776 102.8C44.776 101.784 44.94 100.956 45.268 100.316C45.596 99.676 46.024 99.208 46.552 98.912C47.088 98.608 47.668 98.456 48.292 98.456C48.916 98.456 49.492 98.608 50.02 98.912C50.556 99.208 50.988 99.676 51.316 100.316C51.644 100.956 51.808 101.784 51.808 102.8C51.808 103.816 51.644 104.644 51.316 105.284C50.988 105.924 50.556 106.396 50.02 106.7C49.492 106.996 48.916 107.144 48.292 107.144C47.668 107.144 47.088 106.996 46.552 106.7C46.024 106.396 45.596 105.924 45.268 105.284C44.94 104.644 44.776 103.816 44.776 102.8ZM46.528 102.8C46.528 103.408 46.604 103.916 46.756 104.324C46.916 104.732 47.128 105.04 47.392 105.248C47.664 105.448 47.964 105.548 48.292 105.548C48.62 105.548 48.92 105.448 49.192 105.248C49.472 105.04 49.692 104.732 49.852 104.324C50.012 103.916 50.092 103.408 50.092 102.8C50.092 102.184 50.008 101.672 49.84 101.264C49.68 100.856 49.464 100.552 49.192 100.352C48.92 100.152 48.624 100.052 48.304 100.052C47.968 100.052 47.664 100.156 47.392 100.364C47.128 100.572 46.916 100.88 46.756 101.288C46.604 101.688 46.528 102.192 46.528 102.8ZM52.6818 98.6H54.3618V105.464H56.6538V107H52.6818V98.6ZM57.3927 98.6H59.0727V105.464H61.3647V107H57.3927V98.6ZM61.6116 107V106.724L63.3636 98.6L66.3516 98.612L68.1156 106.724V107H66.3636L65.9796 104.888H63.7476L63.3516 107H61.6116ZM63.9756 103.412H65.7396L65.1516 100.196H64.5636L63.9756 103.412ZM68.7833 107V98.6H72.1793C72.7873 98.6 73.2753 98.78 73.6433 99.14C74.0193 99.492 74.2073 99.972 74.2073 100.58C74.2073 100.948 74.1433 101.26 74.0153 101.516C73.8953 101.764 73.7433 101.96 73.5593 102.104C73.3753 102.24 73.1993 102.336 73.0313 102.392V102.476C73.2473 102.532 73.4673 102.648 73.6913 102.824C73.9153 103 74.1033 103.236 74.2553 103.532C74.4153 103.828 74.4953 104.196 74.4953 104.636C74.4953 105.156 74.3913 105.592 74.1833 105.944C73.9833 106.296 73.7033 106.56 73.3433 106.736C72.9833 106.912 72.5633 107 72.0833 107H68.7833ZM70.4633 105.476H71.7233C72.0273 105.476 72.2713 105.388 72.4553 105.212C72.6393 105.028 72.7313 104.764 72.7313 104.42C72.7313 104.092 72.6353 103.84 72.4433 103.664C72.2513 103.48 72.0113 103.388 71.7233 103.388H70.4633V105.476ZM70.4633 102.068H71.6993C71.9553 102.068 72.1633 101.98 72.3233 101.804C72.4833 101.62 72.5633 101.372 72.5633 101.06C72.5633 100.74 72.4833 100.492 72.3233 100.316C72.1633 100.14 71.9553 100.052 71.6993 100.052H70.4633V102.068ZM74.9518 102.8C74.9518 101.784 75.1158 100.956 75.4438 100.316C75.7718 99.676 76.1998 99.208 76.7278 98.912C77.2638 98.608 77.8438 98.456 78.4678 98.456C79.0918 98.456 79.6678 98.608 80.1958 98.912C80.7318 99.208 81.1638 99.676 81.4918 100.316C81.8198 100.956 81.9838 101.784 81.9838 102.8C81.9838 103.816 81.8198 104.644 81.4918 105.284C81.1638 105.924 80.7318 106.396 80.1958 106.7C79.6678 106.996 79.0918 107.144 78.4678 107.144C77.8438 107.144 77.2638 106.996 76.7278 106.7C76.1998 106.396 75.7718 105.924 75.4438 105.284C75.1158 104.644 74.9518 103.816 74.9518 102.8ZM76.7038 102.8C76.7038 103.408 76.7798 103.916 76.9318 104.324C77.0918 104.732 77.3038 105.04 77.5678 105.248C77.8398 105.448 78.1398 105.548 78.4678 105.548C78.7958 105.548 79.0958 105.448 79.3678 105.248C79.6478 105.04 79.8678 104.732 80.0278 104.324C80.1878 103.916 80.2678 103.408 80.2678 102.8C80.2678 102.184 80.1838 101.672 80.0158 101.264C79.8558 100.856 79.6398 100.552 79.3678 100.352C79.0958 100.152 78.7998 100.052 78.4798 100.052C78.1438 100.052 77.8398 100.156 77.5678 100.364C77.3038 100.572 77.0918 100.88 76.9318 101.288C76.7798 101.688 76.7038 102.192 76.7038 102.8ZM82.8815 98.6H84.5615V107H82.8575L82.8815 98.6ZM85.9295 98.6C86.4095 98.6 86.8335 98.696 87.2015 98.888C87.5775 99.072 87.8735 99.356 88.0895 99.74C88.3055 100.116 88.4135 100.588 88.4135 101.156C88.4135 101.74 88.2935 102.228 88.0535 102.62C87.8215 103.004 87.5175 103.296 87.1415 103.496C86.7735 103.688 86.3775 103.784 85.9535 103.784H83.6735V98.6H85.9295ZM84.5375 102.332H85.7255C85.9175 102.332 86.0855 102.288 86.2295 102.2C86.3735 102.112 86.4815 101.984 86.5535 101.816C86.6335 101.64 86.6735 101.444 86.6735 101.228C86.6735 100.996 86.6335 100.8 86.5535 100.64C86.4815 100.472 86.3735 100.348 86.2295 100.268C86.0855 100.18 85.9175 100.136 85.7255 100.136H84.5375V102.332ZM85.2095 102.872L86.8175 102.836L88.4135 106.724V107H86.6615L85.2095 102.872ZM88.7991 107V106.724L90.5511 98.6L93.5391 98.612L95.3031 106.724V107H93.5511L93.1671 104.888H90.9351L90.5391 107H88.7991ZM91.1631 103.412H92.9271L92.3391 100.196H91.7511L91.1631 103.412ZM100.447 98.6V100.148H98.8388V107H97.1588V100.148H95.5268V98.6H100.447ZM101.162 98.6H102.842V107H101.162V98.6ZM103.733 102.8C103.733 101.784 103.897 100.956 104.225 100.316C104.553 99.676 104.981 99.208 105.509 98.912C106.045 98.608 106.625 98.456 107.249 98.456C107.873 98.456 108.449 98.608 108.977 98.912C109.513 99.208 109.945 99.676 110.273 100.316C110.601 100.956 110.765 101.784 110.765 102.8C110.765 103.816 110.601 104.644 110.273 105.284C109.945 105.924 109.513 106.396 108.977 106.7C108.449 106.996 107.873 107.144 107.249 107.144C106.625 107.144 106.045 106.996 105.509 106.7C104.981 106.396 104.553 105.924 104.225 105.284C103.897 104.644 103.733 103.816 103.733 102.8ZM105.485 102.8C105.485 103.408 105.561 103.916 105.713 104.324C105.873 104.732 106.085 105.04 106.349 105.248C106.621 105.448 106.921 105.548 107.249 105.548C107.577 105.548 107.877 105.448 108.149 105.248C108.429 105.04 108.649 104.732 108.809 104.324C108.969 103.916 109.049 103.408 109.049 102.8C109.049 102.184 108.965 101.672 108.797 101.264C108.637 100.856 108.421 100.552 108.149 100.352C107.877 100.152 107.581 100.052 107.261 100.052C106.925 100.052 106.621 100.156 106.349 100.364C106.085 100.572 105.873 100.88 105.713 101.288C105.561 101.688 105.485 102.192 105.485 102.8ZM115.611 98.6H117.255V107H115.419L113.343 101.792H113.211L113.283 107H111.639V98.6H113.475L115.551 103.88H115.683L115.611 98.6Z" fill="black"/>
<rect x="124.5" y="92" width="71" height="20" rx="10" fill="#9698A2"/>
<path d="M137.564 98.6V100.148H135.956V107H134.276V100.148H132.644V98.6H137.564ZM142.587 98.6V100.136H139.959V102.188C140.207 102.092 140.467 102.016 140.739 101.96C141.019 101.904 141.295 101.868 141.567 101.852C141.839 101.836 142.091 101.844 142.323 101.876V103.352L142.215 103.424C142.031 103.368 141.815 103.336 141.567 103.328C141.327 103.32 141.067 103.336 140.787 103.376C140.507 103.416 140.231 103.484 139.959 103.58V105.464H142.587V107H138.279V98.6H142.587ZM143.002 107V106.724L144.754 98.6L147.742 98.612L149.506 106.724V107H147.754L147.37 104.888H145.138L144.742 107H143.002ZM145.366 103.412H147.13L146.542 100.196H145.954L145.366 103.412ZM150.174 107V98.6H152.766L153.87 103.928H153.954L155.046 98.6H157.626V107H155.994L156.042 100.868H155.91L154.554 107H153.258L151.89 100.868H151.758L151.818 107H150.174ZM158.366 98.6H160.106L160.874 104.732H161.006L161.846 98.6H163.478L164.318 104.732H164.462L165.218 98.6H166.958V98.876L165.65 107H163.382L162.734 101.684H162.602L161.942 107H159.674L158.366 98.876V98.6ZM167.37 102.8C167.37 101.784 167.534 100.956 167.862 100.316C168.19 99.676 168.618 99.208 169.146 98.912C169.682 98.608 170.262 98.456 170.886 98.456C171.51 98.456 172.086 98.608 172.614 98.912C173.15 99.208 173.582 99.676 173.91 100.316C174.238 100.956 174.402 101.784 174.402 102.8C174.402 103.816 174.238 104.644 173.91 105.284C173.582 105.924 173.15 106.396 172.614 106.7C172.086 106.996 171.51 107.144 170.886 107.144C170.262 107.144 169.682 106.996 169.146 106.7C168.618 106.396 168.19 105.924 167.862 105.284C167.534 104.644 167.37 103.816 167.37 102.8ZM169.122 102.8C169.122 103.408 169.198 103.916 169.35 104.324C169.51 104.732 169.722 105.04 169.986 105.248C170.258 105.448 170.558 105.548 170.886 105.548C171.214 105.548 171.514 105.448 171.786 105.248C172.066 105.04 172.286 104.732 172.446 104.324C172.606 103.916 172.686 103.408 172.686 102.8C172.686 102.184 172.602 101.672 172.434 101.264C172.274 100.856 172.058 100.552 171.786 100.352C171.514 100.152 171.218 100.052 170.898 100.052C170.562 100.052 170.258 100.156 169.986 100.364C169.722 100.572 169.51 100.88 169.35 101.288C169.198 101.688 169.122 102.192 169.122 102.8ZM175.3 98.6H176.98V107H175.276L175.3 98.6ZM178.348 98.6C178.828 98.6 179.252 98.696 179.62 98.888C179.996 99.072 180.292 99.356 180.508 99.74C180.724 100.116 180.832 100.588 180.832 101.156C180.832 101.74 180.712 102.228 180.472 102.62C180.24 103.004 179.936 103.296 179.56 103.496C179.192 103.688 178.796 103.784 178.372 103.784H176.092V98.6H178.348ZM176.956 102.332H178.144C178.336 102.332 178.504 102.288 178.648 102.2C178.792 102.112 178.9 101.984 178.972 101.816C179.052 101.64 179.092 101.444 179.092 101.228C179.092 100.996 179.052 100.8 178.972 100.64C178.9 100.472 178.792 100.348 178.648 100.268C178.504 100.18 178.336 100.136 178.144 100.136H176.956V102.332ZM177.628 102.872L179.236 102.836L180.832 106.724V107H179.08L177.628 102.872ZM181.709 107V98.6H183.413V101.924H183.653L185.489 98.6H187.253V98.876L184.985 102.74L187.253 106.724V107H185.489L183.653 103.58H183.413V107H181.709Z" fill="black"/>
<defs>
<clipPath id="clip0_107_56270">
<rect width="16" height="16" fill="white" transform="translate(16.5 94)"/>
</clipPath>
</defs>
</svg>
